<svg id="Capa_1" enable-background="new 0 0 512 512" height="512" viewBox="0 0 512 512" width="512" xmlns="http://www.w3.org/2000/svg" xmlns:xlink="http://www.w3.org/1999/xlink"><linearGradient id="SVGID_1_" gradientUnits="userSpaceOnUse" x1="5.399" x2="506.601" y1="256" y2="256"><stop offset="0" stop-color="#ffdbed"/><stop offset="1" stop-color="#dcfdee"/></linearGradient><g><g><g><path d="m461.173 27.352c-63.757-37.987-146.258-35.878-208.873 3.041-35.18 21.866-62.374 53.403-93.212 80.552-27.022 23.789-58.445 40.758-86.353 63.204-101.21 81.403-91.553 300.961 50.962 330.125 61.777 12.642 146.21 16.696 182.519-43.642 34.62-57.531 46.232-116.383 113.876-146.942 23.573-10.65 62.975-10.113 78.944-33.45 20.152-29.45-4.853-60.043-18.192-85.707-17.19-33.074-20.795-65.682-8.699-101.16 10.298-30.211 17.549-43.782-10.972-66.021z" fill="url(#SVGID_1_)"/></g><g><g><path d="m463.513 222.682h-8.241l-13.176-54.652c-.977-4.055-4.605-6.912-8.776-6.912h-59.71v-34.918c7.891 5.608 18.406 7.139 27.987 3.124 11.754-4.926 18.545-16.696 17.704-28.739-7.997-9.044-21.147-12.446-32.901-7.52-9.056 3.796-15.15 11.66-17.09 20.58-.231-.033-.461-.071-.701-.071-.028 0-.054.008-.082.008-.746-13.001-8.682-25.077-21.496-30.448-14.273-5.982-30.242-1.851-39.952 9.131-1.021 14.624 7.226 28.916 21.498 34.898 12.062 5.056 25.346 2.873 35.032-4.562v38.514h-59.683c-4.171 0-7.798 2.857-8.776 6.912l-13.176 54.652h-8.241c-2.493 0-4.514 2.021-4.514 4.514v16.136c0 2.493 2.021 4.514 4.514 4.514h8.245v37.572c-8.033-3.224-16.795-5.015-25.98-5.015s-17.947 1.792-25.98 5.015v-37.572h8.245c2.493 0 4.514-2.021 4.514-4.514v-16.136c0-2.493-2.021-4.514-4.514-4.514h-8.241l-13.176-54.652c-.977-4.055-4.605-6.912-8.776-6.912h-59.71v-34.915c7.891 5.608 18.406 7.139 27.987 3.124 11.754-4.926 18.545-16.696 17.704-28.739-7.997-9.044-21.147-12.446-32.901-7.52-9.056 3.796-15.15 11.66-17.09 20.58-.231-.033-.461-.071-.7-.071-.028 0-.054.008-.082.008-.745-13.001-8.682-25.077-21.496-30.448-14.273-5.982-30.242-1.851-39.952 9.131-1.021 14.624 7.226 28.916 21.498 34.898 12.062 5.056 25.346 2.873 35.032-4.562v38.515h-59.68c-4.171 0-7.798 2.857-8.776 6.912l-13.176 54.652h-8.241c-2.493 0-4.514 2.021-4.514 4.514v16.136c0 2.493 2.021 4.514 4.514 4.514h8.243v198.734c0 4.99 4.04 9.03 9.03 9.03h155.24c4.98 0 9.02-4.04 9.02-9.03v-31.567c8.033 3.224 16.795 5.015 25.98 5.015s17.947-1.792 25.98-5.015v31.567c0 4.99 4.04 9.03 9.02 9.03h155.24c4.99 0 9.03-4.04 9.03-9.03v-198.733h8.243c2.493 0 4.514-2.021 4.514-4.514v-16.136c-.001-2.493-2.021-4.513-4.514-4.513z" fill="#2626bc" opacity=".1"/><g><g><g><path d="m230.02 223.849v198.73c0 4.99-4.04 9.03-9.02 9.03h-155.24c-4.99 0-9.03-4.04-9.03-9.03v-198.73z" fill="#97ffd2"/><path d="m91.1 385.564h-34.37v-81.172h34.37c2.761 0 5 2.239 5 5v71.172c0 2.761-2.238 5-5 5z" fill="#ff7eb8"/><path d="m230.02 285.399v129.63c-25.69-10.3-43.83-35.44-43.83-64.81 0-29.38 18.14-54.52 43.83-64.82z" fill="#02ffb3"/><path d="m56.728 223.845h173.295v20.404h-173.295z" fill="#02ffb3"/><g><path d="m69.904 144.03-13.176 54.652h173.295l-13.176-54.652c-.977-4.054-4.605-6.912-8.776-6.912h-129.391c-4.171 0-7.798 2.857-8.776 6.912z" fill="#97ffd2"/><path d="m190.652 198.682h-94.552v-28.136c0-4.986 4.042-9.027 9.027-9.027h76.497c4.986 0 9.027 4.042 9.027 9.027v28.136z" fill="#4369fd"/></g><path d="m238.265 223.845h-189.778c-2.493 0-4.514-2.021-4.514-4.514v-16.136c0-2.493 2.021-4.514 4.514-4.514h189.778c2.493 0 4.514 2.021 4.514 4.514v16.136c0 2.493-2.021 4.514-4.514 4.514z" fill="#9fb0fe"/></g><g><path d="m121.785 59.136c-14.273-5.982-30.242-1.851-39.952 9.131-1.021 14.624 7.226 28.916 21.498 34.898 14.264 5.978 30.236 1.837 39.947-9.145 1.021-14.623-7.23-28.906-21.493-34.884z" fill="#02ffb3"/><path d="m161.153 69.066c11.754-4.926 24.904-1.524 32.901 7.52.841 12.043-5.95 23.812-17.704 28.739-11.746 4.923-24.9 1.513-32.897-7.531-.841-12.043 5.954-23.805 17.7-28.728z" fill="#00d890"/></g></g><g><g><path d="m455.27 223.849v198.73c0 4.99-4.04 9.03-9.03 9.03h-155.24c-4.98 0-9.02-4.04-9.02-9.03v-198.73z" fill="#ff7eb8"/><path d="m420.9 385.564h34.37v-81.172h-34.37c-2.761 0-5 2.239-5 5v71.172c0 2.761 2.238 5 5 5z" fill="#8399fe"/><path d="m325.81 350.219c0 29.37-18.14 54.51-43.83 64.81v-129.63c25.69 10.3 43.83 35.44 43.83 64.82z" fill="#ff5ba8"/><path d="m281.976 223.845h173.295v20.404h-173.295z" fill="#ff5ba8"/><g><path d="m295.152 144.03-13.176 54.652h173.295l-13.176-54.652c-.977-4.054-4.605-6.912-8.776-6.912h-129.391c-4.171 0-7.799 2.857-8.776 6.912z" fill="#ff7eb8"/><path d="m415.9 198.682h-94.552v-28.136c0-4.986 4.042-9.027 9.027-9.027h76.497c4.986 0 9.027 4.042 9.027 9.027v28.136z" fill="#4369fd"/></g><path d="m463.513 223.845h-189.778c-2.493 0-4.514-2.021-4.514-4.514v-16.136c0-2.493 2.021-4.514 4.514-4.514h189.778c2.493 0 4.514 2.021 4.514 4.514v16.136c-.001 2.493-2.021 4.514-4.514 4.514z" fill="#9fb0fe"/></g><g><path d="m347.033 59.136c-14.273-5.982-30.242-1.851-39.952 9.131-1.021 14.624 7.226 28.916 21.498 34.898 14.264 5.978 30.236 1.837 39.947-9.145 1.021-14.623-7.23-28.906-21.493-34.884z" fill="#02ffb3"/><path d="m386.401 69.066c11.754-4.926 24.904-1.524 32.901 7.52.841 12.043-5.95 23.812-17.704 28.739-11.746 4.923-24.9 1.513-32.897-7.531-.841-12.043 5.954-23.805 17.7-28.728z" fill="#00d890"/></g></g></g><g><circle cx="256" cy="326.214" fill="#fff" r="69.813"/><path d="m463.513 193.682h-4.303l-12.253-50.823c-1.524-6.324-7.131-10.74-13.636-10.74h-31.699c-2.761 0-5 2.239-5 5s2.239 5 5 5h31.699c1.867 0 3.477 1.268 3.915 3.083l11.688 48.48h-75.314v-85.551c5.127 2.917 10.922 4.448 16.796 4.448 4.415 0 8.874-.862 13.124-2.643 13.431-5.629 21.773-19.171 20.759-33.698-.077-1.098-.513-2.14-1.242-2.964-9.643-10.905-25.147-14.451-38.58-8.819-5.786 2.425-10.621 6.325-14.176 11.134-4.035-9.296-11.534-16.959-21.326-21.063-15.888-6.66-34.227-2.467-45.631 10.431-.729.824-1.166 1.866-1.242 2.963-1.2 17.182 8.667 33.2 24.554 39.858 5.027 2.107 10.299 3.127 15.521 3.126 7.558 0 15.003-2.146 21.443-6.212v27.427h-59.683c-6.504 0-12.112 4.417-13.637 10.74l-12.253 50.824h-4.303c-5.246 0-9.514 4.268-9.514 9.514v16.136c0 5.246 4.268 9.514 9.514 9.514h3.241v25.57c-6.66-1.949-13.694-3.014-20.976-3.014s-14.316 1.065-20.976 3.014v-25.57h3.241c5.246 0 9.514-4.268 9.514-9.514v-16.136c0-5.246-4.268-9.514-9.514-9.514h-4.303l-12.253-50.824c-1.524-6.323-7.132-10.74-13.637-10.74h-59.709v-23.987c5.127 2.917 10.922 4.448 16.797 4.448 4.414 0 8.873-.862 13.123-2.643 13.431-5.629 21.773-19.172 20.759-33.699-.077-1.098-.513-2.139-1.242-2.963-9.643-10.905-25.146-14.451-38.579-8.819-5.787 2.425-10.621 6.325-14.176 11.134-4.035-9.296-11.534-16.959-21.326-21.063-15.885-6.658-34.225-2.468-45.63 10.431-.729.824-1.166 1.866-1.242 2.963-1.2 17.182 8.667 33.2 24.553 39.858 5.027 2.107 10.3 3.127 15.521 3.126 7.558 0 15.004-2.147 21.443-6.212v27.427h-59.683c-6.505 0-12.112 4.417-13.636 10.74l-12.253 50.824h-4.303c-5.246 0-9.514 4.268-9.514 9.514v16.136c0 5.246 4.268 9.514 9.514 9.514h176.537v29.297c-25.832 11.802-43.837 37.866-43.837 68.072s18.005 56.27 43.837 68.072v28.297c0 2.221-1.807 4.027-4.027 4.027h-155.242c-2.221 0-4.027-1.807-4.027-4.027v-166.914c0-2.761-2.239-5-5-5s-5 2.239-5 5v166.911c0 7.735 6.292 14.027 14.027 14.027h155.241c7.735 0 14.027-6.292 14.027-14.027v-24.57c6.66 1.949 13.694 3.014 20.976 3.014s14.316-1.065 20.976-3.014v24.57c0 7.735 6.292 14.027 14.027 14.027h155.241c7.735 0 14.027-6.292 14.027-14.027v-193.738h3.241c5.246 0 9.514-4.268 9.514-9.514v-16.136c0-5.246-4.267-9.513-9.513-9.513zm-300.428-120.005c8.947-3.75 19.196-1.733 26.039 4.975-.014 9.587-5.761 18.312-14.707 22.062-8.94 3.748-19.188 1.727-26.035-4.985.016-9.583 5.761-18.304 14.703-22.052zm-57.822 24.877c-11.403-4.779-18.678-15.978-18.514-28.226 8.614-8.7 21.698-11.36 33.103-6.581 11.4 4.778 18.672 15.971 18.509 28.213-8.617 8.704-21.7 11.371-33.098 6.594zm102.809 43.564c1.868 0 3.478 1.268 3.915 3.083l11.688 48.48h-75.313v-51.563zm-133.307 3.084c.438-1.816 2.047-3.083 3.915-3.083h59.683v51.563h-75.286zm-25.791 58.48h188.805v15.163h-188.805zm339.359-130.005c8.947-3.75 19.197-1.734 26.04 4.975-.015 9.588-5.762 18.312-14.708 22.062-8.943 3.747-19.189 1.727-26.035-4.985.015-9.584 5.76-18.304 14.703-22.052zm-57.822 24.877c-11.403-4.779-18.678-15.979-18.515-28.226 8.614-8.699 21.699-11.36 33.104-6.581 11.399 4.778 18.672 15.972 18.509 28.213-8.618 8.704-21.7 11.372-33.098 6.594zm-30.498 46.648c.438-1.815 2.047-3.083 3.915-3.083h59.683v51.563h-75.286zm-108.826 181.012c0-35.738 29.075-64.813 64.813-64.813s64.813 29.075 64.813 64.813-29.075 64.813-64.813 64.813-64.813-29.075-64.813-64.813zm259.084 96.369c0 2.221-1.807 4.027-4.027 4.027h-155.241c-2.221 0-4.027-1.807-4.027-4.027v-28.297c25.832-11.802 43.837-37.866 43.837-68.072 0-30.207-18.005-56.27-43.837-68.072v-29.297h163.295zm12.755-203.738h-188.805v-15.163h188.805z" fill="#2626bc"/><path d="m279.038 317.204h-17.889v-35.071c0-1.635-2.196-2.169-2.947-.716l-26.627 51.532c-.537 1.039.217 2.277 1.386 2.277h17.889v35.071c0 1.635 2.196 2.169 2.947.716l26.627-51.532c.537-1.039-.217-2.277-1.386-2.277z" fill="#9fb0fe"/></g></g><path d="m256 134.581c-2.761 0-5-2.239-5-5 0-3.309-2.691-6-6-6-2.761 0-5-2.239-5-5s2.239-5 5-5c3.309 0 6-2.691 6-6 0-2.761 2.239-5 5-5s5 2.239 5 5c0 3.309 2.691 6 6 6 2.761 0 5 2.239 5 5s-2.239 5-5 5c-3.309 0-6 2.691-6 6 0 2.761-2.239 5-5 5z" fill="#6583fe"/><path d="m231.399 72.153c-2.761 0-5-2.239-5-5 0-3.309-2.692-6-6-6-2.761 0-5-2.239-5-5s2.239-5 5-5c3.309 0 6-2.692 6-6 0-2.761 2.239-5 5-5s5 2.239 5 5c0 3.309 2.691 6 6 6 2.761 0 5 2.239 5 5s-2.239 5-5 5c-3.308 0-6 2.691-6 6 0 2.761-2.238 5-5 5z" fill="#01eca5"/><g fill="#ff7eb8"><path d="m256 480.999c-2.761 0-5-2.239-5-5 0-3.309-2.691-6-6-6-2.761 0-5-2.239-5-5s2.239-5 5-5c3.309 0 6-2.691 6-6 0-2.761 2.239-5 5-5s5 2.239 5 5c0 3.309 2.691 6 6 6 2.761 0 5 2.239 5 5s-2.239 5-5 5c-3.309 0-6 2.691-6 6 0 2.761-2.239 5-5 5z"/><path d="m46.506 128.49c-1.28 0-2.559-.488-3.536-1.464-1.953-1.953-1.953-5.118 0-7.071l3.328-3.328-5.002-3.173c-1.282-.813-2.125-2.164-2.292-3.673s.361-3.012 1.434-4.085l7.742-7.742c1.954-1.952 5.119-1.952 7.071 0 1.953 1.953 1.953 5.119 0 7.071l-3.328 3.328 5.002 3.172c1.282.813 2.125 2.164 2.292 3.673s-.361 3.011-1.434 4.085l-7.742 7.742c-.976.976-2.255 1.465-3.535 1.465z"/></g></g></g><path d="m479.213 340.729c-1.28 0-2.559-.488-3.536-1.464-1.953-1.953-1.953-5.118 0-7.071l3.328-3.328-5.002-3.173c-1.282-.813-2.125-2.164-2.292-3.673s.361-3.012 1.434-4.085l7.742-7.742c1.953-1.952 5.118-1.952 7.071 0 1.953 1.953 1.953 5.119 0 7.071l-3.328 3.327 5.002 3.173c1.282.813 2.125 2.164 2.292 3.673s-.361 3.011-1.434 4.085l-7.742 7.742c-.975.977-2.255 1.465-3.535 1.465z" fill="#01eca5"/></g></svg>