<svg id="Capa_1" enable-background="new 0 0 512 512" height="512" viewBox="0 0 512 512" width="512" xmlns="http://www.w3.org/2000/svg" xmlns:xlink="http://www.w3.org/1999/xlink"><linearGradient id="SVGID_1_" gradientUnits="userSpaceOnUse" x1="53.976" x2="458.024" y1="256" y2="256"><stop offset=".0485" stop-color="#d2deff"/><stop offset=".9993" stop-color="#dcfdee"/></linearGradient><g><g><path d="m170.091.39c-68.061 4.435-134.218 61.127-111.592 135.073 18.265 59.691 84.702 87.73 134.671 115.676 47.928 26.805 98.6 60.229 112.037 117.192 9.247 39.199-2.084 84.916 22.012 117.187 42.331 56.693 124.077 13.634 130.314-47.258 5.176-50.542-31.51-94.701-65.828-132.165-33.267-36.317-70.462-71.374-99.992-110.843-27.345-36.55-41.639-81.985-5.379-118.188 8.145-8.132 17.848-16.505 14.872-29.734-9.77-43.394-97.816-49.109-131.115-46.94z" fill="url(#SVGID_1_)"/></g><g><g><g><g fill="#2626bc"><path d="m465.888 47.002h-31.189c-5.523 0-10 4.477-10 10v82.912h-93.567v-82.912c0-5.523-4.477-10-10-10h-31.189c-5.523 0-10 4.477-10 10v88.393c-7.031-4.115-15.208-6.484-23.943-6.484-25.67 0-46.57 20.373-47.443 45.831h-17.689c-5.523 0-10 4.477-10 10v82.912h-93.567v-82.912c0-5.523-4.477-10-10-10h-31.189c-5.523 0-10 4.477-10 10v284.256c0 5.523 4.477 10 10 10h175.945c5.523 0 10-4.477 10-10v-46.172h55.961c2.761 0 5-2.239 5-5v-42.035c0-2.761-2.239-5-5-5h-55.961v-153.394c7.031 4.115 15.208 6.484 23.943 6.484s16.912-2.369 23.943-6.484v113.861c0 5.523 4.477 10 10 10h175.945c5.523 0 10-4.477 10-10v-284.256c0-5.522-4.477-10-10-10z" opacity=".1"/><g opacity=".1"><path d="m372.459 381.976-10.041-10.041c-1.951-1.952-5.119-1.952-7.07 0l-10.041 10.041c-1.953 1.953-1.953 5.119 0 7.071 1.951 1.952 5.119 1.952 7.07 0l1.106-1.106c-4.201 44.082-41.431 78.678-86.595 78.678-2.762 0-5 2.239-5 5s2.238 5 5 5c50.919 0 92.798-39.44 96.697-89.376l1.804 1.804c.976.976 2.256 1.464 3.535 1.464s2.56-.488 3.535-1.464c1.953-1.952 1.953-5.118 0-7.071z"/><path d="m245.113 53.382c-50.919 0-92.798 39.44-96.697 89.375l-1.804-1.804c-1.953-1.952-5.118-1.952-7.071 0-1.953 1.953-1.953 5.119 0 7.071l10.041 10.041c.977.976 2.256 1.464 3.536 1.464s2.559-.488 3.536-1.464l10.041-10.041c1.953-1.953 1.953-5.119 0-7.071s-5.118-1.952-7.071 0l-1.106 1.106c4.201-44.082 41.432-78.677 86.596-78.677 2.761 0 5-2.239 5-5s-2.24-5-5.001-5z"/></g></g><g><g><g><path d="m232.06 170.741v284.26c0 5.52-4.48 10-10 10h-175.95c-5.52 0-10-4.48-10-10v-284.26c0-5.52 4.48-10 10-10h31.19c5.52 0 10 4.48 10 10v82.91h93.57v-82.91c0-5.52 4.48-10 10-10h31.19c5.52 0 10 4.48 10 10z" fill="#d2deff"/><g fill="#b7c5ff"><path d="m232.06 170.741v56.67c-14.08-8.23-23.54-23.52-23.54-41.01 0-9.46 2.76-18.26 7.52-25.66h6.02c5.52 0 10 4.48 10 10z"/><path d="m232.06 380.791v52.04h-27.04c-2.76 0-5-2.24-5-5v-42.04c0-2.76 2.24-5 5-5z"/></g></g><g><g><path d="m171.599 356.752c0-24.322-15.689-44.958-37.507-52.361-21.817 7.404-37.522 28.039-37.522 52.361 0 24.306 15.705 44.942 37.522 52.345 21.817-7.403 37.507-28.039 37.507-52.345z" fill="#02ffb3"/><path d="m152.078 359.731c-1.511-2.311-4.609-2.958-6.921-1.447l-6.064 3.967v-29.391c0-2.761-2.239-5-5-5s-5 2.239-5 5v12.148l-5.144-3.006c-2.385-1.394-5.447-.59-6.84 1.794s-.59 5.447 1.794 6.84l10.189 5.955v52.508c0 2.761 2.239 5 5 5s5-2.239 5-5v-34.897l11.539-7.548c2.311-1.512 2.959-4.612 1.447-6.923z" fill="#00b574"/></g></g></g><g><g><path d="m475.89 33.001v284.26c0 5.52-4.48 10-10 10h-175.95c-5.52 0-10-4.48-10-10v-284.26c0-5.52 4.48-10 10-10h31.19c5.52 0 10 4.48 10 10v82.91h93.57v-82.91c0-5.52 4.48-10 10-10h31.19c5.52 0 10 4.48 10 10z" fill="#ff7eb8"/><path d="m303.48 186.401c0 17.49-9.46 32.78-23.54 41.01v-82.03c14.08 8.24 23.54 23.52 23.54 41.02z" fill="#ff5ba8"/></g></g><path d="m414.42 175.328c-8.921-8.921-20.782-13.834-33.398-13.834-12.617 0-24.479 4.913-33.399 13.834-8.922 8.921-13.835 20.783-13.835 33.399s4.913 24.478 13.835 33.399c8.921 8.921 20.782 13.834 33.399 13.834 12.616 0 24.478-4.913 33.398-13.834 18.417-18.416 18.417-48.382 0-66.798zm-70.633 33.399c0-9.945 3.873-19.296 10.905-26.328 7.033-7.033 16.383-10.906 26.329-10.906 8.258 0 16.101 2.678 22.552 7.611l-52.176 52.176c-4.932-6.452-7.61-14.295-7.61-22.553zm63.563 26.328c-7.033 7.033-16.383 10.906-26.328 10.906-8.259 0-16.101-2.678-22.553-7.611l52.172-52.172c11.116 14.584 10.026 35.559-3.291 48.877z" fill="#fff"/></g><path d="m288.018 408.827h-82.995c-2.761 0-5-2.239-5-5v-42.035c0-2.761 2.239-5 5-5h82.995c2.761 0 5 2.239 5 5v42.035c0 2.762-2.238 5-5 5z" fill="#fff"/><path d="m265.667 387.81h-38.292c-2.761 0-5-2.239-5-5s2.239-5 5-5h38.292c2.762 0 5 2.239 5 5s-2.239 5-5 5z" fill="#8399fe"/><g><circle cx="256" cy="162.396" fill="#fff" r="47.485"/><path d="m271.67 156.268h-12.167v-23.854c0-1.112-1.494-1.475-2.004-.487l-18.111 35.05c-.365.706.148 1.549.943 1.549h12.167v23.854c0 1.112 1.494 1.475 2.004.487l18.111-35.05c.365-.707-.148-1.549-.943-1.549z" fill="#ff7eb8"/><g fill="#2626bc"><path d="m465.888 18.002h-31.189c-8.271 0-15 6.729-15 15v82.912c0 2.761 2.238 5 5 5s5-2.239 5-5v-82.912c0-2.757 2.243-5 5-5h31.189c2.757 0 5 2.243 5 5v284.256c0 2.757-2.243 5-5 5h-175.945c-2.757 0-5-2.243-5-5v-111.108c14.174-9.407 23.541-25.504 23.541-43.753 0-18.25-9.367-34.346-23.541-43.754v-85.64c0-2.757 2.243-5 5-5h31.188c2.757 0 5 2.243 5 5v82.912c0 2.761 2.238 5 5 5h60.577c2.762 0 5-2.239 5-5s-2.238-5-5-5h-55.577v-77.913c0-8.271-6.729-15-15-15h-31.188c-8.271 0-15 6.729-15 15v80.461c-5.881-2.285-12.265-3.552-18.943-3.552-26.685 0-48.766 20.023-52.048 45.832h-13.084c-8.271 0-15 6.729-15 15v77.912h-83.567v-77.912c0-8.271-6.729-15-15-15h-31.189c-8.271 0-15 6.729-15 15v284.256c0 8.271 6.729 15 15 15h175.945c8.271 0 15-6.729 15-15v-41.171h50.961c5.514 0 10-4.486 10-10v-42.036c0-5.514-4.486-10-10-10h-50.961v-116.11c0-2.761-2.239-5-5-5s-5 2.239-5 5v116.11h-22.033c-5.514 0-10 4.486-10 10v42.036c0 5.514 4.486 10 10 10h22.033v41.171c0 2.757-2.243 5-5 5h-175.945c-2.757 0-5-2.243-5-5v-284.256c0-2.757 2.243-5 5-5h31.189c2.757 0 5 2.243 5 5v82.912c0 2.761 2.239 5 5 5h93.567c2.761 0 5-2.239 5-5v-82.912c0-2.757 2.243-5 5-5h12.765c1.733 27.385 24.552 49.138 52.366 49.138 6.678 0 13.063-1.267 18.943-3.552v105.93c0 8.271 6.729 15 15 15h175.945c8.271 0 15-6.729 15-15v-284.257c.001-8.271-6.727-15-14.999-15zm-260.864 343.79h82.995l.007 42.035h-83.001v-42.035zm8.491-199.396c0-23.426 19.059-42.485 42.484-42.485s42.484 19.059 42.484 42.485-19.059 42.484-42.484 42.484-42.484-19.058-42.484-42.484z"/><path d="m362.418 350.935c-1.951-1.952-5.119-1.952-7.07 0l-10.041 10.041c-1.953 1.953-1.953 5.119 0 7.071 1.951 1.952 5.119 1.952 7.07 0l1.106-1.106c-4.201 44.082-41.431 78.678-86.595 78.678-2.762 0-5 2.239-5 5s2.238 5 5 5c50.919 0 92.798-39.44 96.697-89.376l1.804 1.804c.976.976 2.256 1.464 3.535 1.464s2.56-.488 3.535-1.464c1.953-1.953 1.953-5.119 0-7.071z"/><path d="m149.581 137.066c.977.976 2.256 1.464 3.536 1.464s2.559-.488 3.536-1.464l10.041-10.041c1.953-1.953 1.953-5.119 0-7.071s-5.118-1.952-7.071 0l-1.106 1.106c4.201-44.082 41.432-78.677 86.596-78.677 2.761 0 5-2.239 5-5s-2.239-5-5-5c-50.919 0-92.798 39.44-96.697 89.375l-1.804-1.804c-1.953-1.952-5.118-1.952-7.071 0-1.953 1.953-1.953 5.119 0 7.071z"/></g></g></g><path d="m427.285 422.811c-2.762 0-5-2.239-5-5 0-3.309-2.691-6-6-6-2.762 0-5-2.239-5-5s2.238-5 5-5c3.309 0 6-2.692 6-6 0-2.761 2.238-5 5-5s5 2.239 5 5c0 3.309 2.691 6 6 6 2.762 0 5 2.239 5 5s-2.238 5-5 5c-3.309 0-6 2.691-6 6 0 2.761-2.238 5-5 5z" fill="#6583fe"/><path d="m134.884 80.382c-2.761 0-5-2.239-5-5 0-3.309-2.691-6-6-6-2.761 0-5-2.239-5-5s2.239-5 5-5c3.309 0 6-2.691 6-6 0-2.761 2.239-5 5-5s5 2.239 5 5c0 3.309 2.691 6 6 6 2.761 0 5 2.239 5 5s-2.239 5-5 5c-3.309 0-6 2.691-6 6 0 2.762-2.239 5-5 5z" fill="#6583fe"/><path d="m385.745 74.002c-1.279 0-2.56-.488-3.535-1.464-1.953-1.953-1.953-5.119 0-7.071l3.327-3.328-5.002-3.172c-1.282-.813-2.125-2.165-2.292-3.673s.361-3.012 1.435-4.085l7.742-7.742c1.951-1.952 5.119-1.952 7.07 0 1.953 1.953 1.953 5.119 0 7.071l-3.327 3.327 5.002 3.172c1.282.813 2.125 2.165 2.292 3.673s-.36 3.012-1.435 4.085l-7.742 7.742c-.976.977-2.256 1.465-3.535 1.465z" fill="#01eca5"/><path d="m372.778 463.361c-1.279 0-2.559-.488-3.535-1.464-1.953-1.952-1.953-5.118-.001-7.071l3.328-3.328-5.002-3.173c-1.282-.813-2.125-2.164-2.292-3.673s.361-3.012 1.435-4.085l7.742-7.742c1.951-1.952 5.119-1.952 7.07 0 1.953 1.953 1.953 5.119 0 7.071l-3.327 3.328 5.001 3.172c1.282.813 2.125 2.164 2.292 3.673.167 1.508-.36 3.011-1.434 4.084l-7.741 7.742c-.976.978-2.257 1.466-3.536 1.466z" fill="#01eca5"/><path d="m93.965 122.457c-1.28 0-2.559-.488-3.536-1.464-1.953-1.953-1.953-5.119 0-7.071l3.328-3.328-5.002-3.173c-1.282-.813-2.125-2.164-2.292-3.673s.361-3.012 1.434-4.085l7.742-7.742c1.953-1.952 5.118-1.952 7.071 0 1.953 1.953 1.953 5.119 0 7.071l-3.328 3.327 5.002 3.173c1.282.813 2.125 2.164 2.292 3.673s-.361 3.012-1.434 4.085l-7.742 7.742c-.976.976-2.256 1.465-3.535 1.465z" fill="#ff7eb8"/></g><g><g><path d="m185.855 338.037h-28.52c-2.762 0-5-2.239-5-5s2.238-5 5-5h28.52c2.762 0 5 2.239 5 5s-2.238 5-5 5z" fill="#ff7eb8"/></g><g><path d="m185.855 321.421h-13.52c-2.762 0-5-2.239-5-5s2.238-5 5-5h13.52c2.762 0 5 2.239 5 5s-2.238 5-5 5z" fill="#ff7eb8"/></g></g></g></g></svg>