<svg id="Capa_1" enable-background="new 0 0 512 512" height="512" viewBox="0 0 512 512" width="512" xmlns="http://www.w3.org/2000/svg" xmlns:xlink="http://www.w3.org/1999/xlink"><linearGradient id="SVGID_1_" gradientUnits="userSpaceOnUse" x1="45.542" x2="466.994" y1="256" y2="256"><stop offset="0" stop-color="#ffdbed"/><stop offset="1" stop-color="#dcfdee"/></linearGradient><g><g><path d="m97.414 38.232c-135.328 119.538 38.83 235.409 22.242 366.028-7.375 58.072 16.054 113.588 92.705 107.244 93.413-7.732 59.504-97.209 79.066-156.778 33.66-102.501 240.73-78.56 154.895-236.448-54.777-100.758-255.766-162.321-348.908-80.046z" fill="url(#SVGID_1_)"/></g><g><g><g fill="#2626bc" opacity=".1"><path d="m290.196 213.561h-14.316v-19.799c0-2.761-2.239-5-5-5h-29.224c-2.761 0-5 2.239-5 5v19.799h-14.316c-5.523 0-10 4.477-10 10v229.641c0 5.523 4.477 10 10 10h67.856c5.523 0 10-4.477 10-10v-229.641c0-5.522-4.477-10-10-10z"/><circle cx="256.268" cy="119.38" r="47.485"/><path d="m434.795 213.561h-14.316v-19.799c0-2.761-2.239-5-5-5h-9.953c.083-.361.136-.733.136-1.12v-21.036c7.891 5.608 18.406 7.139 27.987 3.124 11.754-4.926 18.545-16.696 17.704-28.739-7.997-9.044-21.147-12.446-32.901-7.52-9.056 3.795-15.15 11.66-17.09 20.58-.231-.033-.46-.071-.7-.071-.028 0-.054.008-.082.008-.745-13.001-8.682-25.077-21.496-30.448-14.273-5.982-30.242-1.851-39.953 9.131-1.021 14.624 7.226 28.916 21.498 34.898 12.062 5.056 25.346 2.873 35.032-4.562v24.633c0 .386.053.759.136 1.12h-9.544c-2.761 0-5 2.239-5 5v19.799h-14.316c-5.523 0-10 4.477-10 10v229.641c0 5.523 4.477 10 10 10h67.857c5.523 0 10-4.477 10-10v-229.639c.001-5.522-4.477-10-9.999-10z"/><path d="m116.623 166.606c7.892 5.608 18.407 7.14 27.988 3.124 11.754-4.926 18.545-16.696 17.704-28.739-7.997-9.044-21.147-12.446-32.901-7.52-9.056 3.795-15.15 11.66-17.09 20.58-.231-.033-.461-.071-.701-.071-.028 0-.054.008-.082.008-.745-13.001-8.682-25.077-21.496-30.448-14.273-5.982-30.242-1.851-39.952 9.131-1.021 14.624 7.226 28.916 21.498 34.898 12.062 5.056 25.346 2.873 35.032-4.562v24.632c0 .386.053.759.136 1.12h-9.544c-2.761 0-5 2.239-5 5v19.799h-14.316c-5.523 0-10 4.477-10 10v229.641c0 5.523 4.477 10 10 10h67.857c5.523 0 10-4.477 10-10v-229.638c0-5.523-4.477-10-10-10h-14.316v-19.799c0-2.761-2.239-5-5-5h-9.953c.083-.361.136-.733.136-1.12z"/></g><g><g><g><path d="m275.88 198.658h-39.224v-28.896c0-2.761 2.239-5 5-5h29.224c2.761 0 5 2.239 5 5z" fill="#8399fe"/><g><path d="m290.196 439.203h-67.857c-5.523 0-10-4.477-10-10v-229.642c0-5.523 4.477-10 10-10h67.857c5.523 0 10 4.477 10 10v229.641c0 5.524-4.477 10.001-10 10.001z" fill="#fff"/><g><path d="m227.845 338.789h-15.505v10h15.505c2.762 0 5-2.239 5-5s-2.238-5-5-5z" fill="#8399fe"/></g><g><path d="m236.845 358.216h-24.505v10h24.505c2.762 0 5-2.239 5-5s-2.238-5-5-5z" fill="#8399fe"/></g><path d="m300.196 322.431c-25.574 0-46.306-20.732-46.306-46.306s20.732-46.306 46.306-46.306z" fill="#02ffb3"/><path d="m212.339 400.023v29.18c0 5.523 4.477 10 10 10h67.856c5.523 0 10-4.477 10-10v-29.18z" fill="#ff7eb8"/></g></g></g><g><circle cx="256.268" cy="95.38" fill="#8399fe" r="47.485"/><path d="m271.938 89.251h-12.168v-23.854c0-1.112-1.494-1.475-2.004-.487l-18.111 35.05c-.365.706.148 1.549.943 1.549h12.167v23.854c0 1.112 1.494 1.475 2.004.487l18.111-35.05c.366-.706-.147-1.549-.942-1.549z" fill="#fff"/></g><g><g><g><path d="m131.44 198.658h-39.224v-28.896c0-2.761 2.239-5 5-5h29.224c2.761 0 5 2.239 5 5z" fill="#8399fe"/><g><path d="m145.756 439.203h-67.857c-5.523 0-10-4.477-10-10v-229.642c0-5.523 4.477-10 10-10h67.857c5.523 0 10 4.477 10 10v229.641c0 5.524-4.477 10.001-10 10.001z" fill="#fff"/><g><path d="m83.405 338.789h-15.506v10h15.505c2.762 0 5-2.239 5-5s-2.238-5-4.999-5z" fill="#8399fe"/></g><g><path d="m92.405 358.216h-24.506v10h24.505c2.762 0 5-2.239 5-5s-2.238-5-4.999-5z" fill="#8399fe"/></g><path d="m155.756 322.431c-25.574 0-46.306-20.732-46.306-46.306s20.732-46.306 46.306-46.306z" fill="#02ffb3"/><path d="m67.899 400.023v29.18c0 5.523 4.477 10 10 10h67.856c5.523 0 10-4.477 10-10v-29.18z" fill="#ff7eb8"/></g></g></g><g><path d="m90.046 99.542c-14.273-5.982-30.242-1.851-39.952 9.131-1.021 14.624 7.226 28.916 21.498 34.898 14.264 5.978 30.236 1.837 39.947-9.145 1.021-14.623-7.23-28.906-21.493-34.884z" fill="#02ffb3"/><path d="m129.414 109.472c11.754-4.926 24.904-1.524 32.901 7.52.841 12.043-5.95 23.812-17.704 28.739-11.746 4.923-24.9 1.513-32.897-7.531-.841-12.043 5.954-23.805 17.7-28.728z" fill="#00d890"/></g></g><g><g><g><path d="m420.478 198.658h-39.224v-28.896c0-2.761 2.239-5 5-5h29.224c2.761 0 5 2.239 5 5z" fill="#8399fe"/><g><path d="m434.795 439.203h-67.857c-5.523 0-10-4.477-10-10v-229.642c0-5.523 4.477-10 10-10h67.857c5.523 0 10 4.477 10 10v229.641c0 5.524-4.478 10.001-10 10.001z" fill="#fff"/><g><path d="m372.443 338.789h-15.505v10h15.505c2.762 0 5-2.239 5-5s-2.238-5-5-5z" fill="#8399fe"/></g><g><path d="m381.443 358.216h-24.505v10h24.505c2.762 0 5-2.239 5-5s-2.238-5-5-5z" fill="#8399fe"/></g><path d="m444.795 322.431c-25.574 0-46.306-20.732-46.306-46.306s20.732-46.306 46.306-46.306z" fill="#02ffb3"/><path d="m356.938 400.023v29.18c0 5.523 4.477 10 10 10h67.856c5.523 0 10-4.477 10-10v-29.18z" fill="#ff7eb8"/></g></g></g><g><path d="m379.084 99.542c-14.273-5.982-30.242-1.851-39.952 9.131-1.021 14.624 7.226 28.916 21.498 34.898 14.264 5.978 30.236 1.837 39.947-9.145 1.022-14.623-7.229-28.906-21.493-34.884z" fill="#02ffb3"/><g><g><path d="m418.452 109.472c11.754-4.926 24.904-1.524 32.901 7.52.841 12.043-5.95 23.812-17.704 28.739-11.746 4.923-24.9 1.513-32.897-7.531-.84-12.043 5.954-23.805 17.7-28.728z" fill="#00d890"/><g fill="#2626bc"><path d="m290.195 184.562h-9.315v-14.8c0-5.514-4.486-10-10-10h-29.225c-5.514 0-10 4.486-10 10v14.8h-9.315c-8.271 0-15 6.729-15 15v229.641c0 8.271 6.729 15 15 15h67.855c8.271 0 15-6.729 15-15v-151.593c0-2.761-2.238-5-5-5s-5 2.239-5 5v151.593c0 2.757-2.243 5-5 5h-67.855c-2.757 0-5-2.243-5-5v-229.641c0-2.757 2.243-5 5-5h67.855c2.757 0 5 2.243 5 5v45.058c0 2.761 2.238 5 5 5s5-2.239 5-5v-45.058c0-8.271-6.728-15-15-15zm-48.54-14.8h29.225v14.8h-29.225z"/><path d="m256.268 42.896c-28.94 0-52.484 23.544-52.484 52.485 0 28.94 23.544 52.484 52.484 52.484s52.484-23.544 52.484-52.484c0-28.941-23.544-52.485-52.484-52.485zm0 94.969c-23.426 0-42.484-19.059-42.484-42.484 0-23.426 19.059-42.485 42.484-42.485s42.484 19.059 42.484 42.485c0 23.425-19.059 42.484-42.484 42.484z"/><path d="m133.42 152.985c4.414 0 8.873-.862 13.123-2.644 13.431-5.629 21.773-19.171 20.76-33.698-.077-1.098-.514-2.14-1.243-2.964-9.642-10.904-25.146-14.45-38.579-8.819-5.786 2.425-10.621 6.325-14.176 11.134-4.035-9.296-11.534-16.959-21.326-21.063-15.891-6.66-34.226-2.467-45.632 10.431-.729.824-1.165 1.866-1.242 2.963-1.199 17.182 8.668 33.2 24.555 39.858 5.027 2.107 10.299 3.126 15.521 3.126 7.558 0 15.003-2.146 21.442-6.212v14.664h-9.407c-5.514 0-10 4.486-10 10v14.8h-9.316c-8.271 0-15 6.729-15 15v229.641c0 8.271 6.729 15 15 15h67.856c8.271 0 15-6.729 15-15v-229.64c0-8.271-6.729-15-15-15h-9.316v-14.8c0-5.514-4.486-10-10-10h-9.816v-11.225c5.126 2.917 10.921 4.448 16.796 4.448zm17.336 46.577v229.641c0 2.757-2.243 5-5 5h-67.856c-2.757 0-5-2.243-5-5v-229.641c0-2.757 2.243-5 5-5h67.856c2.757 0 5 2.243 5 5zm-24.316-15h-29.224v-14.8h29.224zm4.906-70.479c8.949-3.75 19.196-1.732 26.039 4.974-.015 9.588-5.761 18.312-14.707 22.062-8.941 3.748-19.188 1.727-26.034-4.985.014-9.582 5.759-18.303 14.702-22.051zm-57.821 24.877c-11.403-4.78-18.679-15.979-18.515-28.226 8.612-8.699 21.697-11.36 33.104-6.581 11.399 4.778 18.672 15.972 18.508 28.213-8.618 8.704-21.702 11.37-33.097 6.594z"/><path d="m434.795 184.562h-9.316v-14.8c0-5.514-4.486-10-10-10h-9.816v-11.225c5.127 2.917 10.922 4.448 16.797 4.448 4.414 0 8.873-.862 13.123-2.644 13.431-5.629 21.773-19.171 20.76-33.698-.077-1.098-.514-2.14-1.243-2.964-9.642-10.904-25.145-14.45-38.579-8.819-5.787 2.425-10.621 6.325-14.177 11.134-4.035-9.296-11.534-16.959-21.326-21.063-15.89-6.659-34.225-2.468-45.631 10.431-.729.824-1.165 1.866-1.242 2.963-1.199 17.182 8.667 33.2 24.554 39.858 5.027 2.107 10.3 3.126 15.521 3.126 7.558 0 15.003-2.146 21.443-6.212v14.664h-9.408c-5.514 0-10 4.486-10 10v14.8h-9.316c-8.271 0-15 6.729-15 15v229.641c0 8.271 6.729 15 15 15h18.401c2.762 0 5-2.239 5-5s-2.238-5-5-5h-18.401c-2.757 0-5-2.243-5-5v-229.64c0-2.757 2.243-5 5-5h67.857c2.757 0 5 2.243 5 5v229.641c0 2.757-2.243 5-5 5h-16.466c-2.762 0-5 2.239-5 5s2.238 5 5 5h16.465c8.271 0 15-6.729 15-15v-229.641c0-8.271-6.728-15-15-15zm-14.41-70.479c8.95-3.75 19.196-1.732 26.039 4.974-.015 9.588-5.761 18.312-14.707 22.062-8.941 3.748-19.188 1.727-26.035-4.985.014-9.583 5.76-18.302 14.703-22.051zm-57.822 24.877c-11.403-4.78-18.678-15.979-18.514-28.226 8.612-8.7 21.699-11.36 33.103-6.581 11.399 4.778 18.673 15.972 18.509 28.213-8.618 8.705-21.701 11.371-33.098 6.594zm23.691 30.802h29.225v14.8h-29.225z"/></g></g></g></g></g></g></g><path d="m403.396 80.334c-2.762 0-5-2.239-5-5 0-3.309-2.691-6-6-6-2.762 0-5-2.239-5-5s2.238-5 5-5c3.309 0 6-2.691 6-6 0-2.761 2.238-5 5-5s5 2.239 5 5c0 3.309 2.691 6 6 6 2.762 0 5 2.239 5 5s-2.238 5-5 5c-3.309 0-6 2.691-6 6 0 2.762-2.239 5-5 5z" fill="#ff7eb8"/><path d="m328.982 463.361c-2.762 0-5-2.239-5-5 0-3.309-2.691-6-6-6-2.762 0-5-2.239-5-5s2.238-5 5-5c3.309 0 6-2.691 6-6 0-2.761 2.238-5 5-5s5 2.239 5 5c0 3.309 2.691 6 6 6 2.762 0 5 2.239 5 5s-2.238 5-5 5c-3.309 0-6 2.691-6 6 0 2.762-2.239 5-5 5z" fill="#01eca5"/><path d="m358.968 53.095c-1.279 0-2.56-.488-3.536-1.464-1.952-1.953-1.952-5.119.001-7.071l3.327-3.327-5.002-3.172c-1.282-.813-2.125-2.165-2.292-3.673s.361-3.012 1.435-4.085l7.742-7.742c1.951-1.952 5.119-1.952 7.07 0 1.953 1.953 1.953 5.119 0 7.071l-3.327 3.328 5.002 3.172c1.282.813 2.125 2.165 2.292 3.673s-.361 3.012-1.435 4.085l-7.742 7.742c-.976.975-2.256 1.463-3.535 1.463z" fill="#01eca5"/><path d="m180.108 463.361c-1.279 0-2.56-.488-3.535-1.464-1.953-1.953-1.953-5.119 0-7.071l3.327-3.328-5.002-3.172c-1.282-.813-2.125-2.165-2.292-3.673s.361-3.012 1.435-4.085l7.742-7.742c1.951-1.952 5.118-1.952 7.071 0 1.952 1.953 1.952 5.119-.001 7.071l-3.327 3.327 5.002 3.172c1.282.813 2.125 2.165 2.292 3.673s-.361 3.012-1.435 4.085l-7.742 7.742c-.976.977-2.256 1.465-3.535 1.465z" fill="#6583fe"/><path d="m156.738 74.002c-1.279 0-2.56-.488-3.535-1.464-1.953-1.953-1.953-5.119 0-7.071l3.327-3.328-5.002-3.172c-1.282-.813-2.125-2.165-2.292-3.673s.361-3.012 1.435-4.085l7.742-7.742c1.951-1.952 5.118-1.952 7.071 0 1.952 1.953 1.952 5.119-.001 7.071l-3.327 3.327 5.002 3.172c1.282.813 2.125 2.165 2.292 3.673s-.361 3.012-1.435 4.085l-7.742 7.742c-.975.977-2.255 1.465-3.535 1.465z" fill="#ff7eb8"/></g></g></svg>