<svg id="Capa_1" enable-background="new 0 0 512 512" height="512" viewBox="0 0 512 512" width="512" xmlns="http://www.w3.org/2000/svg" xmlns:xlink="http://www.w3.org/1999/xlink"><linearGradient id="SVGID_1_" gradientUnits="userSpaceOnUse" x1="12.034" x2="499.966" y1="256" y2="256"><stop offset=".0485" stop-color="#ffdbed"/><stop offset=".9993" stop-color="#d2deff"/></linearGradient><g><g><path d="m286.593 4.867c-94.351 27.746-75.427 93.585-85.98 166.539-13.171 91.052-70.095 44.365-135.496 93.537-113.054 85.001-30.931 272.636 109.468 244.14 74.552-15.131 89.786-70.095 120.193-128.824 39.333-75.972 104.558-55.259 163.066-104.856 118.655-100.582-37.403-309.897-171.251-270.536z" fill="url(#SVGID_1_)"/></g><g><path d="m429.053 292.852c-20.76-23.477-54.038-33.246-84.945-23.203.092-.124.181-.25.273-.373 13.741-18.415 21.876-41.258 21.876-66.002 0-1.323-.031-2.638-.078-3.95 2.85-1.952 5.566-4.184 8.097-6.715 17.653-17.653 21.231-44.029 10.77-65.237-15.51-7.65-33.773-7.776-49.374-.393-20.451-21.407-49.415-34.612-81.46-34.166-13.718.191-26.831 2.922-38.909 7.723-7.644-18.42-25.797-31.378-46.983-31.378-28.085 0-50.853 22.767-50.853 50.853 0 22.072 14.066 40.853 33.72 47.886-4.05 11.861-6.132 24.595-5.848 37.802.427 19.824 6.091 38.351 15.641 54.283-26.94-4.017-54.107 6.027-71.987 26.247-2.333 33.406 16.505 66.053 49.109 79.719 14.58 6.111 29.94 7.581 44.452 5.105v23.276c0 3.44 2.788 6.228 6.228 6.228h17.552v14.211h-4.825c-2.762 0-5 2.239-5 5s2.238 5 5 5h4.825v14.126h-4.825c-2.762 0-5 2.239-5 5s2.238 5 5 5h5.233c2.657 17.909 18.093 31.651 36.741 31.651h24.604c18.648 0 34.084-13.742 36.741-31.651h5.232c2.762 0 5-2.239 5-5s-2.238-5-5-5h-4.824v-14.126h4.824c2.762 0 5-2.239 5-5s-2.238-5-5-5h-4.824v-14.211h17.552c3.439 0 6.228-2.788 6.228-6.228v-18.036c16.356 4.198 34.157 3.307 50.928-3.722 32.604-13.666 51.442-46.313 49.109-79.719z" fill="#2626bc" opacity=".1"/><g><g><g><g><g><path d="m337.789 246.29c32.604-13.665 69.082-4.228 91.264 20.859 2.333 33.406-16.505 66.053-49.109 79.719-32.583 13.656-69.069 4.197-91.252-20.889-2.333-33.406 16.514-66.032 49.097-79.689z" fill="#00d890"/><g fill="#00b574"><path d="m358.541 240.688c-3.598 9.114-8.385 17.638-14.158 25.37-17.263 23.132-27.94 50.409-30.596 78.949-9.424-4.573-17.992-10.998-25.092-19.03-2.335-33.402 16.514-66.033 49.091-79.688 6.801-2.849 13.783-4.701 20.755-5.601z"/><path d="m395.502 281.212c-1.067-2.547-4-3.745-6.544-2.679l-43.267 18.135 2.671-14.482c.501-2.715-1.295-5.323-4.01-5.824-2.721-.5-5.323 1.295-5.824 4.01l-3.858 20.915-47.911 20.081c-2.547 1.067-3.746 3.998-2.679 6.544.803 1.916 2.659 3.069 4.613 3.069.645 0 1.3-.125 1.931-.39l71.588-30.005 14.747 11.096c.9.678 1.955 1.005 3.002 1.005 1.518 0 3.017-.688 3.999-1.994 1.66-2.207 1.218-5.341-.989-7.001l-10.077-7.582 19.929-8.353c2.547-1.069 3.746-3.998 2.679-6.545z"/></g></g></g></g><g><g><g><path d="m180.258 239.667c-32.604-13.665-69.082-4.228-91.264 20.859-2.333 33.406 16.505 66.053 49.109 79.719 32.583 13.656 69.069 4.197 91.252-20.889 2.333-33.407-16.514-66.033-49.097-79.689z" fill="#01eca5"/><path d="m229.355 319.358c-11.181 12.637-25.981 21.301-42.098 25.049-.054-.054-.107-.107-.161-.161-18.827-18.827-23.486-46.446-14.008-69.632-1.928-2.999-3.952-5.933-6.083-8.803-7.197-9.703-12.84-20.626-16.557-32.406 9.96.15 20.058 2.185 29.804 6.265 32.589 13.655 51.438 46.275 49.103 79.688z" fill="#00d890"/><g fill="#00b574"><path d="m178.695 301.877c-2.365 0-4.467-1.685-4.911-4.094l-4.1-22.222c-.501-2.716 1.294-5.323 4.01-5.824 2.719-.503 5.323 1.294 5.824 4.01l4.1 22.222c.501 2.716-1.294 5.323-4.01 5.824-.306.057-.612.084-.913.084z"/><path d="m231.287 314.744-102.198-42.834c-2.543-1.067-5.476.131-6.544 2.679-1.067 2.547.132 5.477 2.679 6.544l19.928 8.352-10.077 7.582c-2.207 1.66-2.649 4.795-.989 7.001.982 1.306 2.481 1.994 3.999 1.994 1.046 0 2.102-.328 3.002-1.005l14.746-11.096 71.589 30.005c.631.265 1.286.39 1.931.39 1.954 0 3.811-1.153 4.613-3.069 1.067-2.546-.132-5.476-2.679-6.543z"/></g></g></g></g><path d="m268.088 454.843h-24.604c-20.517 0-37.149-16.632-37.149-37.149v-42.84h98.902v42.84c0 20.516-16.633 37.149-37.149 37.149z" fill="#ff7eb8"/><path d="m206.335 374.854h98.902v20.913h-98.902z" fill="#ff5ba8"/><path d="m366.257 177.572c0-61.536-50.313-111.32-112.046-110.461-61.042.85-110.186 51.851-108.872 112.885.51 23.701 8.485 45.563 21.667 63.331 20.086 27.074 31.439 59.624 31.439 93.335h114.68v-.006c0-33.604 11.158-66.15 31.255-93.082 13.742-18.415 21.877-41.259 21.877-66.002z" fill="#8399fe"/><path d="m301.505 206.743c-2.851-.794-5.801.872-6.595 3.721-.459 1.648-.897 3.325-1.337 4.998h-75.678c-.465-1.782-.93-3.565-1.416-5.321-.79-2.85-3.735-4.523-6.59-3.731-2.85.789-4.52 3.739-3.73 6.589 10.163 36.699 15.536 79.461 15.536 123.662 0 2.957 2.397 5.355 5.355 5.355s5.355-2.398 5.355-5.355c0-38.881-4.093-76.711-11.879-110.49h70.399c-7.766 33.524-11.849 71.354-11.849 110.482v.008c0 2.957 2.397 5.35 5.355 5.35s5.355-2.401 5.355-5.358c0-43.777 5.484-87.571 15.442-123.316.792-2.848-.874-5.801-3.723-6.594z" fill="#d9d9ff"/><path d="m366.252 177.567c0 6.715-.6 13.28-1.745 19.662-16.76 10.624-37.879 11.598-55.453 2.924-10.463-21.204-6.875-47.571 10.763-65.209 8.449-8.45 18.891-13.676 29.804-15.689 10.537 16.921 16.631 36.905 16.631 58.312z" fill="#6583fe"/><path d="m219.171 116.792c0 28.09-22.768 50.858-50.848 50.858-7.871 0-15.325-1.788-21.975-4.98 4.851-35.512 26.816-65.937 57.337-82.419 9.553 9.254 15.486 22.201 15.486 36.541z" fill="#6583fe"/><g><g><g><path d="m248.646 260.21c-19.952-19.952-49.75-24.009-73.72-12.185-11.824 23.97-7.779 53.782 12.173 73.733 19.939 19.939 49.75 23.983 73.72 12.16 11.823-23.971 7.766-53.769-12.173-73.708z" fill="#02ffb3"/><path d="m264.354 330.382-28.932-28.932 3.363-16.081c.564-2.703-1.168-5.353-3.871-5.917-2.702-.565-5.353 1.168-5.918 3.871l-2.024 9.678-25.157-25.157c-1.951-1.952-5.119-1.952-7.07 0-1.953 1.953-1.953 5.119 0 7.071l10.951 10.951-8.035 2.108c-2.671.701-4.269 3.434-3.567 6.105.589 2.246 2.614 3.732 4.833 3.732.42 0 .847-.053 1.271-.165l13.688-3.59 43.398 43.398c.976.976 2.256 1.464 3.535 1.464s2.56-.488 3.535-1.464c1.953-1.954 1.953-5.12 0-7.072z" fill="#00b574"/></g></g></g><path d="m322.788 374.854h-134.005c-3.44 0-6.228-2.788-6.228-6.228v-32.922c0-3.44 2.788-6.228 6.228-6.228h134.005c3.44 0 6.228 2.788 6.228 6.228v32.922c0 3.44-2.788 6.228-6.228 6.228z" fill="#fff"/><path d="m270.173 329.476h26.626v45.378h-26.626z" fill="#ffc4df"/><g><g><g><path d="m319.82 112.451c17.653-17.653 44.017-21.243 65.226-10.781 10.461 21.208 6.883 47.584-10.77 65.237-17.641 17.641-44.017 21.22-65.226 10.758-10.461-21.208-6.871-47.573 10.77-65.214z" fill="#02ffb3"/><path d="m365.077 136.457-6.137-1.61 8.979-8.979c1.953-1.953 1.953-5.119 0-7.071-1.951-1.952-5.119-1.952-7.07 0l-21.505 21.505-1.572-7.52c-.565-2.703-3.215-4.436-5.918-3.871s-4.436 3.214-3.871 5.917l2.911 13.924-25.378 25.378c-1.953 1.953-1.953 5.119 0 7.071.976.976 2.256 1.464 3.535 1.464s2.56-.488 3.535-1.464l38.164-38.164 11.79 3.093c.425.111.852.165 1.271.165 2.218 0 4.244-1.487 4.833-3.733.702-2.671-.896-5.405-3.567-6.105z" fill="#00b574"/></g></g></g></g><g><circle cx="168.32" cy="94.308" fill="#fff" r="50.853"/><path d="m185.102 87.744h-13.03v-25.546c0-1.191-1.6-1.58-2.146-.522l-19.396 37.536c-.391.757.158 1.658 1.01 1.658h13.03v25.546c0 1.191 1.6 1.58 2.146.522l19.396-37.536c.39-.756-.159-1.658-1.01-1.658z" fill="#ff7eb8"/><path d="m434.041 266.801c-.077-1.098-.514-2.139-1.242-2.963-19.471-22.02-48.943-32.292-77.48-27.714 10.449-17.681 15.938-37.687 15.938-58.552 0-.481-.008-.96-.014-1.439 2.295-1.726 4.495-3.617 6.569-5.69 18.719-18.719 23.428-47.246 11.719-70.985-.487-.987-1.285-1.786-2.272-2.272-16.127-7.953-34.464-8.317-50.436-1.864-22.166-21.862-51.479-33.635-82.679-33.21-1.815.025-3.649.094-5.451.205-2.757.169-4.854 2.541-4.685 5.297.168 2.756 2.553 4.86 5.296 4.685 1.646-.101 3.321-.164 4.979-.187 27.423-.405 53.167 9.526 73.097 28.007-3.962 2.462-7.691 5.396-11.093 8.798-18.715 18.715-23.424 47.232-11.719 70.962.487.987 1.286 1.786 2.272 2.272 8.702 4.293 18.044 6.379 27.313 6.379 9.32 0 18.559-2.125 26.995-6.226-.925 21.176-8.054 41.238-20.772 58.282-18.452 24.728-29.41 53.714-31.758 83.892h-38.849c6.814-23.954.236-49.979-17.585-67.801-20.842-20.842-52.532-26.169-79.008-13.35-.71-1.002-1.426-1.999-2.152-2.977-13.059-17.602-20.211-38.508-20.683-60.459-.23-10.695 1.175-21.263 4.141-31.466 4.428 1.133 9.065 1.738 13.841 1.738 30.797 0 55.853-25.055 55.853-55.853s-25.056-55.853-55.853-55.853-55.853 25.055-55.853 55.853c0 22.494 13.373 41.911 32.58 50.753-3.364 11.356-4.963 23.129-4.707 35.042.366 16.977 4.397 33.378 11.764 48.343-25.33-.89-49.842 9.526-66.857 28.768-.729.824-1.165 1.866-1.242 2.963-2.55 36.503 18.413 70.532 52.164 84.678 3.547 1.487 7.237 2.747 10.97 3.745.433.116.867.171 1.295.171 2.209 0 4.229-1.475 4.827-3.709.714-2.668-.87-5.409-3.538-6.122-3.297-.882-6.557-1.995-9.688-3.308-29.271-12.269-47.648-41.48-46.153-73.058 16.374-17.704 40.109-26.479 64.052-23.661 1.584 2.518 3.27 4.983 5.057 7.393 1.547 2.085 3.064 4.239 4.511 6.402-9.15 25.045-3.115 53.409 16.061 72.584.108.108.223.211.332.318-3.746 1.822-6.34 5.655-6.34 10.092v32.922c0 6.191 5.037 11.228 11.229 11.228h12.552v10.931c-2.679.094-4.825 2.281-4.825 4.982s2.146 4.888 4.825 4.982v14.161c-2.679.094-4.825 2.281-4.825 4.982 0 2.761 2.238 5 5 5h.453c3.428 19.821 20.736 34.949 41.521 34.949h24.604c20.785 0 38.093-15.128 41.521-34.949h.452c2.762 0 5-2.239 5-5 0-2.701-2.146-4.888-4.824-4.982v-14.16c2.678-.095 4.824-2.281 4.824-4.982s-2.146-4.888-4.824-4.982v-10.931h12.552c6.19 0 11.228-5.037 11.228-11.228v-11.822c4.976.891 9.98 1.337 14.972 1.336 11.198 0 22.326-2.234 32.89-6.661 33.745-14.147 54.708-48.176 52.158-84.679zm-121.236-92.89c-8.869-19.567-4.729-42.644 10.551-57.924 15.287-15.286 38.368-19.433 57.936-10.563 8.874 19.577 4.734 42.663-10.55 57.947-15.281 15.278-38.359 19.413-57.937 10.54zm-190.337-79.603c0-25.283 20.569-45.853 45.853-45.853s45.853 20.569 45.853 45.853-20.569 45.853-45.853 45.853-45.853-20.57-45.853-45.853zm56.21 157.468c22.409-10.269 48.904-5.559 66.434 11.969 15.923 15.924 21.356 39.507 14.193 60.73h-61.297c-2.624-1.885-5.106-3.986-7.373-6.253-17.527-17.525-22.232-44.026-11.957-66.446zm32.657 163.118v-14.126h88.901v14.126zm56.753 34.948h-24.604c-15.251 0-28.046-10.679-31.325-24.949h87.255c-3.28 14.271-16.075 24.949-31.326 24.949zm32.148-59.074h-88.901v-10.914h88.901zm23.78-22.142c0 .677-.551 1.228-1.228 1.228h-134.005c-.678 0-1.229-.551-1.229-1.228v-32.922c0-.677.551-1.228 1.229-1.228h134.005c.677 0 1.228.551 1.228 1.228zm53.996-26.369c-14.035 5.882-29.19 7.371-43.996 4.361v-10.914c0-6.191-5.037-11.228-11.228-11.228h-4.135c2.274-27.355 12.117-53.642 28.559-76.277.036-.01.072-.01.108-.021 27.446-8.222 57.413.026 76.845 21.021 1.495 31.577-16.882 60.789-46.153 73.058z" fill="#2626bc"/></g></g><path d="m100.074 204.708c-2.762 0-5-2.239-5-5 0-3.309-2.691-6-6-6-2.762 0-5-2.239-5-5s2.238-5 5-5c3.309 0 6-2.691 6-6 0-2.761 2.238-5 5-5s5 2.239 5 5c0 3.309 2.691 6 6 6 2.762 0 5 2.239 5 5s-2.238 5-5 5c-3.309 0-6 2.691-6 6 0 2.762-2.238 5-5 5z" fill="#ff7eb8"/><path d="m418.247 215.708c-2.762 0-5-2.239-5-5 0-3.309-2.691-6-6-6-2.762 0-5-2.239-5-5s2.238-5 5-5c3.309 0 6-2.691 6-6 0-2.761 2.238-5 5-5s5 2.239 5 5c0 3.309 2.691 6 6 6 2.762 0 5 2.239 5 5s-2.238 5-5 5c-3.309 0-6 2.691-6 6 0 2.762-2.238 5-5 5z" fill="#6583fe"/><path d="m354.351 435.613c-1.279 0-2.56-.488-3.535-1.464-1.953-1.953-1.953-5.119 0-7.071l3.327-3.328-5.002-3.172c-1.282-.813-2.125-2.165-2.292-3.673s.361-3.012 1.435-4.085l7.742-7.742c1.951-1.952 5.119-1.952 7.07 0 1.953 1.953 1.953 5.119 0 7.071l-3.327 3.327 5.002 3.172c1.282.813 2.125 2.165 2.292 3.673.167 1.509-.36 3.012-1.435 4.085l-7.742 7.742c-.976.977-2.256 1.465-3.535 1.465z" fill="#01eca5"/><path d="m405.505 408.908c-1.279 0-2.56-.488-3.535-1.464-1.953-1.953-1.953-5.119 0-7.071l3.327-3.328-5.001-3.172c-1.282-.813-2.125-2.164-2.292-3.673-.167-1.508.36-3.011 1.434-4.084l7.741-7.742c1.953-1.953 5.118-1.954 7.071 0 1.953 1.952 1.953 5.118.001 7.071l-3.328 3.328 5.002 3.173c1.282.813 2.125 2.164 2.292 3.673s-.361 3.012-1.435 4.085l-7.742 7.742c-.976.973-2.256 1.462-3.535 1.462z" fill="#ff7eb8"/><path d="m81.332 136.426c-1.279 0-2.56-.488-3.535-1.464-1.953-1.953-1.953-5.119 0-7.071l3.327-3.327-5.002-3.172c-1.282-.813-2.125-2.165-2.292-3.673s.36-3.012 1.435-4.085l7.742-7.742c1.951-1.952 5.119-1.952 7.07 0 1.953 1.953 1.953 5.119 0 7.071l-3.327 3.328 5.002 3.172c1.282.813 2.125 2.165 2.292 3.673s-.361 3.012-1.435 4.085l-7.742 7.742c-.975.975-2.256 1.463-3.535 1.463z" fill="#6583fe"/></g></g></svg>