<svg id="Capa_1" enable-background="new 0 0 512 512" height="512" viewBox="0 0 512 512" width="512" xmlns="http://www.w3.org/2000/svg" xmlns:xlink="http://www.w3.org/1999/xlink"><linearGradient id="SVGID_1_" gradientUnits="userSpaceOnUse" x1="41.949" x2="463.401" y1="256" y2="256"><stop offset=".0485" stop-color="#ffdbed"/><stop offset=".9993" stop-color="#d2deff"/></linearGradient><g><g><path d="m93.821 38.232c-135.327 119.538 38.831 235.409 22.243 366.028-7.375 58.072 16.054 113.588 92.705 107.244 93.413-7.732 59.504-97.209 79.066-156.778 33.66-102.501 240.73-78.56 154.895-236.448-54.778-100.758-255.766-162.321-348.909-80.046z" fill="url(#SVGID_1_)"/></g><g><g><path d="m444.839 377.321h-3.438l-9.697-62.926c-.376-2.439-2.474-4.239-4.942-4.239h-4.523v-22.111c0-2.761-2.239-5-5-5h-6.436v-144.345c0-39.73-32.32-72.05-72.05-72.05-39.72 0-72.05 32.32-72.05 72.05v163.069h-10c-2.761 0-5 2.239-5 5v65.407c0 2.761 2.239 5 5 5h10v34.453c0 29.67-24.13 53.81-53.8 53.81s-53.81-24.14-53.81-53.81v-64.436c46.349-23.853 78.577-76.52 78.577-137.691 0-66.587-38.129-123.082-91.097-143.352-52.969 20.27-91.06 76.766-91.06 143.353 0 61.189 32.214 113.868 78.58 137.711v64.416c0 43.45 35.35 78.81 78.81 78.81 43.45 0 78.8-35.36 78.8-78.81v-34.453h10c2.761 0 5-2.239 5-5v-65.407c0-2.761-2.239-5-5-5h-10v-163.07c0-25.95 21.11-47.05 47.05-47.05 25.95 0 47.05 21.1 47.05 47.05v144.346h-6.429c-2.761 0-5 2.239-5 5v22.111h-4.523c-2.467 0-4.566 1.8-4.942 4.239l-9.697 62.926h-3.438c-2.761 0-5 2.239-5 5v20.516c0 2.761 2.239 5 5 5h14.529v51.453c0 5.65 4.58 10.23 10.23 10.23 5.64 0 10.22-4.58 10.22-10.23v-51.453h23.48v51.453c0 5.65 4.58 10.23 10.23 10.23s10.23-4.58 10.23-10.23v-51.453h14.146c2.761 0 5-2.239 5-5v-20.516c0-2.762-2.238-5.001-5-5.001z" fill="#2626bc" opacity=".1"/><g><g><path d="m386.753 375.28v60.01c0 5.65-4.58 10.23-10.22 10.23-5.65 0-10.23-4.58-10.23-10.23v-60.01z" fill="#d2deff"/><path d="m366.303 375.28h20.45v26.56h-20.45z" fill="#b7c5ff"/></g><g><path d="m430.693 375.28v60.01c0 5.65-4.58 10.23-10.23 10.23s-10.23-4.58-10.23-10.23v-60.01z" fill="#d2deff"/><path d="m410.233 375.28h20.46v26.56h-20.46z" fill="#b7c5ff"/></g></g><g><path d="m410.803 114.7v152.72c0 6.9-5.59 12.5-12.5 12.5-6.9 0-12.5-5.6-12.5-12.5v-152.72c0-25.95-21.1-47.05-47.05-47.05-25.94 0-47.05 21.1-47.05 47.05v272.93c0 43.45-35.35 78.81-78.8 78.81-43.46 0-78.81-35.36-78.81-78.81v-76.55c0-6.9 5.6-12.5 12.5-12.5s12.5 5.6 12.5 12.5v76.55c0 29.67 24.14 53.81 53.81 53.81s53.8-24.14 53.8-53.81v-272.93c0-39.73 32.33-72.05 72.05-72.05 39.73 0 72.05 32.32 72.05 72.05z" fill="#9fb0fe"/></g><path d="m266.703 295.77h25v75.41h-25z" fill="#8399fe"/><path d="m159.093 311.08v33.12c-2.81 1.46-5.68 2.8-8.6 4.03-2.51 1.06-5.34 1.06-7.84 0-2.9-1.23-5.76-2.56-8.56-4.01v-33.14c0-6.9 5.6-12.5 12.5-12.5s12.5 5.6 12.5 12.5z" fill="#8399fe"/><g><g><path d="m55.513 185.503c0-66.587 38.091-123.082 91.059-143.351 52.968 20.269 91.097 76.765 91.097 143.352 0 64.891-36.259 120.227-87.179 141.731-2.504 1.058-5.333 1.058-7.837 0-50.917-21.506-87.14-76.841-87.14-141.732z" fill="#02ffb3"/><path d="m237.671 185.501c0 64.897-36.26 120.228-87.182 141.733-2.504 1.058-5.333 1.058-7.837 0-50.92-21.506-87.141-76.846-87.141-141.733 0-6.61.37-13.11 1.11-19.49 6.59 57.91 42.23 105.57 89.95 123.83 47.72-18.26 83.39-65.92 89.99-123.83.73 6.38 1.11 12.89 1.11 19.49z" fill="#01eca5"/><path d="m194.709 148.998c-1.393-2.383-4.453-3.188-6.84-1.794l-36.297 21.212v-62.438c0-2.761-2.239-5-5-5s-5 2.239-5 5v42.812l-30.471-19.933c-2.312-1.512-5.411-.863-6.921 1.447-1.512 2.311-.864 5.41 1.447 6.921l35.946 23.514v68.471l-30.471-19.933c-2.312-1.513-5.411-.863-6.921 1.447-1.512 2.311-.864 5.41 1.447 6.921l35.946 23.514v84.592c0 2.761 2.239 5 5 5s5-2.239 5-5v-65.67l32.451-18.964c2.384-1.393 3.187-4.456 1.794-6.84-1.394-2.383-4.454-3.188-6.84-1.794l-27.405 16.015v-68.5l41.343-24.16c2.382-1.393 3.185-4.456 1.792-6.84z" fill="#00b574"/></g></g><path d="m422.239 300.917h-47.865v-36.871c0-2.761 2.239-5 5-5h37.865c2.761 0 5 2.239 5 5z" fill="#ffc4df"/><path d="m443.051 364.028h-89.489l11.347-73.633c.376-2.439 2.474-4.238 4.942-4.238h56.912c2.467 0 4.566 1.8 4.942 4.238z" fill="#ff7eb8"/><path d="m444.839 383.837h-93.066c-2.761 0-5-2.239-5-5v-20.515c0-2.761 2.239-5 5-5h93.066c2.761 0 5 2.239 5 5v20.515c0 2.761-2.239 5-5 5z" fill="#ffc4df"/><path d="m404.251 330.029h-11.889c-2.761 0-5-2.239-5-5v-19.112c0-2.761 2.239-5 5-5h11.889c2.761 0 5 2.239 5 5v19.112c0 2.761-2.239 5-5 5z" fill="#02ffb3"/><g fill="#ffdbed"><path d="m420.465 340.695c-2.761 0-5-2.239-5-5v-.115c0-2.761 2.239-5 5-5s5 2.239 5 5v.115c0 2.762-2.238 5-5 5z"/><path d="m376.528 340.695c-2.761 0-5-2.239-5-5v-.115c0-2.761 2.239-5 5-5s5 2.239 5 5v.115c0 2.762-2.239 5-5 5z"/></g><path d="m251.703 348.177v-65.408c0-2.761 2.239-5 5-5h45c2.761 0 5 2.239 5 5v65.408c0 2.761-2.239 5-5 5h-45c-2.762 0-5-2.239-5-5z" fill="#ffc4df"/><path d="m445.696 348.365-9.051-58.731c-.733-4.753-4.651-8.235-9.407-8.456v-17.132c0-5.514-4.486-10-10-10h-26.432v-139.35c0-28.7-23.35-52.05-52.05-52.05s-52.05 23.35-52.05 52.05v158.073h-15v-158.073c0-36.971 30.079-67.05 67.05-67.05s67.05 30.079 67.05 67.05v111.359c0 2.761 2.239 5 5 5s5-2.239 5-5v-111.359c0-42.485-34.564-77.05-77.05-77.05s-77.05 34.564-77.05 77.05v158.073h-5.004c-5.514 0-10 4.486-10 10v65.408c0 5.514 4.486 10 10 10h5.004v29.451c0 26.913-21.895 48.808-48.808 48.808s-48.808-21.895-48.808-48.808v-61.427c21.282-11.552 39.558-28.937 53.32-50.909 16.523-26.379 25.257-57.428 25.257-89.79 0-66.95-37.9-126.435-94.31-148.021-1.151-.44-2.423-.44-3.574 0-56.387 21.578-94.272 81.063-94.272 148.021 0 32.365 8.727 63.413 25.238 89.789 13.763 21.986 32.047 39.379 53.341 50.931v61.406c0 46.212 37.596 83.808 83.808 83.808s83.808-37.596 83.808-83.808v-29.451h4.996c5.514 0 10-4.486 10-10v-65.408c0-5.514-4.486-10-10-10h-4.996v-158.073c0-23.187 18.863-42.05 42.05-42.05s42.05 18.863 42.05 42.05v139.35h-1.433c-5.514 0-10 4.486-10 10v17.132c-4.756.221-8.674 3.702-9.407 8.456l-9.05 58.731c-5.114.437-9.143 4.732-9.143 9.957v20.516c0 5.514 4.486 10 10 10h9.526v46.458c0 8.397 6.831 15.228 15.228 15.228s15.229-6.831 15.229-15.228v-46.458h13.481v46.458c0 8.397 6.831 15.228 15.228 15.228s15.229-6.831 15.229-15.228v-46.458h9.146c5.514 0 10-4.486 10-10v-20.516c-.001-5.226-4.03-9.52-9.144-9.957zm-361.469-78.38c-15.514-24.783-23.714-53.997-23.714-84.482 0-62.13 34.501-117.307 86.059-137.981 51.58 20.683 86.097 75.86 86.097 137.981 0 30.481-8.207 59.695-23.732 84.481-15.121 24.141-36.004 42.345-60.392 52.645-1.253.529-2.692.529-3.947 0-24.383-10.299-45.259-28.503-60.371-52.644zm202.48 117.643c0 40.698-33.11 73.808-73.808 73.808s-73.808-33.11-73.808-73.808v-56.509c.54.237 1.072.492 1.616.722 1.863.787 3.864 1.181 5.864 1.181s4.001-.394 5.864-1.181c.557-.235 1.102-.496 1.656-.739v56.527c0 32.427 26.381 58.808 58.808 58.808s58.808-26.381 58.808-58.808v-29.451h15zm14.996-39.451-45 .006v-65.414h45zm115.536-84.131v17.11h-37.865v-17.11zm-35.483 171.249c0 2.883-2.346 5.228-5.229 5.228s-5.228-2.345-5.228-5.228v-46.458h10.457zm43.938 0c0 2.883-2.346 5.228-5.229 5.228s-5.228-2.345-5.228-5.228v-46.458h10.457zm19.145-56.458h-93.066v-20.516h13.763c2.761 0 5-2.239 5-5s-2.239-5-5-5h-4.495l8.809-57.165h56.912l8.809 57.165h-37.044c-2.761 0-5 2.239-5 5s2.239 5 5 5h46.313v20.516z" fill="#2626bc"/><g><g><path d="m286.713 303.58h-15.02c-2.762 0-5-2.239-5-5s2.238-5 5-5h15.02c2.762 0 5 2.239 5 5s-2.239 5-5 5z" fill="#ff7eb8"/></g><g><path d="m286.713 320.473h-15.02c-2.762 0-5-2.239-5-5s2.238-5 5-5h15.02c2.762 0 5 2.239 5 5s-2.239 5-5 5z" fill="#ff7eb8"/></g></g></g><path d="m327.712 448.694c-1.28 0-2.559-.488-3.536-1.464-1.953-1.953-1.953-5.119 0-7.071l3.328-3.327-5.002-3.172c-1.282-.813-2.125-2.165-2.292-3.673s.361-3.012 1.434-4.085l7.742-7.742c1.953-1.952 5.118-1.952 7.071 0 1.953 1.953 1.953 5.119 0 7.071l-3.328 3.328 5.002 3.172c1.282.813 2.125 2.165 2.292 3.673s-.361 3.012-1.434 4.085l-7.742 7.742c-.976.975-2.255 1.463-3.535 1.463z" fill="#01eca5"/><path d="m440.446 200.045c-1.28 0-2.559-.488-3.536-1.464-1.953-1.953-1.953-5.119 0-7.071l3.328-3.328-5.002-3.173c-1.282-.813-2.125-2.164-2.292-3.673s.361-3.012 1.434-4.085l7.742-7.742c1.953-1.952 5.118-1.952 7.071 0 1.953 1.953 1.953 5.119 0 7.071l-3.328 3.327 5.002 3.173c1.282.813 2.125 2.164 2.292 3.673s-.361 3.012-1.434 4.085l-7.742 7.742c-.976.977-2.255 1.465-3.535 1.465z" fill="#ff7eb8"/><path d="m52.909 353.577c-1.28 0-2.559-.488-3.536-1.464-1.953-1.953-1.953-5.118 0-7.071l3.328-3.328-5.002-3.173c-1.282-.813-2.125-2.164-2.292-3.673s.361-3.012 1.434-4.085l7.742-7.742c1.953-1.952 5.118-1.952 7.071 0 1.953 1.953 1.953 5.119 0 7.071l-3.328 3.327 5.002 3.173c1.282.813 2.125 2.164 2.292 3.673s-.361 3.011-1.434 4.085l-7.742 7.742c-.976.977-2.256 1.465-3.535 1.465z" fill="#6583fe"/><path d="m226.669 63.544c-2.761 0-5-2.239-5-5 0-3.309-2.691-6-6-6-2.761 0-5-2.239-5-5s2.239-5 5-5c3.309 0 6-2.691 6-6 0-2.761 2.239-5 5-5s5 2.239 5 5c0 3.309 2.691 6 6 6 2.761 0 5 2.239 5 5s-2.239 5-5 5c-3.309 0-6 2.691-6 6 0 2.762-2.238 5-5 5z" fill="#01eca5"/><path d="m454.051 248.54c-2.761 0-5-2.239-5-5 0-3.309-2.691-6-6-6-2.761 0-5-2.239-5-5s2.239-5 5-5c3.309 0 6-2.691 6-6 0-2.761 2.239-5 5-5s5 2.239 5 5c0 3.309 2.691 6 6 6 2.761 0 5 2.239 5 5s-2.239 5-5 5c-3.309 0-6 2.691-6 6 0 2.761-2.239 5-5 5z" fill="#6583fe"/></g></g></svg>