<svg id="Capa_1" enable-background="new 0 0 512 512" height="512" viewBox="0 0 512 512" width="512" xmlns="http://www.w3.org/2000/svg" xmlns:xlink="http://www.w3.org/1999/xlink"><linearGradient id="SVGID_1_" gradientUnits="userSpaceOnUse" x1="5.399" x2="506.601" y1="256" y2="256"><stop offset=".0485" stop-color="#ffdbed"/><stop offset=".9993" stop-color="#d2deff"/></linearGradient><g><g><path d="m461.173 27.352c-63.757-37.987-146.258-35.878-208.873 3.041-35.18 21.866-62.374 53.403-93.212 80.552-27.022 23.789-58.445 40.758-86.353 63.204-101.21 81.403-91.553 300.961 50.962 330.125 61.777 12.642 146.21 16.696 182.519-43.642 34.62-57.531 46.232-116.383 113.876-146.942 23.573-10.65 62.975-10.113 78.944-33.45 20.152-29.45-4.853-60.043-18.192-85.707-17.19-33.074-20.795-65.682-8.699-101.16 10.298-30.211 17.549-43.782-10.972-66.021z" fill="url(#SVGID_1_)"/></g><g><g><path d="m350.437 270.685c26.225 0 47.485-21.26 47.485-47.485 0-22.298-15.373-40.998-36.097-46.1.037-.479.063-.962.063-1.449 0-11.921-11.065-20.759-22.691-18.124l8.216-1.862c8.466-1.919 14.476-9.443 14.476-18.124 0-11.921-11.065-20.759-22.691-18.124l8.216-1.862c8.466-1.919 14.476-9.443 14.476-18.124 0-11.921-11.065-20.759-22.691-18.124l-15.686 3.555v-6.032c0-5.26-2.13-10.03-5.58-13.47-3.45-3.46-8.21-5.59-13.48-5.59-10.52 0-19.05 8.54-19.05 19.06v14.671l-58.8 13.327v-6.369c0-5.26-2.13-10.03-5.58-13.48s-8.21-5.58-13.47-5.58c-10.53 0-19.06 8.53-19.06 19.06v15.007l-23.902 5.417c-8.466 1.919-14.476 9.443-14.476 18.124 0 11.921 11.065 20.759 22.691 18.124l-8.216 1.862c-8.466 1.919-14.476 9.443-14.476 18.124 0 11.921 11.065 20.759 22.691 18.124l-8.216 1.862c-8.466 1.919-14.476 9.443-14.476 18.124 0 11.921 11.065 20.759 22.691 18.124l-8.216 1.862c-8.466 1.919-14.476 9.443-14.476 18.124 0 11.921 11.065 20.759 22.691 18.124l15.686-3.555v26.177c-21.663-1.161-42.849 7.682-57.247 23.966-2.071 29.651 14.65 58.629 43.59 70.759 2.49 1.044 5.007 1.924 7.538 2.668v51.697c0 24.84 20.14 44.98 44.99 44.98h57.28c24.85 0 44.99-20.14 44.99-44.98v-51.697c2.531-.744 5.048-1.624 7.538-2.668 28.939-12.129 45.661-41.107 43.59-70.759-14.399-16.284-35.584-25.126-57.247-23.966v-31.775c7.652 5.278 16.925 8.377 26.926 8.377zm-65.037 36.917c-17.42 12.634-27.978 32.408-29.257 53.408h-.287c-1.279-21-11.837-40.773-29.257-53.408v-48.336l58.8-13.327v61.663z" fill="#2626bc" opacity=".1"/><g><path d="m226.6 76.46v228.56h-38.11v-228.56c0-10.53 8.53-19.06 19.06-19.06 5.26 0 10.02 2.13 13.47 5.58s5.58 8.22 5.58 13.48z" fill="#8399fe"/><path d="m188.49 229.79 38.11-8.63v38.1l-38.11 8.64z" fill="#6583fe"/><path d="m323.51 54.83v250.19h-38.11v-250.19c0-10.52 8.53-19.06 19.05-19.06 5.27 0 10.03 2.13 13.48 5.59 3.45 3.44 5.58 8.21 5.58 13.47z" fill="#8399fe"/><path d="m323.51 199.2v38.1l-38.11 8.63v-38.1z" fill="#6583fe"/></g><g><path d="m347.412 207.884-174.608 39.576c-11.626 2.635-22.691-6.203-22.691-18.124 0-8.681 6.01-16.205 14.476-18.124l174.608-39.576c11.626-2.635 22.691 6.203 22.691 18.124-.001 8.681-6.01 16.205-14.476 18.124z" fill="#d2deff"/><path d="m347.412 169.774-174.608 39.576c-11.626 2.635-22.691-6.203-22.691-18.124 0-8.681 6.01-16.205 14.476-18.124l174.608-39.576c11.626-2.635 22.691 6.203 22.691 18.124-.001 8.681-6.01 16.206-14.476 18.124z" fill="#b7c5ff"/><path d="m347.412 131.665-174.608 39.576c-11.626 2.635-22.691-6.203-22.691-18.124 0-8.681 6.01-16.205 14.476-18.124l174.608-39.576c11.626-2.635 22.691 6.203 22.691 18.124-.001 8.681-6.01 16.205-14.476 18.124z" fill="#d2deff"/><path d="m347.412 93.555-174.608 39.576c-11.626 2.635-22.691-6.203-22.691-18.124 0-8.681 6.01-16.205 14.476-18.124l174.608-39.576c11.626-2.635 22.691 6.203 22.691 18.124-.001 8.681-6.01 16.206-14.476 18.124z" fill="#b7c5ff"/></g><g><g><path d="m329.63 337.01v82.16c0 24.84-20.14 44.98-44.99 44.98h-57.28c-24.85 0-44.99-20.14-44.99-44.98v-82.16z" fill="#ff7eb8"/><path d="m329.63 337.01v51.48c-26.87 7.89-55.47-.88-73.46-21.23h-.34c-17.99 20.35-46.59 29.12-73.46 21.23v-51.48z" fill="#ff5ba8"/><g><g><g><g><g><path d="m212.249 275.532c-28.939-12.129-61.317-3.752-81.007 18.515-2.071 29.651 14.65 58.629 43.59 70.759 28.92 12.121 61.306 3.726 80.996-18.541 2.071-29.652-14.658-58.612-43.579-70.733z" fill="#02ffb3"/><path d="m257.76 341.653-42.246-17.706-3.369-18.265c-.501-2.715-3.11-4.51-5.824-4.01-2.716.501-4.511 3.108-4.01 5.824l2.182 11.833-37.446-15.695c-2.544-1.066-5.477.132-6.544 2.679-1.067 2.546.132 5.477 2.679 6.544l16.785 7.035-8.162 6.141c-2.207 1.66-2.649 4.795-.989 7.001.982 1.306 2.481 1.994 3.999 1.994 1.046 0 2.102-.328 3.002-1.005l12.831-9.654 63.245 26.508c.631.265 1.286.39 1.931.39 1.954 0 3.811-1.153 4.613-3.069 1.069-2.548-.13-5.478-2.677-6.545z" fill="#00b574"/></g></g><g><g><path d="m299.751 275.532c28.939-12.129 61.317-3.752 81.007 18.515 2.071 29.651-14.65 58.629-43.59 70.759-28.92 12.121-61.306 3.726-80.996-18.541-2.071-29.652 14.658-58.612 43.579-70.733z" fill="#00d890"/><path d="m351.495 306.312c-1.067-2.547-3.998-3.745-6.544-2.679l-37.446 15.695 2.182-11.833c.501-2.715-1.294-5.323-4.01-5.824-2.714-.501-5.323 1.294-5.824 4.01l-3.369 18.265-42.246 17.706c-2.547 1.067-3.746 3.997-2.679 6.544.803 1.916 2.659 3.069 4.613 3.069.645 0 1.299-.125 1.931-.39l63.245-26.508 12.831 9.654c.901.678 1.956 1.005 3.002 1.005 1.518 0 3.017-.688 3.999-1.994 1.661-2.207 1.218-5.341-.989-7.001l-8.162-6.141 16.785-7.035c2.549-1.067 3.749-3.997 2.681-6.543z" fill="#00b574"/></g></g></g></g></g></g></g><g><circle cx="350.437" cy="199.2" fill="#fff" r="47.485"/><path d="m366.107 193.071h-12.167v-23.854c0-1.112-1.494-1.475-2.004-.487l-18.111 35.05c-.365.706.148 1.549.943 1.549h12.167v23.854c0 1.112 1.494 1.475 2.004.487l18.111-35.05c.365-.707-.148-1.549-.943-1.549z" fill="#ff7eb8"/><path d="m350.437 251.685c28.94 0 52.485-23.544 52.485-52.484 0-23.239-15.187-42.987-36.154-49.87-.615-6.316-3.722-12.093-8.745-16.106-.268-.214-.543-.416-.818-.617 5.955-4.318 9.683-11.285 9.683-19.066 0-7.21-3.231-13.926-8.865-18.426-.268-.214-.543-.416-.818-.617 5.955-4.318 9.683-11.285 9.683-19.066 0-7.21-3.231-13.927-8.866-18.427-5.634-4.5-12.898-6.167-19.931-4.573l-9.589 2.173c-.122-13.16-10.861-23.83-24.049-23.83-13.264 0-24.055 10.791-24.055 24.055v10.679l-48.795 11.06v-.11c0-13.264-10.791-24.055-24.055-24.055s-24.055 10.791-24.055 24.055v11.014l-20.01 4.535c-10.816 2.451-18.371 11.909-18.371 23 0 7.21 3.231 13.927 8.866 18.427.27.215.553.405.83.608-5.962 4.317-9.696 11.288-9.696 19.075 0 7.21 3.231 13.927 8.866 18.427.27.215.553.405.83.608-5.962 4.317-9.696 11.288-9.696 19.075 0 7.21 3.231 13.927 8.866 18.427.27.215.553.405.83.608-5.962 4.317-9.696 11.288-9.696 19.075 0 7.21 3.231 13.927 8.865 18.427 4.235 3.382 9.39 5.164 14.676 5.164 1.747 0 3.509-.194 5.256-.59l9.583-2.172v14.833c-21.005.323-41.464 9.302-55.996 25.738-.729.824-1.166 1.866-1.242 2.963-2.28 32.64 16.465 63.069 46.645 75.718 1.476.619 2.971 1.173 4.476 1.696v13.822c-2.169.547-3.781 2.494-3.781 4.833s1.612 4.286 3.781 4.833v17.26c-2.169.547-3.781 2.494-3.781 4.833 0 2.361 1.641 4.327 3.842 4.852 1.245 26.461 23.159 47.605 49.922 47.605h57.285c26.763 0 48.677-21.145 49.922-47.605 2.2-.525 3.842-2.491 3.842-4.852 0-2.338-1.612-4.286-3.781-4.833v-17.264c2.169-.547 3.781-2.494 3.781-4.833s-1.612-4.286-3.781-4.833v-13.823c1.501-.522 2.995-1.075 4.476-1.695 30.18-12.649 48.925-43.078 46.645-75.719-.077-1.098-.513-2.139-1.242-2.963-14.532-16.434-34.991-25.414-55.996-25.737v-18.132c6.676 3.085 14.101 4.82 21.928 4.82zm42.484-52.485c0 23.426-19.059 42.484-42.485 42.484s-42.484-19.059-42.484-42.484c0-23.426 19.059-42.485 42.484-42.485 23.427 0 42.485 19.059 42.485 42.485zm-42.484-52.485c-19.994 0-37.408 11.241-46.266 27.733l-132.472 30.025c-4.05.919-8.234-.042-11.479-2.634s-5.106-6.46-5.106-10.613c0-6.388 4.351-11.835 10.581-13.247l174.615-39.577c4.05-.915 8.23.044 11.472 2.636 1.991 1.59 3.454 3.663 4.293 5.985-1.854-.2-3.734-.308-5.638-.308zm-178.738 19.649c-4.05.919-8.234-.042-11.479-2.634s-5.106-6.46-5.106-10.613c0-6.388 4.351-11.835 10.581-13.247l174.615-39.577c1.004-.227 2.016-.339 3.02-.339 3.044 0 6.014 1.026 8.453 2.975 3.245 2.592 5.106 6.46 5.106 10.613 0 6.388-4.351 11.835-10.581 13.247zm118.698-111.534c0-7.75 6.305-14.055 14.055-14.055s14.055 6.305 14.055 14.055v2.041l-28.109 6.371v-8.412zm-96.904 21.628c0-7.75 6.305-14.055 14.055-14.055s14.055 6.305 14.055 14.055v2.377l-28.109 6.371v-8.748zm-27.799 25.303 174.607-39.576c1.006-.229 2.021-.34 3.027-.34 3.044 0 6.014 1.026 8.452 2.974 3.245 2.592 5.106 6.46 5.106 10.613 0 6.388-4.351 11.835-10.581 13.248l-8.204 1.859c-.004.001-.008.001-.012.002l-166.392 37.714c-4.05.919-8.234-.042-11.479-2.634s-5.106-6.46-5.106-10.613c.001-6.388 4.352-11.836 10.582-13.247zm6.005 140.822c-4.051.917-8.236-.042-11.48-2.634-3.245-2.592-5.106-6.46-5.106-10.613 0-6.388 4.351-11.835 10.581-13.247l134.024-30.377c-1.146 4.307-1.765 8.826-1.765 13.489 0 4.962.707 9.76 2 14.313zm49.904-1.057v32.998c-2.39-1.32-4.861-2.531-7.421-3.604-6.73-2.821-13.693-4.61-20.688-5.426v-17.596zm-34.228 170.167v-16.925h137.25v16.925zm97.268 47.457h-57.285c-21.197 0-38.586-16.584-39.894-37.457h137.074c-1.309 20.873-18.698 37.457-39.895 37.457zm39.982-74.382h-137.25v-10.922c3.436.69 6.918 1.156 10.437 1.366.102.006.203.009.303.009 2.625 0 4.828-2.046 4.987-4.701.165-2.756-1.936-5.125-4.692-5.29-7.454-.446-14.736-2.141-21.645-5.036-25.701-10.772-41.859-36.382-40.631-64.097 18.892-20.299 48.477-26.728 74.183-15.954 25.692 10.769 41.846 36.369 40.621 64.07-6.236 6.686-13.956 12.11-22.426 15.744-2.538 1.088-3.712 4.028-2.624 6.566 1.089 2.538 4.029 3.711 6.566 2.624 8.748-3.753 16.79-9.187 23.541-15.829 14.512 14.34 33.865 22.038 53.62 22.038 5.002 0 10.03-.496 15.01-1.498zm51.242-88.672c1.228 27.716-14.93 53.325-40.631 64.098-25.689 10.767-55.273 4.329-74.172-15.979-1.227-27.703 14.927-53.302 40.621-64.071 25.704-10.775 55.289-4.347 74.182 15.952zm-57.36-30.602c-6.996.816-13.958 2.605-20.688 5.426-2.56 1.073-5.031 2.284-7.421 3.604v-20.374c0-2.761-2.239-5-5-5s-5 2.239-5 5v26.969c-11.048 8.608-19.461 20.055-24.397 33.001-4.937-12.946-13.349-24.392-24.397-33v-41.86l72.044-16.329c3.572 7.014 8.669 13.122 14.86 17.883v24.68z" fill="#2626bc"/></g></g><path d="m100.232 261.93c-1.28 0-2.559-.488-3.536-1.464-1.953-1.953-1.953-5.118 0-7.071l3.328-3.328-5.002-3.173c-1.282-.813-2.125-2.164-2.292-3.673s.361-3.012 1.434-4.085l7.742-7.742c1.953-1.952 5.118-1.952 7.071 0 1.953 1.953 1.953 5.119 0 7.071l-3.328 3.327 5.002 3.173c1.282.813 2.125 2.164 2.292 3.673s-.361 3.011-1.434 4.085l-7.742 7.742c-.975.977-2.255 1.465-3.535 1.465z" fill="#ff7eb8"/><path d="m397.921 375.579c-2.761 0-5-2.239-5-5 0-3.309-2.691-6-6-6-2.761 0-5-2.239-5-5s2.239-5 5-5c3.309 0 6-2.691 6-6 0-2.761 2.239-5 5-5s5 2.239 5 5c0 3.309 2.691 6 6 6 2.761 0 5 2.239 5 5s-2.239 5-5 5c-3.309 0-6 2.691-6 6 0 2.761-2.238 5-5 5z" fill="#6583fe"/><path d="m373.188 421.742c-1.28 0-2.559-.488-3.536-1.464-1.953-1.953-1.953-5.118 0-7.071l3.328-3.328-5.002-3.173c-1.282-.813-2.125-2.164-2.292-3.673s.361-3.012 1.434-4.085l7.742-7.742c1.953-1.952 5.118-1.952 7.071 0 1.953 1.953 1.953 5.119 0 7.071l-3.328 3.327 5.002 3.173c1.282.813 2.125 2.164 2.292 3.673s-.361 3.011-1.434 4.085l-7.742 7.742c-.975.977-2.255 1.465-3.535 1.465z" fill="#ff7eb8"/><path d="m119.461 96.55c-1.28 0-2.559-.488-3.536-1.464-1.953-1.953-1.953-5.119 0-7.071l3.328-3.327-5.002-3.173c-1.282-.813-2.125-2.164-2.292-3.673s.361-3.011 1.434-4.085l7.742-7.742c1.952-1.952 5.118-1.952 7.071 0 1.953 1.953 1.953 5.118 0 7.071l-3.328 3.328 5.002 3.173c1.282.813 2.125 2.164 2.292 3.673s-.361 3.012-1.434 4.085l-7.742 7.742c-.976.975-2.255 1.463-3.535 1.463z" fill="#01eca5"/><path d="m408.921 128.795c-2.761 0-5-2.239-5-5 0-3.309-2.691-6-6-6-2.761 0-5-2.239-5-5s2.239-5 5-5c3.309 0 6-2.691 6-6 0-2.761 2.239-5 5-5s5 2.239 5 5c0 3.309 2.691 6 6 6 2.761 0 5 2.239 5 5s-2.239 5-5 5c-3.309 0-6 2.691-6 6 0 2.762-2.238 5-5 5z" fill="#6583fe"/></g></g></svg>