<svg id="Capa_1" enable-background="new 0 0 512 512" height="512" viewBox="0 0 512 512" width="512" xmlns="http://www.w3.org/2000/svg" xmlns:xlink="http://www.w3.org/1999/xlink"><linearGradient id="SVGID_1_" gradientUnits="userSpaceOnUse" x1="12.034" x2="499.966" y1="256" y2="256"><stop offset="0" stop-color="#ffdbed"/><stop offset="1" stop-color="#dcfdee"/></linearGradient><g><g><path d="m286.593 4.867c-94.351 27.746-75.427 93.585-85.98 166.539-13.171 91.052-70.095 44.365-135.496 93.537-113.054 85.001-30.931 272.636 109.468 244.14 74.552-15.131 89.786-70.095 120.193-128.824 39.333-75.972 104.558-55.259 163.066-104.856 118.655-100.582-37.403-309.897-171.251-270.536z" fill="url(#SVGID_1_)"/></g><g><g><g fill="#2626bc" opacity=".1"><path d="m366.257 204.572c0-61.536-50.313-111.32-112.046-110.461-16.524.23-32.173 4.141-46.188 10.926-9.319-11.635-23.636-19.094-39.703-19.094-4.859 0-9.554.696-14.004 1.969l-17.156-23.228c-1.817-2.459-5.396-2.727-7.557-.565l-14.655 14.655c-2.162 2.162-1.894 5.741.565 7.557l18.068 13.344c-6.208 5.812-10.955 13.158-13.638 21.44l-20.948-13.892c-2.548-1.69-6.003-.717-7.295 2.054l-8.759 18.783c-1.292 2.771.183 6.043 3.116 6.908l31.98 9.442c2.602 17.325 13.947 31.777 29.396 38.749-1.535 7.704-2.269 15.68-2.094 23.838.51 23.701 8.485 45.563 21.667 63.331 18.655 25.145 29.77 55.014 31.26 86.149h-9.484c-3.44 0-6.228 2.788-6.228 6.228v32.922c0 3.44 2.788 6.228 6.228 6.228h17.552v15.914h-4.824c-2.761 0-5 2.239-5 5s2.239 5 5 5h4.824v14.126h-4.824c-2.761 0-5 2.239-5 5s2.239 5 5 5h5.528c3.353 17.07 18.393 29.949 36.445 29.949h24.604c18.053 0 33.092-12.879 36.445-29.949h5.528c2.762 0 5-2.239 5-5s-2.238-5-5-5h-4.824v-14.126h4.824c2.762 0 5-2.239 5-5s-2.238-5-5-5h-4.824v-15.914h17.552c3.439 0 6.228-2.788 6.228-6.228v-32.922c0-3.44-2.788-6.228-6.228-6.228h-9.486c1.469-31.043 12.417-60.893 31.079-85.902 13.741-18.416 21.876-41.26 21.876-66.003z"/><path d="m402.487 313.283-30.176-22.287c-1.99-1.47-4.756-1.263-6.506.486l-6.766 6.766c-1.75 1.75-1.956 4.516-.486 6.506l22.287 30.176c1.816 2.459 5.396 2.727 7.557.565l14.655-14.655c2.162-2.162 1.894-5.741-.565-7.557z"/><path d="m431.943 264.646-35.979-10.622c-2.373-.701-4.902.44-5.947 2.682l-4.044 8.672c-1.046 2.242-.294 4.913 1.768 6.28l31.264 20.734c2.548 1.69 6.003.717 7.295-2.054l8.759-18.783c1.292-2.772-.184-6.044-3.116-6.909z"/><path d="m146.195 291.482c-1.75-1.75-4.516-1.956-6.506-.486l-30.176 22.287c-2.459 1.816-2.727 5.395-.565 7.557l14.655 14.655c2.162 2.162 5.741 1.894 7.557-.565l22.287-30.176c1.47-1.99 1.263-4.756-.486-6.506z"/><path d="m126.027 265.377-4.044-8.672c-1.046-2.242-3.574-3.383-5.947-2.682l-35.979 10.622c-2.932.866-4.408 4.137-3.116 6.908l8.759 18.783c1.292 2.771 4.747 3.744 7.295 2.054l31.264-20.734c2.062-1.366 2.814-4.036 1.768-6.279z"/><path d="m359.804 108.132c1.75 1.75 4.516 1.956 6.506.486l30.176-22.287c2.459-1.816 2.727-5.395.565-7.557l-14.655-14.655c-2.162-2.162-5.741-1.894-7.557.565l-22.287 30.176c-1.47 1.99-1.263 4.756.486 6.506z"/><path d="m379.973 134.236 4.044 8.672c1.046 2.242 3.574 3.383 5.947 2.682l35.979-10.622c2.932-.866 4.408-4.137 3.116-6.908l-8.759-18.783c-1.292-2.771-4.747-3.744-7.295-2.054l-31.264 20.734c-2.062 1.366-2.814 4.037-1.768 6.279z"/></g><g><g><g><path d="m268.088 457.843h-24.604c-20.517 0-37.149-16.632-37.149-37.149v-42.84h98.902v42.84c0 20.516-16.633 37.149-37.149 37.149z" fill="#ff7eb8"/><path d="m206.335 377.854h98.902v20.913h-98.902z" fill="#ff5ba8"/><path d="m366.257 180.572c0-61.536-50.313-111.32-112.046-110.461-61.042.85-110.186 51.851-108.872 112.885.51 23.701 8.485 45.563 21.667 63.331 20.086 27.074 31.439 59.624 31.439 93.335h114.68v-.006c0-33.604 11.158-66.15 31.255-93.082 13.742-18.415 21.877-41.259 21.877-66.002z" fill="#02ffb3"/><path d="m219.17 133.8c0 28.08-22.76 50.85-50.85 50.85-8.27 0-16.08-1.98-22.99-5.48.47-36.95 19.42-69.86 48.07-89.62 15.39 8.74 25.77 25.28 25.77 44.25z" fill="#01eca5"/><path d="m363.17 206.6c-3.54 14.69-10.03 28.23-18.79 39.97-10.05 13.47-17.86 28.34-23.16 44.04-5.3 15.71-8.09 32.25-8.09 49.05h-114.68c0-33.71-11.36-66.26-31.44-93.33-8.68-11.69-15.1-25.15-18.61-39.74 15.41 1.53 16.43 14.54 33.76 14.54 18.41 0 18.41-14.68 36.82-14.68s18.41 14.68 36.81 14.68c18.41 0 18.41-14.68 36.82-14.68s18.41 14.68 36.82 14.68c17.32 0 18.35-12.99 33.74-14.53z" fill="#8399fe"/><path d="m322.788 377.854h-134.005c-3.44 0-6.228-2.788-6.228-6.228v-32.922c0-3.44 2.788-6.228 6.228-6.228h134.005c3.44 0 6.228 2.788 6.228 6.228v32.922c0 3.44-2.788 6.228-6.228 6.228z" fill="#fff"/><path d="m270.173 332.476h26.626v45.378h-26.626z" fill="#ffc4df"/></g></g></g><circle cx="219.173" cy="206.45" fill="#97ffd2" r="18.02"/><circle cx="232.852" cy="265.388" fill="#9fb0fe" r="10.544"/><circle cx="288.942" cy="303.399" fill="#9fb0fe" r="10.544"/><circle cx="274.905" cy="251.352" fill="#b7c5ff" r="14.037"/><circle cx="256" cy="180.708" fill="#97ffd2" r="12.604"/><circle cx="226.758" cy="165.101" fill="#dcfdee" r="9.302"/><path d="m236.06 212.74c-2.56 6.85-9.15 11.73-16.89 11.73-7.83 0-14.49-4.99-16.98-11.97 4.12-3.19 8.67-6.05 16.79-6.05 8.32 0 12.88 3 17.08 6.29z" fill="#9fb0fe"/><g fill="#ffa8cf"><g><path d="m359.039 274.247 6.766-6.766c1.75-1.75 4.516-1.956 6.506-.486l30.176 22.287c2.459 1.816 2.727 5.395.565 7.557l-14.655 14.655c-2.162 2.162-5.741 1.894-7.557-.565l-22.287-30.176c-1.471-1.99-1.264-4.756.486-6.506z"/><path d="m385.973 241.377 4.044-8.672c1.046-2.242 3.574-3.383 5.947-2.682l35.979 10.622c2.932.866 4.408 4.137 3.116 6.908l-8.759 18.783c-1.292 2.771-4.747 3.744-7.295 2.054l-31.264-20.734c-2.062-1.366-2.814-4.036-1.768-6.279z"/></g><g><path d="m152.961 274.247-6.766-6.766c-1.75-1.75-4.516-1.956-6.506-.486l-30.176 22.287c-2.459 1.816-2.727 5.395-.565 7.557l14.655 14.655c2.162 2.162 5.741 1.894 7.557-.565l22.287-30.176c1.471-1.99 1.264-4.756-.486-6.506z"/><path d="m126.027 241.377-4.044-8.672c-1.046-2.242-3.574-3.383-5.947-2.682l-35.979 10.622c-2.932.866-4.408 4.137-3.116 6.908l8.759 18.783c1.292 2.771 4.747 3.744 7.295 2.054l31.264-20.734c2.062-1.366 2.814-4.036 1.768-6.279z"/></g></g><g fill="#ffa8cf"><g><path d="m158.961 77.366-6.766 6.766c-1.75 1.75-4.516 1.956-6.506.486l-30.176-22.287c-2.459-1.817-2.727-5.395-.565-7.557l14.655-14.655c2.162-2.162 5.741-1.894 7.557.565l22.287 30.176c1.471 1.99 1.264 4.756-.486 6.506z"/><path d="m132.027 110.236-4.044 8.672c-1.046 2.242-3.574 3.383-5.947 2.682l-35.979-10.622c-2.932-.866-4.408-4.137-3.116-6.908l8.759-18.784c1.292-2.771 4.747-3.744 7.295-2.054l31.264 20.734c2.062 1.367 2.814 4.038 1.768 6.28z"/></g><g><path d="m353.039 77.366 6.766 6.766c1.75 1.75 4.516 1.956 6.506.486l30.176-22.287c2.459-1.817 2.727-5.395.565-7.557l-14.655-14.655c-2.162-2.162-5.741-1.894-7.557.565l-22.288 30.176c-1.47 1.99-1.263 4.756.487 6.506z"/><path d="m379.973 110.236 4.044 8.672c1.046 2.242 3.574 3.383 5.947 2.682l35.979-10.622c2.932-.866 4.408-4.137 3.116-6.908l-8.759-18.784c-1.292-2.771-4.747-3.744-7.295-2.054l-31.264 20.734c-2.062 1.367-2.814 4.038-1.768 6.28z"/></g></g><g><circle cx="168.32" cy="112.795" fill="#fff" r="50.853"/><path d="m185.102 106.232h-13.03v-25.546c0-1.191-1.6-1.58-2.146-.522l-19.397 37.536c-.391.757.158 1.658 1.01 1.658h13.03v25.546c0 1.191 1.6 1.58 2.146.522l19.396-37.536c.391-.756-.158-1.658-1.009-1.658z" fill="#ff7eb8"/><g fill="#2626bc"><path d="m371.257 180.572c0-31.147-12.215-60.347-34.395-82.22-22.175-21.869-51.564-33.677-82.72-33.24-15.574.216-30.632 3.519-44.799 9.803-10.359-11.205-25.115-17.972-41.023-17.972-4.11 0-8.112.459-11.971 1.305l-15.167-20.535c-1.731-2.345-4.392-3.814-7.298-4.031-2.902-.224-5.755.839-7.817 2.901l-14.654 14.654c-2.061 2.061-3.119 4.91-2.901 7.817.217 2.907 1.687 5.567 4.031 7.298l13.519 9.985c-3.418 3.956-6.29 8.393-8.5 13.198l-15.803-10.48c-2.429-1.611-5.431-2.08-8.237-1.292-2.805.79-5.121 2.758-6.353 5.399l-8.759 18.784c-1.231 2.642-1.25 5.68-.053 8.337 1.198 2.657 3.489 4.654 6.285 5.48l29.032 8.571c3.43 16.261 13.951 29.938 28.17 37.626-1.144 6.958-1.654 14.061-1.502 21.143.518 24.036 8.35 46.928 22.65 66.203 17.29 23.305 27.575 50.25 29.917 78.17h-4.124c-6.191 0-11.228 5.037-11.228 11.228v32.922c0 6.191 5.037 11.228 11.228 11.228h12.551v10.931c-2.678.095-4.824 2.281-4.824 4.982s2.146 4.888 4.824 4.982v14.161c-2.678.095-4.824 2.281-4.824 4.982 0 2.761 2.239 5 5 5h.452c3.428 19.821 20.735 34.949 41.521 34.949h24.604c20.785 0 38.093-15.128 41.521-34.949h.452c2.762 0 5-2.239 5-5 0-2.701-2.146-4.888-4.824-4.982v-14.16c2.678-.095 4.824-2.281 4.824-4.982s-2.146-4.888-4.824-4.982v-10.931h12.552c6.19 0 11.228-5.037 11.228-11.228v-32.922c0-6.191-5.037-11.228-11.228-11.228h-4.131c2.323-28.023 12.544-54.88 29.73-77.912 14.96-20.05 22.868-43.908 22.868-68.993zm-238.119-136.918 13.162 17.821c-4.681 2.016-9.029 4.658-12.948 7.814l-14.868-10.981zm-45.665 62.518 8.758-18.783 17.903 11.873c-1.083 4.336-1.667 8.867-1.667 13.534 0 .256.016.507.019.762zm123.861 311.722v-14.126h88.902v14.126zm56.754 34.948h-24.604c-15.251 0-28.047-10.679-31.326-24.949h87.256c-3.28 14.271-16.075 24.949-31.326 24.949zm32.148-59.074h-88.902v-10.914h88.902zm8.397-66.292h-63.411c-2.761 0-5 2.239-5 5s2.239 5 5 5h77.567c.677 0 1.228.551 1.228 1.228v32.922c0 .677-.551 1.228-1.228 1.228h-134.006c-.677 0-1.228-.551-1.228-1.228v-32.922c0-.677.551-1.228 1.228-1.228h23.447c2.761 0 5-2.239 5-5s-2.239-5-5-5h-9.297c-2.36-30.074-13.337-59.091-31.911-84.128-13.059-17.601-20.21-38.508-20.683-60.46-.122-5.649.22-11.311 1.002-16.887 5.357 1.714 11.06 2.647 16.979 2.647 23.964 0 45.225-15.251 52.904-37.952.885-2.616-.518-5.454-3.134-6.338-2.614-.886-5.454.518-6.338 3.134-6.304 18.635-23.758 31.156-43.432 31.156-25.283 0-45.853-20.569-45.853-45.853s20.569-45.853 45.853-45.853c19.504 0 36.91 12.378 43.312 30.802.906 2.608 3.755 3.987 6.364 3.082 2.608-.907 3.988-3.756 3.082-6.364-1.405-4.042-3.25-7.841-5.461-11.36 12.277-5.114 25.26-7.806 38.664-7.992 28.461-.375 55.305 10.386 75.56 30.361 20.259 19.979 31.416 46.65 31.416 75.1 0 22.914-7.222 44.703-20.883 63.012-18.48 24.766-29.398 53.702-31.741 83.893z"/><path d="m405.458 285.261-30.177-22.287c-4.014-2.966-9.487-2.555-13.012.972l-6.766 6.766c-3.528 3.527-3.938 9-.973 13.013l22.286 30.176c1.732 2.345 4.392 3.814 7.299 4.031.25.019.499.028.748.028 2.643 0 5.185-1.045 7.068-2.929l14.654-14.655c2.062-2.061 3.119-4.91 2.901-7.816-.215-2.907-1.683-5.567-4.028-7.299zm-20.596 22.698-22.291-30.173.003-.003 6.766-6.766 30.177 22.287z"/><path d="m439.643 241.329c-1.198-2.657-3.489-4.654-6.284-5.479l-35.979-10.623c-4.785-1.412-9.787.845-11.894 5.365l-4.044 8.671c-2.108 4.521-.621 9.804 3.536 12.561l31.264 20.733c1.656 1.099 3.579 1.667 5.524 1.667.907 0 1.82-.124 2.713-.375 2.806-.79 5.121-2.758 6.353-5.399l8.76-18.783c1.23-2.642 1.249-5.681.051-8.338zm-17.874 22.895-31.266-20.73.001-.003 4.044-8.672 35.979 10.623z"/><path d="m149.731 263.946c-3.528-3.528-9-3.936-13.012-.973l-30.176 22.288c-2.345 1.731-3.814 4.392-4.031 7.298-.217 2.907.84 5.756 2.901 7.817l14.654 14.655c1.884 1.884 4.426 2.929 7.068 2.929.249 0 .499-.009.749-.028 2.907-.217 5.567-1.687 7.298-4.031l22.288-30.177c2.963-4.013 2.553-9.485-.974-13.012zm-22.593 44.013-14.654-14.654 30.176-22.288 6.766 6.766z"/><path d="m130.559 239.264-4.043-8.671c-2.108-4.521-7.11-6.777-11.895-5.365l-35.979 10.622c-2.795.825-5.086 2.822-6.284 5.479s-1.179 5.696.052 8.339l8.759 18.782c1.232 2.642 3.547 4.61 6.353 5.4.893.251 1.805.375 2.713.375 1.945 0 3.868-.569 5.524-1.667l31.265-20.733c4.156-2.758 5.643-8.041 3.535-12.561zm-40.327 24.96-8.759-18.783 35.979-10.622 4.043 8.671z"/><path d="m356.269 87.666c1.95 1.952 4.496 2.949 7.063 2.949 2.071 0 4.156-.651 5.95-1.975l30.177-22.288c2.345-1.732 3.813-4.392 4.03-7.298.218-2.907-.84-5.756-2.901-7.817l-14.654-14.654c-2.061-2.06-4.9-3.12-7.816-2.901-2.907.217-5.566 1.687-7.298 4.031l-22.287 30.175c-2.965 4.013-2.556 9.485.973 13.013zm.306-13.835 22.287-30.176 14.654 14.654-30.176 22.287z"/><path d="m375.441 112.349 4.043 8.67c1.667 3.577 5.298 5.769 9.104 5.769.929 0 1.868-.13 2.791-.403l35.979-10.622c2.796-.826 5.086-2.823 6.284-5.48s1.179-5.695-.053-8.337l-8.759-18.783c-1.231-2.642-3.547-4.61-6.353-5.4-2.805-.789-5.808-.319-8.237 1.292l-31.264 20.734c-4.156 2.757-5.643 8.04-3.535 12.56zm9.064-4.226 31.264-20.734 8.758 18.783-35.979 10.622z"/></g></g></g><path d="m64.976 196.708c-2.761 0-5-2.239-5-5 0-3.309-2.691-6-6-6-2.761 0-5-2.239-5-5s2.239-5 5-5c3.309 0 6-2.691 6-6 0-2.761 2.239-5 5-5s5 2.239 5 5c0 3.309 2.691 6 6 6 2.761 0 5 2.239 5 5s-2.239 5-5 5c-3.309 0-6 2.691-6 6 0 2.762-2.239 5-5 5z" fill="#6583fe"/><path d="m398.517 397.742c-2.762 0-5-2.239-5-5 0-3.309-2.691-6-6-6-2.762 0-5-2.239-5-5s2.238-5 5-5c3.309 0 6-2.692 6-6 0-2.761 2.238-5 5-5s5 2.239 5 5c0 3.309 2.691 6 6 6 2.762 0 5 2.239 5 5s-2.238 5-5 5c-3.309 0-6 2.691-6 6 0 2.761-2.239 5-5 5z" fill="#ff7eb8"/><path d="m446.817 171.648c-1.279 0-2.56-.488-3.535-1.464-1.953-1.953-1.953-5.119 0-7.071l3.327-3.328-5.002-3.172c-1.282-.813-2.125-2.165-2.292-3.673s.361-3.012 1.435-4.085l7.742-7.742c1.951-1.952 5.119-1.952 7.07 0 1.953 1.953 1.953 5.119 0 7.071l-3.327 3.327 5.002 3.172c1.282.813 2.125 2.165 2.292 3.673s-.36 3.012-1.435 4.085l-7.742 7.742c-.975.977-2.255 1.465-3.535 1.465z" fill="#01eca5"/><path d="m147.796 419.742c-1.28 0-2.559-.488-3.536-1.464-1.953-1.953-1.953-5.118 0-7.071l3.328-3.328-5.002-3.173c-1.282-.813-2.125-2.164-2.292-3.673s.361-3.012 1.434-4.085l7.742-7.742c1.954-1.952 5.119-1.951 7.071 0 1.953 1.953 1.953 5.119 0 7.071l-3.328 3.328 5.002 3.172c1.282.813 2.125 2.164 2.292 3.673s-.361 3.011-1.434 4.085l-7.742 7.742c-.976.977-2.255 1.465-3.535 1.465z" fill="#6583fe"/><path d="m405.049 201.708c-1.279 0-2.56-.488-3.535-1.464-1.953-1.953-1.953-5.119 0-7.071l3.327-3.328-5.002-3.172c-1.282-.813-2.125-2.165-2.292-3.673s.361-3.012 1.435-4.085l7.742-7.742c1.951-1.952 5.118-1.952 7.071 0 1.952 1.953 1.952 5.119-.001 7.071l-3.327 3.327 5.002 3.172c1.282.813 2.125 2.165 2.292 3.673s-.361 3.012-1.435 4.085l-7.742 7.742c-.976.977-2.256 1.465-3.535 1.465z" fill="#ff7eb8"/></g></g></svg>