<svg id="Capa_1" enable-background="new 0 0 512 512" height="512" viewBox="0 0 512 512" width="512" xmlns="http://www.w3.org/2000/svg" xmlns:xlink="http://www.w3.org/1999/xlink"><linearGradient id="SVGID_1_" gradientUnits="userSpaceOnUse" x1="15.63" x2="496.37" y1="256" y2="256"><stop offset=".0485" stop-color="#d2deff"/><stop offset=".9993" stop-color="#dcfdee"/></linearGradient><g><g><path d="m20.722 179.563c26.255 85.007 107.775 89.005 182.131 93.553 244.867 14.978-63.002 218.186 146.697 238.304 77.136 7.4 157.788-56.956 145.59-140.291-11.107-75.879-121.152-121.073-121.207-191.979-.043-55.945 103.86-96.409 36.272-156.553-60.249-53.612-442.871-15.888-389.483 156.966z" fill="url(#SVGID_1_)"/></g><g><path d="m351.707 306.641v-94.798c19.459-5.933 33.618-24.022 33.618-45.422s-14.159-39.488-33.618-45.422v-2.669c0-37.28-30.33-67.61-67.6-67.61-9.297 0-18.16 1.888-26.23 5.297-8.07-3.41-16.933-5.297-26.23-5.297-37.27 0-67.6 30.33-67.6 67.61v188.311c-11.785 3.927-22.516 10.893-30.927 20.406-2.071 29.651 14.65 58.629 43.589 70.759 2.49 1.044 5.007 1.924 7.538 2.668v17.294h-3.776c-2.762 0-5 2.239-5 5s2.238 5 5 5h3.776v16.925h-3.776c-2.762 0-5 2.239-5 5s2.238 5 5 5h3.851c1.309 23.666 20.913 42.457 44.916 42.457h57.28c24.003 0 43.606-18.791 44.916-42.457h3.851c2.762 0 5-2.239 5-5s-2.238-5-5-5h-3.776v-16.925h3.776c2.762 0 5-2.239 5-5s-2.238-5-5-5h-3.776v-17.294c2.531-.744 5.048-1.624 7.538-2.668 28.939-12.129 45.661-41.107 43.589-70.759-8.413-9.513-19.144-16.48-30.929-20.406zm-28.86-188.311v3.037c-9.588 3.19-17.813 9.349-23.59 17.392v-20.429c0-14.353-4.509-27.665-12.166-38.624 19.97 1.531 35.756 18.259 35.756 38.624zm0 93.146v91.786c-7.123.639-14.27 2.357-21.219 5.27-.801.336-1.589.689-2.371 1.05v-115.499c5.777 8.044 14.002 14.203 23.59 17.393zm-77.49-93.146c0-11.26 4.829-21.408 12.52-28.494 7.691 7.086 12.52 17.234 12.52 28.494v215.632c-7.274 10.629-11.588 23.104-12.377 36.048h-.287c-.788-12.944-5.103-25.419-12.377-36.048v-215.632zm-52.45 0c0-20.365 15.786-37.094 35.756-38.624-7.657 10.958-12.166 24.271-12.166 38.624v191.252c-.782-.361-1.57-.715-2.371-1.05-6.949-2.913-14.097-4.631-21.219-5.27z" fill="#2626bc" opacity=".1"/><g><path d="m331.507 346.01v82.16c0 24.84-20.14 44.98-44.99 44.98h-57.28c-24.85 0-44.99-20.14-44.99-44.98v-82.16z" fill="#ff7eb8"/><path d="m331.507 346.01v51.48c-26.87 7.89-55.47-.88-73.46-21.23h-.34c-17.99 20.35-46.59 29.12-73.46 21.23v-51.48z" fill="#ff5ba8"/><g><g><g><g><path d="m299.257 94.33v227.1c0 7.97-6.46 14.43-14.43 14.43s-14.43-6.46-14.43-14.43v-227.1c0-21.37-17.38-38.75-38.75-38.75-21.36 0-38.74 17.38-38.74 38.75v227.1c0 7.97-6.46 14.43-14.43 14.43s-14.43-6.46-14.43-14.43v-227.1c0-37.28 30.33-67.61 67.6-67.61 37.28 0 67.61 30.33 67.61 67.61z" fill="#b7c5ff"/></g><path d="m299.257 135.02v55.35c-5.6-7.79-8.9-17.34-8.9-27.67s3.3-19.89 8.9-27.68z" fill="#9fb0fe"/><g><path d="m297.307 78.17c-4.12-1.5-8.57-2.32-13.2-2.32-5.95 0-11.58 1.35-16.62 3.75-3.93-9.53-11.55-17.16-21.08-21.1 9.72-6.54 21.21-10.63 33.6-11.37 8.3 8.49 14.37 19.15 17.3 31.04z" fill="#9fb0fe"/></g></g><g><g><path d="m351.707 94.33v227.1c0 7.97-6.46 14.43-14.43 14.43s-14.43-6.46-14.43-14.43v-227.1c0-21.37-17.38-38.75-38.74-38.75-21.37 0-38.75 17.38-38.75 38.75v227.1c0 7.97-6.46 14.43-14.43 14.43s-14.43-6.46-14.43-14.43v-227.1c0-37.28 30.33-67.61 67.61-67.61 37.27 0 67.6 30.33 67.6 67.61z" fill="#d2deff"/></g><path d="m351.707 117.26v90.86c-4.39 1.34-9.04 2.06-13.87 2.06-5.24 0-10.28-.85-14.99-2.42v-90.14c4.71-1.56 9.75-2.41 14.99-2.41 4.83 0 9.48.72 13.87 2.05z" fill="#b7c5ff"/></g></g><g><g><g><g><path d="m214.126 284.532c-28.939-12.129-61.317-3.752-81.007 18.515-2.071 29.651 14.65 58.629 43.59 70.759 28.92 12.121 61.306 3.726 80.996-18.541 2.071-29.652-14.658-58.612-43.579-70.733z" fill="#02ffb3"/><path d="m259.638 350.653-42.245-17.706-3.37-18.266c-.501-2.716-3.108-4.512-5.824-4.01-2.716.501-4.511 3.108-4.01 5.824l2.183 11.832-37.446-15.695c-2.542-1.065-5.476.131-6.544 2.679-1.067 2.547.132 5.477 2.679 6.544l16.785 7.035-8.162 6.141c-2.207 1.661-2.649 4.795-.989 7.001.982 1.306 2.481 1.995 3.999 1.995 1.046 0 2.102-.328 3.002-1.005l12.832-9.655 63.245 26.508c.631.265 1.286.39 1.931.39 1.954 0 3.811-1.153 4.613-3.069 1.067-2.546-.132-5.476-2.679-6.543z" fill="#00b574"/></g></g><g><g><path d="m301.628 284.532c28.939-12.129 61.317-3.752 81.007 18.515 2.071 29.651-14.65 58.629-43.59 70.759-28.92 12.121-61.306 3.726-80.996-18.541-2.071-29.652 14.658-58.612 43.579-70.733z" fill="#00d890"/><path d="m353.372 315.312c-1.067-2.547-4-3.744-6.544-2.679l-37.446 15.695 2.183-11.832c.501-2.716-1.294-5.323-4.01-5.824-2.715-.501-5.323 1.294-5.824 4.01l-3.37 18.266-42.245 17.706c-2.547 1.067-3.746 3.997-2.679 6.544.803 1.916 2.659 3.069 4.613 3.069.645 0 1.3-.125 1.931-.39l63.245-26.508 12.832 9.655c.9.678 1.955 1.005 3.002 1.005 1.518 0 3.017-.688 3.999-1.995 1.66-2.207 1.218-5.341-.989-7.001l-8.162-6.141 16.785-7.035c2.547-1.069 3.747-3.999 2.679-6.545z" fill="#00b574"/></g></g></g></g></g><g><circle cx="337.841" cy="142.421" fill="#fff" r="47.485"/><path d="m353.51 136.292h-12.167v-23.854c0-1.112-1.494-1.475-2.004-.487l-18.111 35.05c-.365.706.148 1.549.943 1.549h12.167v23.854c0 1.112 1.494 1.475 2.004.487l18.111-35.05c.365-.706-.147-1.549-.943-1.549z" fill="#ff7eb8"/></g><path d="m386.381 299.734c-8.293-9.378-18.519-16.323-29.672-20.627v-58.623c0-2.761-2.238-5-5-5s-5 2.239-5 5v55.53c-6.157-1.449-12.492-2.129-18.859-2.015v-80.06c3.253.633 6.594.966 9.99.966 28.94 0 52.485-23.544 52.485-52.484 0-22.299-13.984-41.381-33.638-48.971-.474-39.63-32.842-71.727-72.583-71.727-9.243 0-18.08 1.755-26.218 4.918-8.369-3.255-17.189-4.918-26.236-4.918-40.034 0-72.604 32.57-72.604 72.604v184.78c-11.153 4.304-21.379 11.249-29.672 20.627-.729.824-1.165 1.866-1.242 2.964-2.278 32.641 16.467 63.069 46.646 75.718 1.48.62 2.975 1.174 4.476 1.695v13.823c-2.169.546-3.781 2.494-3.781 4.833s1.612 4.286 3.781 4.833v17.259c-2.169.546-3.781 2.494-3.781 4.833 0 2.361 1.641 4.327 3.842 4.852 1.245 26.461 23.159 47.605 49.922 47.605h57.285c26.763 0 48.677-21.145 49.922-47.605 2.2-.524 3.842-2.491 3.842-4.852 0-2.339-1.612-4.286-3.781-4.833v-17.259c2.169-.546 3.781-2.494 3.781-4.833s-1.612-4.286-3.781-4.833v-13.823c1.501-.522 2.995-1.075 4.476-1.695 30.179-12.649 48.924-43.078 46.646-75.718-.081-1.097-.518-2.139-1.246-2.964zm-68.531-24.895c-4.576.69-9.125 1.806-13.596 3.354v-95.473c4.082 3.398 8.667 6.171 13.596 8.209zm62.475-132.418c0 23.426-19.059 42.484-42.485 42.484-17.917 0-33.999-11.336-40.02-28.209-.928-2.601-3.79-3.955-6.389-3.029-2.602.928-3.957 3.789-3.029 6.39 1.482 4.153 3.464 8.028 5.852 11.581v110.819c-7.062 3.632-13.392 8.284-18.858 13.717v-201.847c0-10.329-3.582-20.123-10.145-27.975 5.387-3.642 11.876-5.771 18.854-5.771.083 0 .165.006.248.006 6.475 10.078 9.902 21.722 9.902 33.739v18.903c-2.16 3.204-3.985 6.67-5.404 10.36-.991 2.578.295 5.47 2.872 6.461 2.58.991 5.47-.295 6.462-2.872 6.268-16.295 22.204-27.244 39.656-27.244 23.426.003 42.484 19.061 42.484 42.487zm-122.448 180.699c-1.97-5.165-4.496-10.089-7.519-14.693v-214.1c0-8.028 2.823-15.406 7.521-21.206 4.868 5.993 7.516 13.404 7.516 21.206v214.101c-3.022 4.604-5.548 9.528-7.518 14.692zm39.379-259.869c11.985 5.091 20.436 16.922 20.585 30.708-4.919 2.047-9.502 4.827-13.586 8.226v-7.858c-.001-10.835-2.404-21.41-6.999-31.076zm49.339 27.43c-2.849-.481-5.771-.744-8.755-.744-3.44 0-6.831.348-10.134 1.008-1.734-22.545-20.62-40.362-43.602-40.362-24.122 0-43.746 19.624-43.746 43.745v201.847c-5.466-5.433-11.797-10.085-18.858-13.717v-188.131c0-34.52 28.084-62.604 62.604-62.604 33.295 0 60.595 26.129 62.491 58.958zm-135.095 3.646v183.866c-4.471-1.549-9.02-2.665-13.596-3.355v-180.511c0-13.793 8.471-25.879 20.589-31.058-4.478 9.423-6.993 19.951-6.993 31.058zm-42.455 0c0-34.52 28.084-62.604 62.604-62.604 4.543 0 9.016.499 13.386 1.455-7.393 4.74-13.885 10.766-19.129 17.785-21.494 2.841-38.003 21.44-38.003 43.363v179.672c-6.367-.114-12.702.566-18.859 2.015v-181.686zm-31.035 210.769c18.894-20.298 48.481-26.726 74.184-15.953 25.693 10.769 41.848 36.368 40.621 64.071-18.901 20.309-48.484 26.747-74.173 15.979-25.7-10.771-41.86-36.38-40.632-64.097zm51.242 115.597v-16.925h137.25v16.925zm97.268 47.457h-57.285c-21.198 0-38.586-16.584-39.894-37.457h137.074c-1.309 20.873-18.697 37.457-39.895 37.457zm39.982-74.382h-137.25v-10.909c4.98 1.002 10.007 1.498 15.011 1.498 19.75 0 39.102-7.697 53.614-22.032 14.512 14.337 33.862 22.032 53.614 22.032 5.003 0 10.03-.496 15.011-1.498zm10.61-24.574c-25.689 10.766-55.271 4.329-74.173-15.979-1.227-27.704 14.928-53.302 40.621-64.071 25.703-10.772 55.291-4.346 74.184 15.953 1.228 27.716-14.931 53.325-40.632 64.097z" fill="#2626bc"/></g><path d="m84.578 305.488c-1.279 0-2.56-.488-3.535-1.464-1.953-1.953-1.953-5.119 0-7.071l3.327-3.328-5.002-3.172c-1.282-.813-2.125-2.165-2.292-3.673s.361-3.012 1.435-4.085l7.742-7.742c1.951-1.952 5.118-1.952 7.071 0 1.952 1.953 1.952 5.119-.001 7.071l-3.327 3.327 5.002 3.172c1.282.813 2.125 2.165 2.292 3.673s-.361 3.012-1.435 4.085l-7.742 7.742c-.975.977-2.255 1.465-3.535 1.465z" fill="#01eca5"/><path d="m423.433 148.795c-1.279 0-2.56-.488-3.535-1.464-1.953-1.953-1.953-5.119 0-7.071l3.327-3.328-5.002-3.172c-1.282-.813-2.125-2.165-2.292-3.673s.361-3.012 1.435-4.085l7.742-7.742c1.951-1.952 5.119-1.952 7.07 0 1.953 1.953 1.953 5.119 0 7.071l-3.327 3.327 5.002 3.172c1.282.813 2.125 2.165 2.292 3.673s-.36 3.012-1.435 4.085l-7.742 7.742c-.976.977-2.256 1.465-3.535 1.465z" fill="#ff7eb8"/><path d="m380.202 456.736c-1.279 0-2.559-.488-3.535-1.464-1.953-1.953-1.953-5.118-.001-7.071l3.328-3.327-5.002-3.173c-1.282-.813-2.125-2.164-2.292-3.673-.167-1.508.36-3.011 1.434-4.084l7.741-7.742c1.953-1.953 5.118-1.954 7.071 0 1.953 1.952 1.953 5.118.001 7.071l-3.328 3.328 5.002 3.173c1.282.813 2.125 2.164 2.292 3.673s-.36 3.011-1.434 4.085l-7.741 7.742c-.976.974-2.256 1.462-3.536 1.462z" fill="#01eca5"/><path d="m118.806 240.47c-2.762 0-5-2.239-5-5 0-3.309-2.691-6-6-6-2.762 0-5-2.239-5-5s2.238-5 5-5c3.309 0 6-2.691 6-6 0-2.761 2.238-5 5-5s5 2.239 5 5c0 3.309 2.691 6 6 6 2.762 0 5 2.239 5 5s-2.238 5-5 5c-3.309 0-6 2.691-6 6 0 2.761-2.239 5-5 5z" fill="#ff7eb8"/><path d="m420.901 204.43c-2.762 0-5-2.239-5-5 0-3.309-2.691-6-6-6-2.762 0-5-2.239-5-5s2.238-5 5-5c3.309 0 6-2.691 6-6 0-2.761 2.238-5 5-5s5 2.239 5 5c0 3.309 2.691 6 6 6 2.762 0 5 2.239 5 5s-2.238 5-5 5c-3.309 0-6 2.691-6 6 0 2.761-2.239 5-5 5z" fill="#6583fe"/></g></g></svg>