<svg id="Capa_1" enable-background="new 0 0 512 512" height="512" viewBox="0 0 512 512" width="512" xmlns="http://www.w3.org/2000/svg" xmlns:xlink="http://www.w3.org/1999/xlink"><linearGradient id="SVGID_1_" gradientUnits="userSpaceOnUse" x1="45.274" x2="466.726" y1="256" y2="256"><stop offset=".0485" stop-color="#d2deff"/><stop offset=".9993" stop-color="#dcfdee"/></linearGradient><g><g><path d="m97.146 38.232c-135.328 119.538 38.831 235.409 22.243 366.028-7.375 58.072 16.054 113.588 92.705 107.244 93.413-7.732 59.504-97.209 79.066-156.778 33.66-102.501 240.73-78.56 154.895-236.448-54.778-100.758-255.766-162.321-348.909-80.046z" fill="url(#SVGID_1_)"/></g><g><g><g><path d="m378.888 344.287c8.018 5.167 17.556 8.177 27.803 8.177 28.394 0 51.411-23.018 51.411-51.411 0-23.408-15.65-43.149-37.054-49.364 2.628-5.659 4.104-11.962 4.104-18.613 0-23.249-17.93-42.297-40.714-44.105 3.332-5.708 5.25-12.343 5.25-19.429 0-21.321-17.284-38.605-38.605-38.605-14.807 0-27.66 8.341-34.136 20.576-7.357-5.856-16.443-9.633-26.376-10.421 3.662-6.273 5.77-13.565 5.77-21.353 0-23.433-18.996-42.428-42.428-42.428s-42.428 18.996-42.428 42.428c0 7.788 2.108 15.08 5.77 21.353-9.933.788-19.019 4.565-26.376 10.421-6.476-12.235-19.329-20.576-34.136-20.576-21.321 0-38.605 17.284-38.605 38.605 0 7.086 1.918 13.721 5.25 19.429-22.784 1.807-40.714 20.856-40.714 44.105 0 6.651 1.476 12.953 4.104 18.613-21.404 6.215-37.054 25.956-37.054 49.364 0 28.394 23.018 51.411 51.411 51.411 10.247 0 19.786-3.01 27.803-8.177 4.255 2.742 8.943 4.869 13.934 6.269v58.677c-25.031 8.262-48.593 19.211-70.23 32.469-2.731 1.674-4.412 4.631-4.412 7.834 0 5.055 4.098 9.154 9.154 9.154h353.057c5.056 0 9.154-4.098 9.154-9.154v-.798c0-3.218-1.696-6.188-4.448-7.856-21.644-13.119-45.193-23.936-70.194-32.077v-58.248c4.992-1.4 9.679-3.527 13.935-6.27zm-208.274 6.269c4.991-1.4 9.678-3.527 13.933-6.269 8.018 5.167 17.556 8.177 27.803 8.177 9.619 0 18.617-2.644 26.313-7.243v46.604c-23.433 1.016-46.204 4.263-68.05 9.513v-50.782zm98.55 41.213v-46.548c7.696 4.599 16.695 7.243 26.313 7.243 10.247 0 19.786-3.01 27.803-8.177 4.255 2.742 8.942 4.869 13.933 6.269v50.472c-21.852-5.163-44.622-8.327-68.049-9.259z" fill="#2626bc" opacity=".1"/><g><path d="m337.214 297.661h27.74v106.52h-27.74z" fill="#ff5ba8"/><path d="m364.954 297.661v46.89c-4.41 1.25-9.06 1.91-13.87 1.91s-9.46-.66-13.87-1.91v-46.89z" fill="#fe2c8f"/><g><path d="m142.874 297.661h27.74v106.52h-27.74z" fill="#ff5ba8"/><path d="m142.874 297.661h27.74v46.89c-4.41 1.25-9.06 1.91-13.87 1.91s-9.46-.66-13.87-1.91z" fill="#fe2c8f"/></g><path d="m421.049 227.688c2.628-5.659 4.104-11.962 4.104-18.613 0-23.249-17.93-42.297-40.714-44.105 3.332-5.708 5.25-12.343 5.25-19.429 0-21.321-17.284-38.605-38.605-38.605s-38.605 17.284-38.605 38.605c0 7.086 1.918 13.721 5.25 19.429-22.784 1.807-40.714 20.856-40.714 44.105 0 6.651 1.476 12.953 4.104 18.613-11.064 3.213-20.584 10.047-27.206 19.126-6.622-9.08-16.141-15.913-27.206-19.126 2.628-5.659 4.104-11.962 4.104-18.613 0-23.249-17.93-42.297-40.714-44.105 3.332-5.708 5.25-12.343 5.25-19.429 0-21.321-17.284-38.605-38.605-38.605s-38.605 17.284-38.605 38.605c0 7.086 1.918 13.721 5.25 19.429-22.784 1.807-40.714 20.856-40.714 44.105 0 6.651 1.476 12.953 4.104 18.613-21.404 6.215-37.054 25.956-37.054 49.364 0 28.394 23.018 51.411 51.411 51.411 10.247 0 19.786-3.01 27.803-8.177 8.018 5.167 17.556 8.177 27.803 8.177s19.786-3.01 27.803-8.177c8.018 5.167 17.556 8.177 27.803 8.177 17.085 0 32.215-8.341 41.563-21.165 9.349 12.824 24.478 21.165 41.563 21.165 10.247 0 19.786-3.01 27.803-8.177 8.018 5.167 17.556 8.177 27.803 8.177s19.786-3.01 27.803-8.177c8.018 5.167 17.556 8.177 27.803 8.177 28.394 0 51.411-23.018 51.411-51.411.008-23.408-15.643-43.148-37.046-49.364z" fill="#01eca5"/><g fill="#00d890"><path d="m366.054 129.001c0 26.22-21.26 47.48-47.49 47.48-7.5 0-14.59-1.74-20.89-4.84 5.89-3.72 12.72-6.08 20.06-6.67-3.34-5.71-5.25-12.34-5.25-19.43 0-21.32 17.28-38.6 38.6-38.6 3.54 0 6.98.48 10.24 1.37 3.03 6.25 4.73 13.27 4.73 20.69z"/><path d="m148.554 210.478c-1.625 0-3.219-.791-4.18-2.249-2.79-4.234-7.471-6.761-12.521-6.761s-9.73 2.528-12.521 6.761c-1.52 2.305-4.621 2.943-6.926 1.423s-2.943-4.621-1.423-6.926c4.646-7.05 12.449-11.258 20.871-11.258 8.423 0 16.225 4.209 20.871 11.258 1.52 2.306.882 5.407-1.423 6.926-.849.559-1.804.826-2.748.826z"/><path d="m371.534 264.271c0 31.21-25.3 56.51-56.51 56.51-11.26 0-21.74-3.31-30.55-8.99-5.47 3.53-11.59 6.14-18.13 7.61-4.79-3.3-9-7.4-12.43-12.1-3.43 4.7-7.64 8.8-12.43 12.1-6.54-1.47-12.66-4.08-18.13-7.61-8.81 5.68-19.29 8.99-30.55 8.99-31.21 0-56.51-25.3-56.51-56.51 0-25.72 17.2-47.42 40.73-54.25-2.89-6.22-4.52-13.15-4.52-20.46 0-17.33 9.07-32.54 22.73-41.15-.44 6.01-2.26 11.63-5.14 16.56 22.79 1.81 40.72 20.86 40.72 44.1 0 6.65-1.48 12.96-4.11 18.62 11.07 3.21 20.59 10.04 27.21 19.12 6.62-9.08 16.14-15.91 27.21-19.12-2.63-5.66-4.11-11.97-4.11-18.62 0-23.24 17.93-42.29 40.72-44.1-2.88-4.93-4.7-10.55-5.14-16.56 13.66 8.61 22.73 23.82 22.73 41.15 0 7.31-1.63 14.24-4.52 20.46 23.53 6.831 40.73 28.53 40.73 54.25z"/></g><g><g><path d="m238.664 262.921h30.5v117.08h-30.5z" fill="#ff7eb8"/><path d="m269.164 262.921v55.76c-4.85 1.37-9.96 2.1-15.25 2.1s-10.4-.73-15.25-2.1v-55.76z" fill="#ff5ba8"/></g><path d="m330.809 186.022c2.888-6.22 4.511-13.147 4.511-20.457 0-25.552-19.706-46.487-44.747-48.474 3.662-6.273 5.77-13.565 5.77-21.353 0-23.433-18.996-42.428-42.428-42.428s-42.428 18.996-42.428 42.428c0 7.788 2.108 15.08 5.77 21.353-25.041 1.986-44.747 22.922-44.747 48.474 0 7.309 1.623 14.236 4.511 20.457-23.524 6.831-40.724 28.527-40.724 54.254 0 31.206 25.298 56.504 56.504 56.504 11.262 0 21.746-3.308 30.557-8.987 8.812 5.678 19.295 8.987 30.557 8.987s21.746-3.308 30.557-8.987c8.812 5.678 19.295 8.987 30.557 8.987 31.206 0 56.504-25.298 56.504-56.504 0-25.727-17.201-47.423-40.724-54.254z" fill="#02ffb3"/><path d="m335.324 165.561c0 2.77-.24 5.49-.68 8.13-5.02 1.8-10.44 2.79-16.08 2.79-26.22 0-47.48-21.26-47.48-47.48 0-17.87 9.87-33.43 24.45-41.54.53 2.68.81 5.45.81 8.28 0 7.79-2.11 15.08-5.77 21.35 25.04 1.99 44.75 22.92 44.75 48.47z" fill="#01eca5"/><path d="m218.966 163.339c-.944 0-1.899-.267-2.746-.825-2.306-1.52-2.943-4.621-1.424-6.926 4.646-7.05 12.448-11.259 20.871-11.259 8.422 0 16.225 4.209 20.871 11.259 1.52 2.306.882 5.407-1.423 6.926-2.307 1.52-5.407.882-6.926-1.423-2.791-4.234-7.471-6.762-12.521-6.762s-9.731 2.528-12.521 6.761c-.962 1.458-2.556 2.249-4.181 2.249z" fill="#97ffd2"/><path d="m302.385 212.859c-1.625 0-3.219-.791-4.18-2.249-2.791-4.234-7.471-6.762-12.521-6.762s-9.731 2.528-12.521 6.762c-1.52 2.306-4.622 2.942-6.926 1.423-2.306-1.52-2.943-4.621-1.423-6.926 4.646-7.05 12.448-11.259 20.871-11.259 8.422 0 16.225 4.209 20.871 11.259 1.52 2.306.882 5.407-1.423 6.926-.849.559-1.803.826-2.748.826z" fill="#00d890"/><path d="m294.439 247.396c-.944 0-1.899-.267-2.747-.826-2.306-1.52-2.943-4.621-1.423-6.926 4.646-7.049 12.448-11.258 20.871-11.258 8.422 0 16.224 4.208 20.871 11.258 1.52 2.306.882 5.407-1.423 6.926-2.306 1.519-5.407.882-6.926-1.423-2.791-4.233-7.471-6.761-12.521-6.761s-9.731 2.527-12.521 6.761c-.962 1.457-2.556 2.249-4.181 2.249z" fill="#00d890"/><path d="m224.975 242.891c-1.625 0-3.218-.791-4.179-2.249-2.791-4.234-7.471-6.762-12.521-6.762s-9.731 2.528-12.521 6.762c-1.52 2.305-4.62 2.942-6.926 1.423-2.306-1.52-2.943-4.621-1.423-6.926 4.646-7.05 12.448-11.259 20.871-11.259 8.422 0 16.225 4.209 20.871 11.259 1.52 2.306.882 5.407-1.423 6.926-.849.559-1.804.826-2.749.826z" fill="#97ffd2"/></g><g><path d="m439.596 425.536v-.798c0-3.218-1.696-6.188-4.448-7.856-51.443-31.181-113.608-49.414-180.585-49.414-67.553 0-130.215 18.554-181.919 50.235-2.731 1.673-4.413 4.631-4.413 7.834 0 5.056 4.098 9.154 9.154 9.154h353.057c5.056-.001 9.154-4.099 9.154-9.155z" fill="#8399fe"/><g><path d="m190.866 406.079h-7.52c-2.762 0-5-2.239-5-5s2.238-5 5-5h7.52c2.762 0 5 2.239 5 5s-2.238 5-5 5z" fill="#6583fe"/></g><g><path d="m289.815 399.079h-7.52c-2.762 0-5-2.239-5-5s2.238-5 5-5h7.52c2.762 0 5 2.239 5 5s-2.238 5-5 5z" fill="#4369fd"/></g><g><path d="m303.14 417.694h-7.52c-2.762 0-5-2.239-5-5s2.238-5 5-5h7.52c2.762 0 5 2.239 5 5s-2.238 5-5 5z" fill="#4369fd"/></g><g><path d="m165.618 418.694h-7.52c-2.762 0-5-2.239-5-5s2.238-5 5-5h7.52c2.762 0 5 2.239 5 5s-2.239 5-5 5z" fill="#b7c5ff"/></g><g><path d="m336.146 412.079h-7.52c-2.762 0-5-2.239-5-5s2.238-5 5-5h7.52c2.762 0 5 2.239 5 5s-2.239 5-5 5z" fill="#b7c5ff"/></g></g><path d="m425.205 272.427c-1.625 0-3.219-.791-4.18-2.249-2.791-4.233-7.471-6.761-12.521-6.761s-9.73 2.528-12.521 6.761c-1.52 2.305-4.621 2.942-6.926 1.423-2.306-1.52-2.943-4.621-1.423-6.926 4.646-7.05 12.449-11.258 20.871-11.258s16.224 4.208 20.871 11.258c1.52 2.306.882 5.407-1.423 6.926-.849.559-1.804.826-2.748.826z" fill="#97ffd2"/></g><g><circle cx="318.569" cy="105" fill="#fff" r="47.485"/><path d="m334.239 98.871h-12.167v-23.854c0-1.112-1.494-1.475-2.004-.487l-18.111 35.05c-.365.706.148 1.549.943 1.549h12.167v23.854c0 1.112 1.494 1.475 2.004.487l18.111-35.05c.365-.707-.148-1.549-.943-1.549z" fill="#ff7eb8"/><path d="m351.084 333.464c9.792 0 19.339-2.527 27.803-7.333 8.464 4.807 18.012 7.333 27.804 7.333 31.105 0 56.411-25.306 56.411-56.411 0-23.098-14.341-43.91-35.477-52.38 1.679-5.01 2.528-10.235 2.528-15.597 0-23.116-16.344-42.991-38.32-48.018 1.879-4.934 2.855-10.196 2.855-15.516 0-16.27-9.257-31.362-23.68-38.79.019-.583.044-1.165.044-1.752 0-28.94-23.544-52.485-52.484-52.485-11.497 0-22.135 3.726-30.792 10.02-8.896-9.068-21.103-14.225-33.863-14.225-26.152 0-47.428 21.276-47.428 47.428 0 5.979 1.133 11.89 3.313 17.411-6.305 1.37-12.188 3.87-17.451 7.252-8.123-11.468-21.428-18.465-35.604-18.465-24.044 0-43.605 19.561-43.605 43.605 0 5.319.976 10.581 2.856 15.516-21.976 5.027-38.32 24.901-38.32 48.018 0 5.363.848 10.588 2.528 15.597-21.137 8.47-35.478 29.282-35.478 52.38 0 31.105 25.306 56.411 56.412 56.411 9.792 0 19.339-2.527 27.803-7.333 2.863 1.626 5.852 2.984 8.93 4.078v51.416c-23.775 8.122-46.529 18.757-67.838 31.814-4.258 2.61-6.8 7.132-6.8 12.098 0 7.804 6.349 14.154 14.154 14.154h353.057c7.805 0 14.154-6.35 14.154-14.154v-.798c0-4.92-2.627-9.568-6.856-12.132-21.302-12.912-44.038-23.416-67.782-31.421v-22.616c0-2.761-2.239-5-5-5s-5 2.239-5 5v19.411c-5.861-1.782-11.779-3.412-17.747-4.892v-40.325c2.919.463 5.885.701 8.873.701zm33.605-187.922c0 5.942-1.58 11.789-4.568 16.908-.867 1.485-.91 3.312-.113 4.836s2.321 2.532 4.036 2.668c20.249 1.606 36.11 18.79 36.11 39.121 0 5.752-1.225 11.306-3.64 16.507-.614 1.322-.62 2.848-.017 4.175.604 1.328 1.757 2.326 3.157 2.732 19.694 5.719 33.448 24.043 33.448 44.563 0 25.591-20.82 46.411-46.411 46.411-8.926 0-17.604-2.552-25.095-7.379-1.649-1.063-3.768-1.063-5.417 0-7.491 4.828-16.169 7.379-25.095 7.379s-17.604-2.552-25.095-7.379c-1.649-1.063-3.768-1.063-5.417 0-7.491 4.828-16.169 7.379-25.095 7.379-7.43 0-14.765-1.809-21.315-5.204v-19.913c3.56-1.243 7.012-2.81 10.31-4.703 9.289 5.331 19.787 8.135 30.557 8.135 33.914 0 61.504-27.59 61.504-61.503 0-25.343-15.833-48.16-39.117-57.282 1.929-5.59 2.903-11.431 2.903-17.429 0-4.121-.474-8.21-1.399-12.189 15.131-6.39 26.654-19.682 30.624-35.906 9.319 6.163 15.145 16.746 15.145 28.073zm-130.126 216.925c-3.641 0-7.272.063-10.896.168v-61.715c3.367.568 6.793.86 10.248.86s6.88-.292 10.248-.86v61.684c-3.195-.083-6.394-.137-9.6-.137zm-70.016-36.337c8.464 4.807 18.012 7.333 27.803 7.333 7.313 0 14.583-1.458 21.316-4.203v33.805c-19.7 1.109-39.113 3.774-58.049 7.966v-40.823c3.079-1.094 6.068-2.452 8.93-4.078zm176.506-221.13c0 23.426-19.059 42.484-42.484 42.484s-42.485-19.058-42.485-42.484 19.059-42.485 42.484-42.485 42.485 19.059 42.485 42.485zm-234.821 211.084c-7.491 4.828-16.169 7.379-25.095 7.379-25.591 0-46.412-20.82-46.412-46.411 0-20.519 13.754-38.844 33.449-44.563 1.4-.407 2.554-1.405 3.157-2.732s.597-2.853-.017-4.175c-2.415-5.2-3.639-10.753-3.639-16.507 0-20.331 15.861-37.515 36.11-39.121 1.714-.136 3.239-1.144 4.036-2.668s.754-3.351-.113-4.836c-2.989-5.12-4.568-10.967-4.568-16.908 0-18.53 15.075-33.605 33.605-33.605 11.087 0 21.492 5.549 27.725 14.624-10.443 9.847-16.961 23.777-16.961 39.004 0 5.998.975 11.839 2.903 17.429-23.284 9.122-39.116 31.938-39.116 57.282 0 9.945 2.316 19.456 6.885 28.267.89 1.716 2.635 2.7 4.443 2.7.775 0 1.562-.181 2.297-.562 2.452-1.271 3.409-4.289 2.138-6.74-3.824-7.375-5.763-15.337-5.763-23.665 0-22.771 15.264-43.106 37.118-49.452 1.401-.407 2.554-1.405 3.158-2.732s.597-2.853-.017-4.175c-2.685-5.782-4.046-11.956-4.046-18.351 0-22.601 17.633-41.704 40.143-43.489 1.714-.136 3.239-1.144 4.036-2.668s.754-3.351-.113-4.836c-3.329-5.703-5.088-12.215-5.088-18.833 0-20.638 16.79-37.428 37.428-37.428 9.895 0 19.363 3.936 26.352 10.862-8.787 9.386-14.183 21.984-14.183 35.826 0 28.94 23.544 52.484 52.484 52.484 3.691 0 7.292-.388 10.77-1.116.645 3.008.981 6.089.981 9.197 0 6.395-1.361 12.569-4.046 18.351-.614 1.323-.62 2.848-.017 4.175.604 1.328 1.757 2.326 3.158 2.732 21.854 6.346 37.118 26.682 37.118 49.452 0 28.399-23.104 51.503-51.504 51.503-9.906 0-19.536-2.832-27.849-8.189-1.649-1.063-3.768-1.063-5.417 0-8.313 5.358-17.943 8.189-27.849 8.189s-19.536-2.832-27.849-8.189c-1.649-1.063-3.768-1.063-5.417 0-8.313 5.358-17.943 8.189-27.849 8.189-8.641 0-17.19-2.184-24.725-6.316-2.421-1.328-5.46-.442-6.788 1.979s-.442 5.46 1.979 6.788c9.004 4.938 19.217 7.548 29.533 7.548 10.77 0 21.269-2.804 30.558-8.135 3.297 1.893 6.749 3.46 10.31 4.703v19.936c-6.624 3.436-13.795 5.18-21.316 5.18-8.926 0-17.604-2.552-25.095-7.379-1.649-1.063-3.768-1.063-5.417 0-7.491 4.828-16.169 7.379-25.095 7.379s-17.604-2.552-25.095-7.379c-1.647-1.061-3.766-1.061-5.415.002zm21.638 16.678c2.919.464 5.885.702 8.874.702s5.954-.238 8.874-.702v40.646c-5.969 1.504-11.887 3.159-17.748 4.965zm286.726 91.976v.798c0 2.291-1.863 4.154-4.154 4.154h-353.056c-2.291 0-4.154-1.863-4.154-4.154 0-1.459.757-2.794 2.025-3.571 52.847-32.381 114.85-49.498 179.306-49.498 63.893 0 125.441 16.837 177.993 48.69 1.277.775 2.04 2.113 2.04 3.581zm-102.385-53.983c-18.944-4.12-38.357-6.723-58.049-7.763v-33.71c6.733 2.745 13.991 4.182 21.315 4.182 9.792 0 19.339-2.527 27.804-7.333 2.863 1.626 5.852 2.984 8.93 4.078z" fill="#2626bc"/></g></g><path d="m421.712 142.839c-1.28 0-2.559-.488-3.536-1.464-1.953-1.953-1.953-5.119 0-7.071l3.328-3.328-5.002-3.172c-1.282-.813-2.125-2.165-2.292-3.673s.361-3.012 1.434-4.085l7.742-7.742c1.954-1.952 5.119-1.952 7.071 0 1.953 1.953 1.953 5.119 0 7.071l-3.328 3.327 5.002 3.172c1.282.813 2.125 2.165 2.292 3.673s-.361 3.012-1.434 4.085l-7.742 7.742c-.976.977-2.255 1.465-3.535 1.465z" fill="#ff7eb8"/><path d="m65.086 157.711c-1.28 0-2.559-.488-3.536-1.464-1.953-1.953-1.953-5.119 0-7.071l3.328-3.328-5.003-3.173c-1.282-.813-2.125-2.164-2.292-3.673s.361-3.012 1.434-4.085l7.742-7.742c1.954-1.952 5.119-1.951 7.071 0 1.953 1.953 1.953 5.119 0 7.071l-3.328 3.328 5.003 3.173c1.282.813 2.125 2.164 2.292 3.673s-.361 3.012-1.434 4.085l-7.742 7.742c-.975.976-2.255 1.464-3.535 1.464z" fill="#ff7eb8"/><path d="m65.086 388.658c-1.28 0-2.559-.488-3.536-1.464-1.953-1.953-1.953-5.119 0-7.071l3.328-3.328-5.002-3.172c-1.282-.813-2.125-2.165-2.292-3.673s.361-3.012 1.434-4.085l7.742-7.742c1.954-1.952 5.119-1.952 7.071 0 1.953 1.953 1.953 5.119 0 7.071l-3.328 3.327 5.002 3.172c1.282.813 2.125 2.165 2.292 3.673s-.361 3.012-1.434 4.085l-7.742 7.742c-.975.976-2.255 1.465-3.535 1.465z" fill="#01eca5"/><path d="m103.958 100.954c-2.761 0-5-2.239-5-5 0-3.309-2.691-6-6-6-2.761 0-5-2.239-5-5s2.239-5 5-5c3.309 0 6-2.691 6-6 0-2.761 2.239-5 5-5s5 2.239 5 5c0 3.309 2.691 6 6 6 2.761 0 5 2.239 5 5s-2.239 5-5 5c-3.309 0-6 2.691-6 6 0 2.761-2.239 5-5 5z" fill="#6583fe"/><path d="m451.274 188.436c-2.761 0-5-2.239-5-5 0-3.309-2.691-6-6-6-2.761 0-5-2.239-5-5s2.239-5 5-5c3.309 0 6-2.691 6-6 0-2.761 2.239-5 5-5s5 2.239 5 5c0 3.309 2.691 6 6 6 2.761 0 5 2.239 5 5s-2.239 5-5 5c-3.309 0-6 2.691-6 6 0 2.761-2.238 5-5 5z" fill="#01eca5"/></g></g></g></svg>