<svg id="Capa_1" enable-background="new 0 0 512 512" height="512" viewBox="0 0 512 512" width="512" xmlns="http://www.w3.org/2000/svg" xmlns:xlink="http://www.w3.org/1999/xlink"><linearGradient id="SVGID_1_" gradientUnits="userSpaceOnUse" x1="5.399" x2="506.601" y1="256" y2="256"><stop offset="0" stop-color="#ffdbed"/><stop offset="1" stop-color="#dcfdee"/></linearGradient><g><g><path d="m461.173 27.352c-63.757-37.987-146.258-35.878-208.873 3.041-35.18 21.866-62.374 53.403-93.212 80.552-27.022 23.789-58.445 40.758-86.353 63.204-101.21 81.403-91.553 300.961 50.962 330.125 61.777 12.642 146.21 16.696 182.519-43.642 34.62-57.531 46.232-116.383 113.876-146.942 23.573-10.65 62.975-10.113 78.944-33.45 20.152-29.45-4.853-60.043-18.192-85.707-17.19-33.074-20.795-65.682-8.699-101.16 10.298-30.211 17.549-43.782-10.972-66.021z" fill="url(#SVGID_1_)"/></g><g><path d="m437.27 456.259c-50.222-30.774-110.786-49.157-176.128-50.185 0-.017.005-.033.005-.05v-61.525c16.953 15.158 41.74 20.162 64.098 10.791 24.688-10.348 38.953-35.069 37.186-60.364-16.336-18.475-42.909-25.736-67.067-16.602v-22.982h4.956c2.703 0 5.002-1.972 5.414-4.643l2.284-14.82c8.65 11.692 22.535 19.275 38.195 19.275 26.225 0 47.485-21.26 47.485-47.485s-21.26-47.485-47.485-47.485c-7.385 0-14.377 1.687-20.611 4.695v-11.069c0-3.025-2.452-5.478-5.478-5.478h-15.917v-56.368c0-6.19-5.017-11.207-11.207-11.207-6.179 0-11.196 5.018-11.196 11.207v56.367h-52.015v-56.367c0-6.19-5.017-11.207-11.207-11.207-6.189 0-11.207 5.018-11.207 11.207v17.486c-8.088-14.64-23.676-24.559-41.586-24.559-26.225 0-47.485 21.26-47.485 47.485s21.26 47.485 47.485 47.485c7.386 0 14.377-1.687 20.611-4.695v1.119c0 3.025 2.452 5.477 5.478 5.477h3.767l10.623 68.936c.412 2.671 2.711 4.643 5.414 4.643h4.955v22.982c-24.157-9.133-50.731-1.872-67.067 16.602-1.767 25.296 12.498 50.017 37.186 60.364 22.49 9.426 47.432 4.304 64.391-11.063v34.305l-8.921-2.809c-2.637-.831-5.44.634-6.271 3.267-.829 2.634.634 5.442 3.268 6.271l11.925 3.755v17.009c0 .012.004.023.004.036-65.373.746-126.019 18.851-176.384 49.379-2.752 1.668-4.448 4.638-4.448 7.856v.798c0 5.055 4.098 9.154 9.154 9.154h353.057c5.056 0 9.154-4.098 9.154-9.154-.003-3.203-1.684-6.161-4.415-7.834z" fill="#2626bc" opacity=".1"/><g><g><circle cx="165.788" cy="108.375" fill="#fff" r="47.485"/><path d="m181.458 102.247h-12.167v-23.854c0-1.112-1.494-1.475-2.004-.487l-18.111 35.05c-.365.706.148 1.549.943 1.549h12.167v23.854c0 1.112 1.494 1.475 2.004.487l18.111-35.05c.365-.707-.148-1.549-.943-1.549z" fill="#9fb0fe"/></g></g><g><g><path d="m70.318 440.093v-.798c0-3.218 1.696-6.188 4.448-7.856 51.443-31.181 113.608-49.414 180.585-49.414 67.553 0 130.215 18.554 181.919 50.235 2.731 1.674 4.413 4.631 4.413 7.834 0 5.056-4.098 9.154-9.154 9.154h-353.057c-5.056-.001-9.154-4.1-9.154-9.155z" fill="#8399fe"/><g><path d="m319.048 420.635h7.52c2.762 0 5-2.239 5-5s-2.238-5-5-5h-7.52c-2.762 0-5 2.239-5 5s2.238 5 5 5z" fill="#b7c5ff"/></g><g><path d="m220.099 413.635h7.52c2.762 0 5-2.239 5-5s-2.238-5-5-5h-7.52c-2.762 0-5 2.239-5 5s2.238 5 5 5z" fill="#4369fd"/></g><g><path d="m206.774 432.251h7.52c2.762 0 5-2.239 5-5s-2.238-5-5-5h-7.52c-2.762 0-5 2.239-5 5s2.239 5 5 5z" fill="#6583fe"/></g><g><path d="m344.297 433.251h7.52c2.762 0 5-2.239 5-5s-2.238-5-5-5h-7.52c-2.762 0-5 2.239-5 5s2.238 5 5 5z" fill="#6583fe"/></g><g><path d="m173.769 426.635h7.52c2.762 0 5-2.239 5-5s-2.238-5-5-5h-7.52c-2.762 0-5 2.239-5 5s2.238 5 5 5z" fill="#b7c5ff"/></g></g><g><path d="m279.368 315.472h-46.736l-9.859-54.432h66.454z" fill="#8399fe"/><g><g fill="#d2deff"><path d="m281.803 133.705v-65.741c0-6.19 5.018-11.207 11.196-11.207 6.19 0 11.207 5.018 11.207 11.207v65.741z"/><path d="m207.374 133.705v-65.741c0-6.19 5.018-11.207 11.207-11.207 6.19 0 11.207 5.018 11.207 11.207v65.741z"/></g><path d="m216.636 215.17h78.729v40.392c0 3.025-2.452 5.478-5.478 5.478h-67.774c-3.025 0-5.478-2.452-5.478-5.478v-40.392z" fill="#ffc4df"/><path d="m216.636 215.17h78.729v35.438h-78.729z" fill="#ffa8cf"/><path d="m193.836 146.032h124.328l-12.431 80.665c-.412 2.671-2.711 4.643-5.414 4.643h-88.64c-2.703 0-5.002-1.972-5.414-4.643z" fill="#ff7eb8"/><path d="m313.773 174.527 4.391-28.495h-124.328l4.391 28.495z" fill="#ff5ba8"/><path d="m191.877 124.331h128.246c3.025 0 5.478 2.452 5.478 5.478v22.475c0 3.025-2.452 5.478-5.478 5.478h-128.246c-3.025 0-5.478-2.452-5.478-5.478v-22.475c0-3.025 2.453-5.478 5.478-5.478z" fill="#ffc4df"/><path d="m246.201 179.988h19.598c3.025 0 5.478 2.452 5.478 5.478v20.937c0 3.025-2.452 5.478-5.478 5.478h-19.598c-3.025 0-5.478-2.452-5.478-5.478v-20.937c.001-3.025 2.453-5.478 5.478-5.478z" fill="#02ffb3"/><g fill="#ffdbed"><path d="m218.578 182.197c-2.762 0-5-2.239-5-5v-.126c0-2.761 2.238-5 5-5s5 2.239 5 5v.126c0 2.761-2.238 5-5 5z"/><path d="m293.005 182.197c-2.762 0-5-2.239-5-5v-.126c0-2.761 2.238-5 5-5s5 2.239 5 5v.126c0 2.761-2.238 5-5 5z"/></g></g><g><g><g><g><path d="m218.676 255.13c-24.688-10.348-52.31-3.201-69.107 15.795-1.767 25.296 12.498 50.017 37.186 60.364 24.672 10.341 52.301 3.178 69.098-15.818 1.767-25.295-12.505-50-37.177-60.341z" fill="#02ffb3"/><path d="m257.786 310.86-35.674-14.952-2.802-15.191c-.501-2.715-3.106-4.515-5.824-4.01-2.715.501-4.511 3.108-4.01 5.824l1.615 8.759-30.693-12.864c-2.542-1.065-5.476.131-6.544 2.679-1.067 2.547.132 5.477 2.679 6.544l13.139 5.507-5.94 4.469c-2.207 1.66-2.649 4.795-.989 7.001.982 1.306 2.481 1.994 3.999 1.994 1.046 0 2.102-.328 3.002-1.005l10.61-7.983 53.566 22.451c.632.265 1.286.39 1.931.39 1.954 0 3.811-1.153 4.613-3.069 1.068-2.547-.131-5.476-2.678-6.544z" fill="#00b574"/></g></g><g><g><path d="m293.324 255.13c24.688-10.348 52.31-3.201 69.107 15.795 1.767 25.296-12.498 50.017-37.186 60.364-24.672 10.341-52.301 3.178-69.098-15.818-1.767-25.295 12.505-50 37.177-60.341z" fill="#00d890"/><path d="m338.145 281.104c-1.066-2.547-3.999-3.744-6.544-2.679l-30.693 12.864 1.615-8.759c.501-2.715-1.295-5.323-4.01-5.824-2.715-.503-5.323 1.295-5.824 4.01l-2.802 15.191-35.674 14.952c-2.547 1.067-3.746 3.997-2.679 6.544.803 1.916 2.659 3.069 4.613 3.069.645 0 1.3-.125 1.931-.39l53.566-22.451 10.61 7.983c.9.678 1.955 1.005 3.002 1.005 1.518 0 3.017-.688 3.999-1.994 1.66-2.207 1.218-5.341-.989-7.001l-5.94-4.469 13.139-5.507c2.548-1.067 3.747-3.997 2.68-6.544z" fill="#00b574"/></g></g></g></g></g></g><g><circle cx="346.212" cy="183.668" fill="#fff" r="47.485"/><path d="m361.882 177.539h-12.167v-23.854c0-1.112-1.494-1.475-2.004-.487l-18.111 35.05c-.365.706.148 1.549.943 1.549h12.167v23.854c0 1.112 1.494 1.475 2.004.487l18.111-35.05c.364-.707-.148-1.549-.943-1.549z" fill="#ff7eb8"/><path d="m439.882 427.996c-52.832-32.373-114.515-49.927-178.735-50.924v-50.075c11.554 9.055 25.823 14.03 40.563 14.029 2.711 0 5.44-.168 8.169-.509 2.74-.342 4.684-2.841 4.341-5.581-.342-2.739-2.828-4.681-5.581-4.342-17.725 2.211-35.392-4.19-47.597-17.175-.916-23.223 12.664-44.646 34.216-53.679 21.563-9.038 46.363-3.702 62.279 13.235.697 17.715-7.052 34.745-20.942 45.834-2.158 1.723-2.511 4.869-.788 7.027 1.723 2.159 4.87 2.51 7.026.788 16.904-13.495 26.096-34.448 24.587-56.049-.077-1.098-.514-2.139-1.242-2.963-16.576-18.748-42.089-26.258-65.813-20.109v-11.166c5.187-.022 9.519-3.748 10.311-8.88l.705-4.576c9.274 8.247 21.475 13.27 34.832 13.27 28.94 0 52.484-23.544 52.484-52.484s-23.544-52.485-52.484-52.485c-5.434 0-10.678.831-15.611 2.371v-3.745c0-5.777-4.7-10.478-10.478-10.478h-10.914v-51.372c0-8.936-7.27-16.205-16.205-16.205s-16.205 7.27-16.205 16.205v51.373h-64.426v-51.373c0-3.421 2.783-6.205 6.205-6.205s6.205 2.784 6.205 6.205v23.382c0 2.761 2.238 5 5 5s5-2.239 5-5v-23.382c0-8.936-7.27-16.205-16.205-16.205s-16.205 7.27-16.205 16.205v2.742c-9.655-9.433-22.623-14.809-36.585-14.809-28.94 0-52.484 23.544-52.484 52.484s23.544 52.484 52.484 52.484c5.964 0 11.755-.985 17.284-2.919 1.777 2.755 4.806 4.62 8.279 4.793l9.974 64.725c.792 5.131 5.124 8.857 10.311 8.879v11.166c-23.726-6.15-49.236 1.362-65.813 20.109-.729.824-1.165 1.866-1.242 2.963-1.967 28.16 14.205 54.412 40.242 65.325 8.239 3.454 16.879 5.124 25.438 5.124 14.705 0 29.153-4.951 40.886-14.253v27.759l-8.921-2.809c-2.637-.832-5.44.635-6.271 3.267-.829 2.634.634 5.442 3.268 6.271l11.925 3.755v12.043c-64.213.724-126.011 18.003-178.973 50.104-4.229 2.563-6.856 7.212-6.856 12.132v.798c0 7.804 6.35 14.154 14.154 14.154h353.057c7.805 0 14.154-6.35 14.154-14.154-.002-4.965-2.545-9.487-6.803-12.095zm-196.853-161.955h25.943c-5.51 5.836-9.907 12.626-12.971 20.027-3.065-7.401-7.463-14.192-12.972-20.027zm47.335-29.701v14.633c-3.304 1.451-6.443 3.15-9.401 5.071-.013 0-.025-.004-.037-.004h-49.895c-2.957-1.919-6.094-3.617-9.395-5.067v-14.633zm98.332-52.672c0 23.426-19.059 42.484-42.484 42.484s-42.484-19.059-42.484-42.484c0-23.426 19.059-42.485 42.484-42.485s42.484 19.059 42.484 42.485zm-68.095-53.859v8.072c-6.602 3.708-12.324 8.798-16.771 14.88h-111.953c-.264 0-.478-.214-.478-.478v-22.475c0-.263.214-.478.478-.478h128.246c.264.002.478.216.478.479zm-33.802-61.851c0-3.421 2.783-6.205 6.205-6.205s6.205 2.784 6.205 6.205v51.373h-12.41zm-163.495 40.417c0-23.426 19.059-42.484 42.484-42.484 15.031 0 28.645 7.695 36.414 20.585.05.083.117.149.171.228v32.627h-10.496c-5.777 0-10.478 4.7-10.478 10.478v18.086c-4.956 1.964-10.194 2.965-15.611 2.965-23.426 0-42.484-19.059-42.484-42.485zm87.904 117.561-9.735-63.174h96.611c-2.795 6.41-4.356 13.478-4.356 20.907 0 10.895 3.339 21.023 9.044 29.42l-1.979 12.847c-.036.235-.235.405-.473.405h-88.639c-.238-.001-.437-.171-.473-.405zm39.751 87.484c-15.923 16.945-40.722 22.289-62.271 13.258-21.559-9.036-35.143-30.468-34.225-53.702 15.915-16.937 40.719-22.271 62.279-13.235 21.553 9.033 35.133 30.456 34.217 53.679zm181.569 130.827h-353.056c-2.291 0-4.154-1.863-4.154-4.154v-.798c0-1.468.763-2.806 2.04-3.58 52.554-31.854 114.103-48.69 177.993-48.69 64.456 0 126.46 17.116 179.307 49.499 1.269.777 2.025 2.111 2.025 3.57 0 2.289-1.864 4.153-4.155 4.153z" fill="#2626bc"/></g><path d="m91.332 328.588c-1.279 0-2.56-.488-3.535-1.464-1.953-1.953-1.953-5.119 0-7.071l3.327-3.328-5.002-3.172c-1.282-.813-2.125-2.165-2.292-3.673s.361-3.012 1.435-4.085l7.742-7.742c1.951-1.952 5.118-1.952 7.071 0 1.952 1.953 1.952 5.119-.001 7.071l-3.327 3.327 5.002 3.172c1.282.813 2.125 2.165 2.292 3.673s-.361 3.012-1.435 4.085l-7.742 7.742c-.975.977-2.256 1.465-3.535 1.465z" fill="#01eca5"/><path d="m375.953 110.937c-1.279 0-2.56-.488-3.535-1.464-1.953-1.953-1.953-5.119 0-7.071l3.327-3.327-5.002-3.172c-1.282-.813-2.125-2.165-2.292-3.673s.36-3.012 1.435-4.085l7.742-7.742c1.951-1.952 5.119-1.952 7.07 0 1.953 1.953 1.953 5.119 0 7.071l-3.327 3.328 5.002 3.172c1.282.813 2.125 2.165 2.292 3.673s-.361 3.012-1.435 4.085l-7.742 7.742c-.975.974-2.256 1.463-3.535 1.463z" fill="#01eca5"/><path d="m369.953 368.264c-1.279 0-2.56-.488-3.535-1.464-1.953-1.953-1.953-5.119 0-7.071l3.327-3.328-5.002-3.172c-1.282-.813-2.125-2.165-2.292-3.673s.361-3.012 1.435-4.085l7.742-7.742c1.951-1.952 5.118-1.952 7.071 0 1.952 1.953 1.952 5.119-.001 7.071l-3.327 3.327 5.002 3.172c1.282.813 2.125 2.165 2.292 3.673s-.361 3.012-1.435 4.085l-7.742 7.742c-.975.977-2.256 1.465-3.535 1.465z" fill="#ff7eb8"/><path d="m133.688 368.264c-2.762 0-5-2.239-5-5 0-3.309-2.691-6-6-6-2.762 0-5-2.239-5-5s2.238-5 5-5c3.309 0 6-2.691 6-6 0-2.761 2.238-5 5-5s5 2.239 5 5c0 3.309 2.691 6 6 6 2.762 0 5 2.239 5 5s-2.238 5-5 5c-3.309 0-6 2.691-6 6 0 2.761-2.239 5-5 5z" fill="#6583fe"/><path d="m345.533 72.757c-2.762 0-5-2.239-5-5 0-3.309-2.691-6-6-6-2.762 0-5-2.239-5-5s2.238-5 5-5c3.309 0 6-2.691 6-6 0-2.761 2.238-5 5-5s5 2.239 5 5c0 3.309 2.691 6 6 6 2.762 0 5 2.239 5 5s-2.238 5-5 5c-3.309 0-6 2.691-6 6 0 2.761-2.238 5-5 5z" fill="#ff7eb8"/></g></g></svg>