<svg id="Capa_1" enable-background="new 0 0 512 512" height="512" viewBox="0 0 512 512" width="512" xmlns="http://www.w3.org/2000/svg" xmlns:xlink="http://www.w3.org/1999/xlink"><linearGradient id="SVGID_1_" gradientUnits="userSpaceOnUse" x1="15.63" x2="496.37" y1="256" y2="256"><stop offset=".0485" stop-color="#d2deff"/><stop offset=".9993" stop-color="#dcfdee"/></linearGradient><g><g><path d="m20.722 179.563c26.255 85.007 107.775 89.005 182.131 93.553 244.867 14.978-63.002 218.186 146.697 238.304 77.136 7.4 157.788-56.956 145.59-140.291-11.107-75.879-121.152-121.073-121.207-191.979-.043-55.945 103.86-96.409 36.272-156.553-60.249-53.612-442.871-15.888-389.483 156.966z" fill="url(#SVGID_1_)"/></g><g><path d="m385.847 174.361c5.865 0 10.62-4.755 10.62-10.62s-4.755-10.62-10.62-10.62h-3.765v-28.75h3.765c5.865 0 10.62-4.755 10.62-10.62s-4.755-10.62-10.62-10.62h-166.501v-8.9c0-5.523-4.477-10-10-10h-44.759c-5.523 0-10 4.477-10 10v8.9h-23.71c-5.865 0-10.62 4.755-10.62 10.62s4.755 10.62 10.62 10.62h1.185v28.75h-1.185c-5.865 0-10.62 4.755-10.62 10.62s4.755 10.62 10.62 10.62h1.185v217.506h-1.185c-5.865 0-10.62 4.755-10.62 10.62s4.755 10.62 10.62 10.62h1.185v28.75h-1.185c-5.865 0-10.62 4.755-10.62 10.62s4.755 10.62 10.62 10.62h254.97c5.865 0 10.62-4.755 10.62-10.62s-4.755-10.62-10.62-10.62h-3.765v-28.75h3.765c5.865 0 10.62-4.755 10.62-10.62s-4.755-10.62-10.62-10.62h-3.765v-217.506z" fill="#2626bc" opacity=".1"/><g><g><g><path d="m132.062 100.374h250.02v317.48h-250.02z" fill="#ff7eb8"/><g fill="#ff5ba8"><path d="m132.062 100.374h250.02v15h-250.02z"/><path d="m132.062 139.744h250.02v25.62h-250.02z"/><path d="m132.062 378.484h250.02v25.62h-250.02z"/></g></g><g fill="#ffc4df"><g><path d="m385.847 100.372h-254.97c-5.865 0-10.62-4.755-10.62-10.62 0-5.865 4.755-10.62 10.62-10.62h254.97c5.865 0 10.62 4.755 10.62 10.62 0 5.865-4.755 10.62-10.62 10.62z"/><path d="m385.847 150.361h-254.97c-5.865 0-10.62-4.755-10.62-10.62 0-5.865 4.755-10.62 10.62-10.62h254.97c5.865 0 10.62 4.755 10.62 10.62 0 5.866-4.755 10.62-10.62 10.62z"/></g><g><path d="m385.847 389.107h-254.97c-5.865 0-10.62-4.755-10.62-10.62 0-5.865 4.755-10.62 10.62-10.62h254.97c5.865 0 10.62 4.755 10.62 10.62 0 5.866-4.755 10.62-10.62 10.62z"/><path d="m385.847 439.097h-254.97c-5.865 0-10.62-4.755-10.62-10.62 0-5.865 4.755-10.62 10.62-10.62h254.97c5.865 0 10.62 4.755 10.62 10.62 0 5.865-4.755 10.62-10.62 10.62z"/></g></g></g><path d="m219.345 79.132h-64.759v-8.9c0-5.523 4.477-10 10-10h44.759c5.523 0 10 4.477 10 10z" fill="#6583fe"/><g fill="#2626bc"><path d="m387.087 124.184v-18.875c8.034-.636 14.38-7.363 14.38-15.557 0-8.613-7.007-15.62-15.62-15.62h-161.501v-3.9c0-8.271-6.729-15-15-15h-44.759c-8.271 0-15 6.729-15 15v3.9h-18.71c-8.613 0-15.62 7.007-15.62 15.62 0 7.295 5.034 13.42 11.805 15.129v19.731c-6.771 1.709-11.805 7.835-11.805 15.129 0 8.613 7.007 15.62 15.62 15.62h246.21v179.516c0 2.761 2.239 5 5 5s5-2.239 5-5v-179.578c8.034-.636 14.38-7.362 14.38-15.557s-6.346-14.922-14.38-15.558zm-10-.062h-240.025v-18.75h240.025zm-217.5-53.89c0-2.757 2.243-5 5-5h44.759c2.757 0 5 2.243 5 5v3.9h-54.759zm-34.33 19.52c0-3.099 2.521-5.62 5.62-5.62h254.97c3.099 0 5.62 2.521 5.62 5.62s-2.521 5.62-5.62 5.62h-3.76-250.025-1.185c-3.099 0-5.62-2.521-5.62-5.62zm260.59 55.609h-254.97c-3.099 0-5.62-2.521-5.62-5.62s2.521-5.62 5.62-5.62h254.97c3.099 0 5.62 2.521 5.62 5.62s-2.521 5.62-5.62 5.62z"/><path d="m401.467 378.487c0-8.613-7.007-15.62-15.62-15.62h-248.785v-179.515c0-2.761-2.239-5-5-5s-5 2.239-5 5v180.006c-6.771 1.709-11.805 7.835-11.805 15.129s5.034 13.42 11.805 15.129v19.731c-6.771 1.709-11.805 7.835-11.805 15.129 0 8.613 7.007 15.62 15.62 15.62h254.97c8.613 0 15.62-7.007 15.62-15.62 0-8.194-6.346-14.922-14.38-15.557v-18.875c8.034-.635 14.38-7.362 14.38-15.557zm-264.405 15.62h240.025v18.75h-240.025zm-11.805-15.62c0-3.099 2.521-5.62 5.62-5.62h254.97c3.099 0 5.62 2.521 5.62 5.62s-2.521 5.62-5.62 5.62h-254.97c-3.099 0-5.62-2.521-5.62-5.62zm266.21 49.99c0 3.099-2.521 5.62-5.62 5.62h-254.97c-3.099 0-5.62-2.521-5.62-5.62s2.521-5.62 5.62-5.62h1.185 250.025 3.76c3.099 0 5.62 2.521 5.62 5.62z"/></g><circle cx="258.362" cy="259.114" fill="#fff" r="67.574"/><path d="m290.299 259.108c0 20.705-13.357 38.273-31.93 44.576-18.573-6.303-31.943-23.87-31.943-44.576 0-20.692 13.37-38.26 31.943-44.562 18.573 6.302 31.93 23.87 31.93 44.562z" fill="#02ffb3"/><g><path d="m258.362 313.806c-2.761 0-5-2.239-5-5v-65.745c0-2.761 2.239-5 5-5s5 2.239 5 5v65.745c0 2.762-2.239 5-5 5z" fill="#00b574"/></g></g><path d="m336.937 61.516c-2.761 0-5-2.239-5-5 0-3.309-2.691-6-6-6-2.761 0-5-2.239-5-5s2.239-5 5-5c3.309 0 6-2.691 6-6 0-2.761 2.239-5 5-5s5 2.239 5 5c0 3.309 2.691 6 6 6 2.761 0 5 2.239 5 5s-2.239 5-5 5c-3.309 0-6 2.691-6 6 0 2.761-2.239 5-5 5z" fill="#01eca5"/><path d="m79.654 275.114c-2.761 0-5-2.239-5-5 0-3.309-2.692-6-6-6-2.761 0-5-2.239-5-5s2.239-5 5-5c3.309 0 6-2.691 6-6 0-2.761 2.239-5 5-5s5 2.239 5 5c0 3.309 2.691 6 6 6 2.761 0 5 2.239 5 5s-2.239 5-5 5c-3.308 0-6 2.691-6 6 0 2.761-2.239 5-5 5z" fill="#ff7eb8"/><path d="m88.049 230.9c-1.28 0-2.559-.488-3.536-1.464-1.953-1.953-1.953-5.119 0-7.071l3.328-3.327-5.002-3.173c-1.282-.813-2.125-2.164-2.292-3.673s.361-3.011 1.434-4.085l7.742-7.742c1.952-1.952 5.118-1.952 7.071 0 1.953 1.953 1.953 5.118 0 7.071l-3.328 3.328 5.002 3.173c1.282.813 2.125 2.164 2.292 3.673s-.361 3.012-1.434 4.085l-7.742 7.742c-.976.975-2.255 1.463-3.535 1.463z" fill="#6583fe"/><path d="m292.831 482.484c-1.28 0-2.559-.488-3.536-1.464-1.953-1.953-1.953-5.119 0-7.071l3.328-3.327-5.002-3.172c-1.282-.813-2.125-2.165-2.292-3.673s.361-3.012 1.434-4.085l7.742-7.742c1.953-1.952 5.118-1.952 7.071 0 1.953 1.953 1.953 5.119 0 7.071l-3.328 3.328 5.002 3.172c1.282.813 2.125 2.165 2.292 3.673s-.361 3.012-1.434 4.085l-7.742 7.742c-.976.975-2.256 1.463-3.535 1.463z" fill="#ff7eb8"/><path d="m409.056 229.061c-1.28 0-2.559-.488-3.536-1.464-1.953-1.953-1.953-5.119 0-7.071l3.328-3.328-5.002-3.173c-1.282-.813-2.125-2.164-2.292-3.673s.361-3.012 1.434-4.085l7.742-7.742c1.953-1.952 5.118-1.952 7.071 0 1.953 1.953 1.953 5.119 0 7.071l-3.328 3.328 5.002 3.173c1.282.813 2.125 2.164 2.292 3.673s-.361 3.012-1.434 4.085l-7.742 7.742c-.976.976-2.256 1.464-3.535 1.464z" fill="#01eca5"/><g><path d="m175.882 346.304h-13.52c-2.762 0-5-2.239-5-5s2.238-5 5-5h13.52c2.762 0 5 2.239 5 5s-2.239 5-5 5z" fill="#ffc4df"/></g><g><path d="m175.882 329.689h-13.52c-2.762 0-5-2.239-5-5s2.238-5 5-5h13.52c2.762 0 5 2.239 5 5s-2.239 5-5 5z" fill="#ffc4df"/></g></g></g></svg>