<svg id="Capa_1" enable-background="new 0 0 512 512" height="512" viewBox="0 0 512 512" width="512" xmlns="http://www.w3.org/2000/svg" xmlns:xlink="http://www.w3.org/1999/xlink"><linearGradient id="SVGID_1_" gradientUnits="userSpaceOnUse" x1="53.976" x2="458.024" y1="256" y2="256"><stop offset=".0485" stop-color="#d2deff"/><stop offset=".9993" stop-color="#dcfdee"/></linearGradient><g><g><path d="m170.091.39c-68.06 4.435-134.218 61.127-111.591 135.073 18.265 59.691 84.702 87.73 134.671 115.676 47.928 26.805 98.6 60.229 112.037 117.192 9.247 39.199-2.084 84.916 22.012 117.187 42.331 56.693 124.077 13.634 130.314-47.258 5.176-50.542-31.51-94.701-65.828-132.165-33.267-36.317-70.462-71.374-99.992-110.843-27.345-36.55-41.639-81.985-5.379-118.188 8.145-8.132 17.848-16.505 14.872-29.734-9.77-43.394-97.817-49.109-131.116-46.94z" fill="url(#SVGID_1_)"/></g><g><g><path d="m408.8 436.678-78.329-118.823c-9.968-15.121-15.281-32.833-15.281-50.943v-66.118h6.263c4.16 0 7.92-1.69 10.65-4.41s4.41-6.49 4.41-10.65c0-8.32-6.74-15.06-15.06-15.06h-50.18c0-.001 0-.001 0-.002v-41.875c15.394 13.551 37.74 17.981 57.914 9.526 22.431-9.402 35.392-31.863 33.787-54.846-15.261-17.259-40.358-23.752-62.789-14.351-16.697 6.998-28.146 21.239-32.241 37.547-.525-.187-1.082-.307-1.671-.307s-1.146.12-1.671.307c-4.095-16.308-15.544-30.549-32.241-37.547-22.431-9.402-47.528-2.908-62.789 14.351-1.605 22.983 11.356 45.444 33.787 54.846 20.174 8.456 42.52 4.025 57.914-9.526v41.875.002h-50.18c-4.16 0-7.92 1.69-10.65 4.41s-4.41 6.49-4.41 10.65c0 8.32 6.74 15.06 15.06 15.06h6.263v66.118c0 18.11-5.313 35.823-15.281 50.943l-78.329 118.823c-13.149 19.947 1.157 46.511 25.047 46.511h234.958c23.893 0 38.198-26.565 25.049-46.511z" fill="#2626bc" opacity=".1"/><g><path d="m408.801 412.678-78.329-118.823c-9.968-15.121-15.28-32.833-15.28-50.943v-81.914h-97.834v81.914c0 18.11-5.313 35.823-15.28 50.943l-78.329 118.823c-13.149 19.947 1.157 46.511 25.047 46.511h234.958c23.89 0 38.195-26.565 25.047-46.511z" fill="#d2deff"/><path d="m217.357 160.997h97.834v41.424h-97.834z" fill="#b7c5ff"/><g><path d="m271.274 146.673v233.39c0 2.761-2.239 5-5 5-2.761 0-5-2.239-5-5v-233.39z" fill="#ff7eb8"/></g><path d="m261.274 160.993h10v41.43h-10z" fill="#ff5ba8"/><path d="m383.754 459.193h-234.96c-23.89 0-38.2-26.57-25.05-46.52l40.41-61.3h204.24l40.41 61.3c13.15 19.95-1.16 46.52-25.05 46.52z" fill="#8399fe"/><g><path d="m336.514 161.733c0 4.16-1.68 7.93-4.41 10.65s-6.49 4.41-10.65 4.41h-110.36c-8.32 0-15.06-6.74-15.06-15.06 0-4.16 1.68-7.93 4.41-10.65s6.49-4.41 10.65-4.41h110.36c8.32 0 15.06 6.74 15.06 15.06z" fill="#d2deff"/><g><path d="m261.274 146.673h10v30.12h-10z" fill="#ff7eb8"/></g></g><g><g><g><path d="m232.362 45.125c-22.431-9.402-47.528-2.909-62.789 14.351-1.605 22.983 11.356 45.444 33.787 54.846 22.417 9.395 47.519 2.888 62.781-14.372 1.605-22.983-11.362-45.43-33.779-54.825z" fill="#02ffb3"/><path d="m268.073 95.339-32.184-13.489-2.502-13.56c-.501-2.716-3.105-4.513-5.824-4.01-2.715.501-4.511 3.108-4.01 5.824l1.315 7.126-27.107-11.361c-2.544-1.066-5.476.132-6.544 2.679-1.067 2.546.132 5.477 2.679 6.544l11.203 4.695-4.761 3.582c-2.207 1.66-2.649 4.795-.989 7.001.982 1.306 2.481 1.994 3.999 1.994 1.046 0 2.102-.328 3.002-1.005l9.43-7.096 48.427 20.297c.631.265 1.286.39 1.931.39 1.954 0 3.811-1.153 4.613-3.069 1.068-2.545-.131-5.475-2.678-6.542z" fill="#00b574"/></g></g><g><g><path d="m300.186 45.125c22.431-9.402 47.528-2.909 62.789 14.351 1.605 22.983-11.356 45.444-33.787 54.846-22.417 9.395-47.519 2.888-62.781-14.372-1.605-22.983 11.362-45.43 33.779-54.825z" fill="#02ffb3"/><path d="m341.331 68.548c-1.067-2.547-3.999-3.745-6.544-2.679l-27.107 11.362 1.315-7.127c.501-2.715-1.294-5.323-4.01-5.824-2.716-.5-5.323 1.294-5.824 4.01l-2.501 13.56-32.184 13.489c-2.547 1.067-3.746 3.998-2.679 6.544.803 1.916 2.659 3.069 4.613 3.069.645 0 1.299-.125 1.931-.39l48.426-20.297 9.43 7.095c.901.678 1.956 1.005 3.002 1.005 1.518 0 3.017-.688 3.999-1.994 1.661-2.207 1.218-5.341-.989-7.001l-4.761-3.582 11.203-4.696c2.548-1.068 3.747-3.998 2.68-6.544z" fill="#00b574"/><path d="m412.975 409.926-78.329-118.823c-9.456-14.345-14.455-31.009-14.455-48.191v-33.127c0-2.761-2.239-5-5-5s-5 2.239-5 5v33.127c0 19.145 5.569 37.712 16.106 53.695l78.328 118.823c5.146 7.806 5.572 17.381 1.139 25.613s-12.662 13.146-22.011 13.146h-234.958c-9.35 0-17.578-4.915-22.011-13.146s-4.007-17.807 1.139-25.613l78.328-118.823c10.537-15.984 16.106-34.551 16.106-53.695v-66.12c0-2.761-2.239-5-5-5h-6.262c-5.547 0-10.06-4.513-10.06-10.06s4.513-10.06 10.06-10.06h110.359c5.547 0 10.06 4.513 10.06 10.06s-4.513 10.06-10.06 10.06h-71.106c-2.761 0-5 2.239-5 5s2.239 5 5 5h71.106c11.061 0 20.06-8.999 20.06-20.06s-8.999-20.06-20.06-20.06h-50.18v-30.42c10.581 8.078 23.455 12.373 36.558 12.373 7.834 0 15.748-1.53 23.29-4.691 23.836-9.991 38.642-34.025 36.842-59.806-.077-1.098-.513-2.14-1.242-2.964-17.113-19.353-44.628-25.643-68.467-15.65-14.677 6.151-25.921 17.631-31.979 31.559-6.059-13.928-17.302-25.408-31.979-31.559-23.84-9.994-51.355-3.703-68.467 15.65-.729.824-1.166 1.866-1.242 2.963-1.801 25.781 13.004 49.815 36.842 59.806 7.543 3.162 15.454 4.691 23.289 4.691 13.101 0 25.977-4.296 36.558-12.373v30.421h-50.179c-11.061 0-20.06 8.999-20.06 20.06s8.999 20.06 20.06 20.06h1.262v61.12c0 17.182-4.999 33.846-14.456 48.191l-78.328 118.823c-7.205 10.929-7.8 24.333-1.594 35.858 6.207 11.525 17.727 18.405 30.816 18.405h234.958c13.089 0 24.609-6.88 30.816-18.405 6.203-11.525 5.607-24.93-1.597-35.858zm-110.856-360.19c19.36-8.115 41.625-3.358 55.959 11.792.751 20.853-11.465 40.069-30.822 48.182-19.35 8.11-41.611 3.345-55.951-11.813-.022-.623-.032-1.245-.031-1.865v-.148c.077-20.058 12.118-38.299 30.845-46.148zm-40.876 48.161c-14.341 15.157-36.603 19.921-55.951 11.813-19.357-8.113-31.574-27.33-30.822-48.182 14.335-15.151 36.598-19.908 55.959-11.792 18.719 7.846 30.758 26.076 30.844 46.125v.2c.001.611-.008 1.223-.03 1.836z" fill="#2626bc"/></g></g></g><g><path d="m271.274 351.373v28.69c0 2.761-2.239 5-5 5-2.761 0-5-2.239-5-5v-28.69z" fill="#ff5ba8"/></g><circle cx="315.132" cy="351.373" fill="#9fb0fe" r="18.02"/><circle cx="341.411" cy="385.063" fill="#9fb0fe" r="10.544"/><circle cx="213.395" cy="393.046" fill="#9fb0fe" r="10.544"/><g fill="#b7c5ff"><circle cx="296.425" cy="316.129" r="9"/><circle cx="242.49" cy="298.278" r="9"/><path d="m297.112 351.373c0-9.952 8.068-18.02 18.02-18.02s18.02 8.068 18.02 18.02z"/></g></g></g><path d="m153.881 203.793c-1.28 0-2.559-.488-3.536-1.464-1.953-1.953-1.953-5.119 0-7.071l3.328-3.328-5.002-3.172c-1.282-.813-2.125-2.165-2.292-3.673s.361-3.012 1.434-4.085l7.742-7.742c1.954-1.952 5.119-1.952 7.071 0 1.953 1.953 1.953 5.119 0 7.071l-3.328 3.327 5.002 3.172c1.282.813 2.125 2.165 2.292 3.673s-.361 3.012-1.434 4.085l-7.742 7.742c-.976.977-2.255 1.465-3.535 1.465z" fill="#ff7eb8"/><path d="m100.726 366.519c-1.28 0-2.559-.488-3.536-1.464-1.953-1.953-1.953-5.118 0-7.071l3.328-3.328-5.002-3.173c-1.282-.813-2.125-2.164-2.292-3.673s.361-3.012 1.434-4.085l7.742-7.742c1.954-1.952 5.119-1.951 7.071 0 1.953 1.953 1.953 5.119 0 7.071l-3.328 3.328 5.002 3.172c1.282.813 2.125 2.164 2.292 3.673s-.361 3.011-1.434 4.085l-7.742 7.742c-.976.976-2.256 1.465-3.535 1.465z" fill="#ff7eb8"/><path d="m390.013 260.05c-1.28 0-2.559-.488-3.536-1.464-1.953-1.953-1.953-5.119 0-7.071l3.328-3.328-5.003-3.173c-1.282-.813-2.125-2.164-2.292-3.673s.361-3.012 1.434-4.085l7.742-7.742c1.954-1.952 5.119-1.952 7.071 0 1.953 1.953 1.953 5.119 0 7.071l-3.328 3.328 5.003 3.173c1.282.813 2.125 2.164 2.292 3.673s-.361 3.012-1.434 4.085l-7.742 7.742c-.976.976-2.256 1.464-3.535 1.464z" fill="#01eca5"/><g fill="#6583fe"><path d="m374.108 201.591c-2.761 0-5-2.239-5-5 0-3.309-2.691-6-6-6-2.761 0-5-2.239-5-5s2.239-5 5-5c3.309 0 6-2.691 6-6 0-2.761 2.239-5 5-5s5 2.239 5 5c0 3.309 2.691 6 6 6 2.761 0 5 2.239 5 5s-2.239 5-5 5c-3.309 0-6 2.691-6 6 0 2.762-2.238 5-5 5z"/><path d="m122.808 147.431c-2.761 0-5-2.239-5-5 0-3.309-2.692-6-6-6-2.761 0-5-2.239-5-5s2.239-5 5-5c3.309 0 6-2.691 6-6 0-2.761 2.239-5 5-5s5 2.239 5 5c0 3.309 2.691 6 6 6 2.761 0 5 2.239 5 5s-2.239 5-5 5c-3.308 0-6 2.691-6 6 0 2.761-2.239 5-5 5z"/></g></g></g></svg>