<svg id="Capa_1" enable-background="new 0 0 512 512" height="512" viewBox="0 0 512 512" width="512" xmlns="http://www.w3.org/2000/svg" xmlns:xlink="http://www.w3.org/1999/xlink"><linearGradient id="SVGID_1_" gradientUnits="userSpaceOnUse" x1="48.274" x2="469.726" y1="256" y2="256"><stop offset=".0485" stop-color="#d2deff"/><stop offset="1" stop-color="#dcfdee"/></linearGradient><g><g><path d="m100.146 38.232c-135.328 119.538 38.83 235.409 22.242 366.028-7.375 58.072 16.054 113.588 92.705 107.244 93.413-7.732 59.504-97.209 79.066-156.778 33.66-102.501 240.73-78.56 154.895-236.448-54.777-100.758-255.766-162.321-348.908-80.046z" fill="url(#SVGID_1_)"/></g><g><path d="m453.538 439.627h-10.117v-55.805-172.013c0-5.523-4.477-10-10-10h-44.425v-33.284c0-2.761-2.239-5-5-5h-10.661c.022-.189.057-.374.057-.569v-24.036c7.892 5.608 18.406 7.139 27.987 3.124 11.754-4.926 18.545-16.696 17.704-28.739-7.997-9.044-21.147-12.446-32.901-7.52-9.056 3.795-15.15 11.66-17.089 20.58-.231-.033-.461-.071-.701-.071-.028 0-.054.008-.082.008-.746-13.001-8.682-25.077-21.496-30.448-14.273-5.982-30.242-1.851-39.952 9.131-1.021 14.624 7.225 28.916 21.498 34.898 12.062 5.056 25.346 2.873 35.032-4.562v27.633c0 .195.036.38.057.569h-11.027c-2.761 0-5 2.239-5 5v33.284h-166.147v-33.284c0-2.761-2.239-5-5-5h-10.844c.022-.189.057-.374.057-.569v-24.034c7.892 5.608 18.406 7.14 27.988 3.124 11.754-4.926 18.545-16.696 17.704-28.739-7.997-9.044-21.147-12.446-32.901-7.52-9.056 3.795-15.15 11.66-17.09 20.58-.231-.033-.461-.071-.701-.071-.028 0-.054.008-.082.008-.745-13.001-8.682-25.077-21.496-30.448-14.273-5.982-30.242-1.851-39.952 9.131-1.021 14.624 7.226 28.916 21.498 34.898 12.062 5.056 25.346 2.874 35.032-4.562v27.633c0 .195.036.38.057.569h-10.843c-2.761 0-5 2.239-5 5v33.284h-44.425c-5.523 0-10 4.477-10 10v172.013 55.805h-10.117c-5.523 0-10 4.477-10 10v13.261c0 5.523 4.477 10 10 10h378.378c5.523 0 10-4.477 10-10v-13.261c0-5.52-4.477-9.998-10-9.998z" fill="#2626bc" opacity=".1"/><g><path d="m443.421 428.288h-358.144v-240.479c0-5.523 4.477-10 10-10h338.144c5.523 0 10 4.477 10 10z" fill="#ff7eb8"/><path d="m85.277 359.822h358.144v68.465h-358.144z" fill="#ff5ba8"/><g><path d="m194.275 231.093h-67.573c-2.761 0-5-2.239-5-5v-48.284h77.573v48.284c0 2.762-2.239 5-5 5z" fill="#b7c5ff"/><path d="m401.997 231.093h-67.573c-2.761 0-5-2.239-5-5v-48.284h77.573v48.284c0 2.762-2.239 5-5 5z" fill="#ffc4df"/></g><g><path d="m352.424 139.525h31.573c2.761 0 5 2.239 5 5v33.284h-41.573v-33.284c0-2.761 2.239-5 5-5z" fill="#ff7eb8"/><path d="m144.702 139.525h31.573c2.761 0 5 2.239 5 5v33.284h-41.573v-33.284c0-2.761 2.239-5 5-5z" fill="#9fb0fe"/></g><path d="m453.538 448.889h-378.378c-5.523 0-10-4.477-10-10v-13.261c0-5.523 4.477-10 10-10h378.378c5.523 0 10 4.477 10 10v13.261c0 5.522-4.477 10-10 10z" fill="#02ffb3"/><g><g><circle cx="184.231" cy="262.913" fill="#fff" r="47.485"/><path d="m199.9 256.785h-12.167v-23.854c0-1.112-1.494-1.475-2.004-.487l-18.111 35.05c-.365.706.148 1.549.943 1.549h12.167v23.854c0 1.112 1.494 1.475 2.004.487l18.111-35.05c.365-.707-.147-1.549-.943-1.549z" fill="#9fb0fe"/></g><g><circle cx="344.468" cy="262.913" fill="#fff" r="47.485"/><path d="m360.138 256.785h-12.167v-23.854c0-1.112-1.494-1.475-2.004-.487l-18.111 35.05c-.365.706.148 1.549.943 1.549h12.167v23.854c0 1.112 1.494 1.475 2.004.487l18.111-35.05c.365-.707-.148-1.549-.943-1.549z" fill="#ff7eb8"/></g></g><g><path d="m138.91 71.856c-14.273-5.982-30.242-1.851-39.952 9.131-1.021 14.624 7.226 28.916 21.498 34.898 14.264 5.978 30.236 1.837 39.947-9.145 1.022-14.623-7.229-28.905-21.493-34.884z" fill="#02ffb3"/><path d="m178.279 81.786c11.754-4.926 24.904-1.524 32.901 7.52.841 12.043-5.95 23.812-17.704 28.739-11.746 4.923-24.9 1.513-32.897-7.531-.841-12.043 5.953-23.805 17.7-28.728z" fill="#00d890"/></g><g><path d="m346.815 71.856c-14.273-5.982-30.242-1.851-39.952 9.131-1.021 14.624 7.226 28.916 21.498 34.898 14.264 5.978 30.236 1.837 39.947-9.145 1.022-14.623-7.229-28.905-21.493-34.884z" fill="#02ffb3"/><g><g><path d="m386.183 81.786c11.754-4.926 24.904-1.524 32.901 7.52.841 12.043-5.95 23.812-17.704 28.739-11.746 4.923-24.9 1.513-32.897-7.531-.84-12.043 5.954-23.805 17.7-28.728z" fill="#00d890"/><path d="m453.539 410.627h-335.271c-2.761 0-5 2.239-5 5s2.239 5 5 5h335.271c2.757 0 5 2.243 5 5v13.261c0 2.757-2.243 5-5 5h-378.379c-2.757 0-5-2.243-5-5v-13.261c0-2.757 2.243-5 5-5h10.117c2.761 0 5-2.239 5-5v-227.817c0-2.757 2.243-5 5-5h338.144c2.757 0 5 2.243 5 5v194.827c0 2.761 2.238 5 5 5s5-2.239 5-5v-194.827c0-8.271-6.729-15-15-15h-39.425v-28.284c0-5.514-4.486-10-10-10h-10.604v-13.674c5.127 2.917 10.922 4.448 16.797 4.448 4.414 0 8.873-.862 13.123-2.643 13.431-5.629 21.773-19.171 20.76-33.698-.077-1.098-.514-2.14-1.242-2.964-9.644-10.905-25.149-14.451-38.58-8.819-5.787 2.425-10.621 6.325-14.177 11.134-4.035-9.296-11.534-16.959-21.326-21.063-15.888-6.659-34.226-2.467-45.631 10.431-.729.824-1.165 1.866-1.242 2.963-1.2 17.182 8.667 33.2 24.554 39.858 5.027 2.107 10.3 3.127 15.521 3.126 7.558 0 15.003-2.147 21.443-6.212v17.114h-10.969c-5.514 0-10 4.486-10 10v28.284h-156.15v-28.284c0-5.514-4.486-10-10-10h-10.786v-13.674c5.127 2.917 10.922 4.448 16.796 4.448 4.415 0 8.873-.862 13.123-2.643 13.432-5.629 21.774-19.172 20.759-33.699-.077-1.097-.513-2.139-1.242-2.963-9.643-10.905-25.147-14.451-38.579-8.819-5.787 2.425-10.621 6.325-14.176 11.134-4.035-9.296-11.534-16.959-21.326-21.063-15.886-6.658-34.225-2.468-45.63 10.431-.729.824-1.166 1.866-1.242 2.963-1.2 17.182 8.667 33.2 24.553 39.858 5.027 2.107 10.3 3.127 15.521 3.126 7.558 0 15.004-2.147 21.443-6.212v17.114h-10.787c-5.514 0-10 4.486-10 10v28.284h-39.422c-8.271 0-15 6.729-15 15v222.818h-5.118c-8.271 0-15 6.729-15 15v13.261c0 8.271 6.729 15 15 15h378.378c8.271 0 15-6.729 15-15v-13.261c.001-8.274-6.728-15.003-14.999-15.003zm-65.423-324.23c8.949-3.75 19.196-1.733 26.039 4.975-.015 9.588-5.761 18.312-14.707 22.062-8.942 3.748-19.188 1.728-26.035-4.985.014-9.584 5.76-18.303 14.703-22.052zm-57.822 24.877c-11.403-4.779-18.678-15.979-18.514-28.226 8.612-8.699 21.696-11.361 33.103-6.581 11.4 4.778 18.673 15.971 18.509 28.213-8.618 8.704-21.699 11.372-33.098 6.594zm-150.083-24.877c8.949-3.749 19.197-1.733 26.039 4.975-.014 9.587-5.761 18.312-14.708 22.062-8.942 3.749-19.189 1.727-26.035-4.985.017-9.583 5.762-18.303 14.704-22.052zm-57.822 24.877c-11.403-4.779-18.678-15.979-18.514-28.226 8.614-8.7 21.698-11.361 33.103-6.581 11.4 4.778 18.672 15.971 18.509 28.213-8.618 8.704-21.701 11.372-33.098 6.594zm230.029 33.252h31.579v28.284h-31.573zm-207.722 0h31.579v28.284h-31.574z" fill="#2626bc"/></g></g></g></g><g><g><g><path d="m167.998 353.648h-15.02c-2.762 0-5-2.239-5-5s2.238-5 5-5h15.02c2.762 0 5 2.239 5 5s-2.238 5-5 5z" fill="#fff"/></g><g><path d="m167.998 375.996h-15.02c-2.762 0-5-2.239-5-5s2.238-5 5-5h15.02c2.762 0 5 2.239 5 5s-2.238 5-5 5z" fill="#fff"/></g></g><g><g><path d="m375.72 353.648h-15.02c-2.762 0-5-2.239-5-5s2.238-5 5-5h15.02c2.762 0 5 2.239 5 5s-2.238 5-5 5z" fill="#fff"/></g><g><path d="m375.72 375.996h-15.02c-2.762 0-5-2.239-5-5s2.238-5 5-5h15.02c2.762 0 5 2.239 5 5s-2.238 5-5 5z" fill="#fff"/></g></g></g><path d="m241.27 85.151c-1.28 0-2.559-.488-3.536-1.464-1.953-1.953-1.953-5.119 0-7.071l3.328-3.328-5.002-3.173c-1.282-.813-2.125-2.164-2.292-3.673s.361-3.012 1.434-4.085l7.742-7.742c1.953-1.952 5.118-1.952 7.071 0 1.953 1.953 1.953 5.119 0 7.071l-3.328 3.328 5.002 3.173c1.282.813 2.125 2.164 2.292 3.673s-.361 3.012-1.434 4.085l-7.742 7.742c-.976.976-2.255 1.464-3.535 1.464z" fill="#ff7eb8"/><path d="m468.906 273.541c-1.279 0-2.56-.488-3.535-1.464-1.953-1.953-1.953-5.119 0-7.071l3.327-3.328-5.002-3.173c-1.282-.813-2.125-2.164-2.292-3.673s.361-3.012 1.435-4.085l7.742-7.742c1.951-1.952 5.118-1.952 7.071 0 1.952 1.953 1.952 5.119-.001 7.071l-3.327 3.328 5.002 3.173c1.282.813 2.125 2.164 2.292 3.673s-.361 3.012-1.435 4.085l-7.742 7.742c-.975.976-2.256 1.464-3.535 1.464z" fill="#6583fe"/><path d="m271.849 126.913c-2.762 0-5-2.239-5-5 0-3.309-2.691-6-6-6-2.761 0-5-2.239-5-5s2.239-5 5-5c3.309 0 6-2.691 6-6 0-2.761 2.238-5 5-5s5 2.239 5 5c0 3.309 2.691 6 6 6 2.762 0 5 2.239 5 5s-2.238 5-5 5c-3.309 0-6 2.691-6 6 0 2.761-2.238 5-5 5z" fill="#6583fe"/><path d="m454.403 148.278c-2.762 0-5-2.239-5-5 0-3.309-2.691-6-6-6-2.762 0-5-2.239-5-5s2.238-5 5-5c3.309 0 6-2.691 6-6 0-2.761 2.238-5 5-5s5 2.239 5 5c0 3.309 2.691 6 6 6 2.762 0 5 2.239 5 5s-2.238 5-5 5c-3.309 0-6 2.691-6 6 0 2.762-2.238 5-5 5z" fill="#01eca5"/><path d="m46.352 380.648c-2.761 0-5-2.239-5-5 0-3.309-2.691-6-6-6-2.761 0-5-2.239-5-5s2.239-5 5-5c3.309 0 6-2.691 6-6 0-2.761 2.239-5 5-5s5 2.239 5 5c0 3.309 2.691 6 6 6 2.761 0 5 2.239 5 5s-2.239 5-5 5c-3.309 0-6 2.691-6 6 0 2.762-2.239 5-5 5z" fill="#ff7eb8"/></g></g></svg>