<svg id="Capa_1" enable-background="new 0 0 512 512" height="512" viewBox="0 0 512 512" width="512" xmlns="http://www.w3.org/2000/svg" xmlns:xlink="http://www.w3.org/1999/xlink"><linearGradient id="SVGID_1_" gradientUnits="userSpaceOnUse" x1="5.399" x2="506.601" y1="256" y2="256"><stop offset="0" stop-color="#ffdbed"/><stop offset="1" stop-color="#dcfdee"/></linearGradient><g><g><g><path d="m461.173 27.352c-63.757-37.987-146.258-35.878-208.873 3.041-35.18 21.866-62.374 53.403-93.212 80.552-27.022 23.789-58.445 40.758-86.353 63.204-101.21 81.403-91.553 300.961 50.962 330.125 61.777 12.642 146.21 16.696 182.519-43.642 34.62-57.531 46.232-116.383 113.876-146.942 23.573-10.65 62.975-10.113 78.944-33.45 20.152-29.45-4.853-60.043-18.192-85.707-17.19-33.074-20.795-65.682-8.699-101.16 10.298-30.211 17.549-43.782-10.972-66.021z" fill="url(#SVGID_1_)"/></g><g><g><path d="m370.124 260.633c-20.45 0-37.879 12.929-44.564 31.057-15.306-19.313-38.476-32.106-64.677-33.528.167-.499.279-1.023.279-1.578v-61.894c18.759 17.14 46.45 22.887 71.412 12.425 27.301-11.443 43.076-38.781 41.123-66.754-18.575-21.007-49.121-28.91-76.422-17.467-17.016 7.132-29.556 20.443-36.113 36.237v-43.243c0-1.629-.791-3.062-1.997-3.975.152-.114.311-.214.453-.345 7.462-6.891 12.134-16.768 12.134-27.722 0-10.965-4.671-20.843-12.132-27.734-2.143-1.979-5.434-1.978-7.575.004-7.452 6.897-12.123 16.765-12.123 27.73 0 10.952 4.671 20.829 12.122 27.719.251.232.52.431.798.609-1.024.916-1.681 2.233-1.681 3.714v44.06c-6.46-16.15-19.13-29.8-36.437-37.054-27.301-11.443-57.847-3.54-76.422 17.467-1.072 15.35 3.204 30.502 11.784 42.947-2.669-.466-5.409-.722-8.211-.722-26.225 0-47.485 21.26-47.485 47.485s21.26 47.485 47.485 47.485 47.485-21.26 47.485-47.485c0-7.578-1.784-14.736-4.941-21.092 23.745 7.833 49.216 1.641 66.743-14.586v32.51l-10.554-3.323c-2.637-.832-5.441.635-6.271 3.267-.829 2.634.634 5.442 3.268 6.271l13.558 4.269v19.197c0 .551.111 1.072.275 1.568-40.583 2.057-73.97 31.373-82.208 70.01h-12.705c-6.107 0-11.058 4.951-11.058 11.059v41.775c0 6.107 4.951 11.059 11.058 11.059h3.052v43.426h-3.052c-6.107 0-11.058 4.951-11.058 11.059v30.716c0 12.215 9.902 22.117 22.117 22.117h176.835c12.215 0 22.117-9.902 22.117-22.117v-30.716c0-6.107-4.951-11.059-11.058-11.059h-3.378v-43.426h3.376c6.107 0 11.058-4.951 11.058-11.059v-25.542c1.186.089 2.381.149 3.59.149 26.225 0 47.485-21.26 47.485-47.485s-21.26-47.485-47.485-47.485z" fill="#2626bc" opacity=".1"/><g><circle cx="141.876" cy="206.071" fill="#fff" r="47.485"/><path d="m189.36 206.07c0 1.44-.06 2.87-.2 4.28-3.27-.82-6.52-1.9-9.73-3.24-21.27-8.91-35.54-27.47-39.89-48.46.77-.04 1.55-.06 2.34-.06 26.22 0 47.48 21.26 47.48 47.48z" fill="#d2deff"/><path d="m157.546 199.942h-12.167v-23.854c0-1.112-1.494-1.475-2.004-.487l-18.111 35.05c-.365.706.148 1.549.943 1.549h12.167v23.854c0 1.112 1.494 1.475 2.004.487l18.111-35.05c.365-.707-.148-1.549-.943-1.549z" fill="#9fb0fe"/><path d="m342.771 304.162c-8.545-40.077-44.145-70.137-86.771-70.137s-78.225 30.06-86.771 70.137z" fill="#ff7eb8"/><g><g><g><path d="m214.725 98.894c-27.301-11.443-57.847-3.54-76.422 17.467-1.954 27.973 13.821 55.311 41.123 66.754 27.284 11.435 57.837 3.515 76.412-17.492 1.953-27.973-13.829-55.294-41.113-66.729z" fill="#02ffb3"/><path d="m257.771 161.012-39.714-16.645-3.15-17.081c-.501-2.716-3.108-4.513-5.824-4.01-2.715.501-4.511 3.108-4.01 5.824l1.964 10.648-34.844-14.604c-2.542-1.066-5.477.132-6.544 2.679s.132 5.477 2.679 6.544l15.38 6.446-7.306 5.497c-2.207 1.66-2.649 4.795-.989 7.001.982 1.306 2.481 1.995 3.999 1.995 1.046 0 2.102-.328 3.002-1.005l11.976-9.011 59.516 24.945c.631.265 1.286.39 1.931.39 1.954 0 3.811-1.153 4.613-3.069 1.067-2.547-.133-5.477-2.679-6.544z" fill="#00b574"/></g></g><g><g><path d="m297.275 98.894c27.301-11.443 57.847-3.54 76.422 17.467 1.954 27.973-13.821 55.311-41.123 66.754-27.284 11.435-57.837 3.515-76.412-17.492-1.953-27.973 13.829-55.294 41.113-66.729z" fill="#00d890"/><path d="m346.352 127.822c-1.067-2.547-4-3.745-6.544-2.679l-34.844 14.604 1.964-10.648c.501-2.715-1.295-5.323-4.01-5.824-2.715-.502-5.323 1.294-5.824 4.01l-3.15 17.081-39.714 16.645c-2.547 1.067-3.746 3.997-2.679 6.544.803 1.916 2.659 3.069 4.613 3.069.645 0 1.3-.125 1.931-.39l59.516-24.945 11.976 9.011c.9.677 1.956 1.005 3.002 1.005 1.518 0 3.017-.688 3.999-1.995 1.66-2.207 1.218-5.341-.989-7.001l-7.306-5.497 15.38-6.446c2.547-1.067 3.746-3.997 2.679-6.544z" fill="#00b574"/></g></g></g><path d="m355.476 368.054h-198.952c-6.107 0-11.059-4.951-11.059-11.059v-41.775c0-6.107 4.951-11.059 11.059-11.059h198.952c6.107 0 11.059 4.951 11.059 11.059v41.775c0 6.108-4.952 11.059-11.059 11.059z" fill="#d2deff"/><path d="m366.53 315.22v40.24c-24.54-1.83-43.89-22.33-43.89-47.34 0-1.33.05-2.65.17-3.96h32.67c6.1 0 11.05 4.95 11.05 11.06z" fill="#b7c5ff"/><path d="m344.418 475.372h-176.836c-12.215 0-22.117-9.902-22.117-22.117v-30.716c0-6.107 4.951-11.059 11.059-11.059h198.952c6.107 0 11.059 4.951 11.059 11.059v30.716c0 12.215-9.903 22.117-22.117 22.117z" fill="#d2deff"/><path d="m159.575 368.054h192.524v43.426h-192.524z" fill="#9fb0fe"/><path d="m159.576 368.054h192.524v23.086h-192.524z" fill="#8399fe"/><circle cx="370.124" cy="284.118" fill="#fff" r="47.485"/><path d="m385.794 277.989h-12.167v-23.854c0-1.112-1.494-1.475-2.004-.487l-18.111 35.05c-.365.706.148 1.549.943 1.549h12.167v23.854c0 1.112 1.494 1.475 2.004.487l18.111-35.05c.365-.706-.148-1.549-.943-1.549z" fill="#ff7eb8"/><path d="m271.753 59.845c0 10.953-4.672 20.831-12.134 27.722-2.142 1.978-5.432 1.978-7.573-.002-7.451-6.891-12.122-16.767-12.122-27.72 0-10.965 4.672-20.832 12.123-27.73 2.141-1.982 5.432-1.983 7.575-.004 7.459 6.891 12.131 16.77 12.131 27.734z" fill="#ff7eb8"/><path d="m275.552 265.503h7.52c2.762 0 5-2.239 5-5s-2.238-5-5-5h-7.52c-2.762 0-5 2.239-5 5s2.239 5 5 5z" fill="#fe2c8f"/><path d="m262.228 284.118h7.52c2.762 0 5-2.239 5-5s-2.238-5-5-5h-7.52c-2.762 0-5 2.239-5 5s2.238 5 5 5z" fill="#ff5ba8"/><path d="m229.222 278.503h7.52c2.762 0 5-2.239 5-5s-2.238-5-5-5h-7.52c-2.762 0-5 2.239-5 5s2.238 5 5 5z" fill="#ffc4df"/></g></g><path d="m85.923 297.235c-1.279 0-2.56-.488-3.535-1.464-1.953-1.953-1.953-5.119 0-7.071l3.327-3.328-5.001-3.172c-1.282-.813-2.125-2.164-2.292-3.673-.167-1.508.36-3.011 1.434-4.084l7.741-7.742c1.953-1.953 5.118-1.954 7.071 0 1.953 1.952 1.953 5.118.001 7.071l-3.328 3.328 5.002 3.173c1.282.813 2.125 2.164 2.292 3.673s-.361 3.012-1.435 4.085l-7.742 7.742c-.976.974-2.256 1.462-3.535 1.462z" fill="#6583fe"/><path d="m327.025 70.628c-1.279 0-2.559-.488-3.535-1.464-1.953-1.952-1.953-5.118-.001-7.071l3.328-3.328-5.002-3.173c-1.282-.813-2.125-2.164-2.292-3.673s.361-3.012 1.435-4.085l7.742-7.742c1.951-1.952 5.119-1.952 7.07 0 1.953 1.953 1.953 5.119 0 7.071l-3.327 3.328 5.001 3.172c1.282.813 2.125 2.164 2.292 3.673.167 1.508-.36 3.011-1.434 4.084l-7.741 7.742c-.976.978-2.256 1.466-3.536 1.466z" fill="#01eca5"/><path d="m406.609 416.48c-2.762 0-5-2.239-5-5 0-3.309-2.692-6-6.001-6-2.762 0-5-2.239-5-5s2.238-5 5-5c3.309 0 6.001-2.691 6.001-6 0-2.761 2.238-5 5-5s5 2.239 5 5c0 3.309 2.691 6 5.999 6 2.762 0 5 2.239 5 5s-2.238 5-5 5c-3.308 0-5.999 2.691-5.999 6 0 2.761-2.238 5-5 5z" fill="#01eca5"/><path d="m436.024 370.648c-2.762 0-5-2.239-5-5 0-3.309-2.691-6-6-6-2.762 0-5-2.239-5-5s2.238-5 5-5c3.309 0 6-2.691 6-6 0-2.761 2.238-5 5-5s5 2.239 5 5c0 3.309 2.691 6 6 6 2.762 0 5 2.239 5 5s-2.238 5-5 5c-3.309 0-6 2.691-6 6 0 2.762-2.238 5-5 5z" fill="#6583fe"/><path d="m110.528 345.81c-2.762 0-5-2.239-5-5 0-3.309-2.691-6-6-6-2.762 0-5-2.239-5-5s2.238-5 5-5c3.309 0 6-2.691 6-6 0-2.761 2.238-5 5-5s5 2.239 5 5c0 3.309 2.691 6 6 6 2.762 0 5 2.239 5 5s-2.238 5-5 5c-3.309 0-6 2.691-6 6 0 2.761-2.238 5-5 5z" fill="#ff7eb8"/></g></g><path d="m422.608 284.118c0-28.94-23.544-52.485-52.484-52.485-19.671 0-36.839 10.884-45.825 26.94-16.52-17.584-39.072-28.088-63.137-29.406v-51.874c12.973 10.485 29.051 16.058 45.418 16.058 9.394 0 18.883-1.835 27.927-5.625 28.583-11.98 46.337-40.799 44.179-71.713-.077-1.098-.514-2.14-1.242-2.964-20.521-23.207-53.515-30.748-82.102-18.766-14.65 6.141-26.444 16.712-34.18 29.715v-31.405c.652-.378 1.275-.824 1.849-1.353 8.733-8.065 13.742-19.509 13.742-31.396 0-11.895-5.008-23.342-13.74-31.406-4.026-3.722-10.337-3.72-14.363.007-8.724 8.074-13.727 19.518-13.727 31.399 0 11.882 5.004 23.323 13.727 31.39.765.708 1.614 1.279 2.513 1.718v31.594c-7.728-13.255-19.648-24.038-34.504-30.265-28.589-11.982-61.582-4.44-82.102 18.766-.729.824-1.165 1.866-1.242 2.964-.929 13.313 1.842 26.234 7.573 37.593-21.24.407-40.471 13.872-48.06 33.779-.983 2.581.311 5.47 2.891 6.453.586.224 1.188.33 1.78.33 2.015 0 3.913-1.227 4.673-3.22 6.239-16.366 22.194-27.361 39.704-27.361 1.788 0 3.587.114 5.348.335 7.576 10.288 17.907 18.624 30.269 23.805 1.12.469 2.246.908 3.379 1.317.05.164.083.33.152.491 2.214 5.236 3.337 10.799 3.337 16.536 0 23.426-19.059 42.484-42.484 42.484-17.864 0-33.931-11.29-39.98-28.092-.936-2.599-3.805-3.945-6.397-3.011-2.599.936-3.946 3.8-3.011 6.398 7.473 20.758 27.321 34.705 49.389 34.705 28.94 0 52.484-23.544 52.484-52.484 0-4.75-.64-9.404-1.877-13.909 4.298.784 8.626 1.19 12.937 1.19 16.5 0 32.715-5.66 45.742-16.313v25.865l-10.554-3.323c-2.637-.83-5.441.634-6.271 3.267-.829 2.634.634 5.442 3.268 6.271l13.558 4.269v15.778c-19.88 1.035-39.071 8.401-54.495 21.031-15.385 12.597-26.423 29.865-31.389 48.966h-8.754c-8.854 0-16.059 7.204-16.059 16.059v41.774c0 8.194 6.173 14.961 14.109 15.928v33.687c-7.937.966-14.109 7.734-14.109 15.928v30.716c0 14.952 12.164 27.117 27.116 27.117h176.836c14.952 0 27.116-12.165 27.116-27.117v-30.716c0-8.307-6.34-15.161-14.435-15.977v-33.59c8.095-.817 14.435-7.67 14.435-15.976v-20.429c28.287-.75 51.072-23.98 51.072-52.447zm-123.401-180.613c24.106-10.104 51.853-4.097 69.598 14.906 1.106 25.988-14.06 49.99-38.163 60.092-24.046 10.079-51.723 4.102-69.479-14.82v-7.275c1.675-23.14 16.182-43.739 38.044-52.903zm-54.284-43.66c0-9.104 3.834-17.873 10.52-24.06.112-.104.252-.156.393-.156s.28.052.393.156c6.689 6.177 10.525 14.947 10.525 24.06 0 9.105-3.837 17.871-10.526 24.048-.223.207-.561.209-.787 0-6.685-6.18-10.518-14.945-10.518-24.048zm6.022 103.728c-17.752 19.012-45.49 25.03-69.587 14.931-24.104-10.103-39.27-34.104-38.163-60.092 17.746-19.002 45.49-25.009 69.598-14.906 24.096 10.099 39.259 34.091 38.152 60.067zm5.055 75.453c24.686 0 47.994 10.821 63.95 29.688-1.499 4.874-2.311 10.046-2.311 15.404 0 5.228.779 10.276 2.208 15.044h-144.199c10.334-35.192 43.178-60.136 80.352-60.136zm105.534 183.513v30.716c0 9.438-7.679 17.117-17.116 17.117h-176.836c-9.438 0-17.116-7.679-17.116-17.117v-30.716c0-3.341 2.718-6.059 6.058-6.059h162.585c2.762 0 5-2.239 5-5s-2.238-5-5-5h-154.534v-33.426h182.525v38.426c0 2.761 2.238 5 5 5h3.377c3.339 0 6.057 2.718 6.057 6.059zm-6.058-59.485h-198.952c-3.341 0-6.059-2.718-6.059-6.059v-41.774c0-3.341 2.718-6.059 6.059-6.059h167.487c7.595 13.929 21.32 24.045 37.523 26.725v21.108c0 3.341-2.718 6.059-6.058 6.059zm14.648-36.451c-23.426 0-42.484-19.059-42.484-42.484 0-23.426 19.059-42.485 42.484-42.485s42.484 19.059 42.484 42.485c0 23.425-19.058 42.484-42.484 42.484z" fill="#2626bc"/></g></svg>