<svg id="Capa_1" enable-background="new 0 0 512 512" height="512" viewBox="0 0 512 512" width="512" xmlns="http://www.w3.org/2000/svg" xmlns:xlink="http://www.w3.org/1999/xlink"><linearGradient id="SVGID_1_" gradientUnits="userSpaceOnUse" x1="45.274" x2="466.726" y1="256" y2="256"><stop offset=".0485" stop-color="#d2deff"/><stop offset=".9993" stop-color="#dcfdee"/></linearGradient><g><g><path d="m97.146 38.232c-135.328 119.538 38.831 235.409 22.243 366.028-7.375 58.072 16.054 113.588 92.705 107.244 93.413-7.732 59.504-97.209 79.066-156.778 33.66-102.501 240.73-78.56 154.895-236.448-54.778-100.758-255.766-162.321-348.909-80.046z" fill="url(#SVGID_1_)"/></g><g><path d="m379.087 194.517h-33.949v-88.969h-.001.001l-18-35.646h-142.275l-18 35.646h-.001v88.969h-33.949c-5.523 0-10 4.477-10 10v263.583c0 5.523 4.477 10 10 10h246.173c5.523 0 10-4.477 10-10v-263.583c.001-5.523-4.476-10-9.999-10zm-176.578 0v-88.969h106.982v88.969z" fill="#2626bc" opacity=".1"/><g><g><g><path d="m379.087 454.099h-246.174c-5.523 0-10-4.477-10-10v-263.582c0-5.523 4.477-10 10-10h246.174c5.523 0 10 4.477 10 10v263.583c0 5.522-4.477 9.999-10 9.999z" fill="#dcfdee"/><path d="m142.881 454.099c0-62.474 50.645-113.119 113.119-113.119s113.119 50.645 113.119 113.119z" fill="#97ffd2"/></g><g><path d="m166.862 81.547h35.646v88.97h-35.646z" fill="#97ffd2"/><path d="m309.491 81.547h35.646v88.97h-35.646z" fill="#97ffd2"/><path d="m166.862 81.547h35.646v24.044h-35.646z" fill="#02ffb3"/><path d="m309.491 81.547h35.646v24.044h-35.646z" fill="#02ffb3"/><path d="m345.137 81.547h-178.274l18-35.646h142.274z" fill="#dcfdee"/></g><g><g><g><g><path d="m305.421 312.318c0-32.041-20.669-59.227-49.411-68.98-28.742 9.753-49.432 36.939-49.432 68.98 0 32.02 20.69 59.206 49.432 68.959 28.742-9.753 49.411-36.938 49.411-68.959z" fill="#01eca5"/><path d="m278.377 317.111c-1.513-2.311-4.609-2.959-6.922-1.447l-10.444 6.832v-41.654c0-2.761-2.238-5-5-5s-5 2.239-5 5v18.769l-9.165-5.356c-2.384-1.394-5.447-.589-6.84 1.794s-.59 5.446 1.795 6.839l14.21 8.304v70.084c0 2.761 2.238 5 5 5s5-2.239 5-5v-46.832l15.919-10.414c2.31-1.509 2.959-4.608 1.447-6.919z" fill="#00b574"/></g></g></g><g><g><path d="m318.936 283.263h-37.52c-2.762 0-5-2.239-5-5s2.238-5 5-5h37.52c2.762 0 5 2.239 5 5s-2.238 5-5 5z" fill="#ff7eb8"/></g><g><path d="m318.936 266.647h-19.52c-2.762 0-5-2.239-5-5s2.238-5 5-5h19.52c2.762 0 5 2.239 5 5s-2.238 5-5 5z" fill="#ff7eb8"/></g></g></g></g><path d="m379.087 165.517h-28.95v-83.97c0-.034-.009-.066-.01-.1-.006-.288-.031-.575-.087-.859-.004-.021-.005-.043-.009-.064-.059-.28-.148-.553-.256-.823-.027-.069-.056-.135-.086-.202-.031-.069-.054-.139-.088-.207l-18-35.646c-.851-1.684-2.576-2.746-4.463-2.746h-142.276c-1.887 0-3.612 1.062-4.463 2.746l-18 35.646c-.033.065-.055.133-.085.199-.033.073-.064.145-.094.219-.105.265-.193.534-.251.808-.006.03-.008.061-.013.091-.052.273-.077.549-.083.826-.001.038-.011.073-.011.112v83.969h-28.949c-8.271 0-15 6.729-15 15v263.584c0 8.271 6.729 15 15 15h24.243c2.762 0 5-2.239 5-5s-2.238-5-5-5h-24.243c-2.757 0-5-2.243-5-5v-263.583c0-2.757 2.243-5 5-5h13.534v5.848c0 2.761 2.238 5 5 5s5-2.239 5-5v-5.848h199.105v5.848c0 2.761 2.238 5 5 5s5-2.239 5-5v-5.848h13.534c2.757 0 5 2.243 5 5v263.583c0 2.757-2.243 5-5 5h-188.94c-2.762 0-5 2.239-5 5s2.238 5 5 5h188.94c8.271 0 15-6.729 15-15v-263.583c.001-8.271-6.728-15-14.999-15zm-191.149-114.616h136.123l12.95 25.646h-162.023zm-16.076 114.616v-78.97h25.646v78.969h-25.646zm142.628 0v-50.979c0-2.761-2.238-5-5-5s-5 2.239-5 5v50.979h-96.981v-78.97h132.628v78.97z" fill="#2626bc"/></g><path d="m435.221 299.263c-1.279 0-2.559-.488-3.535-1.464-1.953-1.952-1.953-5.118-.001-7.071l3.328-3.328-5.002-3.173c-1.282-.813-2.125-2.164-2.292-3.673s.36-3.011 1.434-4.085l7.741-7.742c1.953-1.952 5.118-1.952 7.071 0 1.953 1.953 1.953 5.118.001 7.071l-3.328 3.327 5.002 3.173c1.282.813 2.125 2.164 2.292 3.673.167 1.508-.36 3.011-1.434 4.084l-7.741 7.742c-.977.977-2.257 1.466-3.536 1.466z" fill="#ff7eb8"/><path d="m400.448 150.953c-1.279 0-2.56-.488-3.535-1.464-1.953-1.953-1.953-5.119 0-7.071l3.327-3.328-5.001-3.173c-1.282-.813-2.125-2.164-2.292-3.673s.36-3.011 1.434-4.085l7.741-7.742c1.953-1.952 5.118-1.952 7.071 0 1.953 1.953 1.953 5.118.001 7.071l-3.328 3.328 5.002 3.173c1.282.813 2.125 2.165 2.292 3.673.167 1.509-.361 3.012-1.435 4.085l-7.742 7.742c-.975.976-2.255 1.464-3.535 1.464z" fill="#01eca5"/><path d="m120.309 150.953c-1.279 0-2.559-.488-3.535-1.464-1.953-1.953-1.953-5.118-.001-7.071l3.328-3.328-5.002-3.173c-1.282-.813-2.125-2.165-2.292-3.673-.167-1.509.361-3.012 1.435-4.085l7.742-7.742c1.951-1.952 5.119-1.952 7.07 0 1.953 1.953 1.953 5.119 0 7.071l-3.327 3.328 5.001 3.173c1.282.813 2.125 2.164 2.292 3.673s-.36 3.011-1.434 4.085l-7.741 7.742c-.977.976-2.257 1.464-3.536 1.464z" fill="#6583fe"/><path d="m99.883 93.344c-2.762 0-5-2.239-5-5 0-3.309-2.691-6-6-6-2.762 0-5-2.239-5-5s2.238-5 5-5c3.309 0 6-2.691 6-6 0-2.761 2.238-5 5-5s5 2.239 5 5c0 3.309 2.691 6 6 6 2.762 0 5 2.239 5 5s-2.238 5-5 5c-3.309 0-6 2.691-6 6 0 2.761-2.238 5-5 5z" fill="#ff7eb8"/><path d="m88.883 382.797c-2.762 0-5-2.239-5-5 0-3.309-2.691-6-6-6-2.762 0-5-2.239-5-5s2.238-5 5-5c3.309 0 6-2.691 6-6 0-2.761 2.238-5 5-5s5 2.239 5 5c0 3.309 2.691 6 6 6 2.762 0 5 2.239 5 5s-2.238 5-5 5c-3.309 0-6 2.691-6 6 0 2.761-2.238 5-5 5z" fill="#01eca5"/></g></g></svg>