<svg id="Capa_1" enable-background="new 0 0 512 512" height="512" viewBox="0 0 512 512" width="512" xmlns="http://www.w3.org/2000/svg" xmlns:xlink="http://www.w3.org/1999/xlink"><linearGradient id="SVGID_1_" gradientUnits="userSpaceOnUse" x1="12.034" x2="499.966" y1="256" y2="256"><stop offset=".0485" stop-color="#ffdbed"/><stop offset=".9993" stop-color="#d2deff"/></linearGradient><g><g><path d="m286.593 4.867c-94.351 27.746-75.427 93.585-85.98 166.539-13.171 91.052-70.095 44.365-135.496 93.537-113.054 85.001-30.931 272.636 109.468 244.14 74.552-15.131 89.786-70.095 120.193-128.824 39.333-75.972 104.558-55.259 163.066-104.856 118.655-100.582-37.403-309.897-171.251-270.536z" fill="url(#SVGID_1_)"/></g><g><path d="m469.48 295.294c-9.542 3.884-16.7 8.835-34.94 8.835-30 0-30-13.41-60.01-13.41-5.252 0-9.571.417-13.306 1.095-.63-5.051-1.28-10.098-2.021-15.131-2.183-14.834-8.004-28.992-17.114-40.922-8.86-11.604-20.49-20.54-33.256-26.067-11.538-5.021-24.241-7.223-36.791-6.433v-8.838c0-2.761-2.239-5-5-5h-28.042l-8.454-48.404h4.545c2.761 0 5-2.239 5-5v-29.7c0-2.761-2.239-5-5-5h-81.144c-2.761 0-5 2.239-5 5v29.7c0 2.055 1.242 3.817 3.015 4.586v32.117c-4.617-1.204-10.14-2.004-17.453-2.004-30 0-30 13.41-60 13.41-13.813 0-21.264-2.844-28.214-5.91v262.46c0 2.761 2.239 5 5 5h413.185c2.761 0 5-2.239 5-5zm-169.326-1.478c-.373 2.842-.881 5.775-1.329 8.735-15.17-3.431-20.398-11.304-42.126-11.801l-7.09-40.591h17.433c2.761 0 5-2.239 5-5v-8.343c6.209 1.629 12.01 4.303 17.012 8.524 6.524 5.506 11.584 13.509 12.981 21.986 1.455 8.817-.759 17.934-1.881 26.49z" fill="#2626bc" opacity=".1"/><g><path d="m269.043 179.502c13.516-1.371 27.333.771 39.791 6.193 12.766 5.527 24.396 14.463 33.256 26.067 9.109 11.931 14.93 26.088 17.114 40.922 1.602 10.883 2.796 21.833 4.226 32.74 2.365 18.038-10.341 34.578-28.379 36.943s-34.578-10.341-36.943-28.379c-1.033-7.878 1.023-16.363 2.046-24.172 1.122-8.556 3.336-17.674 1.883-26.491-1.398-8.477-6.457-16.48-12.981-21.986-6.143-5.184-13.481-8.063-21.316-9.497-8.879-1.625-14.76-10.14-13.136-19.02 1.34-7.323 7.386-12.605 14.439-13.32z" fill="#9fb0fe"/><g><path d="m325.697 290.343c-2.761 0-5-2.238-5-5v-32.323c0-2.762 2.239-5 5-5s5 2.238 5 5v32.323c0 2.761-2.238 5-5 5z" fill="#b7c5ff"/></g><path d="m267.043 226.159h-36.607v-60.734h36.607c2.761 0 5 2.239 5 5v50.734c0 2.761-2.238 5-5 5z" fill="#ff7eb8"/><path d="m134.51 146.719c-30 0-30 13.41-60 13.41-13.813 0-21.264-2.843-28.214-5.91v262.46c0 2.761 2.239 5 5 5h143.224v-261.55c-30 0-30-13.41-60.01-13.41z" fill="#9fb0fe"/><path d="m134.51 189.829c-30 0-30 13.41-60 13.41-13.813 0-21.264-2.843-28.214-5.91v219.35c0 2.761 2.239 5 5 5h143.224v-218.44c-30 0-30-13.41-60.01-13.41z" fill="#8399fe"/><path d="m134.51 232.939c-30 0-30 13.41-60 13.41-13.813 0-21.264-2.843-28.214-5.91v176.24c0 2.761 2.239 5 5 5h143.224v-175.33c-30 0-30-13.41-60.01-13.41z" fill="#9fb0fe"/><path d="m134.51 276.049c-30 0-30 13.41-60 13.41-13.813 0-21.264-2.844-28.214-5.91v133.13c0 2.761 2.239 5 5 5h143.224v-132.22c-30 0-30-13.41-60.01-13.41z" fill="#6583fe"/><path d="m134.51 319.149c-30 0-30 13.41-60 13.41-13.813 0-21.264-2.841-28.214-5.907v90.027c0 2.761 2.239 5 5 5h143.224v-89.12c-30 0-30-13.41-60.01-13.41z" fill="#8399fe"/><path d="m134.51 362.259c-30 0-30 13.41-60 13.41-13.813 0-21.264-2.841-28.214-5.907v46.917c0 2.761 2.239 5 5 5h143.224v-46.01c-30 0-30-13.41-60.01-13.41z" fill="#4369fd"/><path d="m469.48 271.294c-9.542 3.884-16.7 8.835-34.94 8.835-30 0-30-13.41-60.01-13.41-30 0-30 13.41-60 13.41-30.01 0-30.01-13.41-60.01-13.41s-30 13.41-60 13.41v141.55h269.96c2.761 0 5-2.239 5-5z" fill="#9fb0fe"/><path d="m469.48 309.304c-9.542 3.884-16.7 8.835-34.94 8.835-30 0-30-13.41-60.01-13.41-30 0-30 13.41-60 13.41-30.01 0-30.01-13.41-60.01-13.41s-30 13.41-60 13.41v103.54h269.96c2.761 0 5-2.239 5-5z" fill="#8399fe"/><path d="m469.48 347.314c-9.542 3.884-16.7 8.835-34.94 8.835-30 0-30-13.41-60.01-13.41-30 0-30 13.41-60 13.41-30.01 0-30.01-13.41-60.01-13.41s-30 13.41-60 13.41v65.53h269.96c2.761 0 5-2.239 5-5z" fill="#9fb0fe"/><path d="m469.48 385.324c-9.542 3.884-16.7 8.835-34.94 8.835-30 0-30-13.41-60.01-13.41-30 0-30 13.41-60 13.41-30.01 0-30.01-13.41-60.01-13.41s-30 13.41-60 13.41v27.52h269.96c2.761 0 5-2.239 5-5z" fill="#6583fe"/><path d="m227.892 101.816h-75.929v319.863h131.798z" fill="#02ffb3"/><path d="m151.963 343.395v78.284h131.798l-13.674-78.284z" fill="#ffa8cf"/><path d="m181.794 246.934h-29.832v-23.59h29.832c2.761 0 5 2.239 5 5v13.59c0 2.762-2.238 5-5 5z" fill="#dcfdee"/><path d="m181.794 283.404h-29.832v-23.59h29.832c2.761 0 5 2.239 5 5v13.59c0 2.762-2.238 5-5 5z" fill="#dcfdee"/><path d="m181.794 392.544h-29.832v-23.59h29.832c2.761 0 5 2.239 5 5v13.59c0 2.762-2.238 5-5 5z" fill="#ffdbed"/><path d="m234.678 140.672-6.786-38.856h-75.929v38.856z" fill="#01eca5"/><path d="m235.092 117.021h-81.144c-2.761 0-5-2.239-5-5v-29.7c0-2.761 2.239-5 5-5h81.144c2.761 0 5 2.239 5 5v29.7c0 2.761-2.239 5-5 5z" fill="#dcfdee"/><g fill="#2626bc"><path d="m113.871 144.418c-4.363 1.296-7.94 2.895-11.4 4.441-7.213 3.224-14.026 6.27-27.96 6.27-12.733 0-19.396-2.483-26.195-5.484-2.526-1.115-5.478.029-6.593 2.556s.029 5.478 2.555 6.593c7.565 3.339 15.569 6.336 30.233 6.336 16.067 0 24.188-3.63 32.042-7.141 3.309-1.479 6.435-2.876 10.166-3.984 2.647-.786 4.156-3.569 3.37-6.217-.788-2.647-3.571-4.159-6.218-3.37z"/><path d="m474.111 269.409c-1.041-2.558-3.957-3.787-6.516-2.746-1.769.72-3.45 1.471-5.077 2.197-7.218 3.224-14.037 6.269-27.979 6.269-13.932 0-20.746-3.045-27.959-6.269-7.855-3.511-15.978-7.141-32.05-7.141-3.314 0-6.274.161-8.98.437-.501-3.878-.948-7.128-1.4-10.202-2.332-15.837-8.586-30.784-18.087-43.228-9.225-12.082-21.412-21.633-35.234-27.617-10.579-4.603-22.187-6.996-33.786-7.002v-3.685c0-5.514-4.486-10-10-10h-23.84l-2.019-11.557c-.475-2.721-3.064-4.541-5.786-4.065-2.72.476-4.54 3.065-4.065 5.786l47.501 271.952c.424 2.43 2.535 4.141 4.919 4.141.286 0 .575-.024.866-.075 2.72-.476 4.54-3.065 4.065-5.786l-25.97-148.683c8.725.934 14.131 3.335 19.763 5.852 7.855 3.511 15.978 7.141 32.051 7.141 16.066 0 24.187-3.63 32.041-7.14 7.213-3.225 14.026-6.27 27.959-6.27 13.939 0 20.755 3.046 27.97 6.271 7.854 3.51 15.974 7.139 32.04 7.139 16.074 0 24.199-3.629 32.057-7.138 1.623-.725 3.156-1.409 4.769-2.066 2.559-1.04 3.788-3.957 2.747-6.515zm-207.068-98.985v50.735h-13.231l-8.862-50.735zm-6.108 91.515-5.376-30.78h11.485c5.514 0 10-4.486 10-10v-1.378c3.28 1.414 6.189 3.187 8.787 5.38 5.924 4.998 10.138 12.093 11.272 18.978 1.007 6.109-.04 12.794-1.052 19.259-.296 1.893-.603 3.849-.854 5.77-.131.997-.281 2.011-.44 3.04-2.929-.997-5.537-2.16-8.197-3.349-6.73-3.008-13.673-6.096-25.625-6.92zm81.555 6.92c-7.213 3.225-14.026 6.27-27.959 6.27-3.826 0-7.102-.236-10.01-.635.21-1.342.416-2.693.591-4.027.235-1.797.519-3.606.819-5.521 1.135-7.246 2.309-14.738 1.04-22.434-1.533-9.299-6.888-18.409-14.69-24.993-4.327-3.652-9.448-6.48-15.237-8.437v-24.973c10.23.01 20.471 2.113 29.805 6.175 12.266 5.31 23.078 13.786 31.268 24.512 8.475 11.1 14.057 24.452 16.142 38.615.461 3.135.918 6.473 1.436 10.496-5.143 1.354-9.212 3.168-13.205 4.952z"/><path d="m235.092 122.021c5.514 0 10-4.486 10-10v-29.7c0-5.514-4.486-10-10-10h-81.144c-5.514 0-10 4.486-10 10v29.699c0 2.797 1.157 5.326 3.015 7.143v302.517c0 2.762 2.239 5 5 5s5-2.238 5-5v-299.659zm-81.144-39.7h81.144l.006 29.699h-81.15z"/></g><g><path d="m332.075 230.036c-2.478 1.217-5.475.195-6.692-2.284l-2.347-4.778c-1.217-2.479-.195-5.475 2.284-6.692s5.475-.195 6.692 2.284l2.347 4.778c1.217 2.479.194 5.475-2.284 6.692z" fill="#d2deff"/></g></g><path d="m286.224 93.321c-1.28 0-2.559-.488-3.536-1.465-1.953-1.952-1.953-5.118 0-7.07l3.328-3.328-5.003-3.173c-1.282-.813-2.125-2.165-2.292-3.673-.167-1.509.361-3.012 1.434-4.085l7.742-7.742c1.953-1.953 5.118-1.953 7.071 0 1.953 1.952 1.953 5.118 0 7.07l-3.328 3.328 5.003 3.173c1.282.813 2.125 2.165 2.292 3.674.167 1.508-.361 3.011-1.434 4.084l-7.742 7.742c-.976.977-2.256 1.465-3.535 1.465z" fill="#ff7eb8"/><path d="m376.981 181.425c-1.28 0-2.559-.488-3.536-1.465-1.953-1.952-1.953-5.118 0-7.07l3.328-3.328-5.002-3.173c-1.282-.813-2.125-2.165-2.292-3.673-.167-1.509.361-3.012 1.434-4.085l7.742-7.742c1.952-1.953 5.118-1.952 7.071-.001 1.953 1.953 1.953 5.119 0 7.071l-3.328 3.328 5.002 3.173c1.282.813 2.125 2.165 2.292 3.674.167 1.508-.361 3.011-1.434 4.084l-7.742 7.742c-.976.977-2.255 1.465-3.535 1.465z" fill="#6583fe"/><path d="m104.579 93.321c-1.28 0-2.559-.488-3.536-1.465-1.953-1.952-1.953-5.118 0-7.07l3.328-3.328-5.003-3.173c-1.282-.813-2.125-2.165-2.292-3.673-.167-1.509.361-3.012 1.434-4.085l7.742-7.742c1.953-1.953 5.118-1.953 7.071 0 1.953 1.952 1.953 5.118 0 7.07l-3.328 3.328 5.003 3.173c1.282.813 2.125 2.165 2.292 3.674.167 1.508-.361 3.011-1.434 4.084l-7.742 7.742c-.976.977-2.256 1.465-3.535 1.465z" fill="#01eca5"/><g fill="#ff7eb8"><path d="m65.52 120.244c-2.761 0-5-2.238-5-5 0-3.309-2.691-6-6-6-2.761 0-5-2.238-5-5s2.239-5 5-5c3.309 0 6-2.691 6-6 0-2.762 2.239-5 5-5s5 2.238 5 5c0 3.309 2.691 6 6 6 2.761 0 5 2.238 5 5s-2.239 5-5 5c-3.309 0-6 2.691-6 6 0 2.762-2.239 5-5 5z"/><path d="m430.587 242.769c-2.761 0-5-2.238-5-5 0-3.309-2.691-6-6-6-2.761 0-5-2.238-5-5s2.239-5 5-5c3.309 0 6-2.691 6-6 0-2.762 2.239-5 5-5s5 2.238 5 5c0 3.309 2.691 6 6 6 2.761 0 5 2.238 5 5s-2.239 5-5 5c-3.309 0-6 2.691-6 6 0 2.761-2.239 5-5 5z"/></g></g></g></svg>