<svg id="Capa_1" enable-background="new 0 0 512 512" height="512" viewBox="0 0 512 512" width="512" xmlns="http://www.w3.org/2000/svg" xmlns:xlink="http://www.w3.org/1999/xlink"><linearGradient id="SVGID_1_" gradientUnits="userSpaceOnUse" x1="5.399" x2="506.601" y1="256" y2="256"><stop offset=".0485" stop-color="#d2deff"/><stop offset=".9993" stop-color="#dcfdee"/></linearGradient><g><g><path d="m461.173 27.352c-63.757-37.987-146.258-35.878-208.873 3.041-35.18 21.866-62.374 53.403-93.212 80.552-27.022 23.789-58.445 40.758-86.353 63.204-101.21 81.403-91.553 300.961 50.962 330.125 61.777 12.642 146.21 16.696 182.519-43.642 34.62-57.531 46.232-116.383 113.876-146.942 23.573-10.65 62.975-10.113 78.944-33.45 20.152-29.45-4.853-60.043-18.192-85.707-17.19-33.074-20.795-65.682-8.699-101.16 10.298-30.211 17.549-43.782-10.972-66.021z" fill="url(#SVGID_1_)"/></g><g><g fill="#2626bc" opacity=".1"><path d="m388.291 374.291 8.694-8.694c2.266-2.266 2.266-5.94 0-8.205l-41.464-41.464c7.215-11.337 12.543-23.992 15.55-37.52h24.559c-1.307 7.153-3.157 14.193-5.557 21.077-.909 2.607.467 5.458 3.075 6.367.545.19 1.101.28 1.646.28 2.068 0 4.002-1.292 4.721-3.354 2.772-7.95 4.865-16.092 6.274-24.37h6.506c12.818 0 23.208-10.391 23.208-23.208v-22.343c0-3.204-2.598-5.802-5.802-5.802h-58.631c-3.007-13.528-8.335-26.183-15.55-37.52l23.993-23.993c6.248 8.837 11.566 18.342 15.813 28.392.806 1.908 2.659 3.055 4.607 3.055.649 0 1.309-.127 1.944-.396 2.543-1.075 3.734-4.008 2.659-6.552-4.778-11.307-10.83-21.966-17.975-31.822 7.108-9.106 6.492-22.284-1.885-30.661l-15.799-15.799c-2.266-2.266-5.94-2.266-8.205 0l-10.306 10.306c-.224-.162-.44-.332-.665-.493-2.245-1.606-5.368-1.088-6.976 1.156-1.445 2.019-1.159 4.737.542 6.436l-24.06 24.06c-11.337-7.215-23.991-12.542-37.52-15.548v-41.228c0-12.818-10.391-23.208-23.208-23.208h-22.343c-3.204 0-5.802 2.598-5.802 5.802v23.917c-9.53 1.622-18.877 4.145-27.963 7.574-2.583.975-3.887 3.859-2.912 6.443.755 2.002 2.658 3.235 4.679 3.235.586 0 1.183-.104 1.765-.323 7.949-3 16.113-5.264 24.432-6.783v24.57c-13.529 3.006-26.183 8.333-37.52 15.548l-29.156-29.156c-9.063-9.063-23.758-9.063-32.821 0l-15.799 15.799c-2.266 2.266-2.266 5.939 0 8.205l41.464 41.464c-7.215 11.337-12.542 23.991-15.548 37.52h-33.946c1.47-8.594 3.681-17.039 6.628-25.272.931-2.6-.423-5.462-3.023-6.393-2.597-.929-5.462.424-6.392 3.023-3.357 9.38-5.813 19.016-7.372 28.825-11.458 1.419-20.33 11.182-20.33 23.024v22.343c0 3.204 2.598 5.802 5.802 5.802h58.633c3.006 13.529 8.333 26.183 15.548 37.52l-17.355 17.355c-3.769-5.458-7.167-11.163-10.133-17.087-1.236-2.47-4.24-3.471-6.709-2.232-2.469 1.236-3.468 4.24-2.232 6.709 3.448 6.887 7.43 13.506 11.888 19.798l-4.614 4.614c-8.027 8.027-8.93 20.462-2.74 29.499-19.714-6.431-30.03-17.063-64.137-17.063v119.24c0 5.52 4.48 10 10 10h370.14c5.49 0 9.95-4.43 10-9.92l.3-42.68.62-76.64c-33.587 0-44.096 10.316-63.24 16.771z"/><path d="m419.094 178.006c.967 1.427 2.541 2.196 4.144 2.196.965 0 1.941-.279 2.801-.862 2.286-1.549 2.883-4.658 1.334-6.943l-3.942-5.816c-1.55-2.287-4.659-2.886-6.944-1.334-2.286 1.549-2.883 4.658-1.334 6.943z"/><path d="m84.235 205.1c2.761 0 5-2.238 5-5v-5.389c0-2.762-2.239-5-5-5s-5 2.238-5 5v5.389c0 2.761 2.239 5 5 5z"/><path d="m414.291 306.772v11.661c0 2.762 2.239 5 5 5s5-2.238 5-5v-11.661c0-2.762-2.239-5-5-5s-5 2.239-5 5z"/><path d="m99.842 338.637c.899 0 1.81-.243 2.63-.752 2.347-1.455 3.069-4.537 1.614-6.884l-4.903-7.906c-1.456-2.347-4.537-3.07-6.885-1.614-2.347 1.455-3.069 4.537-1.614 6.884l4.903 7.906c.948 1.526 2.582 2.366 4.255 2.366z"/><path d="m191.509 89.499h12.628c2.761 0 5-2.238 5-5s-2.239-5-5-5h-12.628c-2.761 0-5 2.238-5 5s2.239 5 5 5z"/></g><g><g><g><g><g><path d="m281.688 136.39h-51.353v-81.349c0-3.204 2.598-5.802 5.802-5.802h22.343c12.818 0 23.208 10.391 23.208 23.208z" fill="#ff5ba8"/></g></g><g><g fill="#ff5ba8"><path d="m348.352 254.407v-51.353h81.349c3.204 0 5.802 2.598 5.802 5.802v22.343c0 12.818-10.391 23.208-23.208 23.208z"/><path d="m163.671 203.054v51.353h-81.349c-3.204 0-5.802-2.598-5.802-5.802v-22.343c0-12.818 10.391-23.208 23.208-23.208z"/></g></g><g><g><path d="m339.462 181.592-36.312-36.312 57.522-57.522c2.266-2.266 5.939-2.266 8.205 0l15.799 15.799c9.063 9.063 9.063 23.758 0 32.821z" fill="#ff5ba8"/><path d="m172.561 275.869 36.312 36.312-57.522 57.522c-2.266 2.266-5.939 2.266-8.205 0l-15.799-15.799c-9.063-9.063-9.063-23.758 0-32.821z" fill="#ff5ba8"/><path d="m172.56 275.87 36.31 36.31-29.83 29.83c-13.17-11.37-23.79-25.59-30.9-41.72z" fill="#fe2c8f"/></g></g><g><g><path d="m303.15 312.181 36.312-36.312 57.522 57.522c2.266 2.266 2.266 5.94 0 8.205l-15.799 15.799c-9.063 9.063-23.758 9.063-32.821 0z" fill="#ff5ba8"/><path d="m363.88 300.29c-7.11 16.13-17.74 30.36-30.91 41.72l-29.82-29.83 36.31-36.31z" fill="#fe2c8f"/><path d="m208.873 145.28-36.312 36.312-57.522-57.522c-2.266-2.266-2.266-5.939 0-8.205l15.799-15.799c9.063-9.063 23.758-9.063 32.821 0z" fill="#ff5ba8"/></g></g><circle cx="256.011" cy="228.731" fill="#ff7eb8" r="117.87"/><g><circle cx="256.011" cy="228.731" fill="#fff" r="83.346"/><path d="m278.296 220.015h-17.304v-33.924c0-1.582-2.124-2.098-2.85-.693l-25.756 49.846c-.519 1.005.21 2.202 1.341 2.202h17.304v33.924c0 1.582 2.124 2.098 2.85.693l25.756-49.846c.519-1.004-.21-2.202-1.341-2.202z" fill="#ff7eb8"/></g></g><path d="m451.53 333.52-.62 76.64-.3 42.68c-.05 5.49-4.51 9.92-10 9.92h-370.14c-5.52 0-10-4.48-10-10v-119.24c48.89 0 48.89 21.85 97.77 21.85s48.88-21.85 97.76-21.85 48.88 21.85 97.77 21.85c48.88 0 48.88-21.85 97.76-21.85z" fill="#8399fe"/><path d="m450.91 410.16-.3 42.68c-.05 5.49-4.51 9.92-10 9.92h-370.14c-5.52 0-10-4.48-10-10v-42.61c48.89 0 48.89 21.85 97.77 21.85s48.88-21.85 97.76-21.85 48.88 21.85 97.77 21.85c48.67 0 48.88-21.66 97.14-21.84z" fill="#6583fe"/><path d="m451.533 333.522-.376 39.323c-48.51.114-48.636 21.859-97.385 21.859-48.897 0-48.897-21.859-97.772-21.859s-48.875 21.859-97.761 21.859c-48.875 0-48.875-21.859-97.772-21.859v-39.323c48.897 0 48.897 21.847 97.772 21.847 48.886 0 48.886-21.847 97.761-21.847s48.875 21.847 97.772 21.847c48.875.001 48.875-21.847 97.761-21.847z" fill="#9fb0fe"/></g><g fill="#2626bc"><path d="m451.53 328.521c-23.461 0-36.271 4.886-47.898 10.016.033-.344.051-.692.051-1.042 0-2.885-1.125-5.599-3.167-7.641l-38.732-38.732c5.811-9.842 10.256-20.513 13.161-31.712h19.677c-1.198 5.436-2.711 10.802-4.549 16.074-.909 2.607.467 5.458 3.075 6.367.545.19 1.101.28 1.646.28 2.068 0 4.002-1.292 4.721-3.354 2.212-6.342 3.985-12.809 5.331-19.367h7.445c15.555 0 28.21-12.655 28.21-28.21v-22.34c0-5.961-4.845-10.811-10.8-10.811h-54.697c-2.911-11.285-7.398-21.942-13.196-31.734l20.575-20.568c5.016 7.627 9.364 15.711 12.945 24.185.806 1.908 2.659 3.055 4.607 3.055.649 0 1.309-.127 1.944-.396 2.543-1.075 3.734-4.008 2.659-6.552-4.098-9.697-9.137-18.915-14.99-27.564 9.634-11.072 9.196-27.925-1.331-38.452l-15.801-15.801c-4.212-4.21-11.066-4.211-15.281.001l-38.71 38.71c-18.304-10.839-39.643-17.073-62.413-17.073-7.047 0-13.955.605-20.681 1.75v-19.318c6.809-.993 13.712-1.501 20.681-1.501 2.761 0 5-2.238 5-5s-2.239-5-5-5c-6.962 0-13.865.467-20.681 1.394v-23.145c0-.441.363-.8.81-.8h22.34c10.041 0 18.21 8.169 18.21 18.21v8.39c0 2.762 2.239 5 5 5s5-2.238 5-5v-8.39c0-15.555-12.655-28.21-28.21-28.21h-22.34c-5.96 0-10.81 4.845-10.81 10.8v24.847c-7.801 1.6-15.468 3.818-22.958 6.645-2.583.975-3.887 3.859-2.912 6.443.755 2.002 2.658 3.235 4.679 3.235.586 0 1.183-.104 1.765-.323 6.348-2.396 12.835-4.315 19.427-5.768v19.62c-11.285 2.911-21.942 7.397-31.734 13.196l-26.401-26.4c-5.332-5.332-12.416-8.268-19.95-8.268-7.535 0-14.617 2.937-19.941 8.266l-15.8 15.791c-2.042 2.042-3.167 4.756-3.167 7.641s1.125 5.599 3.167 7.641l20.117 20.117c.977.977 2.256 1.465 3.536 1.465s2.559-.488 3.536-1.465c1.953-1.952 1.953-5.118 0-7.07l-20.117-20.117c-.197-.197-.239-.419-.239-.57s.042-.372.237-.567l15.803-15.794c3.437-3.44 8.007-5.336 12.869-5.336s9.436 1.896 12.878 5.338l24.894 24.894c-23.332 16.574-40.654 41.079-48 69.55h-29.061c1.416-6.87 3.305-13.638 5.678-20.268.931-2.6-.423-5.462-3.023-6.393-2.597-.931-5.462.424-6.392 3.023-2.772 7.746-4.932 15.666-6.479 23.715-14.63 1.025-26.222 13.247-26.222 28.132v22.351c0 5.955 4.845 10.8 10.8 10.8h54.761c2.906 11.196 7.35 21.865 13.161 31.707l-13.919 13.919c-2.654-4.154-5.104-8.435-7.31-12.84-1.236-2.47-4.24-3.471-6.709-2.232-2.469 1.236-3.468 4.24-2.232 6.709 2.69 5.372 5.709 10.577 9.019 15.596l-5.277 5.278c-6.55 6.55-9.277 15.651-7.919 24.323-1.502-.651-2.991-1.317-4.49-1.987-12.497-5.585-25.42-11.36-50.936-11.36-2.761 0-5 2.238-5 5s2.239 5 5 5c23.383 0 34.784 5.096 46.855 10.49 12.494 5.584 25.414 11.358 50.918 11.358 25.506 0 38.425-5.774 50.919-11.359 12.067-5.395 23.465-10.489 46.838-10.489 23.371 0 34.77 5.095 46.837 10.487 12.497 5.586 25.42 11.361 50.936 11.361 25.506 0 38.425-5.774 50.919-11.359 12.067-5.395 23.465-10.489 46.838-10.489 2.761 0 5-2.238 5-5s-2.238-5.003-5-5.003zm-21.83-120.471c.448 0 .8.356.8.811v22.34c0 10.041-8.169 18.21-18.21 18.21h-5.742c.928-6.821 1.403-13.723 1.403-20.68 0-2.762-2.239-5-5-5s-5 2.238-5 5c0 6.962-.501 13.867-1.495 20.68h-19.358c1.161-6.76 1.783-13.67 1.783-20.68 0-7.047-.605-13.955-1.75-20.681zm-65.495-116.754c.319-.32.821-.319 1.139-.001l15.8 15.8c6.225 6.226 6.985 15.88 2.287 22.951-8.37-10.794-18.099-20.54-29.013-28.963zm-16.927 16.926c11.093 8.412 20.919 18.256 29.248 29.239l-20.284 20.277c-8.034-11.309-17.931-21.206-29.24-29.24zm-264.958 141.188c-.441 0-.8-.358-.8-.8v-22.35c0-8.801 6.277-16.162 14.589-17.846-.843 6.706-1.271 13.487-1.271 20.317 0 2.762 2.239 5 5 5s5-2.238 5-5c0-6.96.477-13.862 1.409-20.681h28.645c-1.145 6.726-1.75 13.634-1.75 20.681 0 7.009.622 13.919 1.785 20.68h-52.607zm45.544 96.961c-3.95-7.031-2.788-15.946 3.021-21.755l4.064-4.064c1.961 2.582 4.002 5.104 6.126 7.559.989 1.144 2.382 1.729 3.783 1.729 1.16 0 2.325-.401 3.27-1.219 2.088-1.808 2.316-4.965.509-7.053-2.284-2.64-4.457-5.37-6.538-8.166l13.703-13.703c7.971 11.265 17.819 21.201 29.19 29.289l-21.282 21.281c-1.75.065-3.566.102-5.468.102-13.176-.001-22.547-1.621-30.378-4zm76.464-6.154c-7.429 3.318-14.709 6.482-24.796 8.371l14.039-14.039c3.471 2.056 7.058 3.951 10.757 5.668zm12.949-5.441c-44.349-16.204-74.135-58.795-74.135-106.046 0-62.236 50.633-112.869 112.87-112.869s112.87 50.633 112.87 112.869c0 47.279-29.785 89.846-74.151 106.049-9.593-3.524-21.183-6.258-38.73-6.258-17.544 0-29.133 2.732-38.724 6.255zm101.175-.222 14.03 14.035c-10.089-1.888-17.371-5.051-24.8-8.368 3.703-1.718 7.295-3.61 10.77-5.667zm29.848 15.714-21.268-21.276c11.373-8.087 21.221-18.023 29.193-29.287l37.219 37.219c.197.197.239.419.239.57s-.042.372-.24.571l-7.839 7.848c-8.125 2.626-17.828 4.455-31.83 4.455-1.905.002-3.722-.035-5.474-.1z"/><path d="m419.094 154.006c.967 1.427 2.541 2.196 4.144 2.196.965 0 1.941-.279 2.801-.862 2.286-1.549 2.883-4.658 1.334-6.943l-3.942-5.816c-1.55-2.287-4.659-2.886-6.944-1.334-2.286 1.549-2.883 4.658-1.334 6.943z"/><path d="m84.235 181.1c2.761 0 5-2.238 5-5v-5.389c0-2.762-2.239-5-5-5s-5 2.238-5 5v5.389c0 2.761 2.239 5 5 5z"/><path d="m414.291 282.772v11.661c0 2.762 2.239 5 5 5s5-2.238 5-5v-11.661c0-2.762-2.239-5-5-5s-5 2.239-5 5z"/><path d="m99.842 314.637c.899 0 1.81-.243 2.63-.752 2.347-1.455 3.069-4.537 1.614-6.884l-4.903-7.906c-1.456-2.347-4.537-3.07-6.885-1.614-2.347 1.455-3.069 4.537-1.614 6.884l4.903 7.906c.948 1.526 2.582 2.366 4.255 2.366z"/><path d="m191.509 65.499h12.628c2.761 0 5-2.238 5-5s-2.239-5-5-5h-12.628c-2.761 0-5 2.238-5 5s2.239 5 5 5z"/></g></g><path d="m73.915 126.861c-1.28 0-2.559-.488-3.536-1.464-1.953-1.953-1.953-5.119 0-7.071l3.328-3.328-5.002-3.172c-1.282-.813-2.125-2.164-2.292-3.673s.361-3.012 1.434-4.085l7.742-7.742c1.952-1.953 5.118-1.952 7.071-.001 1.953 1.953 1.953 5.119 0 7.071l-3.328 3.328 5.002 3.172c1.282.813 2.125 2.164 2.292 3.673s-.361 3.012-1.434 4.085l-7.742 7.742c-.975.977-2.255 1.465-3.535 1.465z" fill="#01eca5"/><path d="m455.419 310.434c-1.28 0-2.559-.488-3.536-1.465-1.953-1.952-1.953-5.118 0-7.071l3.328-3.326-5.002-3.173c-1.282-.813-2.125-2.165-2.292-3.674-.167-1.508.361-3.011 1.434-4.084l7.742-7.742c1.953-1.953 5.118-1.953 7.071 0 1.953 1.952 1.953 5.118 0 7.07l-3.328 3.328 5.002 3.173c1.282.813 2.125 2.165 2.292 3.674s-.361 3.011-1.434 4.084l-7.742 7.742c-.975.975-2.255 1.464-3.535 1.464z" fill="#01eca5"/><path d="m315.915 83.226c-1.28 0-2.559-.488-3.536-1.464-1.953-1.953-1.953-5.119 0-7.071l3.328-3.328-5.002-3.172c-1.282-.813-2.125-2.164-2.292-3.673s.361-3.012 1.434-4.085l7.742-7.742c1.952-1.953 5.118-1.952 7.071-.001 1.953 1.953 1.953 5.119 0 7.071l-3.328 3.328 5.002 3.172c1.282.813 2.125 2.164 2.292 3.673s-.361 3.012-1.434 4.085l-7.742 7.742c-.975.976-2.255 1.465-3.535 1.465z" fill="#6583fe"/><g fill="#ff7eb8"><path d="m358.119 60.972c-2.761 0-5-2.238-5-5 0-3.309-2.691-6-6-6-2.761 0-5-2.238-5-5s2.239-5 5-5c3.309 0 6-2.691 6-6 0-2.762 2.239-5 5-5s5 2.238 5 5c0 3.309 2.691 6 6 6 2.761 0 5 2.238 5 5s-2.239 5-5 5c-3.309 0-6 2.691-6 6 0 2.761-2.239 5-5 5z"/><path d="m45.274 315.551c-2.761 0-5-2.238-5-5 0-3.309-2.691-6-6-6-2.761 0-5-2.238-5-5s2.239-5 5-5c3.309 0 6-2.691 6-6 0-2.762 2.239-5 5-5s5 2.238 5 5c0 3.309 2.691 6 6 6 2.761 0 5 2.238 5 5s-2.239 5-5 5c-3.309 0-6 2.691-6 6 0 2.762-2.239 5-5 5z"/></g></g></g></svg>