<svg id="Capa_1" enable-background="new 0 0 512 512" height="512" viewBox="0 0 512 512" width="512" xmlns="http://www.w3.org/2000/svg" xmlns:xlink="http://www.w3.org/1999/xlink"><linearGradient id="SVGID_1_" gradientUnits="userSpaceOnUse" x1="45.274" x2="466.726" y1="256" y2="256"><stop offset=".0485" stop-color="#d2deff"/><stop offset=".9993" stop-color="#dcfdee"/></linearGradient><g><g><path d="m97.146 38.232c-135.327 119.538 38.831 235.409 22.243 366.028-7.375 58.072 16.054 113.588 92.705 107.244 93.413-7.732 59.504-97.209 79.066-156.778 33.66-102.501 240.73-78.56 154.895-236.448-54.778-100.758-255.766-162.321-348.909-80.046z" fill="url(#SVGID_1_)"/></g><g><g><path d="m496.02 405.964v54.81c0 2.76-2.24 5-5 5h-470.04c-2.76 0-5-2.24-5-5v-54.81c0-2.88 2.43-5.16 5.3-4.99 24.82 1.47 26.58 13.25 54.7 13.25 30 0 30-13.41 60-13.41 30.01 0 30.01 13.41 60.01 13.41s30-13.41 60-13.41 30 13.41 60.01 13.41c30 0 30-13.41 60-13.41 30.01 0 30.01 13.41 60.01 13.41 28.13 0 29.89-11.78 54.71-13.25 2.87-.17 5.3 2.11 5.3 4.99z" fill="#2626bc" opacity=".1"/><g><g><path d="m77.51 122.63h356.98v31.57h-356.98z" fill="#ffa8cf"/><path d="m303.48 146.63c0 2.58-.21 5.1-.6 7.57h-93.76c-.39-2.47-.6-4.99-.6-7.57 0-8.76 2.37-16.96 6.51-24h81.94c4.14 7.04 6.51 15.24 6.51 24z" fill="#ff7eb8"/><path d="m77.51 154.2h356.98v246.92h-356.98z" fill="#ff7eb8"/><path d="m302.88 154.2c-3.62 22.63-23.23 39.92-46.88 39.92s-43.26-17.29-46.88-39.92z" fill="#ff5ba8"/><path d="m77.509 154.201h356.982v19.746h-356.982z" fill="#ff5ba8"/><g><g><path d="m172.816 250.417h-57.491c-2.615 0-4.734-2.12-4.734-4.734v-18.303c0-18.49 14.989-33.48 33.48-33.48 18.49 0 33.48 14.989 33.48 33.48v18.303c-.001 2.614-2.12 4.734-4.735 4.734z" fill="#fe2c8f"/><path d="m110.59 233.54v12.144c0 2.61 2.12 4.73 4.73 4.73h57.5c2.61 0 4.73-2.12 4.73-4.73v-12.144z" fill="#db237a"/><path d="m204.549 401.115h-120.956l33.279-154.07c.471-2.179 2.398-3.735 4.627-3.735h45.143c2.229 0 4.157 1.555 4.627 3.735z" fill="#9fb0fe"/></g><g><path d="m284.746 250.417h-57.491c-2.615 0-4.734-2.12-4.734-4.734v-18.303c0-18.49 14.989-33.48 33.48-33.48 18.49 0 33.48 14.989 33.48 33.48v18.303c-.001 2.614-2.121 4.734-4.735 4.734z" fill="#fe2c8f"/><path d="m222.52 233.54v12.144c0 2.61 2.12 4.73 4.73 4.73h57.5c2.61 0 4.73-2.12 4.73-4.73v-12.144z" fill="#db237a"/><path d="m316.478 401.115h-120.956l33.279-154.07c.471-2.179 2.398-3.735 4.627-3.735h45.143c2.229 0 4.157 1.555 4.627 3.735z" fill="#9fb0fe"/></g><g><path d="m396.675 250.417h-57.491c-2.615 0-4.734-2.12-4.734-4.734v-18.303c0-18.49 14.989-33.48 33.48-33.48 18.49 0 33.48 14.989 33.48 33.48v18.303c-.001 2.614-2.12 4.734-4.735 4.734z" fill="#fe2c8f"/><path d="m334.45 233.54v12.144c0 2.61 2.12 4.73 4.73 4.73h57.5c2.61 0 4.73-2.12 4.73-4.73v-12.144z" fill="#db237a"/><path d="m428.408 401.115h-120.956l33.279-154.07c.471-2.179 2.398-3.735 4.627-3.735h45.143c2.229 0 4.157 1.555 4.627 3.735z" fill="#9fb0fe"/><g><path d="m373.637 396.289c-2.761 0-5-2.238-5-5v-74c0-2.762 2.239-5 5-5s5 2.238 5 5v74c0 2.762-2.239 5-5 5z" fill="#b7c5ff"/></g></g></g><g fill="#ffc4df"><path d="m481.642 401.115h-47.151v-325.889c0-2.761 2.239-5 5-5h20.359c2.661 0 4.856 2.085 4.993 4.743z"/><path d="m30.358 401.115h47.151v-325.889c0-2.761-2.239-5-5-5h-20.359c-2.661 0-4.856 2.085-4.993 4.743z"/></g></g><path d="m496.02 376.824v59.95c0 2.761-2.239 5-5 5h-470.04c-2.761 0-5-2.239-5-5v-59.95c30.002-.007 30.001 13.4 60 13.4 30 0 30-13.41 60-13.41 30.01 0 30.01 13.41 60.01 13.41s30-13.41 60-13.41 30 13.41 60.01 13.41c30 0 30-13.41 60-13.41 30.01 0 30.01 13.41 60.01 13.41 30.01 0 30.008-13.407 60.01-13.4z" fill="#9fb0fe"/><path d="m496.02 410.684v26.09c0 2.76-2.24 5-5 5h-470.04c-2.76 0-5-2.24-5-5v-26.09c0-2.88 2.43-5.17 5.3-4.99 24.82 1.47 26.58 13.25 54.7 13.25 30 0 30-13.41 60-13.41 30.01 0 30.01 13.41 60.01 13.41s30-13.41 60-13.41 30 13.41 60.01 13.41c30 0 30-13.41 60-13.41 30.01 0 30.01 13.41 60.01 13.41 28.13 0 29.89-11.78 54.71-13.25 2.87-.18 5.3 2.11 5.3 4.99z" fill="#8399fe"/><g><path d="m124.433 351.213c-2.761 0-5-2.238-5-5v-5c0-2.762 2.239-5 5-5s5 2.238 5 5v5c0 2.761-2.239 5-5 5z" fill="#8399fe"/></g><g><path d="m251 283.764c-2.761 0-5-2.238-5-5v-14c0-2.762 2.239-5 5-5s5 2.238 5 5v14c0 2.762-2.239 5-5 5z" fill="#8399fe"/></g><g><path d="m348.735 321.289c-2.761 0-5-2.238-5-5v-8c0-2.762 2.239-5 5-5s5 2.238 5 5v8c0 2.762-2.238 5-5 5z" fill="#8399fe"/></g><g><path d="m270.281 331.658c-2.761 0-5-2.238-5-5v-44c0-2.762 2.239-5 5-5s5 2.238 5 5v44c0 2.762-2.239 5-5 5z" fill="#8399fe"/></g><g><path d="m154.278 304.764c-2.761 0-5-2.238-5-5v-35c0-2.762 2.239-5 5-5s5 2.238 5 5v35c0 2.762-2.239 5-5 5z" fill="#b7c5ff"/></g><g><path d="m236.493 357.213c-2.761 0-5-2.238-5-5v-17c0-2.762 2.239-5 5-5s5 2.238 5 5v17c0 2.761-2.238 5-5 5z" fill="#b7c5ff"/></g><g><path d="m373.637 295.583c-2.761 0-5-2.238-5-5v-17c0-2.762 2.239-5 5-5s5 2.238 5 5v17c0 2.762-2.239 5-5 5z" fill="#b7c5ff"/></g><g><path d="m154.278 333.289c-2.761 0-5-2.238-5-5v-5c0-2.762 2.239-5 5-5s5 2.238 5 5v5c0 2.762-2.239 5-5 5z" fill="#d2deff"/></g></g><g><circle cx="256" cy="122.632" fill="#9fb0fe" r="47.485"/><path d="m271.67 116.503h-12.167v-23.854c0-1.112-1.494-1.475-2.004-.487l-18.111 35.05c-.365.706.148 1.549.943 1.549h12.167v23.854c0 1.112 1.494 1.475 2.004.487l18.111-35.05c.365-.706-.148-1.549-.943-1.549z" fill="#fff"/><path d="m496.021 371.824c-.009 0-.016 0-.024 0-4.08 0-7.642.236-10.823.643l-15.338-297.755c-.273-5.319-4.66-9.486-9.986-9.486h-20.358c-5.514 0-10 4.486-10 10v309.742c-9.731-.791-15.455-3.337-21.44-6.013-7.855-3.511-15.979-7.141-32.051-7.141-16.066 0-24.188 3.63-32.04 7.141-7.214 3.224-14.026 6.27-27.96 6.27-13.939 0-20.755-3.046-27.97-6.271-7.854-3.51-15.975-7.14-32.04-7.14-16.067 0-24.187 3.63-32.041 7.141-7.213 3.224-14.026 6.27-27.959 6.27-13.932 0-20.746-3.045-27.959-6.27-7.855-3.511-15.978-7.141-32.051-7.141-16.066 0-24.188 3.63-32.041 7.141-7.213 3.224-14.026 6.27-27.959 6.27-13.931 0-20.744-3.044-27.956-6.267-3.486-1.557-7.029-3.136-11.291-4.413l15.417-299.319h20.358v281.987c0 2.762 2.239 5 5 5s5-2.238 5-5v-229.581h121.251c2.527 26.603 24.987 47.485 52.24 47.485s49.714-20.882 52.24-47.485h93.169c2.762 0 5-2.238 5-5s-2.238-5-5-5h-93.169c-2.527-26.603-24.987-47.484-52.24-47.484s-49.714 20.881-52.24 47.484h-121.251v-42.406c0-5.514-4.486-10-10-10h-20.358c-5.327 0-9.713 4.167-9.987 9.486l-15.336 297.755c-3.181-.407-6.744-.643-10.824-.643-2.766-.056-5.024 2.23-5.023 5.001 0 2.762 2.24 5 5.001 4.999h.022c13.921 0 20.732 3.043 27.941 6.265 7.852 3.508 15.972 7.136 32.035 7.136 16.067 0 24.187-3.63 32.041-7.141 7.213-3.224 14.026-6.27 27.959-6.27 13.94 0 20.755 3.046 27.971 6.271 7.854 3.51 15.974 7.14 32.04 7.14s24.188-3.63 32.041-7.141c7.213-3.224 14.026-6.27 27.959-6.27s20.746 3.045 27.959 6.27c7.855 3.511 15.979 7.141 32.051 7.141 16.066 0 24.188-3.63 32.04-7.141 7.214-3.224 14.026-6.27 27.96-6.27 13.939 0 20.755 3.046 27.97 6.271 7.854 3.51 15.975 7.14 32.04 7.14 16.07 0 24.191-3.628 32.046-7.137 7.21-3.222 14.02-6.264 27.94-6.264h.022.001c2.761 0 4.999-2.238 5-4.999.001-2.762-2.238-5-4.999-5.001zm-240.021-291.677c23.426 0 42.484 19.059 42.484 42.484 0 23.427-19.059 42.485-42.484 42.485s-42.484-19.059-42.484-42.485c0-23.425 19.058-42.484 42.484-42.484zm207.977 298.81c-6.584 2.942-12.852 5.726-24.485 6.192v-309.923h20.358l15.418 299.319c-4.263 1.276-7.806 2.855-11.291 4.412z" fill="#2626bc"/></g></g><path d="m414.513 57.499c-1.279 0-2.56-.488-3.535-1.465-1.953-1.952-1.953-5.118 0-7.07l3.327-3.328-5.002-3.172c-1.282-.813-2.125-2.164-2.292-3.673s.36-3.012 1.435-4.085l7.742-7.742c1.951-1.953 5.119-1.953 7.07 0 1.953 1.952 1.953 5.118 0 7.07l-3.327 3.328 5.002 3.172c1.282.813 2.125 2.164 2.292 3.673s-.36 3.012-1.435 4.085l-7.742 7.742c-.975.977-2.256 1.465-3.535 1.465z" fill="#01eca5"/><path d="m365.13 91.147c-1.279 0-2.56-.488-3.535-1.465-1.953-1.952-1.953-5.118 0-7.07l3.327-3.328-5.001-3.172c-1.282-.813-2.125-2.164-2.292-3.673s.36-3.012 1.434-4.085l7.741-7.742c1.953-1.953 5.118-1.952 7.071-.001 1.953 1.953 1.953 5.119.001 7.071l-3.328 3.328 5.002 3.172c1.282.813 2.125 2.164 2.292 3.673s-.361 3.012-1.435 4.085l-7.742 7.742c-.975.977-2.256 1.465-3.535 1.465z" fill="#ff7eb8"/><path d="m184.055 80.147c-1.28 0-2.559-.488-3.536-1.464-1.953-1.953-1.953-5.119 0-7.071l3.328-3.328-5.002-3.172c-1.282-.813-2.125-2.164-2.292-3.673s.361-3.012 1.434-4.085l7.742-7.742c1.952-1.953 5.118-1.952 7.071-.001 1.953 1.953 1.953 5.119 0 7.071l-3.328 3.328 5.002 3.172c1.282.813 2.125 2.164 2.292 3.673s-.361 3.012-1.434 4.085l-7.742 7.742c-.975.977-2.255 1.465-3.535 1.465z" fill="#ff7eb8"/><path d="m308.48 490.774c-2.762 0-5-2.238-5-5 0-3.309-2.691-6-6-6-2.762 0-5-2.238-5-5s2.238-5 5-5c3.309 0 6-2.691 6-6 0-2.762 2.238-5 5-5s5 2.238 5 5c0 3.309 2.691 6 6 6 2.762 0 5 2.238 5 5s-2.238 5-5 5c-3.309 0-6 2.691-6 6 0 2.762-2.239 5-5 5z" fill="#01eca5"/><path d="m135.433 68.499c-2.761 0-5-2.238-5-5 0-3.309-2.691-6-6-6-2.761 0-5-2.238-5-5s2.239-5 5-5c3.309 0 6-2.691 6-6 0-2.762 2.239-5 5-5s5 2.238 5 5c0 3.309 2.691 6 6 6 2.761 0 5 2.238 5 5s-2.239 5-5 5c-3.309 0-6 2.691-6 6 0 2.762-2.239 5-5 5z" fill="#6583fe"/></g></g></svg>