<svg id="Capa_1" enable-background="new 0 0 512 512" height="512" viewBox="0 0 512 512" width="512" xmlns="http://www.w3.org/2000/svg" xmlns:xlink="http://www.w3.org/1999/xlink"><linearGradient id="SVGID_1_" gradientUnits="userSpaceOnUse" x1="53.976" x2="458.024" y1="256" y2="256"><stop offset=".0485" stop-color="#ffdbed"/><stop offset=".9993" stop-color="#d2deff"/></linearGradient><g><g><path d="m170.091.39c-68.06 4.435-134.218 61.127-111.591 135.073 18.265 59.691 84.702 87.73 134.671 115.676 47.928 26.805 98.6 60.229 112.037 117.192 9.247 39.199-2.084 84.916 22.012 117.187 42.331 56.693 124.077 13.634 130.314-47.258 5.176-50.542-31.51-94.701-65.828-132.165-33.267-36.317-70.462-71.374-99.992-110.843-27.345-36.55-41.639-81.985-5.379-118.188 8.145-8.132 17.848-16.505 14.872-29.734-9.77-43.394-97.817-49.109-131.116-46.94z" fill="url(#SVGID_1_)"/></g><g><g><path d="m485.79 347.64-53.58-117.508 20.456-14.315-.456 3.138c-.396 2.732 1.497 5.27 4.229 5.667.244.035.485.053.725.053 2.443-.001 4.581-1.793 4.942-4.282l2.19-15.077c.396-2.732-1.497-5.27-4.229-5.667l-15.076-2.19c-2.736-.392-5.271 1.496-5.667 4.229-.396 2.732 1.497 5.27 4.229 5.667l3.115.453-18.678 13.071-9.251-20.289c-4.183-9.175-12.704-15.544-22.469-17.144l56.395-39.465-.456 3.138c-.396 2.732 1.497 5.27 4.229 5.667.244.035.485.053.725.053 2.443-.001 4.581-1.793 4.942-4.282l2.19-15.077c.396-2.732-1.496-5.27-4.229-5.667l-15.076-2.191c-2.726-.394-5.27 1.497-5.667 4.229-.396 2.732 1.496 5.27 4.229 5.667l3.116.453-67.261 47.07h-67.197c3.866-8.106 6.035-17.177 6.035-26.757 0-34.377-27.868-62.244-62.244-62.244s-62.244 27.868-62.244 62.244c0 9.579 2.169 18.65 6.035 26.757h-67.199l-74.757-52.315c-2.262-1.582-5.38-1.033-6.964 1.229-1.583 2.263-1.032 5.381 1.229 6.964l63.629 44.528c-9.765 1.6-18.286 7.969-22.469 17.144l-9.251 20.289-26.175-18.317c-2.262-1.581-5.38-1.033-6.964 1.229-1.583 2.263-1.032 5.381 1.229 6.964l27.69 19.378-53.58 117.506c-4.25 9.33-3.48 20.04 2.07 28.67 5.54 8.62 14.98 13.77 25.23 13.77h31.69v40.574c0 2.761 2.239 5 5 5h33.253c2.761 0 5-2.239 5-5v-40.574h255.093v40.574c0 2.761 2.239 5 5 5h33.254c2.761 0 5-2.239 5-5v-40.574h31.69c10.25 0 19.69-5.15 25.23-13.77 5.55-8.63 6.32-19.34 2.07-28.67z" fill="#2626bc" opacity=".1"/><g><g><path d="m123.454 411.654h-33.254c-2.761 0-5-2.239-5-5v-40.572h43.253v40.572c.001 2.762-2.238 5-4.999 5z" fill="#02ffb3"/><path d="m85.2 366.082h43.253v21.42h-43.253z" fill="#01eca5"/></g><g><path d="m421.8 411.654h-33.253c-2.761 0-5-2.239-5-5v-40.572h43.253v40.572c0 2.762-2.239 5-5 5z" fill="#02ffb3"/><path d="m383.547 366.082h43.253v21.42h-43.253z" fill="#01eca5"/></g></g><g><path d="m483.72 352.31c-5.54 8.62-14.98 13.77-25.23 13.77h-404.98c-10.25 0-19.69-5.15-25.23-13.77-5.55-8.63-6.32-19.34-2.07-28.67l67.05-147.05c4.86-10.66 15.57-17.55 27.29-17.55h270.9c11.72 0 22.43 6.89 27.29 17.55l67.05 147.05c4.25 9.33 3.48 20.04-2.07 28.67z" fill="#8399fe"/><path d="m317.97 159.04c-2.9 31.68-29.53 56.49-61.97 56.49s-59.07-24.81-61.97-56.49z" fill="#6583fe"/><path d="m458.49 346.08h-404.98c-7.28 0-12.12-7.52-9.1-14.15l67.04-147.04c1.63-3.57 5.19-5.85 9.1-5.85h270.9c3.91 0 7.47 2.28 9.1 5.85l67.04 147.04c3.02 6.63-1.82 14.15-9.1 14.15z" fill="#b7c5ff"/><path d="m312.67 179.04c-9.79 21.53-31.48 36.49-56.67 36.49s-46.88-14.96-56.67-36.49z" fill="#9fb0fe"/><g><g><g><g><circle cx="256" cy="132.283" fill="#fff" r="62.244"/><circle cx="256" cy="132.283" fill="#ff7eb8" r="18.874"/></g></g><g><g><g><path d="m256 105.554c-2.761 0-5-2.239-5-5v-5.728c0-2.761 2.239-5 5-5s5 2.239 5 5v5.728c0 2.761-2.239 5-5 5z" fill="#ffc4df"/></g><g><path d="m256 175.848c-2.761 0-5-2.239-5-5v-5.728c0-2.761 2.239-5 5-5s5 2.239 5 5v5.728c0 2.761-2.239 5-5 5z" fill="#ffc4df"/></g></g><g><g><path d="m278.828 115.01c-1.28 0-2.559-.488-3.536-1.464-1.953-1.953-1.953-5.119 0-7.071l4.05-4.05c1.953-1.952 5.118-1.952 7.071 0 1.953 1.953 1.953 5.119 0 7.071l-4.05 4.05c-.976.975-2.256 1.464-3.535 1.464z" fill="#ffc4df"/></g><g><path d="m229.123 164.715c-1.28 0-2.559-.488-3.536-1.464-1.953-1.953-1.953-5.119 0-7.071l4.05-4.05c1.953-1.952 5.118-1.952 7.071 0 1.953 1.953 1.953 5.119 0 7.071l-4.05 4.05c-.976.976-2.256 1.464-3.535 1.464z" fill="#ffc4df"/></g></g><g><g><path d="m294.011 137.837h-5.728c-2.761 0-5-2.239-5-5s2.239-5 5-5h5.728c2.761 0 5 2.239 5 5s-2.239 5-5 5z" fill="#ffc4df"/></g><g><path d="m223.717 137.837h-5.728c-2.761 0-5-2.239-5-5s2.239-5 5-5h5.728c2.761 0 5 2.239 5 5s-2.238 5-5 5z" fill="#ffc4df"/></g></g><g><g><path d="m282.878 164.715c-1.28 0-2.559-.488-3.536-1.464l-4.05-4.05c-1.953-1.953-1.953-5.119 0-7.071s5.118-1.952 7.071 0l4.05 4.05c1.953 1.953 1.953 5.119 0 7.071-.976.976-2.256 1.464-3.535 1.464z" fill="#ffc4df"/></g><g><path d="m233.172 115.01c-1.28 0-2.559-.488-3.536-1.464l-4.05-4.05c-1.953-1.953-1.953-5.119 0-7.071s5.118-1.952 7.071 0l4.05 4.05c1.953 1.953 1.953 5.119 0 7.071-.975.975-2.255 1.464-3.535 1.464z" fill="#ffc4df"/></g></g></g></g></g><path d="m443.01 278.017-4.56-10h-105.02l-9.01-45.62h93.23l-4.56-10h-90.64l-6.59-33.36h-10.19l6.58 33.36h-112.5l6.58-33.36h-10.19l-6.59 33.36h-90.64l-4.56 10h93.23l-9.01 45.62h-105.02l-4.56 10h107.61l-13.44 68.07h10.19l13.44-68.07h138.42l13.44 68.07h10.19l-13.44-68.07zm-254.25-10 9.01-45.62h116.46l9.01 45.62z" fill="#6583fe"/></g><path d="m490.336 321.563-53.958-118.347 16.288-11.398-.456 3.138c-.396 2.732 1.497 5.27 4.229 5.667.244.035.485.053.725.053 2.443-.001 4.581-1.793 4.942-4.282l2.19-15.077c.396-2.732-1.497-5.27-4.229-5.667l-15.076-2.19c-2.736-.396-5.271 1.496-5.667 4.229-.396 2.732 1.497 5.27 4.229 5.667l3.115.453-14.51 10.154-8.865-19.444c-4.2-9.212-12.148-16-21.54-18.909l50.912-35.628-.456 3.138c-.396 2.732 1.497 5.27 4.229 5.667.244.035.485.053.725.053 2.443-.001 4.581-1.793 4.942-4.282l2.19-15.077c.396-2.732-1.496-5.27-4.229-5.667l-15.076-2.191c-2.726-.393-5.27 1.497-5.667 4.229-.396 2.732 1.496 5.27 4.229 5.667l3.116.453-60.112 42.067h-66.946c2.342-6.829 3.632-14.141 3.632-21.754 0-37.078-30.166-67.244-67.244-67.244-29.87 0-56.455 20.05-64.649 48.759-.759 2.655.78 5.422 3.436 6.18 2.646.755 5.421-.778 6.18-3.436 6.976-24.437 29.606-41.503 55.034-41.503 31.564 0 57.244 25.68 57.244 57.244s-25.68 57.244-57.244 57.244c-25.99 0-48.754-17.534-55.357-42.64-.703-2.671-3.435-4.261-6.108-3.563-2.67.703-4.266 3.438-3.563 6.108.411 1.562.887 3.094 1.402 4.604h-66.931l-67.608-47.313c-2.262-1.581-5.38-1.033-6.964 1.229-1.583 2.263-1.032 5.381 1.229 6.964l58.146 40.691c-9.391 2.909-17.339 9.696-21.54 18.909l-8.865 19.444-22.007-15.401c-2.262-1.581-5.38-1.033-6.964 1.229-1.583 2.263-1.032 5.381 1.229 6.964l23.522 16.461-53.955 118.347c-4.963 10.886-4.063 23.391 2.407 33.451 6.471 10.063 17.476 16.069 29.438 16.069h26.69v35.572c0 5.514 4.486 10 10 10h33.253c5.514 0 10-4.486 10-10v-40.572c0-2.762-2.238-5-5-5h-74.942c-8.545 0-16.406-4.291-21.028-11.478-4.621-7.187-5.264-16.119-1.718-23.895l53.19-116.663 169.178 118.392c.861.603 1.864.903 2.867.903s2.006-.301 2.867-.903l169.179-118.392 53.19 116.664c3.545 7.775 2.902 16.707-1.719 23.894-4.622 7.187-12.483 11.478-21.028 11.478h-297.045c-2.762 0-5 2.238-5 5s2.238 5 5 5h217.103v35.572c0 5.514 4.486 10 10 10h33.253c5.514 0 10-4.486 10-10v-35.572h26.689c11.963 0 22.968-6.007 29.438-16.069 6.471-10.061 7.371-22.566 2.409-33.45zm-366.882 49.519.006 35.572h-33.26v-35.572zm73.268-207.045c11.5 21.465 34.094 35.49 59.278 35.49 25.6 0 47.899-14.384 59.256-35.49h57.013l-116.269 81.365-116.268-81.365zm59.278 153.202-167.827-117.446 9.632-21.127c4.052-8.887 12.98-14.629 22.747-14.629h1.737l130.843 91.564c.861.603 1.864.903 2.867.903s2.006-.301 2.867-.903l130.843-91.564h1.737c9.767 0 18.695 5.742 22.747 14.629l9.632 21.127zm165.807 89.415h-33.26v-35.572h33.254z" fill="#2626bc"/><g fill="#4369fd"><path d="m199.33 179.04h7l-1.82 9.22c-1.98-2.9-3.71-5.99-5.18-9.22z"/><path d="m236.46 212.4h39.08c-6.14 2.03-12.71 3.13-19.54 3.13s-13.4-1.1-19.54-3.13z"/><path d="m312.67 179.04c-1.47 3.23-3.2 6.32-5.18 9.22l-1.82-9.22z"/><path d="m305.67 179.04 1.82 9.22c1.98-2.9 3.71-5.99 5.18-9.22zm-49.67 36.49c6.83 0 13.4-1.1 19.54-3.13h-39.08c6.14 2.03 12.71 3.13 19.54 3.13zm-51.49-27.27 1.82-9.22h-7c1.47 3.23 3.2 6.32 5.18 9.22z"/></g></g><path d="m258.812 433.139c-1.279 0-2.56-.488-3.535-1.465-1.953-1.952-1.953-5.118 0-7.07l3.327-3.328-5.002-3.173c-1.282-.813-2.125-2.165-2.292-3.674s.361-3.012 1.435-4.085l7.742-7.741c1.953-1.951 5.118-1.952 7.071.001 1.952 1.952 1.952 5.118-.001 7.071l-3.327 3.326 5.002 3.173c1.282.813 2.125 2.165 2.292 3.673.167 1.509-.361 3.012-1.435 4.085l-7.742 7.742c-.976.976-2.256 1.465-3.535 1.465z" fill="#01eca5"/><path d="m358.172 105.827c-1.279 0-2.56-.488-3.535-1.465-1.953-1.952-1.953-5.118 0-7.07l3.327-3.328-5.002-3.173c-1.282-.813-2.125-2.165-2.292-3.673-.167-1.509.361-3.012 1.435-4.085l7.742-7.742c1.951-1.953 5.119-1.953 7.07 0 1.953 1.952 1.953 5.118 0 7.07l-3.327 3.328 5.002 3.173c1.282.813 2.125 2.165 2.292 3.674.167 1.508-.361 3.011-1.435 4.084l-7.742 7.742c-.975.977-2.256 1.465-3.535 1.465z" fill="#01eca5"/><path d="m323.635 72.972c-1.279 0-2.56-.488-3.535-1.465-1.953-1.952-1.953-5.118 0-7.07l3.327-3.328-5.002-3.172c-1.282-.813-2.125-2.164-2.292-3.673s.36-3.012 1.435-4.085l7.742-7.742c1.951-1.953 5.119-1.953 7.07 0 1.953 1.952 1.953 5.118 0 7.07l-3.327 3.328 5.002 3.172c1.282.813 2.125 2.164 2.292 3.673s-.36 3.012-1.435 4.085l-7.742 7.742c-.976.976-2.256 1.465-3.535 1.465z" fill="#6583fe"/><g fill="#ff7eb8"><path d="m314.24 455.294c-2.762 0-5-2.238-5-5 0-3.309-2.691-6-6-6-2.762 0-5-2.238-5-5s2.238-5 5-5c3.309 0 6-2.691 6-6 0-2.762 2.238-5 5-5s5 2.238 5 5c0 3.309 2.691 6 6 6 2.762 0 5 2.238 5 5s-2.238 5-5 5c-3.309 0-6 2.691-6 6 0 2.762-2.238 5-5 5z"/><path d="m156.466 116.96c-2.762 0-5-2.238-5-5 0-3.309-2.691-6-6-6-2.762 0-5-2.238-5-5s2.238-5 5-5c3.309 0 6-2.691 6-6 0-2.762 2.238-5 5-5s5 2.238 5 5c0 3.309 2.691 6 6 6 2.762 0 5 2.238 5 5s-2.238 5-5 5c-3.309 0-6 2.691-6 6 0 2.762-2.238 5-5 5z"/></g></g></g></svg>