<svg id="Capa_1" enable-background="new 0 0 512 512" height="512" viewBox="0 0 512 512" width="512" xmlns="http://www.w3.org/2000/svg" xmlns:xlink="http://www.w3.org/1999/xlink"><linearGradient id="SVGID_1_" gradientUnits="userSpaceOnUse" x1="53.976" x2="458.024" y1="256" y2="256"><stop offset=".0485" stop-color="#d2deff"/><stop offset=".9993" stop-color="#dcfdee"/></linearGradient><g><g><path d="m170.091.39c-68.06 4.435-134.218 61.127-111.591 135.073 18.265 59.691 84.702 87.73 134.671 115.676 47.928 26.805 98.6 60.229 112.037 117.192 9.247 39.199-2.084 84.916 22.012 117.187 42.331 56.693 124.077 13.634 130.314-47.258 5.176-50.542-31.51-94.701-65.828-132.165-33.267-36.317-70.462-71.374-99.992-110.843-27.345-36.55-41.639-81.985-5.379-118.188 8.145-8.132 17.848-16.505 14.872-29.734-9.77-43.394-97.817-49.109-131.116-46.94z" fill="url(#SVGID_1_)"/></g><g><path d="m427.744 230.539c-12.109 0-21.925 9.816-21.925 21.925v43.85c-35.275-36.324-86.962-59.685-144.826-60.96 0-.022.007-.043.007-.065v-38.342c15.394 13.551 37.74 17.981 57.914 9.526 22.431-9.401 35.392-31.863 33.787-54.846-15.262-17.26-40.358-23.753-62.789-14.351-13.35 5.595-23.347 15.821-28.912 28.031v-64.204c5.58-6.074 8.993-14.176 8.993-23.069 0-9.915-4.224-18.848-10.971-25.079-1.938-1.79-4.914-1.788-6.85.004-6.738 6.237-10.963 15.16-10.963 25.075 0 9.316 3.739 17.769 9.79 23.926v42.317c-5.565-12.21-15.562-22.435-28.912-28.031-22.431-9.401-47.528-2.909-62.789 14.351-1.605 22.983 11.356 45.444 33.787 54.846 20.174 8.456 42.52 4.025 57.914-9.526v59.371c0 .023.006.043.007.066-57.864 1.275-109.551 24.635-144.826 60.958v-43.848c0-12.109-9.816-21.925-21.925-21.925-12.122 0-21.943 9.837-21.925 21.959l.109 69.893c.008 5.294 2.115 10.368 5.858 14.111l80.451 80.452c4.768 4.768 6.812 11.618 5.438 18.219l-7.741 37.178c-1.293 6.21 3.447 12.039 9.79 12.039h199.528c6.343 0 11.083-5.829 9.79-12.039l-7.741-37.178c-1.375-6.601.67-13.451 5.438-18.219l80.451-80.452c3.743-3.743 5.85-8.817 5.858-14.111l.109-69.893c.02-12.123-9.802-21.959-21.924-21.959z" fill="#2626bc" opacity=".1"/><g><path d="m256 211.287c-64.076 0-121.025 27.085-157.192 69.073 35.391 35.391 70.783 70.783 106.175 106.175h100.318l107.094-107.095c-36.203-41.463-92.788-68.153-156.395-68.153z" fill="#8399fe"/><g><g><path d="m268.719 350.292 68.903-68.903c9.716-9.716 25.468-9.716 35.183 0 9.715 9.715 9.716 25.467.001 35.182l33.015-33.015v-55.094c0-12.109 9.816-21.925 21.925-21.925 12.122 0 21.943 9.837 21.925 21.959l-.109 69.893c-.008 5.294-2.115 10.368-5.858 14.111l-80.451 80.452c-4.768 4.768-6.812 11.618-5.438 18.219l10.248 49.216h-112.063v-79.391c0-11.516 4.575-22.561 12.719-30.704z" fill="#ff7eb8"/><path d="m243.281 350.292-68.903-68.903c-9.716-9.716-25.468-9.716-35.183 0-9.715 9.715-9.716 25.467-.001 35.182l-33.015-33.015v-55.094c0-12.109-9.816-21.925-21.925-21.925-12.122 0-21.943 9.837-21.925 21.959l.109 69.893c.008 5.294 2.115 10.368 5.858 14.111l80.451 80.452c4.768 4.768 6.812 11.618 5.438 18.219l-10.248 49.216h112.063v-79.391c0-11.516-4.575-22.561-12.719-30.704z" fill="#ffa8cf"/></g></g><g><g><g><path d="m222.088 92.245c-22.431-9.402-47.528-2.909-62.789 14.351-1.605 22.983 11.356 45.444 33.787 54.846 22.417 9.395 47.519 2.888 62.781-14.372 1.605-22.983-11.362-45.43-33.779-54.825z" fill="#02ffb3"/><path d="m257.799 142.458-32.185-13.49-2.501-13.559c-.5-2.715-3.108-4.514-5.824-4.01-2.716.501-4.511 3.108-4.01 5.824l1.315 7.127-27.107-11.361c-2.544-1.066-5.477.131-6.544 2.679-1.067 2.547.132 5.477 2.679 6.544l11.203 4.696-4.761 3.582c-2.207 1.66-2.649 4.795-.989 7.001.982 1.306 2.481 1.994 3.999 1.994 1.046 0 2.102-.328 3.002-1.005l9.43-7.095 48.427 20.297c.631.265 1.286.39 1.931.39 1.954 0 3.811-1.153 4.613-3.069 1.068-2.547-.131-5.477-2.678-6.545z" fill="#00b574"/></g></g><g><g><path d="m289.912 113.274c22.431-9.402 47.528-2.909 62.789 14.351 1.605 22.983-11.356 45.444-33.787 54.846-22.417 9.395-47.519 2.888-62.781-14.372-1.605-22.983 11.362-45.429 33.779-54.825z" fill="#02ffb3"/><path d="m331.057 136.697c-1.067-2.547-3.997-3.745-6.544-2.679l-27.107 11.361 1.315-7.127c.501-2.715-1.294-5.323-4.01-5.824-2.713-.503-5.323 1.294-5.824 4.01l-2.501 13.559-32.185 13.49c-2.547 1.067-3.746 3.997-2.679 6.544.803 1.916 2.659 3.069 4.613 3.069.645 0 1.299-.125 1.931-.39l48.427-20.297 9.43 7.095c.901.678 1.956 1.005 3.002 1.005 1.518 0 3.017-.688 3.999-1.994 1.661-2.207 1.218-5.341-.989-7.001l-4.761-3.582 11.203-4.696c2.548-1.066 3.747-3.996 2.68-6.543z" fill="#00b574"/></g></g></g><path d="m269.993 54.032c0 9.905-4.225 18.837-10.973 25.068-1.937 1.789-4.912 1.788-6.848-.002-6.738-6.231-10.962-15.162-10.962-25.066 0-9.915 4.224-18.838 10.963-25.075 1.936-1.792 4.912-1.793 6.85-.004 6.746 6.231 10.97 15.164 10.97 25.079z" fill="#ff7eb8"/><g fill="#2626bc"><path d="m381.434 367.699-21.718 21.719c-5.981 5.98-8.522 14.494-6.798 22.774l10.248 49.216c.491 2.36 2.571 3.982 4.89 3.982.337 0 .68-.034 1.024-.106 2.704-.563 4.439-3.211 3.876-5.914l-10.248-49.216c-1.035-4.969.49-10.077 4.079-13.665l21.718-21.719c1.953-1.953 1.953-5.119 0-7.071s-5.118-1.952-7.071 0z"/><path d="m446.798 209.44c-5.087-5.095-11.854-7.901-19.054-7.901-14.846 0-26.924 12.079-26.924 26.925v32.063c-36.888-33.514-87.093-53.018-139.82-54.18v-26.946c10.581 8.078 23.455 12.373 36.558 12.373 7.834 0 15.747-1.53 23.289-4.691 23.837-9.991 38.643-34.025 36.842-59.806-.077-1.098-.513-2.14-1.242-2.964-17.112-19.353-44.626-25.641-68.468-15.65-11.289 4.732-20.547 12.616-26.979 22.342v-47.151c.495-.314.969-.671 1.413-1.08 7.995-7.383 12.581-17.859 12.581-28.741 0-10.89-4.584-21.37-12.578-28.751-3.827-3.536-9.818-3.531-13.639.006-7.986 7.393-12.566 17.87-12.566 28.745 0 10.877 4.581 21.351 12.567 28.737.68.628 1.43 1.14 2.223 1.545v25.661c-6.432-9.725-15.69-17.61-26.979-22.342-23.838-9.992-51.354-3.703-68.468 15.65-.729.824-1.166 1.866-1.242 2.964-1.8 25.78 13.005 49.814 36.842 59.805 7.543 3.162 15.454 4.691 23.289 4.691 13.101 0 25.977-4.296 36.558-12.373v47.974c-22.464.484-44.445 4.224-65.411 11.144-2.622.866-4.046 3.693-3.181 6.315s3.692 4.046 6.315 3.181c21.506-7.099 44.141-10.698 67.276-10.698 55.242 0 107.934 21.068 144.565 57.803.079.08.172.136.255.209v7.186l-15.791 15.792c-.4-7.074-3.297-14.031-8.689-19.423-11.649-11.649-30.605-11.649-42.254 0l-68.902 68.903c-3.794 3.795-6.869 8.114-9.183 12.786-2.314-4.672-5.389-8.991-9.183-12.786l-68.902-68.903c-11.65-11.649-30.605-11.65-42.254 0-5.392 5.393-8.289 12.35-8.689 19.423l-15.791-15.791v-7.127c13.804-13.901 29.929-25.666 47.956-34.968 2.454-1.267 3.417-4.282 2.15-6.736s-4.282-3.417-6.736-2.15c-15.951 8.231-30.494 18.306-43.37 30.017v-32.057c0-14.846-12.079-26.925-26.925-26.925-7.2 0-13.966 2.806-19.053 7.901s-7.882 11.866-7.871 19.066l.109 69.893c.01 6.663 2.611 12.928 7.322 17.639l80.451 80.451c3.588 3.588 5.113 8.696 4.079 13.665l-10.248 49.216c-.563 2.703 1.172 5.351 3.876 5.914.344.072.686.106 1.024.106 2.319 0 4.399-1.622 4.89-3.982l10.248-49.216c1.724-8.28-.817-16.793-6.797-22.774l-80.451-80.451c-2.827-2.827-4.387-6.585-4.394-10.583l-.109-69.893c-.007-4.526 1.75-8.782 4.948-11.984 3.198-3.203 7.451-4.967 11.977-4.967 9.332 0 16.924 7.592 16.924 16.925v55.094c0 1.326.527 2.598 1.464 3.536l80.904 80.904c3.169 3.169 4.915 7.383 4.915 11.866 0 2.761 2.239 5 5 5s5-2.239 5-5c0-7.153-2.786-13.879-7.844-18.937l-47.889-47.889c-7.75-7.75-7.75-20.361 0-28.111 7.75-7.751 20.362-7.751 28.112 0l68.902 68.903c7.257 7.257 11.254 16.906 11.254 27.169v79.392c0 2.761 2.239 5 5 5s5-2.239 5-5v-79.392c0-10.263 3.997-19.912 11.254-27.169l68.902-68.903c7.75-7.75 20.362-7.751 28.112 0 7.75 7.75 7.75 20.361 0 28.111l-47.889 47.889c-5.058 5.058-7.844 11.784-7.844 18.937 0 2.761 2.239 5 5 5s5-2.239 5-5c0-4.482 1.746-8.696 4.915-11.866l80.904-80.904c.938-.938 1.464-2.209 1.464-3.536v-55.093c0-9.333 7.592-16.925 16.924-16.925 4.526 0 8.779 1.764 11.977 4.967s4.955 7.458 4.948 11.984l-.109 69.894c-.006 3.998-1.566 7.757-4.394 10.583l-35.405 35.405c-1.953 1.953-1.953 5.119 0 7.071s5.118 1.952 7.071 0l35.405-35.405c4.711-4.711 7.312-10.976 7.322-17.639l.109-69.894c.014-7.202-2.781-13.973-7.868-19.068zm-154.954-91.554c19.358-8.116 41.624-3.359 55.959 11.792.751 20.853-11.466 40.069-30.822 48.182-19.35 8.109-41.61 3.344-55.951-11.813-.022-.614-.031-1.226-.031-1.836v-.2c.087-20.049 12.126-38.279 30.845-46.125zm-45.634-63.854c0-8.098 3.411-15.9 9.42-21.406 5.951 5.496 9.363 13.297 9.363 21.406 0 6.328-2.091 12.466-5.869 17.472-.858-.693-1.935-1.125-3.124-1.125-1.429 0-2.711.607-3.622 1.569-3.958-5.085-6.168-11.402-6.168-17.916zm4.759 90.985c-14.341 15.157-36.603 19.922-55.951 11.813-19.356-8.113-31.574-27.329-30.822-48.182 14.334-15.151 36.598-19.908 55.959-11.792 18.719 7.846 30.758 26.076 30.844 46.125v.2c.001.611-.008 1.223-.03 1.836z"/></g><g><path d="m201.314 264.439h-7.52c-2.762 0-5-2.239-5-5s2.238-5 5-5h7.52c2.762 0 5 2.239 5 5s-2.239 5-5 5z" fill="#6583fe"/></g><g><path d="m294.503 248.824h-7.52c-2.762 0-5-2.239-5-5s2.238-5 5-5h7.52c2.762 0 5 2.239 5 5s-2.239 5-5 5z" fill="#4369fd"/></g><g><path d="m307.827 267.439h-7.52c-2.762 0-5-2.239-5-5s2.238-5 5-5h7.52c2.762 0 5 2.239 5 5s-2.238 5-5 5z" fill="#4369fd"/></g><g><path d="m227.831 285.36h-7.52c-2.762 0-5-2.239-5-5s2.238-5 5-5h7.52c2.762 0 5 2.239 5 5s-2.239 5-5 5z" fill="#b7c5ff"/></g><g><path d="m337.833 255.824h-7.52c-2.762 0-5-2.239-5-5s2.238-5 5-5h7.52c2.762 0 5 2.239 5 5s-2.238 5-5 5z" fill="#b7c5ff"/></g></g><path d="m391.558 191.777c-1.28 0-2.559-.488-3.536-1.464-1.953-1.953-1.953-5.119 0-7.071l3.328-3.327-5.002-3.173c-1.282-.813-2.125-2.164-2.292-3.673s.361-3.012 1.434-4.085l7.742-7.742c1.953-1.952 5.118-1.952 7.071 0 1.953 1.953 1.953 5.119 0 7.071l-3.328 3.328 5.002 3.173c1.282.813 2.125 2.164 2.292 3.673s-.361 3.012-1.434 4.085l-7.742 7.742c-.976.975-2.255 1.463-3.535 1.463z" fill="#01eca5"/><path d="m88.703 391.535c-1.28 0-2.559-.488-3.536-1.464-1.953-1.953-1.953-5.119 0-7.071l3.328-3.328-5.002-3.172c-1.282-.813-2.125-2.165-2.292-3.673s.361-3.012 1.434-4.085l7.742-7.742c1.954-1.952 5.119-1.952 7.071 0 1.953 1.953 1.953 5.119 0 7.071l-3.328 3.327 5.002 3.172c1.282.813 2.125 2.165 2.292 3.673s-.361 3.012-1.434 4.085l-7.742 7.742c-.976.976-2.256 1.465-3.535 1.465z" fill="#01eca5"/><path d="m156.837 64.567c-1.28 0-2.559-.488-3.536-1.464-1.953-1.953-1.953-5.119 0-7.071l3.328-3.327-5.002-3.173c-1.282-.813-2.125-2.164-2.292-3.673s.361-3.011 1.434-4.085l7.742-7.742c1.952-1.952 5.118-1.952 7.071 0 1.953 1.953 1.953 5.118 0 7.071l-3.328 3.328 5.002 3.173c1.282.813 2.125 2.164 2.292 3.673s-.361 3.012-1.434 4.085l-7.742 7.742c-.976.975-2.255 1.463-3.535 1.463z" fill="#6583fe"/><path d="m107.445 96.441c-2.761 0-5-2.239-5-5 0-3.309-2.691-6-6-6-2.761 0-5-2.239-5-5s2.239-5 5-5c3.309 0 6-2.691 6-6 0-2.761 2.239-5 5-5s5 2.239 5 5c0 3.309 2.691 6 6 6 2.761 0 5 2.239 5 5s-2.239 5-5 5c-3.309 0-6 2.691-6 6 0 2.762-2.239 5-5 5z" fill="#ff7eb8"/><path d="m416.33 419.44c-2.761 0-5-2.239-5-5 0-3.309-2.691-6-6-6-2.761 0-5-2.239-5-5s2.239-5 5-5c3.309 0 6-2.691 6-6 0-2.761 2.239-5 5-5s5 2.239 5 5c0 3.309 2.691 6 6 6 2.761 0 5 2.239 5 5s-2.239 5-5 5c-3.309 0-6 2.691-6 6 0 2.761-2.239 5-5 5z" fill="#6583fe"/></g></g></svg>