<svg id="Capa_1" enable-background="new 0 0 512 512" height="512" viewBox="0 0 512 512" width="512" xmlns="http://www.w3.org/2000/svg" xmlns:xlink="http://www.w3.org/1999/xlink"><linearGradient id="SVGID_1_" gradientUnits="userSpaceOnUse" x1="15.63" x2="496.37" y1="256" y2="256"><stop offset=".0485" stop-color="#ffdbed"/><stop offset=".9993" stop-color="#d2deff"/></linearGradient><g><g><path d="m20.722 179.563c26.255 85.007 107.775 89.005 182.131 93.553 244.867 14.978-63.002 218.186 146.697 238.304 77.136 7.4 157.788-56.956 145.59-140.291-11.107-75.879-121.152-121.073-121.207-191.979-.043-55.945 103.86-96.409 36.272-156.553-60.249-53.612-442.871-15.888-389.483 156.966z" fill="url(#SVGID_1_)"/></g><g><g><path d="m427.291 170.973-258.996-27.849c-5.912-.636-11.069 3.997-11.069 9.943v16.157l-43.386 20.406v-52.821c8.412-4.423 13.958-13.562 13.108-23.905-.991-12.063-10.903-21.761-22.984-22.511-14.324-.89-26.218 10.464-26.218 24.595 0 9.476 5.351 17.698 13.194 21.822v63.592l-12.324 5.796c-3.221 1.491-4.305 6.996 0 9.049l12.324 5.796v245.61c0 1.657 1.343 3 3 3h16.9c1.657 0 3-1.343 3-3v-234.84l43.386 20.406v16.157c0 5.946 5.157 10.578 11.069 9.943l56.171-6.04c-8.828 11.044-13.986 25.149-13.588 40.477.881 33.927 29.311 61.13 63.245 60.583 33.905-.546 61.222-28.201 61.222-62.236 0-19.48-8.954-36.864-22.965-48.278l114.912-12.356c5.08-.546 8.931-4.834 8.931-9.943v-59.611c-.001-5.108-3.852-9.395-8.932-9.942zm-313.452 49.79v-20.082l43.386-20.406v60.895z" fill="#2626bc" opacity=".1"/><g><g><g><path d="m113.839 94.962v347.69c0 1.657-1.343 3-3 3h-16.9c-1.657 0-3-1.343-3-3v-347.69z" fill="#02ffb3"/><path d="m113.839 94.962v38.85c-3.42 1.8-7.31 2.82-11.45 2.82s-8.03-1.02-11.45-2.82v-38.85z" fill="#01eca5"/><g><path d="m113.839 186.622v11.05l-22.9 10.77v-11.04z" fill="#01eca5"/></g><circle cx="102.389" cy="90.987" fill="#b7c5ff" r="24.644"/></g><path d="m427.291 226.47-258.997 27.849c-5.912.636-11.069-3.997-11.069-9.943v-115.31c0-5.946 5.157-10.578 11.069-9.943l258.997 27.849c5.08.546 8.931 4.834 8.931 9.943v59.611c0 5.11-3.851 9.397-8.931 9.944z" fill="#ff7eb8"/><path d="m427.291 146.973-36.098-3.882v87.259l36.098-3.882c5.08-.546 8.931-4.834 8.931-9.943v-59.611c0-5.107-3.851-9.394-8.931-9.941z" fill="#8399fe"/><path d="m182.532 120.655-14.238-1.531c-5.912-.636-11.069 3.997-11.069 9.943v115.31c0 5.946 5.157 10.578 11.069 9.943l14.238-1.531c18.431-1.982 32.404-17.538 32.404-36.076v-59.982c.001-18.538-13.973-34.094-32.404-36.076z" fill="#fff"/><g><circle cx="220.937" cy="165.135" fill="#8399fe" r="21.089"/><circle cx="216.995" cy="160.056" fill="#4369fd" r="7.321"/></g><g fill="#ffc4df"><g><path d="m262.265 143.381c5.984 0 10.835 4.851 10.835 10.835s-4.851 10.835-10.835 10.835z"/><path d="m262.265 175.886c5.984 0 10.835 4.851 10.835 10.835s-4.851 10.835-10.835 10.835z"/><path d="m262.265 208.392c5.984 0 10.835 4.851 10.835 10.835s-4.851 10.835-10.835 10.835z"/></g><g><path d="m287.226 160.818c5.722 0 10.361 4.639 10.361 10.361s-4.639 10.361-10.361 10.361z"/><path d="m287.226 191.902c5.722 0 10.361 4.639 10.361 10.361s-4.639 10.361-10.361 10.361z"/></g><g><path d="m312.813 152.184c4.769 0 8.634 3.866 8.634 8.635s-3.866 8.634-8.634 8.634z"/><path d="m312.813 178.087c4.769 0 8.634 3.866 8.634 8.635s-3.866 8.634-8.634 8.634z"/><path d="m312.813 203.991c4.769 0 8.634 3.866 8.634 8.634 0 4.769-3.866 8.634-8.634 8.634z"/></g><g><path d="m337.537 165.135c4.769 0 8.635 3.866 8.635 8.634 0 4.769-3.866 8.635-8.635 8.635z"/><path d="m337.537 191.039c4.769 0 8.635 3.866 8.635 8.634 0 4.769-3.866 8.635-8.635 8.635z"/></g><g><path d="m362.261 152.184c4.769 0 8.634 3.866 8.634 8.635s-3.866 8.634-8.634 8.634z"/><path d="m362.261 178.087c4.769 0 8.634 3.866 8.634 8.635s-3.866 8.634-8.634 8.634z"/><path d="m362.261 203.991c4.769 0 8.634 3.866 8.634 8.634 0 4.769-3.866 8.634-8.634 8.634z"/></g></g></g><g><g><g><g><g><circle cx="273.1" cy="287.104" fill="#fff" r="62.244"/><path d="m427.825 142.002-258.996-27.85c-4.235-.449-8.465.914-11.627 3.755-3.163 2.841-4.977 6.908-4.977 11.159v18.509l-33.39 15.704v-47.644c7.95-5.323 13.196-14.384 13.196-24.649 0-16.346-13.298-29.644-29.644-29.644s-29.643 13.3-29.643 29.645 13.299 29.645 29.645 29.645c2.214 0 4.37-.252 6.447-.715v48.066l-12.895 6.065v-28.444c0-2.762-2.238-5-5-5s-5 2.238-5 5v33.148l-7.327 3.446c-3.221 1.492-4.305 6.995 0 9.049l7.327 3.446v247.964c0 4.411 3.589 8 8 8h16.895c4.411 0 8-3.589 8-8v-232.493l33.39 15.704v18.508c0 4.252 1.814 8.319 4.977 11.16 2.764 2.482 6.348 3.84 10.028 3.84.531 0 1.064-.028 1.598-.085l45.582-4.901c-5.469 9.783-8.554 20.982-8.554 32.714 0 37.078 30.166 67.244 67.244 67.244s67.244-30.166 67.244-67.244c0-16.782-6.274-32.454-16.832-44.445l104.313-11.217c7.638-.821 13.396-7.232 13.396-14.914v-59.611c0-7.683-5.759-14.094-13.397-14.915zm-345.081-51.015c0-10.831 8.813-19.644 19.645-19.644 10.831 0 19.644 8.813 19.644 19.644 0 10.832-8.813 19.645-19.644 19.645-10.832 0-19.645-8.813-19.645-19.645zm13.197 349.669v-255.558l12.895-6.065v261.623zm22.895-241.543v-24.783l33.39-15.704v56.192zm312.386 17.414c0 2.561-1.92 4.697-4.465 4.971l-112.913 12.141c-6.75-5.159-14.539-9.1-23.091-11.422-2.664-.724-5.411.851-6.135 3.516-.724 2.664.851 5.411 3.516 6.135 24.853 6.747 42.21 29.461 42.21 55.235 0 31.564-25.68 57.244-57.244 57.244s-57.244-25.68-57.244-57.244c0-25.637 17.243-48.317 41.933-55.156 2.661-.737 4.221-3.492 3.483-6.153-.737-2.662-3.491-4.221-6.153-3.483-13.242 3.668-24.651 11.223-33.152 21.208l-54.207 5.829c-1.433.157-2.807-.291-3.875-1.251-1.07-.961-1.659-2.282-1.659-3.721v-90.454l12.793-6.017c2.499-1.175 3.572-4.153 2.396-6.652-1.175-2.499-4.154-3.57-6.652-2.396l-8.537 4.015v-13.805c0-1.438.589-2.759 1.659-3.72.931-.836 2.094-1.281 3.322-1.281.183 0 .367.01.553.03l258.997 27.85c2.545.273 4.465 2.41 4.465 4.971z" fill="#2626bc"/></g></g></g></g><g><g><path d="m283.52 272.457c-6.547 0-10.077-2.033-12.914-3.667-2.352-1.354-4.051-2.333-7.923-2.333s-5.571.979-7.923 2.333c-2.837 1.634-6.367 3.667-12.913 3.667-2.762 0-5-2.238-5-5s2.238-5 5-5c3.872 0 5.571-.979 7.923-2.333 2.837-1.634 6.367-3.667 12.913-3.667s10.076 2.033 12.913 3.667c2.352 1.354 4.051 2.333 7.924 2.333 3.871 0 5.569-.979 7.92-2.333 2.837-1.634 6.367-3.667 12.913-3.667 2.762 0 5 2.238 5 5s-2.238 5-5 5c-3.871 0-5.57.979-7.922 2.333-2.836 1.633-6.366 3.667-12.911 3.667z" fill="#9fb0fe"/></g><g><path d="m283.52 295.103c-6.547 0-10.077-2.033-12.914-3.667-2.352-1.354-4.051-2.333-7.923-2.333s-5.571.979-7.923 2.333c-2.837 1.634-6.367 3.667-12.913 3.667-2.762 0-5-2.238-5-5s2.238-5 5-5c3.872 0 5.571-.979 7.923-2.333 2.837-1.634 6.367-3.667 12.913-3.667s10.076 2.033 12.913 3.667c2.352 1.354 4.051 2.333 7.924 2.333 3.871 0 5.569-.979 7.92-2.333 2.837-1.634 6.367-3.667 12.913-3.667 2.762 0 5 2.238 5 5s-2.238 5-5 5c-3.871 0-5.57.979-7.922 2.333-2.836 1.634-6.366 3.667-12.911 3.667z" fill="#9fb0fe"/></g><g><path d="m283.52 317.751c-6.547 0-10.077-2.033-12.914-3.667-2.352-1.354-4.051-2.333-7.923-2.333s-5.571.979-7.923 2.333c-2.837 1.634-6.367 3.667-12.913 3.667-2.762 0-5-2.238-5-5s2.238-5 5-5c3.872 0 5.571-.979 7.923-2.333 2.837-1.634 6.367-3.667 12.913-3.667s10.076 2.033 12.913 3.667c2.352 1.354 4.051 2.333 7.924 2.333 3.871 0 5.569-.979 7.92-2.333 2.837-1.634 6.367-3.667 12.913-3.667 2.762 0 5 2.238 5 5s-2.238 5-5 5c-3.871 0-5.57.979-7.922 2.333-2.836 1.633-6.366 3.667-12.911 3.667z" fill="#9fb0fe"/></g></g></g></g></g><path d="m239.421 426.868c-1.279 0-2.56-.488-3.535-1.465-1.953-1.952-1.953-5.118 0-7.07l3.327-3.328-5.002-3.172c-1.282-.813-2.125-2.164-2.292-3.673s.36-3.012 1.435-4.085l7.742-7.742c1.951-1.953 5.119-1.953 7.07 0 1.953 1.952 1.953 5.118 0 7.07l-3.327 3.328 5.002 3.172c1.282.813 2.125 2.164 2.292 3.673s-.36 3.012-1.435 4.085l-7.742 7.742c-.976.977-2.256 1.465-3.535 1.465z" fill="#01eca5"/><path d="m321.437 86.039c-1.279 0-2.559-.488-3.535-1.464-1.953-1.953-1.953-5.119-.001-7.071l3.328-3.328-5.002-3.172c-1.282-.813-2.125-2.164-2.292-3.673s.361-3.012 1.435-4.085l7.742-7.742c1.951-1.953 5.119-1.953 7.07 0 1.953 1.952 1.953 5.118 0 7.07l-3.327 3.328 5.001 3.172c1.282.813 2.125 2.164 2.292 3.673s-.36 3.012-1.434 4.085l-7.741 7.742c-.977.977-2.257 1.465-3.536 1.465z" fill="#6583fe"/><g fill="#ff7eb8"><path d="m199.848 404.868c-2.762 0-5-2.238-5-5 0-3.309-2.691-6-6-6-2.762 0-5-2.238-5-5s2.238-5 5-5c3.309 0 6-2.691 6-6 0-2.762 2.238-5 5-5s5 2.238 5 5c0 3.309 2.691 6 6 6 2.762 0 5 2.238 5 5s-2.238 5-5 5c-3.309 0-6 2.691-6 6 0 2.762-2.239 5-5 5z"/><path d="m381.896 311.104c-2.762 0-5-2.238-5-5 0-3.309-2.691-6-6-6-2.762 0-5-2.238-5-5s2.238-5 5-5c3.309 0 6-2.691 6-6 0-2.762 2.238-5 5-5s5 2.238 5 5c0 3.309 2.691 6 6 6 2.762 0 5 2.238 5 5s-2.238 5-5 5c-3.309 0-6 2.691-6 6 0 2.761-2.239 5-5 5z"/><path d="m273.1 102.147c-2.762 0-5-2.238-5-5 0-3.309-2.691-6-6-6-2.762 0-5-2.238-5-5s2.238-5 5-5c3.309 0 6-2.691 6-6 0-2.762 2.238-5 5-5s5 2.238 5 5c0 3.309 2.691 6 6 6 2.762 0 5 2.238 5 5s-2.238 5-5 5c-3.309 0-6 2.691-6 6 0 2.762-2.239 5-5 5z"/></g></g></g></svg>