<svg id="Capa_1" enable-background="new 0 0 512 512" height="512" viewBox="0 0 512 512" width="512" xmlns="http://www.w3.org/2000/svg" xmlns:xlink="http://www.w3.org/1999/xlink"><linearGradient id="SVGID_1_" gradientUnits="userSpaceOnUse" x1="15.63" x2="496.37" y1="256" y2="256"><stop offset=".0485" stop-color="#d2deff"/><stop offset=".9993" stop-color="#dcfdee"/></linearGradient><g><g><path d="m20.722 179.563c26.255 85.007 107.775 89.005 182.131 93.553 244.867 14.978-63.002 218.186 146.697 238.304 77.136 7.4 157.788-56.956 145.59-140.291-11.107-75.879-121.152-121.073-121.207-191.979-.043-55.945 103.86-96.409 36.272-156.553-60.249-53.612-442.871-15.888-389.483 156.966z" fill="url(#SVGID_1_)"/></g><g><g><g fill="#2626bc" opacity=".1"><path d="m368.282 153.138c-6.617 0-12-5.383-12-12 0-2.762-2.239-5-5-5s-5 2.238-5 5c0 12.131 9.869 22 22 22h46.174c6.617 0 12 5.383 12 12v11.289c0 6.617-5.383 12-12 12h-92.265c-12.131 0-22 9.869-22 22 0 2.762 2.239 5 5 5s5-2.238 5-5c0-6.617 5.383-12 12-12h75.153c-2.257 3.454-3.575 7.575-3.575 12 0 2.762 2.239 5 5 5s5-2.238 5-5c0-6.617 5.383-12 12-12h26.534c12.131 0 22-9.869 22-22v-11.289c0-12.131-9.869-22-22-22h-40.442c-6.617 0-12-5.383-12-12 0-2.762-2.239-5-5-5s-5 2.238-5 5c0 4.425 1.318 8.546 3.575 12zm86.021 22v11.289c0 6.617-5.383 12-12 12h-9.422c2.257-3.454 3.575-7.575 3.575-12v-11.289c0-4.425-1.318-8.546-3.575-12h9.422c6.617 0 12 5.383 12 12z"/><path d="m145.362 120.902c2.761 0 5-2.238 5-5 0-6.617 5.383-12 12-12h26.286c-2.257 3.454-3.575 7.575-3.575 12 0 2.762 2.239 5 5 5s5-2.238 5-5c0-6.617 5.383-12 12-12h92.265c12.131 0 22-9.869 22-22v-7.824c0-6.617 5.383-12 12-12h35.581c2.761 0 5-2.238 5-5s-2.239-5-5-5h-80.292c-12.131 0-22 9.869-22 22v7.824c0 6.617-5.383 12-12 12h-92.265c-12.131 0-22 9.869-22 22 0 2.762 2.239 5 5 5zm131.265-39v-7.824c0-6.617 5.383-12 12-12h26.286c-2.257 3.454-3.575 7.575-3.575 12v7.824c0 6.617-5.383 12-12 12h-26.286c2.257-3.454 3.575-7.575 3.575-12z"/><path d="m462.566 475.098c2.761 0 5-2.239 5-5v-44.213h2.884c2.761 0 5-2.239 5-5v-12c0-2.761-2.239-5-5-5h-25.113l-10.888-148.326c-.384-5.225-4.734-9.268-9.973-9.268h-51.414c-5.239 0-9.59 4.043-9.973 9.268l-10.888 148.326h-.442l-10.888-148.326c-.384-5.225-4.734-9.268-9.973-9.268h-51.414c-5.239 0-9.59 4.043-9.973 9.268l-4.696 63.976c-9.839-19.617-16.843-40.541-20.366-62.281l-17.559-108.36c-.785-4.842-4.966-8.401-9.871-8.401h-103.216c-4.905 0-9.087 3.558-9.871 8.401l-17.559 108.36c-4.647 28.68-15.343 55.945-30.629 80.653-12.169 19.669-19.194 42.855-19.194 67.684v64.452c0 2.761 2.239 5 5 5z"/></g><g><g><g><path d="m363.089 231.559-16.115 219.539h98.21c2.906 0 5.199-2.468 4.987-5.366l-15.721-214.173c-.384-5.225-4.734-9.268-9.973-9.268h-51.414c-5.24 0-9.591 4.043-9.974 9.268z" fill="#b7c5ff"/><path d="m361.564 252.335-1.282 17.457h76.973l-1.281-17.457z" fill="#8399fe"/></g><g><path d="m269.512 231.559-16.115 219.539h103.59l-16.115-219.539c-.384-5.225-4.734-9.268-9.973-9.268h-51.414c-5.239 0-9.59 4.043-9.973 9.268z" fill="#ffdbed"/><g fill="#ffa8cf"><g><path d="m316.454 316.443h-22.525v-13.055c0-6.22 5.042-11.262 11.262-11.262 6.22 0 11.262 5.042 11.262 11.262v13.055z"/><path d="m316.454 350.837h-22.525v-13.055c0-6.22 5.042-11.262 11.262-11.262 6.22 0 11.262 5.042 11.262 11.262v13.055z"/></g><path d="m267.987 252.335-1.282 17.457h76.973l-1.281-17.457z"/></g></g><path d="m294.272 381.591c0-24.829-7.025-48.015-19.194-67.684-15.286-24.708-25.982-51.973-30.629-80.653l-17.559-108.36c-.785-4.842-4.966-8.4-9.871-8.4h-103.216c-4.905 0-9.087 3.558-9.871 8.4l-17.559 108.36c-4.647 28.68-15.343 55.945-30.629 80.653-12.169 19.669-19.194 42.855-19.194 67.684v64.452c0 2.761 2.239 5 5 5h9.533l-.009.055h228.675l-.009-.055h14.533v-69.452z" fill="#ff7eb8"/><path d="m97.714 163.263-4.947 30.531h145.288l-4.947-30.531z" fill="#02ffb3"/><path d="m95.076 179.546-4.618 28.496h149.906l-4.617-28.496z" fill="#ffdbed"/><g><circle cx="165.411" cy="336.694" fill="#fff" r="67.574"/><path d="m197.348 336.688c0 20.705-13.357 38.273-31.93 44.576-18.573-6.303-31.943-23.87-31.943-44.576 0-20.692 13.37-38.259 31.943-44.562 18.573 6.302 31.93 23.87 31.93 44.562z" fill="#02ffb3"/><g><path d="m165.411 391.386c-2.761 0-5-2.239-5-5v-65.745c0-2.761 2.239-5 5-5s5 2.239 5 5v65.745c0 2.761-2.239 5-5 5z" fill="#00b574"/></g></g></g><path d="m462.566 451.098h-168.294v-49.213h173.294v44.213c0 2.761-2.238 5-5 5z" fill="#ffa8cf"/><path d="m294.272 401.885h173.294v21.655h-173.294z" fill="#ff7eb8"/><path d="m470.45 401.885h-176.178v-22h176.178c2.761 0 5 2.239 5 5v12c0 2.761-2.239 5-5 5z" fill="#fff"/><g fill="#2626bc"><path d="m368.282 129.138c-6.617 0-12-5.383-12-12 0-2.762-2.239-5-5-5s-5 2.238-5 5c0 12.131 9.869 22 22 22h46.174c6.617 0 12 5.383 12 12v11.289c0 6.617-5.383 12-12 12h-92.265c-12.131 0-22 9.869-22 22 0 2.762 2.239 5 5 5s5-2.238 5-5c0-6.617 5.383-12 12-12h75.153c-2.257 3.454-3.575 7.575-3.575 12 0 2.762 2.239 5 5 5s5-2.238 5-5c0-6.617 5.383-12 12-12h26.534c12.131 0 22-9.869 22-22v-11.289c0-12.131-9.869-22-22-22h-40.442c-6.617 0-12-5.383-12-12 0-2.762-2.239-5-5-5s-5 2.238-5 5c0 4.425 1.318 8.546 3.575 12zm86.021 22v11.289c0 6.617-5.383 12-12 12h-9.422c2.257-3.454 3.575-7.575 3.575-12v-11.289c0-4.425-1.318-8.546-3.575-12h9.422c6.617 0 12 5.383 12 12z"/><path d="m145.362 96.902c2.761 0 5-2.238 5-5 0-6.617 5.383-12 12-12h26.286c-2.257 3.454-3.575 7.575-3.575 12 0 2.762 2.239 5 5 5s5-2.238 5-5c0-6.617 5.383-12 12-12h92.265c12.131 0 22-9.869 22-22v-7.824c0-6.617 5.383-12 12-12h35.581c2.761 0 5-2.238 5-5s-2.239-5-5-5h-80.292c-12.131 0-22 9.869-22 22v7.824c0 6.617-5.383 12-12 12h-92.265c-12.131 0-22 9.869-22 22 0 2.762 2.239 5 5 5zm131.265-39v-7.824c0-6.617 5.383-12 12-12h26.286c-2.257 3.454-3.575 7.575-3.575 12v7.824c0 6.617-5.383 12-12 12h-26.286c2.257-3.454 3.575-7.575 3.575-12z"/><path d="m470.45 374.885h-20.467l-10.548-143.692c-.572-7.795-7.143-13.901-14.96-13.901h-51.414c-7.817 0-14.388 6.106-14.959 13.901l-6.122 83.401-6.123-83.396c-.566-7.799-7.136-13.907-14.957-13.907h-51.42c-7.805 0-14.375 6.104-14.957 13.903l-3.248 44.221c-5.537-14.011-9.525-28.366-11.89-42.961l-17.559-108.36c-1.183-7.301-7.41-12.601-14.807-12.601h-103.216c-7.396 0-13.624 5.299-14.807 12.601l-17.559 108.36c-4.432 27.348-14.507 53.867-29.945 78.822-13.046 21.087-19.942 45.401-19.942 70.314v8.535c0 2.762 2.239 5 5 5s5-2.238 5-5v-8.535c0-23.053 6.378-45.548 18.446-65.053 16.134-26.08 26.669-53.832 31.313-82.484l17.559-108.36c.395-2.434 2.47-4.2 4.936-4.2h103.216c2.466 0 4.542 1.767 4.936 4.2l17.559 108.36c4.643 28.653 15.178 56.404 31.313 82.484 12.067 19.505 18.446 42 18.446 65.053v20.294 44.158l-237.454.056c-.243-.036-.489-.055-.738-.055h-9.532v-22.926c0-2.762-2.239-5-5-5s-5 2.238-5 5v22.926c0 5.514 4.486 10 10 10h8.786c.243.036.489.055.738.055h411.493c5.514 0 10-4.486 10-10v-39.443c4.5-.974 7.883-4.983 7.883-9.77v-12c0-5.514-4.486-10-10-10zm-102.374-142.96c.19-2.599 2.381-4.634 4.986-4.634h51.414c2.605 0 4.796 2.035 4.986 4.634l10.494 142.96h-82.375zm-88.745 79.351c-3.412-5.515-6.546-11.11-9.431-16.77l4.596-62.575c.194-2.603 2.383-4.642 4.984-4.642h51.42c2.606 0 4.795 2.034 4.983 4.636l10.497 142.959h-19.117c-2.761 0-5 2.238-5 5s2.239 5 5 5h143.187v12h-2.883-168.295v-15.294c0-24.911-6.895-49.226-19.941-70.314zm19.941 134.822v-39.213h163.294l.006 39.213z"/></g></g><g fill="#8399fe"><path d="m409.841 316.443h-22.525v-13.055c0-6.22 5.042-11.262 11.262-11.262 6.22 0 11.262 5.042 11.262 11.262v13.055z"/><path d="m409.841 350.837h-22.525v-13.055c0-6.22 5.042-11.262 11.262-11.262 6.22 0 11.262 5.042 11.262 11.262v13.055z"/></g></g><path d="m437.255 97.054c-2.761 0-5-2.238-5-5 0-3.309-2.691-6-6-6-2.761 0-5-2.238-5-5s2.239-5 5-5c3.309 0 6-2.691 6-6 0-2.762 2.239-5 5-5s5 2.238 5 5c0 3.309 2.691 6 6 6 2.761 0 5 2.238 5 5s-2.239 5-5 5c-3.309 0-6 2.691-6 6 0 2.761-2.238 5-5 5z" fill="#6583fe"/><path d="m387.316 86.054c-2.761 0-5-2.238-5-5 0-3.309-2.691-6-6-6-2.761 0-5-2.238-5-5s2.239-5 5-5c3.309 0 6-2.691 6-6 0-2.762 2.239-5 5-5s5 2.238 5 5c0 3.309 2.691 6 6 6 2.761 0 5 2.238 5 5s-2.239 5-5 5c-3.309 0-6 2.691-6 6 0 2.761-2.238 5-5 5z" fill="#ff7eb8"/><path d="m72.403 114.697c-1.28 0-2.56-.488-3.536-1.465-1.953-1.952-1.953-5.118 0-7.071l3.327-3.327-5.002-3.172c-1.282-.813-2.125-2.165-2.292-3.673-.167-1.509.361-3.012 1.434-4.085l7.742-7.742c1.952-1.953 5.118-1.952 7.071-.001 1.953 1.953 1.953 5.119 0 7.071l-3.328 3.328 5.002 3.173c1.282.813 2.125 2.165 2.292 3.674s-.361 3.012-1.435 4.085l-7.742 7.741c-.974.976-2.253 1.464-3.533 1.464z" fill="#ff7eb8"/><path d="m464.961 262.728c-1.28 0-2.559-.488-3.536-1.465-1.953-1.952-1.953-5.118 0-7.071l3.328-3.326-5.002-3.173c-1.282-.813-2.125-2.165-2.292-3.674-.167-1.508.361-3.011 1.434-4.084l7.742-7.742c1.953-1.953 5.118-1.953 7.071 0 1.953 1.952 1.953 5.118 0 7.07l-3.328 3.328 5.002 3.173c1.282.813 2.125 2.165 2.292 3.674s-.361 3.011-1.434 4.084l-7.742 7.742c-.975.975-2.255 1.464-3.535 1.464z" fill="#01eca5"/><path d="m64.008 192.92c-2.761 0-5-2.238-5-5 0-3.309-2.691-6-6-6-2.761 0-5-2.238-5-5s2.239-5 5-5c3.309 0 6-2.691 6-6 0-2.762 2.239-5 5-5s5 2.238 5 5c0 3.309 2.691 6 6 6 2.761 0 5 2.238 5 5s-2.239 5-5 5c-3.309 0-6 2.691-6 6 0 2.762-2.238 5-5 5z" fill="#6583fe"/></g></g></svg>