<svg id="Capa_1" enable-background="new 0 0 512 512" height="512" viewBox="0 0 512 512" width="512" xmlns="http://www.w3.org/2000/svg" xmlns:xlink="http://www.w3.org/1999/xlink"><linearGradient id="SVGID_1_" gradientUnits="userSpaceOnUse" x1="50.343" x2="471.794" y1="256" y2="256"><stop offset=".0485" stop-color="#d2deff"/><stop offset=".9993" stop-color="#dcfdee"/></linearGradient><g><g><path d="m102.214 38.232c-135.327 119.538 38.831 235.409 22.243 366.028-7.375 58.072 16.054 113.588 92.705 107.244 93.413-7.732 59.504-97.209 79.066-156.778 33.66-102.501 240.73-78.56 154.895-236.448-54.778-100.758-255.766-162.321-348.909-80.046z" fill="url(#SVGID_1_)"/></g><g><g><path d="m453.475 390.778h-3.438l-9.697-62.926c-.376-2.439-2.474-4.239-4.942-4.239h-4.523v-22.11c0-2.761-2.239-5-5-5h-6.434v-174.346c0-39.73-32.32-72.05-72.05-72.05-39.72 0-72.05 32.32-72.05 72.05v193.069h-10.002c-2.761 0-5 2.239-5 5v65.408c0 2.761 2.239 5 5 5h10.002v34.453c0 29.67-24.13 53.81-53.8 53.81s-53.81-24.14-53.81-53.81v-51.732c.371-.099.741-.202 1.109-.329 26.558-9.148 52.428-36.798 66.139-74.468 15.798-43.404 10.695-86.966-10.203-109.535-1.65.208-3.305.509-4.961.869-8.633-67.283-34.856-129.813-65.868-129.813s-57.235 62.53-65.868 129.813c-1.656-.36-3.31-.66-4.961-.869-20.899 22.569-26.001 66.131-10.203 109.535 13.711 37.67 39.581 65.321 66.139 74.468 1.213.418 2.446.673 3.677.801v51.26c0 43.45 35.35 78.81 78.81 78.81 43.45 0 78.8-35.36 78.8-78.81v-34.453h9.998c2.761 0 5-2.239 5-5v-65.408c0-2.761-2.239-5-5-5h-9.998v-193.069c0-25.95 21.11-47.05 47.05-47.05 25.95 0 47.05 21.1 47.05 47.05v174.346h-6.431c-2.761 0-5 2.239-5 5v22.11h-4.523c-2.467 0-4.566 1.8-4.942 4.239l-9.697 62.926h-3.438c-2.761 0-5 2.239-5 5v20.515c0 2.761 2.239 5 5 5h14.529v51.453c0 5.65 4.58 10.23 10.23 10.23 5.64 0 10.22-4.58 10.22-10.23v-51.453h23.48v51.453c0 5.65 4.58 10.23 10.23 10.23s10.23-4.58 10.23-10.23v-51.453h14.146c2.761 0 5-2.239 5-5v-20.515c0-2.761-2.239-5-5-5z" fill="#2626bc" opacity=".1"/><g><g><g><g><path d="m395.388 388.737v60.01c0 5.65-4.58 10.23-10.22 10.23-5.65 0-10.23-4.58-10.23-10.23v-60.01z" fill="#d2deff"/><path d="m374.938 388.737h20.45v26.56h-20.45z" fill="#b7c5ff"/></g><g><path d="m439.328 388.737v60.01c0 5.65-4.58 10.23-10.23 10.23s-10.23-4.58-10.23-10.23v-60.01z" fill="#d2deff"/><path d="m418.868 388.737h20.46v26.56h-20.46z" fill="#b7c5ff"/></g></g><g><path d="m419.441 98.157v182.72c0 6.9-5.59 12.5-12.5 12.5-6.9 0-12.5-5.6-12.5-12.5v-182.72c0-25.95-21.1-47.05-47.05-47.05-25.94 0-47.05 21.1-47.05 47.05v302.93c0 43.45-35.35 78.81-78.8 78.81-43.46 0-78.81-35.36-78.81-78.81v-55.55c0-6.9 5.6-12.5 12.5-12.5s12.5 5.6 12.5 12.5v55.55c0 29.67 24.14 53.81 53.81 53.81s53.8-24.14 53.8-53.81v-302.93c0-39.73 32.33-72.05 72.05-72.05 39.73 0 72.05 32.32 72.05 72.05z" fill="#9fb0fe"/></g><path d="m167.731 345.537v27.83c-4.83 1.3-9.86.31-13.78-2.48-3.23 2.29-7.21 3.37-11.22 2.95v-28.3c0-6.9 5.6-12.5 12.5-12.5s12.5 5.6 12.5 12.5z" fill="#8399fe"/><path d="m275.338 309.227h25v75.41h-25z" fill="#8399fe"/><path d="m430.874 314.374h-47.865v-36.871c0-2.761 2.239-5 5-5h37.865c2.761 0 5 2.239 5 5z" fill="#ffc4df"/><path d="m451.686 377.484h-89.489l11.347-73.633c.376-2.439 2.474-4.238 4.942-4.238h56.912c2.467 0 4.566 1.8 4.942 4.238z" fill="#ff7eb8"/><path d="m453.475 397.293h-93.066c-2.761 0-5-2.239-5-5v-20.515c0-2.761 2.239-5 5-5h93.066c2.761 0 5 2.239 5 5v20.515c0 2.762-2.239 5-5 5z" fill="#ffc4df"/><path d="m412.887 343.485h-11.889c-2.761 0-5-2.239-5-5v-19.112c0-2.761 2.239-5 5-5h11.889c2.761 0 5 2.239 5 5v19.112c0 2.762-2.239 5-5 5z" fill="#02ffb3"/><g fill="#ffdbed"><path d="m429.101 354.152c-2.761 0-5-2.238-5-5v-.115c0-2.762 2.239-5 5-5s5 2.238 5 5v.115c0 2.762-2.239 5-5 5z"/><path d="m385.164 354.152c-2.761 0-5-2.238-5-5v-.115c0-2.762 2.239-5 5-5s5 2.238 5 5v.115c0 2.762-2.239 5-5 5z"/></g><path d="m260.338 361.633v-65.408c0-2.761 2.239-5 5-5h45c2.761 0 5 2.239 5 5v65.408c0 2.761-2.239 5-5 5h-45c-2.761 0-5-2.238-5-5z" fill="#ffc4df"/><g><g><path d="m295.348 317.037h-15.02c-2.762 0-5-2.239-5-5s2.238-5 5-5h15.02c2.762 0 5 2.239 5 5s-2.238 5-5 5z" fill="#ff7eb8"/></g><g><path d="m295.348 333.929h-15.02c-2.762 0-5-2.239-5-5s2.238-5 5-5h15.02c2.762 0 5 2.239 5 5s-2.238 5-5 5z" fill="#ff7eb8"/></g></g></g><g><path d="m222.828 211.705c0 81.537-30.839 119.646-68.881 119.646s-68.881-38.109-68.881-119.646 30.839-175.627 68.881-175.627 68.881 94.09 68.881 175.627z" fill="#ff7eb8"/><g><g><g><path d="m129.251 186.92h-7.133c-2.761 0-5-2.238-5-5s2.239-5 5-5h7.133c2.761 0 5 2.238 5 5s-2.239 5-5 5z" fill="#ff5ba8"/></g><g><path d="m129.251 169.275h-7.133c-2.761 0-5-2.238-5-5s2.239-5 5-5h7.133c2.761 0 5 2.238 5 5s-2.239 5-5 5z" fill="#ffa8cf"/></g><g><path d="m129.251 151.631h-7.133c-2.761 0-5-2.238-5-5s2.239-5 5-5h7.133c2.761 0 5 2.238 5 5s-2.239 5-5 5z" fill="#ffa8cf"/></g><g><path d="m129.251 133.987h-7.133c-2.761 0-5-2.238-5-5s2.239-5 5-5h7.133c2.761 0 5 2.238 5 5 0 2.761-2.239 5-5 5z" fill="#ffdbed"/></g><g><path d="m129.251 116.342h-7.133c-2.761 0-5-2.238-5-5s2.239-5 5-5h7.133c2.761 0 5 2.238 5 5s-2.239 5-5 5z" fill="#ffa8cf"/></g><g><path d="m129.251 98.698h-7.133c-2.761 0-5-2.238-5-5s2.239-5 5-5h7.133c2.761 0 5 2.238 5 5s-2.239 5-5 5z" fill="#ffdbed"/></g></g><g><g><path d="m157.513 204.564h-7.133c-2.761 0-5-2.238-5-5s2.239-5 5-5h7.133c2.761 0 5 2.238 5 5s-2.239 5-5 5z" fill="#ffdbed"/></g><g><path d="m157.513 186.92h-7.133c-2.761 0-5-2.238-5-5s2.239-5 5-5h7.133c2.761 0 5 2.238 5 5s-2.239 5-5 5z" fill="#ffdbed"/></g><g><path d="m157.513 169.275h-7.133c-2.761 0-5-2.238-5-5s2.239-5 5-5h7.133c2.761 0 5 2.238 5 5s-2.239 5-5 5z" fill="#ffdbed"/></g><g><path d="m157.513 151.631h-7.133c-2.761 0-5-2.238-5-5s2.239-5 5-5h7.133c2.761 0 5 2.238 5 5s-2.239 5-5 5z" fill="#ff5ba8"/></g><g><path d="m157.513 133.987h-7.133c-2.761 0-5-2.238-5-5s2.239-5 5-5h7.133c2.761 0 5 2.238 5 5 0 2.761-2.239 5-5 5z" fill="#ffa8cf"/></g><g><path d="m157.513 116.342h-7.133c-2.761 0-5-2.238-5-5s2.239-5 5-5h7.133c2.761 0 5 2.238 5 5s-2.239 5-5 5z" fill="#ffdbed"/></g><g><path d="m157.513 98.698h-7.133c-2.761 0-5-2.238-5-5s2.239-5 5-5h7.133c2.761 0 5 2.238 5 5s-2.239 5-5 5z" fill="#ff5ba8"/></g><g><path d="m157.513 81.053h-7.133c-2.761 0-5-2.238-5-5s2.239-5 5-5h7.133c2.761 0 5 2.238 5 5s-2.239 5-5 5z" fill="#ffa8cf"/></g></g><g><g><path d="m185.775 186.92h-7.133c-2.761 0-5-2.238-5-5s2.239-5 5-5h7.133c2.761 0 5 2.238 5 5s-2.238 5-5 5z" fill="#ff5ba8"/></g><g><path d="m185.775 169.275h-7.133c-2.761 0-5-2.238-5-5s2.239-5 5-5h7.133c2.761 0 5 2.238 5 5s-2.238 5-5 5z" fill="#ffdbed"/></g><g><path d="m185.775 151.631h-7.133c-2.761 0-5-2.238-5-5s2.239-5 5-5h7.133c2.761 0 5 2.238 5 5s-2.238 5-5 5z" fill="#ffdbed"/></g><g><path d="m185.775 133.987h-7.133c-2.761 0-5-2.238-5-5s2.239-5 5-5h7.133c2.761 0 5 2.238 5 5 0 2.761-2.238 5-5 5z" fill="#ffdbed"/></g><g><path d="m185.775 116.342h-7.133c-2.761 0-5-2.238-5-5s2.239-5 5-5h7.133c2.761 0 5 2.238 5 5s-2.238 5-5 5z" fill="#ffa8cf"/></g><g><path d="m185.775 98.698h-7.133c-2.761 0-5-2.238-5-5s2.239-5 5-5h7.133c2.761 0 5 2.238 5 5s-2.238 5-5 5z" fill="#ffa8cf"/></g></g></g><path d="m146.57 242.38c15.798-43.404 47.689-73.501 78.205-77.357 20.899 22.569 26.001 66.131 10.203 109.535-13.711 37.67-39.581 65.32-66.139 74.468-7.37 2.538-15.477-.413-19.49-7.095-14.459-24.077-16.489-61.882-2.779-99.551z" fill="#01eca5"/><g><path d="m161.323 242.38c-15.798-43.404-47.689-73.501-78.205-77.357-20.899 22.569-26.001 66.131-10.203 109.535 13.711 37.67 39.581 65.32 66.139 74.468 7.37 2.538 15.477-.413 19.49-7.095 14.459-24.077 16.49-61.882 2.779-99.551z" fill="#02ffb3"/><path d="m454.332 361.822-9.051-58.731c-.732-4.755-4.649-8.247-9.407-8.467v-17.121c0-5.514-4.486-10-10-10h-1.433v-169.35c0-42.485-34.564-77.05-77.05-77.05s-77.05 34.564-77.05 77.05v188.072h-5.004c-5.514 0-10 4.486-10 10v65.408c0 5.514 4.486 10 10 10h5.004v29.451c0 26.913-21.895 48.808-48.808 48.808s-48.808-21.895-48.808-48.808v-48.159c28.036-10.698 53.54-39.813 66.95-76.658 16.021-44.015 11.506-90.086-11.233-114.642-1.095-1.183-2.699-1.764-4.295-1.563-.028.004-.056.009-.084.012-4.678-32.969-13.295-63.655-24.434-86.8-13.286-27.605-29.083-42.197-45.684-42.197-16.543 0-32.294 14.497-45.552 41.923-11.193 23.159-19.865 53.967-24.563 87.075-.028-.004-.057-.009-.085-.013-1.598-.2-3.2.381-4.295 1.563-22.739 24.556-27.253 70.627-11.233 114.642 13.77 37.834 40.29 67.525 69.209 77.486.1.034.201.057.301.09v47.241c0 46.212 37.596 83.808 83.808 83.808s83.808-37.596 83.808-83.808v-29.451h4.996c5.514 0 10-4.486 10-10v-65.408c0-5.514-4.486-10-10-10h-4.996v-188.072c0-23.187 18.863-42.05 42.05-42.05s42.05 18.863 42.05 42.05v169.35h-1.433c-5.514 0-10 4.486-10 10v17.132c-4.756.221-8.674 3.702-9.407 8.455l-9.05 58.732c-5.114.437-9.143 4.732-9.143 9.957v20.516c0 5.514 4.486 10 10 10h9.526v46.458c0 8.397 6.832 15.229 15.229 15.229s15.228-6.831 15.228-15.229v-46.458h13.481v46.458c0 8.397 6.832 15.229 15.229 15.229s15.228-6.831 15.228-15.229v-46.458h9.146c5.514 0 10-4.486 10-10v-20.516c-.002-5.225-4.031-9.52-9.145-9.957zm-336.934-284.468c11.308-23.393 24.288-36.275 36.549-36.275 12.311 0 25.335 12.975 36.673 36.533 10.781 22.401 19.125 52.31 23.638 84.538-22.652 6.627-44.729 25.833-60.327 52.678-15.496-26.615-37.458-46.004-60.295-52.678 4.533-32.365 12.93-62.389 23.762-84.796zm-39.785 195.494c-14.343-39.408-11.284-80.118 7.453-102.473 28.711 5.081 57.214 34.303 71.559 73.715 3.565 9.796 6.105 19.824 7.549 29.805.395 2.732 2.93 4.621 5.664 4.232 2.733-.396 4.628-2.931 4.232-5.664-1.542-10.657-4.25-21.354-8.049-31.793-1.923-5.284-4.098-10.395-6.483-15.315 15.739-30.022 39.691-50.789 63.29-54.98 18.736 22.356 21.795 63.065 7.452 102.473-12.764 35.068-36.931 62.447-63.068 71.451-1.503.518-3.078.705-4.628.586.08-.128.167-.249.245-.379 6.255-10.417 10.4-23.483 11.986-37.786.304-2.744-1.674-5.216-4.418-5.521s-5.217 1.673-5.521 4.419c-1.428 12.881-5.101 24.548-10.62 33.739-2.818 4.69-8.4 6.726-13.575 4.941-26.137-9.002-50.303-36.381-63.068-71.45zm217.729 128.237c0 40.697-33.11 73.808-73.808 73.808s-73.808-33.11-73.808-73.808v-46.452c2.148-.341 4.232-1 6.18-1.957 2.767 1.377 5.777 2.122 8.82 2.226v46.183c0 32.427 26.381 58.808 58.808 58.808s58.808-26.381 58.808-58.808v-29.451h15zm14.996-39.451-45 .006v-65.414h45zm37.054-315.53c-28.7 0-52.05 23.35-52.05 52.05v188.072h-15v-188.073c0-36.972 30.079-67.05 67.05-67.05s67.05 30.078 67.05 67.05v169.35h-15v-169.35c0-28.7-23.35-52.049-52.05-52.049zm31.094 258.509h19.398c2.761 0 5-2.238 5-5s-2.239-5-5-5h-9.875v-17.11h37.865v22.11c0 2.762 2.239 5 5 5h4.523l8.809 57.165h-74.53zm11.906 144.139c0 2.883-2.345 5.229-5.228 5.229s-5.229-2.346-5.229-5.229v-46.458h10.457zm43.937 0c0 2.883-2.346 5.229-5.229 5.229s-5.228-2.346-5.228-5.229v-46.458h10.457zm-73.92-56.458v-20.516h93.065l.006 20.516z" fill="#2626bc"/></g></g><path d="m139.726 330.037c-1.235 0-2.473-.455-3.44-1.372-41.878-39.723-53.974-106.996-54.469-109.84-.473-2.72 1.349-5.308 4.068-5.781 2.714-.479 5.308 1.347 5.784 4.066.116.665 12.059 66.89 51.499 104.299 2.003 1.9 2.087 5.065.187 7.069-.983 1.037-2.305 1.559-3.629 1.559z" fill="#97ffd2"/><path d="m207.615 276.504c-.908 0-1.828-.248-2.654-.767-2.339-1.469-3.044-4.555-1.576-6.894 14.189-22.598 13.325-56.475 13.315-56.813-.084-2.76 2.083-5.066 4.842-5.152 2.767-.079 5.066 2.079 5.153 4.837.048 1.509.992 37.23-14.841 62.447-.949 1.512-2.576 2.342-4.239 2.342z" fill="#00d890"/><path d="m190.771 265.951c-.932 0-1.875-.261-2.716-.806-2.317-1.503-2.977-4.6-1.474-6.916 4.571-7.048 6.941-17.524 6.965-17.629.601-2.696 3.272-4.396 5.969-3.792 2.695.601 4.393 3.272 3.792 5.968-.112.501-2.797 12.354-8.336 20.895-.958 1.476-2.563 2.28-4.2 2.28z" fill="#02ffb3"/></g></g><path d="m85.066 392.209c-2.761 0-5-2.238-5-5 0-3.309-2.692-6-6-6-2.761 0-5-2.238-5-5s2.239-5 5-5c3.309 0 6-2.691 6-6 0-2.762 2.239-5 5-5s5 2.238 5 5c0 3.309 2.691 6 6 6 2.761 0 5 2.238 5 5s-2.239 5-5 5c-3.308 0-6 2.691-6 6 0 2.762-2.239 5-5 5z" fill="#01eca5"/><path d="m239.637 70.948c-2.761 0-5-2.238-5-5 0-3.309-2.691-6-6-6-2.761 0-5-2.238-5-5s2.239-5 5-5c3.309 0 6-2.691 6-6 0-2.762 2.239-5 5-5s5 2.238 5 5c0 3.309 2.691 6 6 6 2.761 0 5 2.238 5 5s-2.239 5-5 5c-3.309 0-6 2.691-6 6 0 2.762-2.238 5-5 5z" fill="#6583fe"/><path d="m455.87 251.728c-1.28 0-2.559-.488-3.536-1.465-1.953-1.952-1.953-5.118 0-7.071l3.328-3.326-5.002-3.173c-1.282-.813-2.125-2.165-2.292-3.674-.167-1.508.361-3.011 1.434-4.084l7.742-7.742c1.953-1.953 5.118-1.953 7.071 0 1.953 1.952 1.953 5.118 0 7.07l-3.328 3.328 5.002 3.173c1.282.813 2.125 2.165 2.292 3.674s-.361 3.011-1.434 4.084l-7.742 7.742c-.976.975-2.256 1.464-3.535 1.464z" fill="#6583fe"/><g fill="#ff7eb8"><path d="m455.87 197.92c-1.28 0-2.559-.488-3.536-1.465-1.953-1.952-1.953-5.118 0-7.07l3.328-3.328-5.002-3.172c-1.282-.813-2.125-2.164-2.292-3.673s.361-3.012 1.434-4.085l7.742-7.742c1.953-1.953 5.118-1.953 7.071 0 1.953 1.952 1.953 5.118 0 7.07l-3.328 3.328 5.002 3.172c1.282.813 2.125 2.164 2.292 3.673s-.361 3.012-1.434 4.085l-7.742 7.742c-.976.977-2.255 1.465-3.535 1.465z"/><path d="m47.737 354.549c-1.28 0-2.559-.488-3.536-1.465-1.953-1.952-1.953-5.118 0-7.07l3.328-3.328-5.001-3.172c-1.282-.813-2.125-2.164-2.292-3.673s.361-3.012 1.434-4.085l7.742-7.742c1.952-1.953 5.118-1.952 7.071-.001 1.953 1.953 1.953 5.119 0 7.071l-3.328 3.328 5.002 3.172c1.282.813 2.125 2.164 2.292 3.673s-.361 3.012-1.434 4.085l-7.742 7.742c-.977.977-2.256 1.465-3.536 1.465z"/></g></g></g></svg>