<svg id="Capa_1" enable-background="new 0 0 512 512" height="512" viewBox="0 0 512 512" width="512" xmlns="http://www.w3.org/2000/svg" xmlns:xlink="http://www.w3.org/1999/xlink"><linearGradient id="SVGID_1_" gradientUnits="userSpaceOnUse" x1="5.399" x2="506.601" y1="256" y2="256"><stop offset="0" stop-color="#ffdbed"/><stop offset="1" stop-color="#dcfdee"/></linearGradient><g><g><path d="m461.173 27.352c-63.757-37.987-146.258-35.878-208.873 3.041-35.18 21.866-62.374 53.403-93.212 80.552-27.022 23.789-58.445 40.758-86.353 63.204-101.21 81.403-91.553 300.961 50.962 330.125 61.777 12.642 146.21 16.696 182.519-43.642 34.62-57.531 46.232-116.383 113.876-146.942 23.573-10.65 62.975-10.113 78.944-33.45 20.152-29.45-4.853-60.043-18.192-85.707-17.19-33.074-20.795-65.682-8.699-101.16 10.298-30.211 17.549-43.782-10.972-66.021z" fill="url(#SVGID_1_)"/></g><g><g><path d="m448.041 338.171h-14.03c4.139-12.85 6.383-26.551 6.383-40.778 0-63.955-45.18-117.352-105.362-130.033v-17.595c0-5.523-4.477-10-10-10h-5.029v-47.317c0-15.17-12.34-27.5-27.5-27.5h-185.94c-15.16 0-27.5 12.33-27.5 27.5v162.001c-11.819 5.044-20.104 16.77-20.104 30.432s8.285 25.388 20.104 30.432v141.676h-4.562c-5.523 0-10 4.477-10 10v19.065c0 1.657 1.343 3 3 3h49.068c1.657 0 3-1.343 3-3v-19.065c0-5.523-4.477-10-10-10h-5.505v-141.299c12.317-4.813 21.046-16.788 21.046-30.809s-8.729-25.996-21.046-30.809v-161.624c0-1.38 1.12-2.5 2.5-2.5h185.94c1.37 0 2.5 1.12 2.5 2.5v47.317h-5.039c-5.523 0-10 4.477-10 10v17.595c-60.183 12.681-105.362 66.077-105.362 130.033 0 14.227 2.244 27.928 6.383 40.778h-12.427c-2.761 0-5 2.239-5 5v14.214c0 2.761 2.239 5 5 5h23.004c.001.001.001.002.002.003h-1.831v94.601h-12.967c-5.523 0-10 4.477-10 10v19.065c0 1.657 1.343 3 3 3h277.068c1.657 0 3-1.343 3-3v-19.065c0-5.523-4.477-10-10-10h-14.57v-94.601h-1.831c.001-.001.001-.002.002-.003h24.607c2.761 0 5-2.239 5-5v-14.214c-.002-2.762-2.241-5-5.002-5zm-140.543 92.118c8.401 0 16.617-.788 24.585-2.279v28.979h-49.17v-28.979c7.968 1.491 16.184 2.279 24.585 2.279zm-95.765-40.761c13.643 14.177 30.404 25.329 49.18 32.358v35.103h-49.18zm142.35 67.461v-35.103c18.776-7.029 35.537-18.181 49.18-32.358v67.461z" fill="#2626bc" opacity=".1"/><g><g><path d="m320.003 71.448v55.95h-25v-55.95c0-1.38-1.13-2.5-2.5-2.5h-185.94c-1.38 0-2.5 1.12-2.5 2.5v372.45h-25v-372.45c0-15.17 12.34-27.5 27.5-27.5h185.94c15.16 0 27.5 12.33 27.5 27.5z" fill="#9fb0fe"/></g><path d="m104.063 251.078v61.65c-3.73 1.45-7.79 2.25-12.03 2.25-4.6 0-8.99-.94-12.97-2.64v-60.87c3.98-1.7 8.37-2.64 12.97-2.64 4.24 0 8.3.8 12.03 2.25z" fill="#8399fe"/><g><path d="m64.501 445.989v19.065c0 1.657 1.343 3 3 3h49.068c1.657 0 3-1.343 3-3v-19.065c0-5.523-4.477-10-10-10h-35.068c-5.523 0-10 4.477-10 10z" fill="#ff7eb8"/></g><g><path d="m279.964 128.765v22.065h55.068v-22.065c0-5.523-4.477-10-10-10h-35.068c-5.523 0-10 4.477-10 10z" fill="#ff7eb8"/></g><circle cx="307.498" cy="276.393" fill="#02ffb3" r="132.896"/><path d="m440.394 276.393c0 73.397-59.5 132.896-132.896 132.896s-132.896-59.5-132.896-132.896z" fill="#ff7eb8"/><path d="m440.394 276.393c0 73.397-59.5 132.896-132.896 132.896s-132.896-59.5-132.896-132.896z" fill="#ff7eb8"/><path d="m186.945 332.375c4.617 9.922 10.419 19.182 17.231 27.593h206.644c6.811-8.41 12.613-17.67 17.231-27.593z" fill="#ff5ba8"/><circle cx="307.498" cy="276.393" fill="#8399fe" r="99.817"/><path d="m224.852 332.375c7.432 10.948 16.982 20.342 28.061 27.593h109.169c11.079-7.251 20.629-16.645 28.061-27.593z" fill="#6583fe"/><path d="m207.681 276.393c0-55.127 44.689-99.817 99.817-99.817s99.816 44.689 99.816 99.817z" fill="#b7c5ff"/><g><g><g><path d="m189.733 341.388h22v94.6h-22z" fill="#9fb0fe"/></g><path d="m189.733 341.388h22v18.58h-22z" fill="#8399fe"/></g><g><g><path d="m260.913 341.388h22v94.6h-22z" fill="#9fb0fe"/></g><path d="m260.913 341.388h22v18.58h-22z" fill="#8399fe"/></g><g><g><path d="m332.083 341.388h22v94.6h-22z" fill="#9fb0fe"/></g><path d="m332.083 341.388h22v18.58h-22z" fill="#8399fe"/></g><g><g><path d="m403.263 341.388h22v94.6h-22z" fill="#9fb0fe"/></g><path d="m403.263 341.388h22v18.58h-22z" fill="#8399fe"/></g></g><path d="m448.041 341.385h-279.483c-2.761 0-5-2.239-5-5v-14.214c0-2.761 2.239-5 5-5h279.483c2.761 0 5 2.239 5 5v14.214c0 2.761-2.239 5-5 5z" fill="#fff"/><g><path d="m166.765 445.989v19.065c0 1.657 1.343 3 3 3h277.068c1.657 0 3-1.343 3-3v-19.065c0-5.523-4.477-10-10-10h-263.068c-5.522 0-10 4.477-10 10z" fill="#ff7eb8"/></g><g fill="#fff"><path d="m317.922 260.99h-15.965c-2.122 0-4.012-1.34-4.716-3.341s-.068-4.229 1.586-5.559c4.396-3.531 11.188-9.958 12.523-13.188.543-1.314.272-2.478-.163-3.128-.404-.605-.989-.899-1.788-.899-1.347 0-2.442 1.096-2.442 2.443 0 2.762-2.238 5-5 5s-5-2.238-5-5c0-6.861 5.582-12.443 12.442-12.443 4.149 0 7.831 1.946 10.101 5.341 2.424 3.623 2.832 8.298 1.093 12.506-1.087 2.629-3.368 5.564-5.872 8.269h3.201c2.762 0 5 2.238 5 5s-2.238 4.999-5 4.999z"/><path d="m284.704 210.077c-2.762 0-5 2.238-5 5v15.348h-16.017v-15.348c0-2.762-2.238-5-5-5-2.761 0-5 2.238-5 5v41.302c0 2.762 2.239 5 5 5 2.762 0 5-2.238 5-5v-15.954h16.017v15.954c0 2.762 2.238 5 5 5s5-2.238 5-5v-41.302c0-2.762-2.238-5-5-5z"/><path d="m351.914 261.185h-12.636c-6.063 0-10.997-4.934-10.997-10.997v-29.113c0-6.063 4.934-10.997 10.997-10.997h12.636c6.063 0 10.997 4.934 10.997 10.997v29.113c0 6.063-4.933 10.997-10.997 10.997zm-12.636-41.108c-.55 0-.997.447-.997.997v29.113c0 .55.447.997.997.997h12.636c.55 0 .997-.447.997-.997v-29.113c0-.55-.447-.997-.997-.997z"/></g><g><path d="m240.379 299.377h-11.292c-2.761 0-5-2.239-5-5s2.239-5 5-5h11.292c2.761 0 5 2.239 5 5s-2.239 5-5 5z" fill="#02ffb3"/></g><g><path d="m301.914 299.377h-41.292c-2.761 0-5-2.239-5-5s2.239-5 5-5h41.292c2.761 0 5 2.239 5 5s-2.239 5-5 5z" fill="#02ffb3"/></g><circle cx="92.034" cy="263.881" fill="#ff7eb8" r="33.075"/><path d="m448.041 312.171h-7.345c3.112-11.619 4.697-23.631 4.697-35.778 0-64.832-44.976-119.347-105.362-134.009v-13.619c0-8.271-6.729-15-15-15h-.033v-42.319c0-17.921-14.579-32.5-32.5-32.5h-185.932c-17.92 0-32.5 14.579-32.5 32.5v158.877c-11.957 6.428-20.106 19.058-20.106 33.558s8.149 27.13 20.106 33.558v133.573c-8.069.233-14.565 6.853-14.565 14.978v19.064c0 4.411 3.589 8 8 8h49.067c4.411 0 8-3.589 8-8v-19.064c0-8.271-6.729-15-15-15h-.502v-133.07c12.465-6.263 21.043-19.164 21.043-34.038s-8.579-27.776-21.043-34.038v-155.898h180.932v39.818h-.034c-8.271 0-15 6.729-15 15v13.62c-60.386 14.662-105.362 69.177-105.362 134.008 0 12.151 1.583 24.159 4.696 35.778h-5.74c-5.514 0-10 4.486-10 10v14.214c0 5.514 4.486 10 10 10h38.177v84.604h-12v-56.61c0-2.762-2.239-5-5-5s-5 2.238-5 5v56.61h-7.969c-8.271 0-15 6.729-15 15v19.064c0 4.411 3.589 8 8 8h277.067c4.411 0 8-3.589 8-8v-19.064c0-8.271-6.729-15-15-15h-9.571v-84.604h17.779c5.514 0 10-4.486 10-10v-14.214c0-5.513-4.486-9.999-10-9.999zm-333.473 133.818v17.064h-45.068v-17.064c0-2.757 2.243-5 5-5h35.067c2.758 0 5.001 2.243 5.001 5zm-15.502-15h-15v-129.878c2.571.55 5.235.845 7.968.845 2.403 0 4.751-.234 7.032-.662zm21.043-167.108c0 15.48-12.595 28.075-28.075 28.075s-28.075-12.595-28.075-28.075 12.594-28.075 28.075-28.075 28.075 12.594 28.075 28.075zm172.389-199.935h-185.932c-4.136 0-7.5 3.364-7.5 7.5v155.021c-2.281-.428-4.629-.662-7.032-.662-2.733 0-5.397.296-7.968.845v-155.204c0-12.406 10.093-22.5 22.5-22.5h185.932c12.406 0 22.5 10.094 22.5 22.5v42.318h-15v-42.318c0-4.135-3.364-7.5-7.5-7.5zm-7.534 64.819c0-2.757 2.243-5 5-5h35.067c2.757 0 5 2.243 5 5v11.583c-7.335-1.211-14.86-1.851-22.533-1.851s-15.199.64-22.534 1.851zm-29.054 217.62v47.067c-14.524-6.397-27.601-15.356-38.925-26.7-.078-.078-.169-.133-.25-.205v-20.162zm71.176 0v56.412c-12.892 1.977-26.286 1.974-39.176-.003v-56.409zm71.176 0v20.104c-11.377 11.464-24.531 20.513-39.176 26.962v-47.066zm-39.176 84.604v-26.688c14.405-5.81 27.541-13.884 39.176-24.087v50.776h-39.176zm-10 0h-12v-84.604h12zm-61.176 0v-18.089c6.461.918 13.031 1.389 19.588 1.389 6.558 0 13.126-.472 19.588-1.39v18.09zm-10 0h-12v-84.604h12zm-61.176-50.788c11.643 10.209 24.78 18.293 39.176 24.1v26.688h-39.176zm228.099 65.788v17.064h-273.067v-17.064c0-2.757 2.243-5 5-5h263.067c2.757 0 5 2.243 5 5zm-24.571-15h-12v-84.604h12zm27.779-94.604h-279.483v-14.214h218.243c2.762 0 5-2.238 5-5s-2.238-5-5-5h-202.105c-3.367-11.576-5.095-23.596-5.095-35.778 0-70.521 57.374-127.896 127.896-127.896 70.521 0 127.896 57.374 127.896 127.896 0 12.178-1.723 24.204-5.089 35.778h-10.513c-2.762 0-5 2.238-5 5s2.238 5 5 5h28.25z" fill="#2626bc"/><g><path d="m92.034 268.881c-2.761 0-5-2.239-5-5v-15.052c0-2.761 2.239-5 5-5s5 2.239 5 5v15.052c0 2.761-2.238 5-5 5z" fill="#fff"/></g></g></g><path d="m424.262 159.798c-2.762 0-5-2.238-5-5 0-3.309-2.691-6-6-6-2.762 0-5-2.238-5-5s2.238-5 5-5c3.309 0 6-2.691 6-6 0-2.762 2.238-5 5-5s5 2.238 5 5c0 3.309 2.691 6 6 6 2.762 0 5 2.238 5 5s-2.238 5-5 5c-3.309 0-6 2.691-6 6 0 2.762-2.239 5-5 5z" fill="#6583fe"/><path d="m387.673 128.765c-2.762 0-5-2.238-5-5 0-3.309-2.691-6-6-6-2.762 0-5-2.238-5-5s2.238-5 5-5c3.309 0 6-2.691 6-6 0-2.762 2.238-5 5-5s5 2.238 5 5c0 3.309 2.691 6 6 6 2.762 0 5 2.238 5 5s-2.238 5-5 5c-3.309 0-6 2.691-6 6 0 2.761-2.238 5-5 5z" fill="#ff7eb8"/><path d="m152.251 192.576c-2.761 0-5-2.238-5-5 0-3.309-2.691-6-6-6-2.761 0-5-2.238-5-5s2.239-5 5-5c3.309 0 6-2.691 6-6 0-2.762 2.239-5 5-5s5 2.238 5 5c0 3.309 2.691 6 6 6 2.761 0 5 2.238 5 5s-2.239 5-5 5c-3.309 0-6 2.691-6 6 0 2.762-2.239 5-5 5z" fill="#01eca5"/><path d="m158.783 131.795c-1.28 0-2.559-.488-3.536-1.465-1.953-1.952-1.953-5.118 0-7.071l3.328-3.326-5.002-3.173c-1.282-.813-2.125-2.165-2.292-3.673-.167-1.509.361-3.012 1.434-4.085l7.742-7.742c1.952-1.953 5.118-1.952 7.071-.001 1.953 1.953 1.953 5.119 0 7.071l-3.328 3.328 5.002 3.173c1.282.813 2.125 2.165 2.292 3.674s-.361 3.011-1.434 4.084l-7.742 7.742c-.976.976-2.256 1.464-3.535 1.464z" fill="#6583fe"/><path d="m455.573 414.289c-1.279 0-2.559-.488-3.535-1.464-1.953-1.953-1.953-5.119-.001-7.071l3.328-3.328-5.002-3.172c-1.282-.813-2.125-2.164-2.292-3.673s.36-3.012 1.434-4.085l7.741-7.742c1.953-1.953 5.118-1.952 7.071-.001 1.953 1.953 1.953 5.119.001 7.071l-3.328 3.328 5.002 3.172c1.282.813 2.125 2.164 2.292 3.673s-.36 3.012-1.434 4.085l-7.741 7.742c-.976.977-2.256 1.465-3.536 1.465z" fill="#01eca5"/></g></g></svg>