<svg id="Capa_1" enable-background="new 0 0 512 512" height="512" viewBox="0 0 512 512" width="512" xmlns="http://www.w3.org/2000/svg" xmlns:xlink="http://www.w3.org/1999/xlink"><linearGradient id="SVGID_1_" gradientUnits="userSpaceOnUse" x1="12.034" x2="499.966" y1="256" y2="256"><stop offset=".0485" stop-color="#ffdbed"/><stop offset=".9993" stop-color="#d2deff"/></linearGradient><g><g><path d="m286.593 4.867c-94.351 27.746-75.427 93.585-85.98 166.539-13.171 91.052-70.095 44.365-135.496 93.537-113.054 85.001-30.931 272.636 109.468 244.14 74.552-15.131 89.786-70.095 120.193-128.824 39.333-75.972 104.558-55.259 163.066-104.856 118.655-100.582-37.403-309.897-171.251-270.536z" fill="url(#SVGID_1_)"/></g><g><path d="m394.979 155.513c1.953 1.953 5.118 1.953 7.071 0l20.404-20.404c1.953-1.953 1.953-5.118 0-7.071l-55.146-55.146c-1.953-1.953-5.118-1.953-7.071 0l-20.404 20.404c-1.953 1.953-1.953 5.118 0 7.071l5.084 5.084-19.815 19.815c-14.57-14.569-29.14-29.14-43.71-43.707-1.87-1.88-4.41-2.93-7.07-2.93h-166.24c-11.04 0-20 8.95-20 20v369.94c0 11.05 8.96 20 20 20h291.12c11.04 0 20-8.95 20-20v-245.069c0-2.65-1.06-5.19-2.93-7.07-15.397-15.397-30.794-30.791-46.191-46.188l19.814-19.814zm-132.607-6.733h-141.91v-29.7c0-5.52 4.48-10 10-10h121.91c5.52 0 10 4.48 10 10z" fill="#2626bc" opacity=".1"/><g><path d="m416.272 192.43c-44.96-44.96-89.92-89.92-134.88-134.87-1.87-1.88-4.41-2.93-7.07-2.93h-166.24c-11.04 0-20 8.95-20 20v369.94c0 11.05 8.96 20 20 20h291.12c11.04 0 20-8.95 20-20v-245.07c0-2.65-1.06-5.19-2.93-7.07zm-153.9-67.65h-141.91v-29.7c0-5.52 4.48-10 10-10h121.91c5.52 0 10 4.48 10 10z" fill="#97ffd2"/><path d="m325.696 99.837h63.608v28.02h-63.608z" fill="#01eca5" transform="matrix(.707 .707 -.707 .707 185.211 -219.445)"/><path d="m394.979 131.513-55.146-55.146c-1.953-1.953-1.953-5.118 0-7.071l20.404-20.404c1.953-1.953 5.118-1.953 7.071 0l55.146 55.146c1.953 1.953 1.953 5.118 0 7.071l-20.404 20.404c-1.953 1.953-5.118 1.953-7.071 0z" fill="#ff7eb8"/><g><path d="m160.702 182.24 44.39 44.39c14.18-8.55 30.79-13.47 48.55-13.47s34.37 4.92 48.55 13.47l44.39-44.39 32.15 32.15-44.39 44.39c8.55 14.17 13.47 30.78 13.47 48.55s-4.92 34.38-13.47 48.55l44.39 44.39-32.15 32.15-44.39-44.39c-14.18 8.55-30.79 13.47-48.55 13.47s-34.37-4.92-48.55-13.47l-44.39 44.39-32.15-32.15 44.39-44.39c-8.55-14.17-13.47-30.78-13.47-48.55s4.92-34.38 13.47-48.55l-44.39-44.39z" fill="#01eca5"/><circle cx="253.642" cy="307.33" fill="#fff" r="71.647"/></g><g fill="#2626bc"><path d="m391.443 135.048c1.889 1.89 4.4 2.93 7.071 2.93 2.672 0 5.183-1.041 7.07-2.93l20.405-20.404c3.896-3.898 3.896-10.241-.001-14.141l-55.146-55.145c-1.889-1.89-4.399-2.931-7.071-2.931-2.671 0-5.183 1.04-7.071 2.93l-20.404 20.404c-3.896 3.898-3.896 10.241.001 14.141l1.549 1.549-12.742 12.743-40.173-40.173c-2.833-2.833-6.6-4.394-10.606-4.394h-166.24c-13.785 0-25 11.215-25 25v369.944c0 13.785 11.215 25 25 25h291.114c13.785 0 25-11.215 25-25v-245.07c0-4.008-1.561-7.775-4.394-10.606l-22.861-22.861c-1.951-1.953-5.119-1.953-7.07 0-1.953 1.952-1.953 5.118 0 7.07l22.861 22.862c.944.944 1.464 2.199 1.464 3.535v245.07c0 8.271-6.729 15-15 15h-291.114c-8.271 0-15-6.729-15-15v-369.943c0-8.271 6.729-15 15-15h166.24c1.336 0 2.592.52 3.536 1.464l88.685 88.686c1.598 1.465 4.629 2.383 7.071 0l16.277-16.278zm-21.361 4.123-37.906-37.906 12.741-12.742 37.906 37.906zm-6.31-86.743 55.146 55.146-20.4 20.407-55.15-55.15z"/><path d="m252.371 80.084h-121.906c-8.271 0-15 6.729-15 15v29.699c0 2.762 2.238 5 5 5h108.916c2.762 0 5-2.238 5-5s-2.238-5-5-5h-103.916v-24.699c0-2.757 2.243-5 5-5h121.906c2.757 0 5 2.243 5 5v29.696c0 2.762 2.238 5 5 5s5-2.238 5-5v-29.696c0-8.271-6.728-15-15-15z"/><path d="m205.918 220.385-41.681-41.68c-1.951-1.953-5.119-1.953-7.07 0-1.953 1.952-1.953 5.118 0 7.07l44.39 44.39c.964.965 2.244 1.465 3.537 1.465.887 0 1.779-.235 2.58-.718 13.835-8.343 29.73-12.752 45.968-12.752s32.133 4.409 45.968 12.752c1.969 1.186 4.493.879 6.117-.747l44.391-44.39c1.953-1.952 1.953-5.118 0-7.07-1.951-1.953-5.119-1.953-7.07 0l-41.682 41.68c-14.57-8.009-30.984-12.225-47.724-12.225s-33.154 4.216-47.724 12.225z"/><path d="m125.017 403.805c.976.977 2.256 1.465 3.535 1.465s2.56-.488 3.535-1.465l44.39-44.39c1.626-1.625 1.934-4.149.746-6.118-8.342-13.825-12.751-29.72-12.751-45.967s4.409-32.142 12.751-45.967c1.188-1.969.88-4.493-.746-6.118l-44.39-44.391c-1.951-1.953-5.119-1.953-7.07 0-1.953 1.952-1.953 5.118 0 7.07l41.68 41.681c-8.01 14.562-12.225 30.978-12.225 47.725s4.215 33.163 12.224 47.725l-41.679 41.68c-1.954 1.952-1.954 5.118 0 7.07z"/><path d="m164.237 435.955 41.681-41.68c14.57 8.009 30.984 12.225 47.724 12.225s33.153-4.216 47.724-12.225l41.682 41.68c.976.977 2.256 1.465 3.535 1.465s2.56-.488 3.535-1.465c1.953-1.952 1.953-5.118 0-7.07l-44.391-44.39c-1.624-1.627-4.148-1.933-6.117-.747-13.835 8.343-29.73 12.752-45.968 12.752s-32.133-4.409-45.968-12.752c-1.969-1.186-4.492-.878-6.117.747l-44.39 44.39c-1.953 1.952-1.953 5.118 0 7.07 1.951 1.953 5.119 1.953 7.07 0z"/><path d="m382.267 210.854c-1.951-1.953-5.119-1.953-7.07 0l-44.39 44.391c-1.626 1.625-1.934 4.149-.746 6.118 8.342 13.825 12.751 29.72 12.751 45.967s-4.409 32.142-12.751 45.967c-1.188 1.969-.88 4.493.746 6.118l44.39 44.39c.976.977 2.256 1.465 3.535 1.465s2.56-.488 3.535-1.465c1.953-1.952 1.953-5.118 0-7.07l-41.679-41.68c8.009-14.562 12.224-30.978 12.224-47.725s-4.215-33.163-12.225-47.725l41.68-41.681c1.953-1.951 1.953-5.117 0-7.07z"/><path d="m120.465 151.129h33.787c2.762 0 5-2.238 5-5s-2.238-5-5-5h-33.787c-2.762 0-5 2.238-5 5s2.238 5 5 5z"/></g><g><path d="m285.578 305.261c0 20.705-13.357 38.273-31.93 44.576-18.573-6.303-31.943-23.87-31.943-44.576 0-20.692 13.37-38.259 31.943-44.562 18.574 6.303 31.93 23.871 31.93 44.562z" fill="#02ffb3"/><g><path d="m253.642 359.96c-2.761 0-5-2.239-5-5v-65.745c0-2.761 2.239-5 5-5s5 2.239 5 5v65.745c0 2.761-2.239 5-5 5z" fill="#00b574"/></g></g></g><path d="m51.371 251.683c-1.279 0-2.559-.488-3.535-1.464-1.953-1.953-1.953-5.119-.001-7.071l3.328-3.328-5.002-3.172c-1.282-.813-2.125-2.164-2.292-3.673s.361-3.012 1.435-4.085l7.742-7.742c1.951-1.953 5.119-1.953 7.07 0 1.953 1.952 1.953 5.118 0 7.07l-3.327 3.328 5.001 3.172c1.282.813 2.125 2.164 2.292 3.673s-.36 3.012-1.434 4.085l-7.741 7.742c-.976.976-2.257 1.465-3.536 1.465z" fill="#6583fe"/><path d="m446.946 173.129c-1.279 0-2.56-.488-3.535-1.465-1.953-1.952-1.953-5.118 0-7.07l3.327-3.328-5.002-3.173c-1.282-.813-2.125-2.165-2.292-3.674s.361-3.012 1.435-4.085l7.742-7.741c1.953-1.951 5.118-1.952 7.071.001 1.952 1.952 1.952 5.118-.001 7.071l-3.327 3.326 5.002 3.173c1.282.813 2.125 2.165 2.292 3.673.167 1.509-.361 3.012-1.435 4.085l-7.742 7.742c-.975.977-2.255 1.465-3.535 1.465z" fill="#6583fe"/><path d="m447.81 388.528c-1.279 0-2.56-.488-3.535-1.465-1.953-1.952-1.953-5.118 0-7.07l3.327-3.328-5.002-3.173c-1.282-.813-2.125-2.165-2.292-3.674s.361-3.012 1.435-4.085l7.742-7.741c1.953-1.951 5.118-1.952 7.071.001 1.952 1.952 1.952 5.118-.001 7.071l-3.327 3.326 5.002 3.173c1.282.813 2.125 2.165 2.292 3.673.167 1.509-.361 3.012-1.435 4.085l-7.742 7.742c-.976.977-2.256 1.465-3.535 1.465z" fill="#01eca5"/><g fill="#ff7eb8"><path d="m460.552 338.088c-2.762 0-5-2.238-5-5 0-3.309-2.691-6-6-6-2.762 0-5-2.238-5-5s2.238-5 5-5c3.309 0 6-2.691 6-6 0-2.762 2.238-5 5-5s5 2.238 5 5c0 3.309 2.691 6 6 6 2.762 0 5 2.238 5 5s-2.238 5-5 5c-3.309 0-6 2.691-6 6 0 2.762-2.239 5-5 5z"/><path d="m53.976 194.401c-2.762 0-5-2.238-5-5 0-3.309-2.691-6-6-6-2.762 0-5-2.238-5-5s2.238-5 5-5c3.309 0 6-2.691 6-6 0-2.762 2.238-5 5-5s5 2.238 5 5c0 3.309 2.691 6 6 6 2.762 0 5 2.238 5 5s-2.238 5-5 5c-3.309 0-6 2.691-6 6 0 2.762-2.239 5-5 5z"/></g></g></g></svg>