<svg id="Capa_1" enable-background="new 0 0 512 512" height="512" viewBox="0 0 512 512" width="512" xmlns="http://www.w3.org/2000/svg" xmlns:xlink="http://www.w3.org/1999/xlink"><linearGradient id="SVGID_1_" gradientUnits="userSpaceOnUse" x1="5.399" x2="506.601" y1="256" y2="256"><stop offset="0" stop-color="#ffdbed"/><stop offset="1" stop-color="#dcfdee"/></linearGradient><g><g><path d="m461.173 27.352c-63.757-37.987-146.258-35.878-208.873 3.041-35.18 21.866-62.374 53.403-93.212 80.552-27.022 23.789-58.445 40.758-86.353 63.204-101.21 81.403-91.553 300.961 50.962 330.125 61.777 12.642 146.21 16.696 182.519-43.642 34.62-57.531 46.232-116.383 113.876-146.942 23.573-10.65 62.975-10.113 78.944-33.45 20.152-29.45-4.853-60.043-18.192-85.707-17.19-33.074-20.795-65.682-8.699-101.16 10.298-30.211 17.549-43.782-10.972-66.021z" fill="url(#SVGID_1_)"/></g><g><path d="m376.213 108.768.666-.666c10.048-10.046 10.049-26.336.002-36.383l-8.106-8.106c-2.512-2.512-6.584-2.512-9.095 0l-66.58 66.579c-22.381-12.057-49.529-12.057-71.91 0l-46.467-46.467c21.581-14.692 46.96-22.919 73.54-23.564 2.888-.07 5.438-2.185 5.679-5.064.276-3.297-2.317-6.026-5.52-6.026-.041 0-.083 0-.126.001-29.599.659-57.828 10.017-81.628 26.75-10.107-8.569-25.258-8.103-34.795 1.434l-8.106 8.107c-2.512 2.512-2.512 6.584 0 9.095l66.579 66.579c-12.057 22.381-12.057 49.529 0 71.91l-27.657 27.657c-8.015 1.055-15.592 3.482-22.495 7.043-12.233-20.248-19.039-43.429-19.576-67.595-.067-3.018-2.535-5.419-5.539-5.419-.041 0-.083 0-.126.001-3.06.068-5.486 2.604-5.418 5.665.581 26.175 7.965 51.28 21.238 73.198-17.541 12.982-28.714 34.077-27.959 57.744 1.151 36.086 30.481 65.464 66.564 66.698 8.207.281 16.099-.888 23.459-3.246l-7.254 81.902c-.259 2.924 2.045 5.441 4.98 5.441h133.162c2.936 0 5.239-2.517 4.98-5.441l-12.957-146.298c9.566-4.605 18.641-10.237 27.045-16.81l3.241 3.241c10.046 10.046 26.334 10.046 36.381 0l8.107-8.107c2.511-2.512 2.511-6.584 0-9.095l-66.579-66.579c12.057-22.381 12.057-49.529 0-71.91l44.339-44.338c14.219 19.645 23.089 42.868 25.414 67.17.275 2.867 2.688 5.014 5.511 5.014.176 0 .355-.008.535-.025 3.047-.292 5.28-2.998 4.989-6.046-2.57-26.864-12.536-52.51-28.518-74.044zm-61.514 209.666-3.211-36.255 23.412 23.412c-6.36 4.873-13.124 9.166-20.201 12.843z" fill="#2626bc" opacity=".1"/><g><circle cx="257.145" cy="170.389" fill="#ffa8cf" r="75.857"/><g><path d="m323.726 455.433h-133.162c-2.936 0-5.239-2.517-4.98-5.441l28.409-320.768c.253-2.86 2.649-5.053 5.521-5.053h75.263c2.871 0 5.267 2.193 5.521 5.053l28.409 320.768c.258 2.924-2.046 5.441-4.981 5.441z" fill="#02ffb3"/><path d="m313.749 281.113-37.421-37.422c-2.173-2.162-2.173-5.675 0-7.837l7.582-7.582s0 0 0-.011l-15.308-15.297c-.177-.177-.31-.377-.454-.565-6.784 3.979-15.23 3.979-22.003 0-.144.188-.277.388-.454.565l-15.308 15.297 7.582 7.593c2.173 2.161 2.173 5.675 0 7.837l-37.421 37.422 5.986-67.671.598-.599c2.162-2.161 5.664-2.161 7.837 0l7.582 7.582 15.308-15.308c.178-.166.366-.31.565-.454-3.99-6.773-3.99-15.219 0-21.992-.199-.144-.388-.288-.565-.455l-15.308-15.308-7.582 7.582c-1.397 1.386-3.336 1.884-5.121 1.485l4.146-46.755c.222-2.538 2.139-4.556 4.578-4.977l19.398 19.398c2.173 2.161 2.173 5.675 0 7.837l-7.582 7.593 15.308 15.297c.177.177.31.377.454.565 6.773-3.979 15.219-3.979 22.003 0 .144-.188.277-.388.454-.565l15.308-15.297-7.582-7.593c-2.173-2.162-2.173-5.675 0-7.837l19.387-19.387c2.439.41 4.356 2.427 4.578 4.966l4.146 46.755c-1.784.399-3.724-.1-5.11-1.485l-7.582-7.582-15.308 15.297c-.177.177-.366.322-.565.466 3.979 6.773 3.991 15.219 0 21.992.2.144.388.288.565.454l15.308 15.308 7.582-7.582c2.161-2.161 5.675-2.161 7.837 0l.588.588z" fill="#01eca5"/><path d="m288.223 455.433h-63.962v-38.18c0-17.663 14.318-31.981 31.981-31.981 17.663 0 31.981 14.318 31.981 31.981z" fill="#ff7eb8"/><path d="m278.2 341.254h-43.916v-26.214c0-12.127 9.831-21.958 21.958-21.958 12.127 0 21.958 9.831 21.958 21.958z" fill="#ff7eb8"/><path d="m230.396 352.314h51.693c1.837 0 3.325-1.489 3.325-3.325v-9.311c0-1.837-1.489-3.325-3.325-3.325h-51.693c-1.837 0-3.325 1.489-3.325 3.325v9.311c-.001 1.836 1.488 3.325 3.325 3.325z" fill="#ffc4df"/></g><g><circle cx="257.145" cy="170.389" fill="#ffa8cf" r="21.743"/><g fill="#8399fe"><path d="m299.329 151.211-23.007-23.007c-2.164-2.164-2.164-5.674 0-7.838l83.356-83.356c2.512-2.512 6.584-2.512 9.095 0l8.106 8.106c10.046 10.046 10.046 26.335 0 36.381l-69.713 69.713c-2.163 2.165-5.672 2.165-7.837.001z"/><path d="m214.96 189.567 23.007 23.007c2.164 2.164 2.164 5.674 0 7.838l-83.356 83.356c-2.512 2.512-6.584 2.512-9.095 0l-8.106-8.106c-10.046-10.046-10.046-26.335 0-36.381l69.713-69.713c2.164-2.166 5.673-2.166 7.837-.001z"/></g><g fill="#b7c5ff"><path d="m276.323 212.574 23.007-23.007c2.164-2.164 5.674-2.164 7.838 0l83.356 83.356c2.512 2.512 2.512 6.584 0 9.095l-8.106 8.106c-10.046 10.046-26.335 10.046-36.381 0l-69.713-69.713c-2.166-2.164-2.166-5.673-.001-7.837z"/><path d="m237.967 128.204-23.007 23.007c-2.164 2.164-5.674 2.164-7.838 0l-83.356-83.356c-2.512-2.512-2.512-6.584 0-9.095l8.106-8.106c10.046-10.046 26.335-10.046 36.381 0l69.713 69.713c2.165 2.164 2.165 5.673.001 7.837z"/></g></g><g><g><g><g><g><circle cx="171.773" cy="302.382" fill="#fff" r="68.995"/><path d="m378.772 86.678 1.645-1.645c11.979-11.98 11.979-31.473-.001-43.451l-8.106-8.106c-4.457-4.457-11.709-4.457-16.166 0l-64.013 64.011c-5.651-2.706-11.615-4.752-17.769-6.088-2.7-.591-5.361 1.127-5.946 3.825-.586 2.698 1.126 5.36 3.825 5.946 4.228.918 8.35 2.226 12.32 3.886l-11.774 11.774c-.71.711-1.289 1.502-1.754 2.34h-27.776c-.465-.838-1.044-1.629-1.754-2.34l-11.776-11.776c3.772-1.578 7.682-2.837 11.69-3.746 2.693-.61 4.381-3.288 3.771-5.981s-3.291-4.388-5.981-3.771c-5.898 1.337-11.619 3.33-17.047 5.93l-43.55-43.55c20.809-13.08 44.835-20.37 69.922-20.928 2.761-.062 4.949-2.35 4.888-5.11-.061-2.723-2.287-4.889-4.997-4.889-.037 0-.075 0-.113.001-27.697.617-54.189 8.879-76.954 23.692-5.751-5.536-13.285-8.585-21.291-8.585-8.207 0-15.923 3.196-21.726 8.999l-8.108 8.107c-4.455 4.457-4.455 11.709.001 16.166l64.007 64.006c-10.627 22.115-10.641 47.851-.004 69.988l-23.886 23.887c-8.234 1.282-16.016 3.934-23.121 7.703-10.697-19.272-16.65-40.961-17.151-63.513-.061-2.723-2.287-4.889-4.997-4.889-.037 0-.075 0-.113.001-2.761.062-4.949 2.35-4.888 5.11.542 24.365 7.017 47.789 18.647 68.572-18.719 13.44-30.947 35.376-30.947 60.126 0 40.801 33.194 73.995 73.995 73.995s73.995-33.194 73.995-73.995c0-22.612-10.206-42.875-26.242-56.459l21.976-21.976c4.11-4.109 4.11-10.797 0-14.908l-7.968-7.968 8.573-8.573c4.52 3.077 9.777 4.621 15.038 4.621s10.519-1.544 15.039-4.621l8.572 8.572-7.968 7.968c-.001 0-.001 0-.001 0-4.109 4.111-4.109 10.799.001 14.908l33.88 33.88 3.274 36.963c-14.157 6.643-29.435 10.878-45.163 12.384-2.749.264-4.764 2.705-4.501 5.454.248 2.587 2.425 4.523 4.972 4.523.159 0 .32-.007.482-.022 15.656-1.499 30.895-5.522 45.145-11.786l12.851 145.091-133.162.001 4.091-46.187c.244-2.751-1.789-5.179-4.539-5.422-2.739-.254-5.179 1.787-5.422 4.539l-4.091 46.188c-.247 2.787.695 5.569 2.585 7.633 1.889 2.064 4.578 3.248 7.376 3.248h133.162c2.798 0 5.487-1.184 7.376-3.248 1.89-2.063 2.832-4.846 2.585-7.634l-13.184-148.86c6.206-3.281 12.182-7.008 17.877-11.152l4.122 4.122c5.99 5.99 13.856 8.984 21.726 8.984 7.866 0 15.736-2.995 21.726-8.984l8.106-8.106c4.458-4.457 4.458-11.709 0-16.166l-64.005-64.005c10.615-22.099 10.626-47.878.004-69.992l41.518-41.52c12.609 18.821 20.482 40.614 22.657 63.344.248 2.587 2.425 4.523 4.972 4.523.159 0 .32-.007.482-.022 2.749-.264 4.764-2.705 4.501-5.454-2.397-25.045-11.247-49.026-25.42-69.583zm-106.589 61.602c-9.039-6.153-21.037-6.154-30.077 0l-8.573-8.573 7.968-7.968c.776-.776 1.404-1.644 1.887-2.568h27.512c.483.925 1.111 1.793 1.887 2.568l7.969 7.969zm-144.882-85.984 8.108-8.107c3.914-3.914 9.118-6.07 14.654-6.07 4.733 0 9.218 1.588 12.869 4.493-5.454 4.119-10.658 8.635-15.565 13.541-1.953 1.952-1.953 5.118 0 7.07.976.977 2.256 1.465 3.535 1.465s2.56-.488 3.535-1.465c4.948-4.948 10.22-9.468 15.761-13.554l64.232 64.233c.212.212.212.556.001.768l-23.007 23.007c-.213.211-.555.211-.768 0l-83.354-83.357c-.559-.558-.559-1.466-.001-2.024zm64.491 80.655 11.795 11.795c.868.868 1.865 1.555 2.943 2.066l-2.525 28.51c-.01.111.007.217.004.326-.141.127-.287.248-.422.383l-11.791 11.791c-7.38-17.556-7.38-37.332-.004-54.871zm43.976 159.431c0 35.287-28.708 63.995-63.995 63.995s-63.995-28.708-63.995-63.995 28.708-63.995 63.995-63.995 63.995 28.708 63.995 63.995zm-1.336-85.506-23.052 23.052c-10.535-6.705-22.861-10.83-36.096-11.452l35.374-35.374c.211-.209.557-.209.768 0l23.006 23.007c.211.211.211.555 0 .767zm-15.937-30.845c-1.218-1.219-2.685-2.098-4.284-2.6l2.409-27.202c.67-.42 1.302-.91 1.875-1.483l7.968-7.968 8.573 8.573c-6.154 9.039-6.154 21.037 0 30.077l-8.572 8.572zm26.811-3.802c-6.527-6.528-6.527-17.15 0-23.679 3.265-3.264 7.552-4.896 11.84-4.896 4.286 0 8.575 1.632 11.838 4.896 6.527 6.528 6.527 17.15 0 23.679h.001c-6.53 6.528-17.15 6.526-23.679 0zm33.948 3.199c6.153-9.039 6.153-21.037 0-30.077l8.573-8.573 7.968 7.968v.001c.578.577 1.21 1.065 1.875 1.48l2.41 27.214c-1.568.492-3.045 1.351-4.285 2.591l-7.969 7.968zm40.285 104.384-1.857-20.972 13.533 13.534c-3.769 2.678-7.668 5.158-11.676 7.438zm67.449-11.329-8.106 8.105c-8.081 8.081-21.229 8.08-29.311.001l-3.25-3.25c3.29-2.757 6.468-5.663 9.519-8.714 1.953-1.952 1.953-5.118 0-7.07-1.951-1.953-5.119-1.953-7.07 0-3.053 3.053-6.245 5.945-9.553 8.681l-59.359-59.359c-.211-.212-.211-.556.001-.768l23.006-23.006c.212-.212.558-.211.768-.001l83.356 83.356c.557.559.557 1.467-.001 2.025zm-64.494-80.66-11.792-11.792c-.135-.135-.28-.254-.421-.38-.002-.11.014-.217.004-.328l-2.526-28.516c1.064-.503 2.064-1.182 2.943-2.061l11.789-11.789c7.368 17.54 7.367 37.337.003 54.866zm-18.862-50.147c-.211.21-.557.211-.768-.001l-23.007-23.006c-.211-.212-.211-.556 0-.768l83.356-83.355c.559-.557 1.467-.557 2.025 0l8.106 8.106c8.08 8.081 8.08 21.229 0 29.311l-.591.591c-3.441-4.324-7.13-8.469-11.064-12.403-1.951-1.953-5.119-1.953-7.07 0-1.953 1.952-1.953 5.118 0 7.07 3.936 3.936 7.607 8.1 11.013 12.453z" fill="#2626bc"/></g></g></g></g><g><g><g><path d="m182.192 287.735c-6.547 0-10.077-2.033-12.914-3.667-2.352-1.354-4.051-2.333-7.923-2.333s-5.571.979-7.923 2.333c-2.837 1.634-6.367 3.667-12.913 3.667-2.762 0-5-2.238-5-5s2.238-5 5-5c3.872 0 5.571-.979 7.923-2.333 2.837-1.634 6.367-3.667 12.913-3.667s10.076 2.033 12.913 3.667c2.352 1.354 4.051 2.333 7.924 2.333 3.871 0 5.569-.979 7.92-2.333 2.837-1.634 6.367-3.667 12.913-3.667 2.762 0 5 2.238 5 5s-2.238 5-5 5c-3.871 0-5.57.979-7.922 2.333-2.835 1.633-6.366 3.667-12.911 3.667z" fill="#9fb0fe"/></g><g><path d="m182.192 310.381c-6.547 0-10.077-2.033-12.914-3.667-2.352-1.354-4.051-2.333-7.923-2.333s-5.571.979-7.923 2.333c-2.837 1.634-6.367 3.667-12.913 3.667-2.762 0-5-2.238-5-5s2.238-5 5-5c3.872 0 5.571-.979 7.923-2.333 2.837-1.634 6.367-3.667 12.913-3.667s10.076 2.033 12.913 3.667c2.352 1.354 4.051 2.333 7.924 2.333 3.871 0 5.569-.979 7.92-2.333 2.837-1.634 6.367-3.667 12.913-3.667 2.762 0 5 2.238 5 5s-2.238 5-5 5c-3.871 0-5.57.979-7.922 2.333-2.835 1.634-6.366 3.667-12.911 3.667z" fill="#9fb0fe"/></g><g><path d="m182.192 333.029c-6.547 0-10.077-2.033-12.914-3.667-2.352-1.354-4.051-2.333-7.923-2.333s-5.571.979-7.923 2.333c-2.837 1.634-6.367 3.667-12.913 3.667-2.762 0-5-2.238-5-5s2.238-5 5-5c3.872 0 5.571-.979 7.923-2.333 2.837-1.634 6.367-3.667 12.913-3.667s10.076 2.033 12.913 3.667c2.352 1.354 4.051 2.333 7.924 2.333 3.871 0 5.569-.979 7.92-2.333 2.837-1.634 6.367-3.667 12.913-3.667 2.762 0 5 2.238 5 5s-2.238 5-5 5c-3.871 0-5.57.979-7.922 2.333-2.835 1.633-6.366 3.667-12.911 3.667z" fill="#9fb0fe"/></g></g></g></g></g><path d="m93.474 144.93c-1.279 0-2.56-.488-3.535-1.465-1.953-1.952-1.953-5.118 0-7.07l3.327-3.328-5.002-3.172c-1.282-.813-2.125-2.164-2.292-3.673s.36-3.012 1.435-4.085l7.742-7.742c1.951-1.953 5.119-1.953 7.07 0 1.953 1.952 1.953 5.118 0 7.07l-3.327 3.328 5.002 3.172c1.282.813 2.125 2.164 2.292 3.673s-.36 3.012-1.435 4.085l-7.742 7.742c-.976.976-2.256 1.465-3.535 1.465z" fill="#01eca5"/><path d="m74.802 194.401c-2.762 0-5-2.238-5-5 0-3.309-2.691-6-6-6-2.762 0-5-2.238-5-5s2.238-5 5-5c3.309 0 6-2.691 6-6 0-2.762 2.238-5 5-5s5 2.238 5 5c0 3.309 2.691 6 6 6 2.762 0 5 2.238 5 5s-2.238 5-5 5c-3.309 0-6 2.691-6 6 0 2.762-2.239 5-5 5z" fill="#ff7eb8"/><path d="m405.861 360.333c-2.762 0-5-2.238-5-5 0-3.309-2.692-6-6.001-6-2.762 0-5-2.238-5-5s2.238-5 5-5c3.309 0 6.001-2.691 6.001-6 0-2.762 2.238-5 5-5s5 2.238 5 5c0 3.309 2.691 6 5.999 6 2.762 0 5 2.238 5 5s-2.238 5-5 5c-3.308 0-5.999 2.691-5.999 6 0 2.762-2.238 5-5 5z" fill="#01eca5"/><g fill="#6583fe"><path d="m431.861 249.387c-2.762 0-5-2.238-5-5 0-3.309-2.692-6-6.001-6-2.762 0-5-2.238-5-5s2.238-5 5-5c3.309 0 6.001-2.691 6.001-6 0-2.762 2.238-5 5-5s5 2.238 5 5c0 3.309 2.691 6 5.999 6 2.762 0 5 2.238 5 5s-2.238 5-5 5c-3.308 0-5.999 2.691-5.999 6 0 2.761-2.238 5-5 5z"/><path d="m361.021 399.528c-1.279 0-2.56-.488-3.535-1.465-1.953-1.952-1.953-5.118 0-7.07l3.328-3.328-5.002-3.173c-1.282-.813-2.125-2.165-2.292-3.674s.361-3.011 1.435-4.084l7.741-7.741c1.951-1.953 5.119-1.953 7.07 0 1.953 1.952 1.953 5.118 0 7.07l-3.327 3.327 5.002 3.173c1.282.813 2.125 2.165 2.292 3.674s-.361 3.011-1.435 4.084l-7.742 7.742c-.975.977-2.255 1.465-3.535 1.465z"/></g></g></g></svg>