<svg id="Capa_1" enable-background="new 0 0 512 512" height="512" viewBox="0 0 512 512" width="512" xmlns="http://www.w3.org/2000/svg" xmlns:xlink="http://www.w3.org/1999/xlink"><linearGradient id="SVGID_1_" gradientUnits="userSpaceOnUse" x1="12.034" x2="499.966" y1="256" y2="256"><stop offset=".0485" stop-color="#ffdbed"/><stop offset=".9993" stop-color="#d2deff"/></linearGradient><g><g><path d="m286.593 4.867c-94.351 27.746-75.427 93.585-85.98 166.539-13.171 91.052-70.095 44.365-135.496 93.537-113.054 85.001-30.931 272.636 109.468 244.14 74.552-15.131 89.786-70.095 120.193-128.824 39.333-75.972 104.558-55.259 163.066-104.856 118.655-100.582-37.403-309.897-171.251-270.536z" fill="url(#SVGID_1_)"/></g><g><g><path d="m429.444 272.176h-16.65l-46.48-46.48c2.175-6.031 1.846-12.763-1.021-18.575-7.988-3.94-17.72-3.105-24.971 2.479h-26.417c-2.652 0-5.196-1.053-7.071-2.929l-11.79-11.79c-1.875-1.875-4.419-2.929-7.071-2.929h-26.973v-41.875c15.394 13.551 37.74 17.981 57.914 9.526 22.431-9.401 35.392-31.863 33.787-54.846-15.261-17.26-40.358-23.753-62.789-14.351-16.697 6.998-28.146 21.239-32.241 37.547-.525-.187-1.082-.307-1.671-.307s-1.146.12-1.671.307c-4.095-16.308-15.544-30.549-32.241-37.547-22.431-9.401-47.528-2.908-62.789 14.351-1.605 22.983 11.356 45.444 33.787 54.846 20.174 8.456 42.52 4.025 57.914-9.526v41.875h-33.41c-2.652 0-5.196 1.053-7.071 2.929l-13.883 13.883c-1.098-3.607-3.064-7.006-5.917-9.859-7.384-7.384-18.419-8.887-27.297-4.508-3.526 7.149-3.234 15.698.867 22.614h-15.864c-2.875 0-5.611 1.237-7.51 3.396l-3.734 4.247-8.619-8.619c-1.953-1.953-5.118-1.953-7.071 0l-8.929 8.929c-1.953 1.953-1.953 5.119 0 7.071l9.647 9.646-26.815 30.495h-12.838c-2.761 0-5 2.239-5 5v27.019c0 2.761 2.239 5 5 5h11.481l29.253 160.608c.433 2.377 2.503 4.104 4.919 4.104h20.244c3.12 0 5.478-2.826 4.919-5.896l-.899-4.938h88.327v5.833c0 2.76 2.23 5 5 5h20.4c2.77 0 5-2.24 5-5v-5.833h88.328l-.899 4.938c-.559 3.07 1.799 5.896 4.919 5.896h20.244c2.416 0 4.486-1.727 4.919-4.104l29.253-160.608h11.481c2.761 0 5-2.239 5-5v-27.019c-.001-2.761-2.239-5-5.001-5z" fill="#2626bc" opacity=".1"/><g><g><path d="m190.719 174.906c7.389 7.389 8.892 18.424 4.513 27.301-8.877 4.379-19.917 2.881-27.306-4.508-7.384-7.384-8.882-18.424-4.503-27.301 8.877-4.379 19.912-2.876 27.296 4.508z" fill="#00d890"/><path d="m91.909 252.139 49.007-55.731c1.899-2.159 4.635-3.396 7.51-3.396h35.821c2.652 0 5.196-1.054 7.071-2.929l19.201-19.201c1.875-1.875 4.419-2.929 7.071-2.929h70.384c2.652 0 5.196 1.054 7.071 2.929l11.79 11.79c1.875 1.875 4.419 2.929 7.071 2.929h32.17c2.652 0 5.196 1.054 7.071 2.929l66.943 66.943z" fill="#02ffb3"/><g><path d="m221.129 248.718c-7.521 7.521-18.753 9.05-27.788 4.593-4.457-9.035-2.932-20.273 4.588-27.793 7.516-7.516 18.753-9.04 27.788-4.584 4.457 9.036 2.927 20.268-4.588 27.784z" fill="#00d890"/></g><g><path d="m389.937 439.074 28.026-153.878h-323.926l28.026 153.878z" fill="#ff7eb8"/><circle cx="256" cy="355.858" fill="#ff5ba8" r="62.244"/><path d="m413.834 307.867 4.129-22.671h-323.926l4.129 22.671z" fill="#ff5ba8"/><path d="m429.444 285.196h-346.888c-2.761 0-5-2.239-5-5v-27.019c0-2.761 2.239-5 5-5h346.889c2.761 0 5 2.239 5 5v27.019c-.001 2.761-2.239 5-5.001 5z" fill="#ffc4df"/><g><path d="m148.452 449.908h-20.244c-2.416 0-4.486-1.727-4.919-4.104l-29.252-160.608h30.408l28.926 158.816c.559 3.07-1.799 5.896-4.919 5.896z" fill="#ffc4df"/><path d="m128.574 307.867-4.129-22.671h-30.408l4.129 22.671z" fill="#ffa8cf"/><path d="m363.548 449.908h20.244c2.416 0 4.486-1.727 4.919-4.104l29.253-160.608h-30.408l-28.926 158.816c-.56 3.07 1.798 5.896 4.918 5.896z" fill="#ffc4df"/><g><path d="m413.834 307.867 4.129-22.671h-30.408l-4.129 22.671z" fill="#ffa8cf"/></g></g><g><path d="m271.2 285.197v159.71c0 2.76-2.23 5-5 5h-20.4c-2.77 0-5-2.24-5-5v-159.71z" fill="#ffc4df"/></g><path d="m271.2 295.487v120.75c-4.87 1.22-9.96 1.87-15.2 1.87s-10.33-.65-15.2-1.87v-120.75c4.87-1.22 9.96-1.87 15.2-1.87s10.33.65 15.2 1.87z" fill="#ffa8cf"/><g><path d="m240.796 285.196h30.408v22.671h-30.408z" fill="#ffa8cf"/></g><g><circle cx="256" cy="334.858" fill="#fff" r="62.244"/><g><path d="m282.118 329.791c0 16.933-10.923 31.299-26.112 36.454-15.189-5.154-26.123-19.521-26.123-36.454 0-16.922 10.934-31.289 26.123-36.443 15.189 5.154 26.112 19.521 26.112 36.443z" fill="#02ffb3"/><g><path d="m256 375.488c-2.761 0-5-2.239-5-5v-50.745c0-2.761 2.239-5 5-5s5 2.239 5 5v50.745c0 2.761-2.239 5-5 5z" fill="#00b574"/></g></g></g></g><path d="m144.586 215.13-8.929 8.929c-1.953 1.953-5.118 1.953-7.071 0l-16.024-16.024c-1.953-1.953-1.953-5.118 0-7.071l8.929-8.929c1.953-1.953 5.118-1.953 7.071 0l16.024 16.024c1.953 1.952 1.953 5.118 0 7.071z" fill="#ff7eb8"/><circle cx="283.244" cy="203.898" fill="#ff7eb8" r="13.477"/><path d="m274.958 226.421h-21.159c-2.761 0-5-2.239-5-5v-8.089c0-2.761 2.239-5 5-5h21.159c2.761 0 5 2.239 5 5v8.089c0 2.761-2.238 5-5 5z" fill="#ffdbed"/><path d="m360.786 210.418c-7.389 7.389-18.424 8.892-27.301 4.513-4.379-8.877-2.881-19.917 4.508-27.306 7.384-7.384 18.424-8.882 27.301-4.503 4.379 8.877 2.876 19.912-4.508 27.296z" fill="#00d890"/><g><path d="m229.882 199.701h-5.015c-2.761 0-5-2.238-5-5s2.239-5 5-5h5.015c2.761 0 5 2.238 5 5s-2.238 5-5 5z" fill="#8399fe"/></g><g><path d="m313.244 231.421h-5.015c-2.761 0-5-2.238-5-5s2.239-5 5-5h5.015c2.761 0 5 2.238 5 5s-2.239 5-5 5z" fill="#dcfdee"/></g><g><path d="m181.834 222.376h-5.015c-2.761 0-5-2.238-5-5s2.239-5 5-5h5.015c2.761 0 5 2.238 5 5s-2.239 5-5 5z" fill="#6583fe"/></g></g><g><g><g><path d="m222.088 66.406c-22.431-9.402-47.528-2.909-62.789 14.351-1.605 22.983 11.356 45.444 33.787 54.846 22.417 9.395 47.519 2.888 62.781-14.372 1.605-22.983-11.362-45.43-33.779-54.825z" fill="#02ffb3"/><path d="m257.799 116.62-32.184-13.489-2.501-13.56c-.501-2.716-3.11-4.515-5.824-4.01-2.716.501-4.511 3.108-4.01 5.824l1.315 7.127-27.108-11.362c-2.545-1.066-5.476.132-6.544 2.679-1.067 2.547.132 5.477 2.679 6.544l11.203 4.696-4.76 3.582c-2.207 1.66-2.65 4.795-.99 7.001.983 1.307 2.482 1.994 4 1.994 1.046 0 2.102-.327 3.002-1.005l9.43-7.095 48.427 20.297c.631.265 1.286.39 1.931.39 1.954 0 3.811-1.153 4.613-3.068 1.067-2.548-.132-5.477-2.679-6.545z" fill="#00b574"/></g></g><g><g><path d="m289.912 66.406c22.431-9.402 47.528-2.909 62.789 14.351 1.605 22.983-11.356 45.444-33.787 54.846-22.417 9.395-47.519 2.888-62.781-14.372-1.605-22.983 11.362-45.43 33.779-54.825z" fill="#02ffb3"/><path d="m331.057 89.829c-1.068-2.548-3.998-3.745-6.544-2.679l-27.107 11.361 1.315-7.127c.501-2.716-1.294-5.323-4.01-5.824-2.715-.504-5.323 1.295-5.824 4.01l-2.501 13.56-32.184 13.489c-2.547 1.067-3.746 3.997-2.679 6.544.803 1.916 2.659 3.068 4.613 3.068.644 0 1.299-.125 1.931-.39l48.427-20.297 9.43 7.095c.9.678 1.956 1.005 3.002 1.005 1.518 0 3.017-.688 4-1.994 1.66-2.206 1.217-5.341-.99-7.001l-4.76-3.582 11.203-4.696c2.546-1.065 3.745-3.995 2.678-6.542z" fill="#00b574"/><path d="m429.444 243.177h-14.591c-.02-.021-.034-.046-.054-.066l-42.839-42.839c1.512-6.363.854-13.207-2.182-19.361-.486-.986-1.285-1.785-2.272-2.272-9.384-4.629-20.363-3.73-28.8 1.972-.03-.001-.059-.009-.089-.009h-24.71c-1.335 0-2.591-.521-3.536-1.464l-11.789-11.79c-2.833-2.834-6.601-4.395-10.607-4.395h-26.975v-30.42c10.581 8.077 23.455 12.373 36.557 12.373 7.834-.001 15.748-1.53 23.29-4.691 23.837-9.99 38.643-34.024 36.842-59.806-.077-1.098-.513-2.139-1.242-2.964-17.112-19.353-44.626-25.641-68.468-15.649-14.677 6.151-25.92 17.631-31.979 31.559-6.059-13.928-17.302-25.408-31.979-31.559-23.842-9.992-51.355-3.704-68.468 15.649-.729.825-1.166 1.866-1.242 2.964-1.8 25.781 13.005 49.815 36.842 59.806 7.543 3.162 15.454 4.691 23.29 4.691 13.101-.001 25.976-4.296 36.557-12.373v30.42h-33.41c-4.007 0-7.774 1.561-10.607 4.395l-8.844 8.843c-1.108-1.726-2.403-3.338-3.885-4.82-8.714-8.714-21.993-10.907-33.044-5.457-.987.487-1.786 1.286-2.272 2.272-3.05 6.184-3.731 13.251-2.066 19.826h-8.446c-4.312 0-8.417 1.857-11.264 5.095l-.214.243-4.85-4.85c-1.889-1.89-4.4-2.93-7.071-2.93s-5.183 1.04-7.071 2.93l-8.93 8.929c-3.897 3.898-3.897 10.243 0 14.142l6.331 6.331-22.226 25.276h-10.575c-5.514 0-10 4.486-10 10v27.019c0 5.514 4.486 10 10 10h7.31l28.504 156.503c.867 4.756 5.004 8.208 9.838 8.208h20.244c2.974 0 5.773-1.31 7.678-3.594 1.905-2.283 2.693-5.271 2.16-8.198l-27.852-152.921h75.35c-10.584 11.886-17.032 27.532-17.032 44.662 0 30.041 19.804 55.539 47.04 64.138v35.079h-50.628c-2.761 0-5 2.238-5 5s2.239 5 5 5h50.628v.834c0 5.514 4.486 10 10 10h20.408c5.514 0 10-4.486 10-10v-.834h77.385c-.221 2.612.583 5.206 2.28 7.24 1.905 2.284 4.704 3.594 7.678 3.594h20.244c4.834 0 8.972-3.452 9.838-8.209l28.505-156.504h7.31c5.514 0 10-4.486 10-10v-27.019c0-5.513-4.486-9.999-10-9.999zm-137.6-172.159c19.358-8.114 41.623-3.359 55.959 11.792.751 20.853-11.466 40.068-30.822 48.182-19.35 8.107-41.61 3.344-55.951-11.813-.022-.614-.031-1.226-.031-1.836v-.199c.087-20.051 12.126-38.281 30.845-46.126zm-40.875 48.161c-14.341 15.158-36.602 19.923-55.951 11.813-19.356-8.113-31.574-27.329-30.822-48.182 14.335-15.151 36.6-19.907 55.959-11.792 18.719 7.846 30.758 26.075 30.844 46.125v.199c.001.611-.008 1.223-.03 1.837zm110.532 67.735c2.634 6.859 1.022 14.695-4.251 19.969-5.276 5.275-13.115 6.888-19.973 4.255-2.637-6.862-1.024-14.702 4.251-19.978 5.274-5.272 13.111-6.879 19.973-4.246zm-194.285-12.725c6.86-2.634 14.694-1.021 19.967 4.251 1.504 1.504 2.715 3.209 3.622 5.083l-3.023 3.023c-.944.944-2.2 1.465-3.535 1.465h-16.865c-1.799-4.405-1.867-9.373-.166-13.822zm-42.189 21.381 16.028 16.02-8.933 8.934-16.024-16.024zm-2.583 29.417 2.607 2.607c1.889 1.89 4.4 2.93 7.071 2.93s5.183-1.04 7.071-2.93l8.929-8.929c3.897-3.898 3.897-10.243 0-14.142l-4.088-4.088.638-.725c.949-1.079 2.317-1.698 3.754-1.698h35.821c4.007 0 7.774-1.561 10.607-4.395l19.201-19.2c.944-.944 2.2-1.465 3.535-1.465h70.384c1.335 0 2.591.521 3.536 1.465l11.79 11.791c2.833 2.833 6.6 4.393 10.606 4.393h15.688c-4.435 8.08-4.819 17.976-.594 26.542.486.986 1.285 1.785 2.272 2.272 4.048 1.996 8.395 2.968 12.708 2.968 7.46 0 14.817-2.905 20.341-8.43 1.22-1.22 2.299-2.538 3.26-3.919l33.142 33.142h-294.275zm26.019 219.92-20.255.001-28.178-154.713h20.244zm50.293-110.05c0-31.564 25.68-57.244 57.244-57.244s57.244 25.68 57.244 57.244-25.68 57.244-57.244 57.244-57.244-25.679-57.244-57.244zm47.04 110.051v-43.58c3.328.509 6.736.773 10.204.773s6.876-.264 10.204-.773v43.58zm137.996 0-20.244-.001 23.183-127.284c.495-2.716-1.306-5.319-4.023-5.814-2.717-.503-5.321 1.307-5.815 4.023l-21.536 118.242h-79.153v-35.079c27.236-8.599 47.04-34.097 47.04-64.138 0-17.13-6.448-32.776-17.032-44.662h105.759zm45.652-164.713h-134.353c-11.025-7.907-24.519-12.582-39.091-12.582s-28.066 4.675-39.091 12.582h-134.353v-27.019h346.889v27.019z" fill="#2626bc"/></g></g></g></g></g><path d="m119.909 138.909c-2.761 0-5-2.238-5-5 0-3.309-2.691-6-6-6-2.761 0-5-2.238-5-5s2.239-5 5-5c3.309 0 6-2.691 6-6 0-2.762 2.239-5 5-5s5 2.238 5 5c0 3.309 2.691 6 6 6 2.761 0 5 2.238 5 5s-2.239 5-5 5c-3.309 0-6 2.691-6 6 0 2.762-2.239 5-5 5z" fill="#01eca5"/><path d="m75.556 199.701c-2.761 0-5-2.238-5-5 0-3.309-2.691-6-6-6-2.761 0-5-2.238-5-5s2.239-5 5-5c3.309 0 6-2.691 6-6 0-2.762 2.239-5 5-5s5 2.238 5 5c0 3.309 2.691 6 6 6 2.761 0 5 2.238 5 5s-2.239 5-5 5c-3.309 0-6 2.691-6 6 0 2.762-2.239 5-5 5z" fill="#ff7eb8"/><path d="m418.722 199.701c-1.28 0-2.559-.488-3.536-1.464-1.953-1.953-1.953-5.119 0-7.071l3.328-3.328-5.002-3.173c-1.282-.813-2.125-2.165-2.292-3.674s.361-3.011 1.434-4.084l7.742-7.742c1.954-1.951 5.119-1.951 7.071.001 1.953 1.952 1.953 5.118 0 7.071l-3.328 3.326 5.002 3.173c1.282.813 2.125 2.165 2.292 3.673.167 1.509-.361 3.012-1.434 4.085l-7.742 7.742c-.975.977-2.255 1.465-3.535 1.465z" fill="#6583fe"/><path d="m436.977 434.102c-1.28 0-2.559-.488-3.536-1.465-1.953-1.952-1.953-5.118 0-7.071l3.328-3.326-5.002-3.173c-1.282-.813-2.125-2.165-2.292-3.674-.167-1.508.361-3.011 1.434-4.084l7.742-7.742c1.953-1.953 5.118-1.953 7.071 0 1.953 1.952 1.953 5.118 0 7.07l-3.328 3.328 5.002 3.173c1.282.813 2.125 2.165 2.292 3.674s-.361 3.011-1.434 4.084l-7.742 7.742c-.976.975-2.256 1.464-3.535 1.464z" fill="#01eca5"/><path d="m80.951 111.001c-1.28 0-2.559-.488-3.536-1.465-1.953-1.952-1.953-5.118 0-7.07l3.328-3.328-5.003-3.173c-1.282-.813-2.125-2.165-2.292-3.673-.167-1.509.361-3.012 1.434-4.085l7.742-7.742c1.953-1.953 5.118-1.953 7.071 0 1.953 1.952 1.953 5.118 0 7.07l-3.328 3.328 5.003 3.173c1.282.813 2.125 2.165 2.292 3.674.167 1.508-.361 3.011-1.434 4.084l-7.742 7.742c-.976.977-2.256 1.465-3.535 1.465z" fill="#ff7eb8"/></g></g></svg>