<svg id="Capa_1" enable-background="new 0 0 512 512" height="512" viewBox="0 0 512 512" width="512" xmlns="http://www.w3.org/2000/svg" xmlns:xlink="http://www.w3.org/1999/xlink"><linearGradient id="SVGID_1_" gradientUnits="userSpaceOnUse" x1="5.399" x2="506.601" y1="256" y2="256"><stop offset="0" stop-color="#ffdbed"/><stop offset="1" stop-color="#dcfdee"/></linearGradient><g><g><path d="m461.173 27.352c-63.757-37.987-146.258-35.878-208.873 3.041-35.18 21.866-62.374 53.403-93.212 80.552-27.022 23.789-58.445 40.758-86.353 63.204-101.21 81.403-91.553 300.961 50.962 330.125 61.777 12.642 146.21 16.696 182.519-43.642 34.62-57.531 46.232-116.383 113.876-146.942 23.573-10.65 62.975-10.113 78.944-33.45 20.152-29.45-4.853-60.043-18.192-85.707-17.19-33.074-20.795-65.682-8.699-101.16 10.298-30.211 17.549-43.782-10.972-66.021z" fill="url(#SVGID_1_)"/></g><g><g><g fill="#2626bc" opacity=".1"><path d="m431.69 216.274-58.581-33.744c-1.521-.876-3.464-.353-4.341 1.168l-2.161 3.752-10.757-6.196c-.3-.172-.61-.31-.926-.415.057-.485.095-.976.095-1.476 0-5.147-3.12-9.563-7.57-11.467.066-.324.101-.659.101-1.002v-12.414h4.329c1.755 0 3.178-1.423 3.178-3.178v-27.672c25.909 5.788 44.611 29.055 44.611 55.734 0 2.762 2.239 5 5 5s5-2.238 5-5c0-31.753-22.546-59.408-53.61-65.759-.336-.069-.671-.101-1.001-.102v-10.915c21.295 3.444 40.345 15.724 52.35 33.807.962 1.45 2.551 2.235 4.17 2.235.95 0 1.91-.271 2.761-.835 2.3-1.527 2.927-4.631 1.4-6.932-13.704-20.643-35.548-34.602-59.932-38.297-.316-.049-.629-.06-.938-.05-1.083-7.08-7.182-12.51-14.565-12.51h-6.575c-2.037 0-3.688 1.651-3.688 3.688v67.606c0 1.755 1.423 3.178 3.178 3.178h4.33v12.414c0 .343.035.678.101 1.002-4.451 1.904-7.57 6.32-7.57 11.468 0 .5.038.99.095 1.474-.316.105-.626.243-.926.415l-10.758 6.195-2.161-3.752c-.876-1.521-2.819-2.044-4.341-1.168l-43.278 24.924-37.214-21.436c-1.981-1.141-4.512-.46-5.653 1.521l-3.569 6.196-14.01-8.07c-.228-.131-.467-.224-.705-.316.242-1.115.377-2.269.377-3.456 0-7.252-4.755-13.389-11.316-15.474.039-.251.077-.503.077-.765v-16.167h7.15c2.286 0 4.139-1.853 4.139-4.139v-37.586c34.599 7.568 59.61 38.569 59.61 74.132 0 2.762 2.239 5 5 5s5-2.238 5-5c0-40.637-28.854-76.03-68.608-84.157-.336-.069-.671-.102-1.002-.103v-17.27c28.246 4.497 53.521 20.766 69.436 44.737.962 1.45 2.551 2.235 4.17 2.235.95 0 1.911-.271 2.761-.835 2.3-1.527 2.927-4.631 1.4-6.932-17.613-26.529-45.685-44.468-77.018-49.216-.277-.043-.549-.046-.82-.043-.722-9.953-9.005-17.809-19.142-17.809h-8.562c-2.653 0-4.803 2.15-4.803 4.803v88.043c0 2.286 1.853 4.139 4.139 4.139h7.15v16.167c0 .262.038.514.077.765-6.561 2.086-11.316 8.223-11.316 15.474 0 1.186.135 2.34.377 3.454-.238.092-.477.185-.705.317l-14.01 8.068-3.568-6.197c-1.141-1.981-3.672-2.662-5.653-1.521l-32.62 18.785c-.026-.112-.034-.224-.068-.335-2.264-7.277-3.412-14.872-3.412-22.571 0-19.579 7.434-38.167 20.932-52.339 1.904-1.999 1.828-5.164-.172-7.068s-5.165-1.828-7.069.172c-15.277 16.039-23.69 37.076-23.69 59.235 0 8.707 1.3 17.301 3.863 25.542.263.845.735 1.564 1.335 2.133l-15.416 8.878c-4.438-11.66-6.702-23.951-6.702-36.553 0-2.762-2.239-5-5-5s-5 2.238-5 5c0 14.105 2.572 27.866 7.644 40.899.102.262.226.509.365.743-8.249 5.597-10.913 16.685-5.859 25.462l4.273 7.42c1.324 2.299 4.261 3.089 6.56 1.765l76.296-43.936c1.981-1.141 2.662-3.672 1.521-5.653l-3.568-6.196 14.01-8.068c.232-.134.437-.296.639-.459 1.888 1.725 4.179 3.006 6.722 3.689-.49.773-.784 1.684-.784 2.667v39.573h-2.212c-1.657 0-3 1.343-3 3v27.127h-5.712v176.022h-3.144c-8.284 0-15 6.716-15 15v9.456c0 2.761 2.239 5 5 5h58.137c2.761 0 5-2.239 5-5v-9.456c0-8.284-6.716-15-15-15h-3.144v-176.021h-5.712v-27.127c0-1.657-1.343-3-3-3h-2.212v-39.573c0-.983-.294-1.894-.784-2.667 2.543-.683 4.833-1.963 6.721-3.688.202.163.407.325.639.459l14.009 8.07-3.569 6.195c-1.141 1.981-.46 4.512 1.521 5.653l32.602 18.779c-.091.085-.192.153-.277.247-5.016 5.45-10.78 10.129-17.132 13.906-2.374 1.411-3.154 4.479-1.743 6.854.935 1.572 2.597 2.445 4.303 2.445.869 0 1.75-.227 2.55-.703 7.187-4.273 13.708-9.566 19.38-15.73.609-.662.983-1.447 1.171-2.265l15.444 8.896c-9.888 12.166-22.577 22.051-36.755 28.602-2.506 1.158-3.6 4.13-2.441 6.637.844 1.827 2.652 2.903 4.542 2.903.702 0 1.416-.148 2.095-.462 15.809-7.306 29.937-18.379 40.856-32.024.177-.221.318-.458.452-.698 8.987 4.35 19.935 1.094 24.997-7.693l4.274-7.419c1.324-2.299.534-5.236-1.765-6.56l-14.016-8.074 30.702-17.68c1.521-.876 2.044-2.819 1.168-4.34l-2.16-3.752 10.758-6.195c.302-.174.578-.375.829-.598.947.712 1.996 1.291 3.124 1.713-.397.717-.643 1.529-.643 2.406v30.387h-.538c-1.272 0-2.304 1.031-2.304 2.304v20.828h-4.388v29.455c-32.268 5.775-56.766 33.964-56.766 67.893s24.498 62.117 56.766 67.893v40.58h24.46v-40.58c32.267-5.776 56.764-33.964 56.764-67.892s-24.497-62.116-56.764-67.892v-29.455h-4.389v-20.83c0-1.272-1.031-2.304-2.304-2.304h-.538v-30.386c0-.877-.246-1.69-.643-2.406 1.128-.422 2.177-1 3.123-1.712.251.223.527.424.829.598l10.757 6.196-2.161 3.751c-.876 1.521-.353 3.464 1.168 4.341l48.993 28.221c7.06 4.067 16.081 1.64 20.148-5.42l3.282-5.697c1.015-1.766.408-4.021-1.357-5.038z"/><path d="m357.191 452.782h-29.284c-6.361 0-11.518 5.157-11.518 11.518v7.261c0 2.12 1.719 3.839 3.839 3.839h44.642c2.12 0 3.839-1.719 3.839-3.839v-7.261c0-6.362-5.157-11.518-11.518-11.518z"/></g><g><g><g><path d="m330.32 222.958h24.46v205.82h-24.46z" fill="#8399fe"/><path d="m354.78 269.658v135.83c-3.97.71-8.06 1.08-12.23 1.08s-8.26-.37-12.23-1.08v-135.83c3.97-.71 8.06-1.08 12.23-1.08s8.26.37 12.23 1.08z" fill="#6583fe"/><path d="m350.391 222.96h-15.683v-20.83c0-1.272 1.031-2.304 2.304-2.304h11.076c1.272 0 2.304 1.031 2.304 2.304v20.83z" fill="#ff7eb8"/><g><circle cx="342.549" cy="155.362" fill="#ffa8cf" r="12.469"/><g fill="#b7c5ff"><path d="m351.879 130.478h-18.659c-1.755 0-3.178-1.423-3.178-3.178v-67.605c0-2.037 1.651-3.688 3.688-3.688h6.575c8.148 0 14.753 6.605 14.753 14.753v56.54c-.001 1.755-1.424 3.178-3.179 3.178z"/><path d="m316.33 159.695 9.312 16.17c.876 1.521.353 3.465-1.168 4.341l-58.585 33.737c-1.765 1.017-4.02.41-5.037-1.356l-3.281-5.697c-4.066-7.061-1.638-16.081 5.423-20.147l48.997-28.215c1.519-.877 3.463-.354 4.339 1.167z"/><path d="m359.455 175.867 9.313-16.169c.876-1.521 2.82-2.044 4.341-1.168l58.581 33.744c1.765 1.017 2.372 3.272 1.355 5.037l-3.282 5.697c-4.067 7.06-13.087 9.487-20.148 5.42l-48.993-28.221c-1.521-.876-2.043-2.819-1.167-4.34z"/></g></g><path d="m364.87 451.4h-44.642c-2.12 0-3.839-1.719-3.839-3.839v-7.261c0-6.361 5.157-11.518 11.518-11.518h29.284c6.361 0 11.518 5.157 11.518 11.518v7.261c0 2.12-1.719 3.839-3.839 3.839z" fill="#02ffb3"/></g><g><path d="m175.773 245.922h31.849v176.022h-31.849z" fill="#8399fe"/><path d="m201.91 245.922h-20.424v-27.127c0-1.657 1.343-3 3-3h14.424c1.657 0 3 1.343 3 3z" fill="#ff7eb8"/><g><circle cx="191.698" cy="157.888" fill="#ffa8cf" r="16.239"/><g fill="#b7c5ff"><path d="m203.848 125.482h-24.3c-2.286 0-4.139-1.853-4.139-4.139v-88.043c0-2.653 2.151-4.803 4.803-4.803h8.562c10.611 0 19.213 8.602 19.213 19.213v73.633c0 2.286-1.853 4.139-4.139 4.139z"/><path d="m157.552 163.531 12.127 21.058c1.141 1.981.46 4.512-1.521 5.653l-76.296 43.936c-2.299 1.324-5.236.533-6.559-1.765l-4.273-7.42c-5.295-9.195-2.134-20.943 7.062-26.238l63.809-36.745c1.979-1.141 4.51-.46 5.651 1.521z"/><path d="m213.714 184.592 12.129-21.057c1.141-1.981 3.672-2.662 5.653-1.521l76.291 43.945c2.299 1.324 3.089 4.261 1.765 6.56l-4.274 7.419c-5.296 9.195-17.044 12.355-26.239 7.059l-63.805-36.752c-1.98-1.141-2.661-3.672-1.52-5.653z"/></g></g><path d="m220.766 451.4h-58.137c-2.761 0-5-2.239-5-5v-9.456c0-8.284 6.716-15 15-15h38.137c8.284 0 15 6.716 15 15v9.456c0 2.761-2.238 5-5 5z" fill="#02ffb3"/></g></g><g><circle cx="342.549" cy="320.306" fill="#fff" r="68.995"/><path d="m434.186 187.94-58.582-33.743c-3.908-2.25-8.918-.902-11.168 3.005l-2.161 3.752-2.74-1.578c.305-1.291.484-2.63.484-4.013 0-7.895-5.267-14.575-12.469-16.732v-3.152h4.33c4.509 0 8.178-3.669 8.178-8.179v-26.311c23.28 7.496 39.611 29.445 39.611 54.374 0 2.762 2.239 5 5 5s5-2.238 5-5c0-30.371-20.634-56.979-49.611-64.796v-10.99c19.258 4.443 36.294 16.162 47.35 32.817.962 1.45 2.551 2.235 4.17 2.235.95 0 1.91-.271 2.761-.835 2.3-1.527 2.927-4.631 1.4-6.932-12.916-19.456-33.065-32.971-55.755-37.555-.748-10.214-9.278-18.302-19.68-18.302h-6.574c-4.791 0-8.688 3.897-8.688 8.688v67.607c0 4.51 3.669 8.179 8.178 8.179h4.33v3.152c-7.202 2.156-12.469 8.837-12.469 16.732 0 1.382.178 2.721.483 4.012l-2.741 1.579-2.157-3.745c-1.093-1.9-2.858-3.26-4.972-3.826-2.109-.567-4.315-.274-6.198.815l-40.785 23.483-34.718-19.998c-2.115-1.219-4.579-1.542-6.937-.907-2.358.634-4.327 2.148-5.545 4.264l-3.569 6.196-5.873-3.383c.556-1.894.868-3.892.868-5.964 0-9.986-6.937-18.363-16.239-20.62v-6.786h7.15c5.04 0 9.14-4.1 9.14-9.14v-36.319c31.984 9.333 54.609 39.038 54.609 72.865 0 2.762 2.239 5 5 5s5-2.238 5-5c0-39.26-26.935-73.621-64.609-83.233v-17.374c26.215 5.532 49.466 21.267 64.436 43.814.962 1.45 2.551 2.235 4.17 2.235.95 0 1.911-.271 2.761-.835 2.3-1.527 2.927-4.631 1.4-6.932-16.815-25.327-43.165-42.815-72.782-48.48-.334-13.062-11.056-23.587-24.198-23.587h-8.563c-5.405 0-9.803 4.397-9.803 9.804v26.791c0 2.762 2.239 5 5 5s5-2.238 5-5v-26.595h8.366c7.837 0 14.213 6.376 14.213 14.213v72.772h-22.579v-27.4c0-2.762-2.239-5-5-5s-5 2.238-5 5v28.261c0 5.04 4.1 9.14 9.14 9.14h7.15v6.786c-9.302 2.258-16.239 10.634-16.239 20.62 0 2.071.312 4.068.867 5.961l-5.873 3.382-3.568-6.196c-2.515-4.367-8.115-5.874-12.481-3.359l-31.469 18.122c-1.412-5.836-2.136-11.839-2.136-17.91 0-19.579 7.434-38.167 20.932-52.339 1.904-1.999 1.828-5.164-.172-7.068-2-1.905-5.165-1.829-7.069.172-15.277 16.039-23.69 37.076-23.69 59.235 0 7.846 1.065 15.598 3.149 23.085l-15.055 8.669c-3.318-10.216-5.015-20.868-5.015-31.754 0-2.762-2.239-5-5-5s-5 2.238-5 5c0 12.66 2.078 25.04 6.17 36.867-11.143 6.812-14.908 21.349-8.353 32.732l4.273 7.42c1.812 3.146 5.117 4.909 8.512 4.909 1.658 0 3.338-.421 4.875-1.306l76.295-43.937c2.116-1.218 3.631-3.188 4.265-5.545.635-2.357.313-4.821-.905-6.937l-3.568-6.196 5.887-3.39c2.767 2.907 6.342 5.023 10.367 6v32.287h-2.212c-4.411 0-8 3.589-8 8v22.127h-.712c-2.761 0-5 2.238-5 5v171.116c-10.16.94-18.145 9.504-18.145 19.906v9.455c0 5.514 4.486 10 10 10h58.138c5.514 0 10-4.486 10-10v-9.455c0-10.402-7.984-18.966-18.145-19.906v-171.114c0-2.762-2.239-5-5-5h-.712v-22.127c0-4.411-3.589-8-8-8h-2.212v-32.287c4.024-.976 7.599-3.092 10.365-5.998l5.887 3.391-3.569 6.195c0 .001 0 .001-.001.002-2.513 4.366-1.007 9.964 3.359 12.48l31.452 18.116c-4.178 4.003-8.787 7.523-13.764 10.482-2.374 1.411-3.154 4.479-1.743 6.854.935 1.572 2.597 2.445 4.303 2.445.869 0 1.75-.227 2.55-.703 6.464-3.844 12.383-8.518 17.637-13.903l15.059 8.674c-9.346 10.398-20.811 18.889-33.455 24.732-2.506 1.158-3.6 4.13-2.441 6.637.844 1.827 2.652 2.903 4.542 2.903.702 0 1.416-.148 2.095-.462 14.517-6.708 27.608-16.601 38.107-28.738 3.652 1.984 7.601 2.941 11.507 2.941 8.383 0 16.546-4.353 21.023-12.123l4.273-7.419c1.307-2.27 1.652-4.912.972-7.44s-2.305-4.641-4.574-5.948l-6.49-3.738 23.182-13.351c3.899-2.257 5.244-7.268 2.998-11.173l-2.159-3.747 2.748-1.582c1.959 1.854 4.338 3.264 6.987 4.058v22.733h-.538c-4.027 0-7.304 3.276-7.304 7.304v15.892c-2.468.306-4.386 2.387-4.386 4.938v25.397c-32.516 7.787-56.767 37.08-56.767 71.949 0 13.286 3.576 26.331 10.341 37.724 1.41 2.374 4.478 3.157 6.852 1.746 2.375-1.409 3.156-4.478 1.747-6.852-5.848-9.849-8.939-21.128-8.939-32.618 0-35.287 28.708-63.995 63.995-63.995s63.995 28.708 63.995 63.995-28.708 63.995-63.995 63.995c-11.9 0-23.522-3.298-33.608-9.537-2.349-1.452-5.43-.727-6.882 1.621-1.453 2.349-.727 5.431 1.622 6.883 6.718 4.156 14.025 7.176 21.641 8.998v31.739c-7.881 1.247-13.933 8.069-13.933 16.296v7.261c0 4.874 3.965 8.839 8.839 8.839h44.642c4.874 0 8.839-3.965 8.839-8.839v-7.262c0-8.227-6.052-15.048-13.933-16.296v-31.75c32.516-7.787 56.767-37.08 56.767-71.949s-24.251-64.162-56.767-71.949v-25.396c0-2.552-1.918-4.632-4.386-4.938v-15.892c0-4.027-3.276-7.304-7.304-7.304h-.538v-22.733c2.649-.793 5.027-2.203 6.986-4.056l2.748 1.583-2.161 3.751c-1.09 1.894-1.378 4.098-.811 6.207s1.923 3.871 3.815 4.962l48.993 28.222c3.099 1.784 6.483 2.632 9.826 2.632 6.839 0 13.499-3.551 17.15-9.89l3.282-5.697c2.393-4.151.961-9.473-3.19-11.867zm-99.145-126.933h5.263c5.378 0 9.753 4.375 9.753 9.753v23.74.016 30.963h-15.016zm-245.505 168.741-4.175-7.25c-3.911-6.791-1.567-15.499 5.224-19.41l63.063-36.315 11.268 19.566zm113.086 187.195h-21.849v-166.021h21.849zm18.145 20.001.006 9.455h-58.144v-9.455c0-5.514 4.486-10 10-10h38.138c5.514 0 10 4.487 10 10zm-23.857-196.022h-10.424v-20.127h10.424zm-5.212-71.795c-6.197 0-11.239-5.041-11.239-11.238s5.042-11.239 11.239-11.239 11.239 5.042 11.239 11.239-5.042 11.238-11.239 11.238zm109.248 48.315c-3.912 6.792-12.619 9.135-19.411 5.222l-63.059-36.322 11.27-19.565 61.483 35.415c.046.027.092.054.139.08l13.753 7.922zm-7.172-25.325-15.045-8.666 34.177-19.678 7.496 13.011zm69.935 248.183v6.1h-42.321v-6.1c0-3.595 2.924-6.519 6.518-6.519h2.415 24.456 2.415c3.594 0 6.517 2.924 6.517 6.519zm-13.932-16.519h-14.456v-29.839c2.394.234 4.805.359 7.228.359 2.439 0 4.849-.126 7.228-.358zm-10.069-205.821v-13.134h5.683v13.134zm2.841 28.351c-2.439 0-4.849.126-7.228.358v-18.709h14.456v18.708c-2.379-.231-4.789-.357-7.228-.357zm0-83.48c-4.119 0-7.469-3.351-7.469-7.469 0-4.119 3.351-7.47 7.469-7.47s7.469 3.351 7.469 7.47c.001 4.118-3.35 7.469-7.469 7.469zm82.882 37.681c-2.685 4.66-8.659 6.271-13.32 3.584l-47.415-27.312 7.495-13.012 55.866 32.179z" fill="#2626bc"/><g fill="#9fb0fe"><path d="m352.969 305.659c-6.547 0-10.077-2.033-12.914-3.667-2.352-1.354-4.051-2.333-7.923-2.333s-5.571.979-7.923 2.333c-2.837 1.634-6.367 3.667-12.913 3.667-2.762 0-5-2.238-5-5s2.238-5 5-5c3.872 0 5.571-.979 7.923-2.333 2.837-1.634 6.367-3.667 12.913-3.667s10.076 2.033 12.913 3.667c2.352 1.354 4.051 2.333 7.924 2.333 3.871 0 5.569-.979 7.92-2.333 2.837-1.634 6.367-3.667 12.913-3.667 2.762 0 5 2.238 5 5s-2.238 5-5 5c-3.871 0-5.57.979-7.922 2.333-2.836 1.634-6.366 3.667-12.911 3.667z"/><path d="m352.969 328.305c-6.547 0-10.077-2.033-12.914-3.667-2.352-1.354-4.051-2.333-7.923-2.333s-5.571.979-7.923 2.333c-2.837 1.634-6.367 3.667-12.913 3.667-2.762 0-5-2.238-5-5s2.238-5 5-5c3.872 0 5.571-.979 7.923-2.333 2.837-1.634 6.367-3.667 12.913-3.667s10.076 2.033 12.913 3.667c2.352 1.354 4.051 2.333 7.924 2.333 3.871 0 5.569-.979 7.92-2.333 2.837-1.634 6.367-3.667 12.913-3.667 2.762 0 5 2.238 5 5s-2.238 5-5 5c-3.871 0-5.57.979-7.922 2.333-2.836 1.634-6.366 3.667-12.911 3.667z"/><path d="m352.969 350.953c-6.547 0-10.077-2.033-12.914-3.667-2.352-1.354-4.051-2.333-7.923-2.333s-5.571.979-7.923 2.333c-2.837 1.634-6.367 3.667-12.913 3.667-2.762 0-5-2.238-5-5s2.238-5 5-5c3.872 0 5.571-.979 7.923-2.333 2.837-1.634 6.367-3.667 12.913-3.667s10.076 2.033 12.913 3.667c2.352 1.354 4.051 2.333 7.924 2.333 3.871 0 5.569-.979 7.92-2.333 2.837-1.634 6.367-3.667 12.913-3.667 2.762 0 5 2.238 5 5s-2.238 5-5 5c-3.871 0-5.57.979-7.922 2.333-2.836 1.634-6.366 3.667-12.911 3.667z"/></g></g></g></g><path d="m124.486 301.196c-1.28 0-2.56-.488-3.536-1.465-1.953-1.952-1.953-5.118 0-7.071l3.327-3.327-5.002-3.172c-1.282-.813-2.125-2.165-2.292-3.673-.167-1.509.361-3.012 1.434-4.085l7.742-7.742c1.952-1.953 5.118-1.952 7.071-.001 1.953 1.953 1.953 5.119 0 7.071l-3.328 3.328 5.002 3.173c1.282.813 2.125 2.165 2.292 3.674s-.361 3.012-1.435 4.085l-7.742 7.741c-.974.976-2.253 1.464-3.533 1.464z" fill="#6583fe"/><path d="m453.358 284.578c-1.28 0-2.56-.488-3.536-1.465-1.953-1.952-1.953-5.118 0-7.071l3.327-3.326-5.002-3.173c-1.282-.813-2.125-2.165-2.292-3.673-.167-1.509.361-3.012 1.434-4.085l7.742-7.742c1.953-1.953 5.118-1.953 7.071 0 1.953 1.952 1.953 5.118 0 7.07l-3.328 3.328 5.003 3.173c1.282.813 2.125 2.165 2.292 3.674s-.361 3.012-1.435 4.085l-7.742 7.741c-.975.976-2.255 1.464-3.534 1.464z" fill="#01eca5"/><path d="m436.07 349.933c-1.28 0-2.559-.488-3.536-1.465-1.953-1.952-1.953-5.118 0-7.07l3.328-3.328-5.002-3.172c-1.282-.813-2.125-2.164-2.292-3.673s.361-3.012 1.434-4.085l7.742-7.742c1.953-1.953 5.118-1.953 7.071 0 1.953 1.952 1.953 5.118 0 7.07l-3.328 3.328 5.002 3.172c1.282.813 2.125 2.164 2.292 3.673s-.361 3.012-1.434 4.085l-7.742 7.742c-.976.976-2.255 1.465-3.535 1.465z" fill="#ff7eb8"/><path d="m105.878 361.115c-2.761 0-5-2.238-5-5 0-3.309-2.691-6-6-6-2.761 0-5-2.238-5-5s2.239-5 5-5c3.309 0 6-2.691 6-6 0-2.762 2.239-5 5-5s5 2.238 5 5c0 3.309 2.691 6 6 6 2.761 0 5 2.238 5 5s-2.239 5-5 5c-3.309 0-6 2.691-6 6 0 2.762-2.238 5-5 5z" fill="#ff7eb8"/><path d="m299.717 61.007c-2.761 0-5-2.238-5-5 0-3.309-2.691-6-6-6-2.761 0-5-2.238-5-5s2.239-5 5-5c3.309 0 6-2.691 6-6 0-2.762 2.239-5 5-5s5 2.238 5 5c0 3.309 2.691 6 6 6 2.761 0 5 2.238 5 5s-2.239 5-5 5c-3.309 0-6 2.691-6 6 0 2.762-2.238 5-5 5z" fill="#01eca5"/></g></g></svg>