<svg id="Capa_1" enable-background="new 0 0 512 512" height="512" viewBox="0 0 512 512" width="512" xmlns="http://www.w3.org/2000/svg" xmlns:xlink="http://www.w3.org/1999/xlink"><linearGradient id="SVGID_1_" gradientUnits="userSpaceOnUse" x1="45.274" x2="466.726" y1="256" y2="256"><stop offset=".0485" stop-color="#d2deff"/><stop offset=".9993" stop-color="#dcfdee"/></linearGradient><g><g><path d="m97.146 38.232c-135.328 119.538 38.831 235.409 22.243 366.028-7.375 58.072 16.054 113.588 92.705 107.244 93.413-7.732 59.504-97.209 79.066-156.778 33.66-102.501 240.73-78.56 154.895-236.448-54.778-100.758-255.766-162.321-348.909-80.046z" fill="url(#SVGID_1_)"/></g><g><g><g><g><path d="m466.384 293.904c-6.896.459-13.295-5.896-13.295-12.702v-16.563c0-7.281 5.545-12.819 12.702-13.295.921-.061 1.831.007 2.72.173v-128.087c-26.56-.01-26.56 11.86-53.13 11.86-26.56 0-26.56-11.87-53.13-11.87-26.56 0-26.56 11.87-53.13 11.87s-26.57-11.87-53.13-11.87-26.56 11.87-53.12 11.87-26.56-11.87-53.14-11.87c-26.56 0-26.56 11.87-53.12 11.87s-26.56-11.87-53.12-11.86v130.09c6.297.463 11.8 6.376 11.8 12.686v14.403c0 6.971-5.087 12.331-11.8 13.194v158.637c0 2.45 1.98 4.43 4.42 4.43h416.18c2.44 0 4.42-1.98 4.42-4.43v-158.849c-.692.15-1.399.264-2.127.313z" fill="#2626bc" opacity=".1"/><path d="m466.384 293.904c-6.896.459-13.295-5.896-13.295-12.702v-16.563c0-7.281 5.545-12.819 12.702-13.295.921-.061 1.831.007 2.72.173v-152.087c-26.56-.01-26.56 11.86-53.13 11.86-26.56 0-26.56-11.87-53.13-11.87-26.56 0-26.56 11.87-53.13 11.87s-26.57-11.87-53.13-11.87-26.56 11.87-53.12 11.87-26.56-11.87-53.14-11.87c-26.56 0-26.56 11.87-53.12 11.87s-26.561-11.87-53.121-11.86v154.09c6.297.463 11.8 6.376 11.8 12.686v14.403c0 6.971-5.087 12.331-11.8 13.194v134.637c0 2.45 1.98 4.43 4.42 4.43h416.18c2.44 0 4.42-1.98 4.42-4.43v-134.849c-.691.15-1.398.264-2.126.313z" fill="#9fb0fe"/><path d="m466.384 293.904c-6.896.459-13.295-5.896-13.295-12.702v-16.563c0-7.281 5.545-12.819 12.702-13.295.921-.061 1.831.007 2.72.173v-104.787c-26.56 0-26.56 11.87-53.13 11.87-26.56 0-26.56-11.88-53.13-11.88-26.56 0-26.56 11.88-53.13 11.88s-26.57-11.88-53.13-11.88-26.56 11.88-53.12 11.88-26.56-11.88-53.14-11.88c-26.56 0-26.56 11.88-53.12 11.88s-26.56-11.87-53.12-11.87v106.79c6.297.463 11.8 6.376 11.8 12.686v14.403c0 6.971-5.087 12.331-11.8 13.194v134.637c0 2.45 1.98 4.43 4.42 4.43h416.18c2.44 0 4.42-1.98 4.42-4.43v-134.849c-.692.15-1.399.264-2.127.313z" fill="#b7c5ff"/><path d="m466.384 293.904c-6.896.459-13.295-5.896-13.295-12.702v-16.563c0-7.281 5.545-12.819 12.702-13.295.921-.061 1.831.007 2.72.173v-57.487c-26.56 0-26.56 11.87-53.13 11.87-26.56 0-26.56-11.87-53.13-11.87-26.56 0-26.56 11.87-53.13 11.87s-26.57-11.87-53.13-11.87-26.56 11.87-53.12 11.87-26.56-11.87-53.14-11.87c-26.56 0-26.56 11.87-53.12 11.87s-26.56-11.87-53.12-11.87v59.49c6.297.463 11.8 6.376 11.8 12.686v14.403c0 6.971-5.087 12.331-11.8 13.194v134.637c0 2.45 1.98 4.43 4.42 4.43h416.18c2.44 0 4.42-1.98 4.42-4.43v-134.849c-.692.15-1.399.264-2.127.313z" fill="#8399fe"/><path d="m466.384 293.904c-6.896.459-13.295-5.896-13.295-12.702v-16.563c0-7.281 5.545-12.819 12.702-13.295.921-.061 1.831.007 2.72.173v-10.177c-26.56-.01-26.56 11.86-53.13 11.86-26.56 0-26.56-11.87-53.13-11.87-26.56 0-26.56 11.87-53.13 11.87s-26.57-11.87-53.13-11.87-26.56 11.87-53.12 11.87-26.56-11.87-53.14-11.87c-26.56 0-26.56 11.87-53.12 11.87s-26.56-11.87-53.12-11.86v12.18c6.297.463 11.8 6.376 11.8 12.686v14.403c0 6.971-5.087 12.331-11.8 13.194v134.637c0 2.45 1.98 4.43 4.42 4.43h416.18c2.44 0 4.42-1.98 4.42-4.43v-134.849c-.692.15-1.399.264-2.127.313z" fill="#6583fe"/><path d="m466.384 293.904c-3.743.249-7.331-1.518-9.837-4.266-15.43 2.852-19.333 10.862-41.166 10.862-26.56 0-26.56-11.87-53.13-11.87-26.56 0-26.56 11.87-53.13 11.87s-26.57-11.87-53.13-11.87-26.56 11.87-53.12 11.87-26.56-11.87-53.14-11.87c-26.56 0-26.56 11.87-53.12 11.87-23.279 0-26.157-9.117-44.395-11.363-2.126 2.52-5.198 4.213-8.725 4.666v134.637c0 2.45 1.98 4.43 4.42 4.43h416.18c2.44 0 4.42-1.98 4.42-4.43v-134.849c-.692.15-1.399.264-2.127.313z" fill="#b7c5ff"/><path d="m468.51 335.94v92.5c0 2.45-1.98 4.43-4.42 4.43h-416.18c-2.44 0-4.42-1.98-4.42-4.43v-92.5c26.56-.01 26.56 11.86 53.12 11.86s26.56-11.87 53.12-11.87c26.58 0 26.58 11.87 53.14 11.87s26.56-11.87 53.12-11.87 26.56 11.87 53.13 11.87 26.57-11.87 53.13-11.87c26.57 0 26.57 11.87 53.13 11.87 26.57 0 26.57-11.87 53.13-11.86z" fill="#8399fe"/><path d="m468.51 383.24v45.2c0 2.45-1.98 4.43-4.42 4.43h-416.18c-2.44 0-4.42-1.98-4.42-4.43v-45.2c26.56 0 26.56 11.87 53.12 11.87s26.56-11.88 53.12-11.88c26.58 0 26.58 11.88 53.14 11.88s26.56-11.88 53.12-11.88 26.56 11.88 53.13 11.88 26.57-11.88 53.13-11.88c26.57 0 26.57 11.88 53.13 11.88 26.57 0 26.57-11.87 53.13-11.87z" fill="#6583fe"/></g><g><g><path d="m235.94 43.13h40.12v389.74h-40.12z" fill="#fff"/><path d="m276.06 216.57v153.87c-12.86 3.36-26.65 3.53-40.12-.01v-153.87c12.86-3.36 26.65-3.53 40.12.01z" fill="#ffdbed"/></g><g><path d="m43.49 252.44h425.02v40.12h-425.02z" fill="#fff"/><g fill="#ffdbed"><path d="m204.34 252.44-12.51 30.23-50.7-21c-1.99-.83-2.94-3.12-2.11-5.12l1.7-4.11z"/><path d="m369.67 252.44c-.28 5.86-3.87 11.32-9.65 13.72l-39.85 16.51-12.51-30.23z"/></g></g><g><g><g><g><g><path d="m295.836 221.584-32.001-13.255 20.998-50.694c.827-1.997 3.116-2.945 5.113-2.118l13.923 5.767c7.987 3.309 11.781 12.466 8.472 20.453z" fill="#ff5ba8"/><path d="m216.164 323.416 32.001 13.255-20.998 50.694c-.827 1.997-3.116 2.945-5.113 2.118l-13.923-5.767c-7.987-3.309-11.78-12.466-8.472-20.453z" fill="#ff5ba8"/><path d="m216.16 323.42 32.01 13.25-13.81 33.34c-2.95-.84-5.88-1.86-8.78-3.06-8.19-3.39-15.52-8-21.85-13.52z" fill="#fe2c8f"/></g></g><g><g><path d="m306.916 312.336 13.255-32.001 50.694 20.998c1.997.827 2.945 3.116 2.118 5.113l-5.767 13.923c-3.309 7.987-12.466 11.781-20.453 8.472z" fill="#ff5ba8"/><path d="m330.22 321.99-23.3-9.65 13.25-32.01 15.05 6.23c1.03 11.7-.52 23.78-5 35.43z" fill="#fe2c8f"/><path d="m205.084 232.664-13.255 32.001-50.694-20.998c-1.997-.827-2.945-3.116-2.118-5.113l5.767-13.923c3.309-7.987 12.466-11.78 20.453-8.472z" fill="#ff5ba8"/></g></g><g><g><path d="m320.171 264.665-13.255-32.001 50.694-20.998c1.997-.827 4.286.121 5.113 2.118l5.767 13.923c3.309 7.987-.485 17.145-8.472 20.453z" fill="#ff5ba8"/><path d="m191.829 280.335 13.255 32.001-50.694 20.998c-1.997.827-4.286-.121-5.113-2.118l-5.767-13.923c-3.309-7.987.485-17.145 8.472-20.453z" fill="#ff5ba8"/><path d="m205.08 312.34-23.31 9.65c-4.27-11.13-6.06-23.24-4.99-35.42l15.05-6.24z" fill="#fe2c8f"/></g></g><g><g><path d="m263.835 336.671 32.001-13.255 20.998 50.694c.827 1.997-.121 4.286-2.118 5.113l-13.923 5.767c-7.987 3.309-17.145-.485-20.453-8.472z" fill="#ff5ba8"/><path d="m295.84 323.42 12.42 30.01c-8.89 7.75-19.38 13.39-30.62 16.57l-13.81-33.33z" fill="#fe2c8f"/><path d="m248.165 208.329-32.001 13.255-20.998-50.694c-.827-1.997.121-4.286 2.118-5.113l13.923-5.767c7.987-3.309 17.145.485 20.453 8.472z" fill="#ff5ba8"/></g></g><circle cx="256" cy="272.5" fill="#ff7eb8" r="79.504"/><g fill="#2626bc"><path d="m276.062 60.023c2.762 0 5-2.238 5-5v-11.893c0-2.762-2.238-5-5-5s-5 2.238-5 5v11.894c0 2.761 2.239 4.999 5 4.999z"/><path d="m468.513 287.563h-117.822l-10.839-4.488c.898-7.028.898-14.123 0-21.15l10.834-4.487h117.827c2.762 0 5-2.238 5-5s-2.238-5-5-5h-99.081c1.522-1.708 2.779-3.662 3.68-5.838 2.11-5.098 2.109-10.711-.003-15.804l-5.766-13.919c-.906-2.199-2.615-3.913-4.814-4.825-2.204-.915-4.63-.915-6.832-.002l-32.928 13.634c-4.334-5.603-9.35-10.619-14.954-14.953l9.144-22.076c2.112-5.099 2.113-10.714.004-15.812-2.11-5.099-6.081-9.07-11.181-11.183l-13.917-5.76c-3.973-1.647-8.474-.197-10.803 3.239v-43.973c6.843 3.053 14.082 6.124 28.058 6.124 14.353 0 21.601-3.238 28.609-6.371 6.329-2.828 12.308-5.499 24.521-5.499 12.22 0 18.2 2.672 24.531 5.501 7.008 3.131 14.254 6.369 28.599 6.369 14.35 0 21.597-3.237 28.606-6.367 6.324-2.825 12.296-5.493 24.491-5.493.009-.001.018-.007.032 0 2.761 0 4.999-2.237 5-4.998.001-2.762-2.236-5.001-4.998-5.002-.013 0-.023 0-.035 0-14.323 0-21.566 3.234-28.569 6.362-6.33 2.827-12.31 5.498-24.527 5.498-12.212 0-18.19-2.671-24.52-5.499-7.009-3.132-14.258-6.371-28.61-6.371-14.346 0-21.592 3.238-28.6 6.369-6.331 2.829-12.311 5.501-24.53 5.501-12.221 0-18.2-2.672-24.531-5.501-1.136-.508-2.316-1.023-3.526-1.533v-11.241c0-2.762-2.238-5-5-5s-5 2.238-5 5v89.794l-4.488 10.839c-7.028-.897-14.122-.897-21.15 0l-4.487-10.834v-134.684c0-2.762-2.239-5-5-5s-5 2.238-5 5v56.118c-1.218.513-2.405 1.032-3.548 1.542-6.329 2.828-12.306 5.5-24.52 5.5-12.211 0-18.19-2.671-24.52-5.498-7.012-3.133-14.262-6.372-28.621-6.372-14.347 0-21.593 3.238-28.6 6.37-6.329 2.828-12.307 5.5-24.52 5.5-12.211 0-18.188-2.67-24.517-5.497-7.003-3.129-14.243-6.363-28.57-6.363-.011 0-.023 0-.035 0-2.761.001-4.999 2.24-4.998 5.002.001 2.761 2.239 4.998 5 4.998.011.013.022.001.033 0 12.194 0 18.168 2.669 24.492 5.493 7.006 3.131 14.252 6.367 28.595 6.367 14.347 0 21.593-3.238 28.6-6.37 6.329-2.828 12.307-5.5 24.52-5.5 12.227 0 18.208 2.673 24.542 5.502 7.008 3.131 14.254 6.368 28.598 6.368 13.984 0 21.221-3.077 28.067-6.133v48.91c-1.708-1.521-3.662-2.779-5.838-3.68-5.098-2.11-10.71-2.109-15.803.003l-13.92 5.767c-2.199.905-3.912 2.614-4.825 4.813-.915 2.204-.914 4.631-.001 6.832l13.634 32.928c-5.603 4.334-10.62 9.35-14.954 14.954l-22.076-9.143c-5.099-2.112-10.714-2.112-15.812-.004-5.099 2.11-9.07 6.081-11.183 11.181l-5.758 13.915c-1.648 3.972-.2 8.474 3.238 10.805h-28.314c-2.761 0-5 2.238-5 5s2.239 5 5 5h51.985l10.837 4.487c-.898 7.028-.898 14.123 0 21.151l-10.865 4.5c-.044-.001-.084-.013-.128-.013h-117.666c-2.761 0-5 2.238-5 5s2.239 5 5 5h99.081c-1.522 1.708-2.779 3.663-3.68 5.839-2.111 5.097-2.11 10.71.002 15.802l5.767 13.922c.906 2.198 2.616 3.912 4.815 4.824 1.102.457 2.259.686 3.417.686s2.314-.229 3.414-.685l32.928-13.634c4.334 5.603 9.35 10.619 14.954 14.953l-9.143 22.076c-2.112 5.099-2.113 10.714-.003 15.812 2.11 5.099 6.081 9.07 11.18 11.183l13.917 5.76c1.112.461 2.265.679 3.401.679 2.929 0 5.726-1.467 7.401-3.954v42.046c0 2.762 2.239 5 5 5s5-2.238 5-5v-65.68l4.488-10.838c3.514.449 7.043.698 10.575.698 3.531 0 7.061-.249 10.576-.698l4.487 10.834v65.684c0 2.762 2.238 5 5 5s5-2.238 5-5v-46.938c1.708 1.522 3.662 2.779 5.838 3.68 2.548 1.055 5.225 1.582 7.9 1.582 2.678 0 5.355-.528 7.903-1.585l13.919-5.766c2.199-.906 3.913-2.615 4.825-4.814.915-2.204.915-4.631.002-6.832l-13.634-32.928c5.603-4.334 10.619-9.35 14.953-14.954l22.076 9.144c2.551 1.057 5.23 1.585 7.911 1.585 2.676 0 5.353-.527 7.9-1.581 5.099-2.11 9.07-6.081 11.183-11.181l5.76-13.917c1.646-3.972.197-8.473-3.239-10.803h94.152c2.762 0 5-2.238 5-5s-2.239-5.001-5-5.001zm-109.993-70.858 5.353 12.92c1.089 2.626 1.089 5.521.001 8.148-1.089 2.63-3.138 4.678-5.767 5.768l-20.143 8.343c-1.005-3.961-2.299-7.878-3.892-11.723-1.592-3.844-3.447-7.528-5.537-11.04zm-69.488-56.154 12.925 5.349c2.63 1.09 4.678 3.138 5.766 5.768 1.089 2.631 1.088 5.528-.002 8.16l-8.341 20.139c-3.512-2.091-7.197-3.945-11.042-5.538-3.844-1.593-7.76-2.886-11.721-3.892zm-88.827 9.429 12.92-5.353c2.626-1.087 5.52-1.089 8.148-.001 2.63 1.089 4.678 3.138 5.767 5.767l8.343 20.144c-3.961 1.005-7.878 2.299-11.722 3.891s-7.529 3.447-11.041 5.537zm-56.154 69.488 5.348-12.924c1.09-2.63 3.138-4.679 5.768-5.767s5.528-1.088 8.16.002l20.139 8.341c-2.091 3.512-3.945 7.197-5.538 11.042-1.592 3.844-2.886 7.761-3.891 11.722zm9.429 88.827-5.352-12.92c-1.089-2.626-1.089-5.521-.001-8.148 1.089-2.63 3.137-4.678 5.766-5.768l20.144-8.343c1.005 3.961 2.299 7.878 3.891 11.723 1.592 3.844 3.447 7.528 5.537 11.04zm69.488 56.154-12.924-5.349c-2.63-1.09-4.677-3.138-5.766-5.768-1.088-2.631-1.088-5.528.002-8.16l8.341-20.139c3.512 2.09 7.197 3.945 11.041 5.537 3.844 1.593 7.761 2.887 11.722 3.892zm88.827-9.429-12.92 5.353c-2.625 1.087-5.52 1.09-8.148.001-2.63-1.089-4.678-3.138-5.768-5.767l-8.343-20.144c3.962-1.005 7.879-2.299 11.723-3.892 3.844-1.592 7.528-3.447 11.04-5.537zm-27.283-33.687c-18.387 7.616-38.638 7.615-57.023 0-18.386-7.615-32.706-21.936-40.322-40.321s-7.616-38.637 0-57.023 21.935-32.705 40.321-40.321c9.193-3.808 18.852-5.712 28.511-5.712s19.318 1.904 28.512 5.712c18.386 7.616 32.705 21.936 40.321 40.321 7.615 18.386 7.615 38.638 0 57.023s-21.935 32.705-40.32 40.321zm78.089-22.876c-1.09 2.63-3.138 4.678-5.768 5.766-2.631 1.09-5.527 1.088-8.16-.002l-20.139-8.341c2.091-3.512 3.945-7.197 5.538-11.042 1.592-3.844 2.886-7.76 3.892-11.721l29.986 12.416z"/><path d="m43.487 257.438h32.847c2.761 0 5-2.238 5-5s-2.239-5-5-5h-32.847c-2.761 0-5 2.238-5 5s2.239 5 5 5z"/></g><g><circle cx="256" cy="272.5" fill="#fff" r="56.218"/></g></g></g></g></g></g><g><path d="m279.593 283.266c0 13.03-10.563 23.593-23.593 23.593s-23.593-10.563-23.593-23.593c0-9.944 13.742-32.944 20.251-43.279 1.551-2.462 5.135-2.462 6.686 0 6.507 10.336 20.249 33.335 20.249 43.279z" fill="#9fb0fe"/></g></g><path d="m439.83 86.007c-1.279 0-2.56-.488-3.535-1.465-1.953-1.952-1.953-5.118 0-7.07l3.327-3.328-5.002-3.172c-1.282-.813-2.125-2.164-2.292-3.673s.36-3.012 1.435-4.085l7.742-7.742c1.951-1.953 5.119-1.953 7.07 0 1.953 1.952 1.953 5.118 0 7.07l-3.327 3.328 5.002 3.172c1.282.813 2.125 2.164 2.292 3.673s-.36 3.012-1.435 4.085l-7.742 7.742c-.975.977-2.256 1.465-3.535 1.465z" fill="#01eca5"/><path d="m185.094 72.007c-1.28 0-2.559-.488-3.536-1.464-1.953-1.953-1.953-5.119 0-7.071l3.328-3.328-5.002-3.172c-1.282-.813-2.125-2.164-2.292-3.673s.361-3.012 1.434-4.085l7.742-7.742c1.953-1.953 5.118-1.953 7.071 0 1.953 1.952 1.953 5.118 0 7.07l-3.328 3.328 5.001 3.172c1.282.813 2.125 2.164 2.292 3.673s-.361 3.012-1.434 4.085l-7.742 7.742c-.974.977-2.254 1.465-3.534 1.465z" fill="#6583fe"/><path d="m173.87 480.091c-1.28 0-2.559-.488-3.536-1.464-1.953-1.953-1.953-5.119 0-7.071l3.328-3.328-5.002-3.172c-1.282-.813-2.125-2.164-2.292-3.673s.361-3.012 1.434-4.085l7.742-7.742c1.953-1.953 5.118-1.953 7.071 0 1.953 1.952 1.953 5.118 0 7.07l-3.328 3.328 5.001 3.172c1.282.813 2.125 2.164 2.292 3.673s-.361 3.012-1.434 4.085l-7.742 7.742c-.974.977-2.254 1.465-3.534 1.465z" fill="#6583fe"/><g fill="#ff7eb8"><path d="m387.314 72.007c-2.762 0-5-2.238-5-5 0-3.309-2.691-6-6-6-2.762 0-5-2.238-5-5s2.238-5 5-5c3.309 0 6-2.691 6-6 0-2.762 2.238-5 5-5s5 2.238 5 5c0 3.309 2.691 6 6 6 2.762 0 5 2.238 5 5s-2.238 5-5 5c-3.309 0-6 2.691-6 6 0 2.762-2.238 5-5 5z"/><path d="m121.441 479.091c-2.761 0-5-2.238-5-5 0-3.309-2.691-6-6-6-2.761 0-5-2.238-5-5s2.239-5 5-5c3.309 0 6-2.691 6-6 0-2.762 2.239-5 5-5s5 2.238 5 5c0 3.309 2.691 6 6 6 2.761 0 5 2.238 5 5s-2.239 5-5 5c-3.309 0-6 2.691-6 6 0 2.762-2.238 5-5 5z"/></g></g></g></svg>