<svg id="Capa_1" enable-background="new 0 0 512 512" height="512" viewBox="0 0 512 512" width="512" xmlns="http://www.w3.org/2000/svg" xmlns:xlink="http://www.w3.org/1999/xlink"><linearGradient id="SVGID_1_" gradientUnits="userSpaceOnUse" x1="15.63" x2="496.37" y1="256" y2="256"><stop offset="0" stop-color="#ffdbed"/><stop offset="1" stop-color="#dcfdee"/></linearGradient><g><g><path d="m20.722 179.563c26.255 85.007 107.775 89.005 182.131 93.553 244.867 14.978-63.002 218.186 146.697 238.304 77.136 7.4 157.788-56.956 145.59-140.291-11.107-75.879-121.152-121.073-121.207-191.979-.043-55.945 103.86-96.409 36.272-156.553-60.249-53.612-442.871-15.888-389.483 156.966z" fill="url(#SVGID_1_)"/></g><g><g><path d="m338.886 428.248c11.046 0 20-8.954 20-20v-235.315c0-11.046-8.954-20-20-20h-9.138v-64.077c0-5.523-4.477-10-10-10h-8.389-6.389-97.943-6.389-8.389c-5.523 0-10 4.477-10 10v64.077h-9.138c-11.046 0-20 8.954-20 20v235.316c0 11.046 8.954 20 20 20h2.243v31.497h-17.243c-2.761 0-5 2.239-5 5v11.398c0 2.761 2.239 5 5 5h195.773c2.761 0 5-2.239 5-5v-11.398c0-2.761-2.239-5-5-5h-17.243v-31.497h2.245zm-127.942-325.223h90.113l-8.085 49.908h-73.943zm-11.936 356.721v-31.497h45.167v31.497zm113.984 0h-45.167v-31.497h45.167z" fill="#2626bc" opacity=".1"/><g><path d="m265.573 128.933h-19.146v-18.736c0-1.657 1.343-3 3-3h13.146c1.657 0 3 1.343 3 3z" fill="#ff7eb8"/><g><path d="m353.887 457.144h-195.774c-2.761 0-5-2.239-5-5v-11.399c0-2.761 2.239-5 5-5h195.773c2.761 0 5 2.239 5 5v11.399c.001 2.761-2.238 5-4.999 5z" fill="#b7c5ff"/><g fill="#8399fe"><path d="m175.357 404.248h23.651v31.497h-23.651z"/><path d="m244.174 404.248h23.651v31.497h-23.651z"/><path d="m312.992 404.248h23.651v31.497h-23.651z"/></g><g fill="#6583fe"><path d="m175.357 404.248h23.651v17.044h-23.651z"/><path d="m244.175 404.248h23.651v17.044h-23.651z"/><path d="m312.992 404.248h23.651v17.044h-23.651z"/></g><path d="m338.887 404.248h-165.774c-11.046 0-20-8.954-20-20v-235.315c0-11.046 8.954-20 20-20h165.773c11.046 0 20 8.954 20 20v235.316c.001 11.045-8.954 19.999-19.999 19.999z" fill="#02ffb3"/><path d="m153.11 179.2h205.78v174.78h-205.78z" fill="#01eca5"/><g fill="#00d890"><path d="m207.24 179.2c0 26.23-21.26 47.49-47.49 47.49-2.25 0-4.47-.16-6.64-.46v-47.03z"/><path d="m153.113 179.202h205.773v14.903h-205.773z"/><path d="m153.113 339.076h205.773v14.903h-205.773z"/></g><g><path d="m200.64 54.856h110.72v24.169h-110.72z" fill="#01eca5"/><g fill="#02ffb3"><path d="m219.028 128.933h-36.777v-64.077c0-5.523 4.477-10 10-10h14.777z"/><path d="m292.972 128.933h36.777v-64.077c0-5.523-4.477-10-10-10h-14.777z"/></g></g></g><g><circle cx="256" cy="266.591" fill="#fff" r="49.955"/><g><path d="m281.321 264.524c0 16.416-10.59 30.345-25.316 35.342-14.726-4.997-25.326-18.926-25.326-35.342 0-16.406 10.6-30.334 25.326-35.331 14.726 4.997 25.316 18.925 25.316 35.331z" fill="#02ffb3"/><g><path d="m256 307.221c-2.761 0-5-2.239-5-5v-53.745c0-2.761 2.239-5 5-5s5 2.239 5 5v53.745c0 2.761-2.239 5-5 5z" fill="#00b574"/></g><g><path d="m224.127 375.566c0-2.761 2.239-5 5-5h53.745c2.761 0 5 2.239 5 5s-2.239 5-5 5h-53.745c-2.761 0-5-2.239-5-5z" fill="#fff"/></g></g></g></g><path d="m114.8 309.5c-1.279 0-2.559-.488-3.535-1.464-1.953-1.953-1.953-5.119-.001-7.071l3.328-3.328-5.002-3.172c-1.282-.813-2.125-2.164-2.292-3.673s.36-3.012 1.434-4.085l7.741-7.742c1.953-1.953 5.118-1.952 7.071-.001 1.953 1.953 1.953 5.119.001 7.071l-3.328 3.328 5.002 3.172c1.282.813 2.125 2.164 2.292 3.673s-.36 3.012-1.434 4.085l-7.741 7.742c-.977.977-2.257 1.465-3.536 1.465z" fill="#01eca5"/><path d="m382.563 107.024c-1.279 0-2.56-.488-3.535-1.465-1.953-1.952-1.953-5.118 0-7.07l3.327-3.328-5.002-3.172c-1.282-.813-2.125-2.164-2.292-3.673s.36-3.012 1.435-4.085l7.742-7.742c1.951-1.953 5.119-1.953 7.07 0 1.953 1.952 1.953 5.118 0 7.07l-3.327 3.328 5.002 3.172c1.282.813 2.125 2.164 2.292 3.673s-.36 3.012-1.435 4.085l-7.742 7.742c-.976.977-2.256 1.465-3.535 1.465z" fill="#01eca5"/><path d="m88.082 268.438c-2.762 0-5-2.238-5-5 0-3.309-2.691-6-6-6-2.762 0-5-2.238-5-5s2.238-5 5-5c3.309 0 6-2.691 6-6 0-2.762 2.238-5 5-5s5 2.238 5 5c0 3.309 2.691 6 6 6 2.762 0 5 2.238 5 5s-2.238 5-5 5c-3.309 0-6 2.691-6 6 0 2.761-2.238 5-5 5z" fill="#ff7eb8"/><path d="m416.471 357.979c-2.762 0-5-2.238-5-5 0-3.309-2.691-6-6-6-2.762 0-5-2.238-5-5s2.238-5 5-5c3.309 0 6-2.691 6-6 0-2.762 2.238-5 5-5s5 2.238 5 5c0 3.309 2.691 6 6 6 2.762 0 5 2.238 5 5s-2.238 5-5 5c-3.309 0-6 2.691-6 6 0 2.762-2.239 5-5 5z" fill="#6583fe"/><path d="m396.168 162.72c-2.762 0-5-2.238-5-5 0-3.309-2.691-6-6-6-2.762 0-5-2.238-5-5s2.238-5 5-5c3.309 0 6-2.691 6-6 0-2.762 2.238-5 5-5s5 2.238 5 5c0 3.309 2.691 6 6 6 2.762 0 5 2.238 5 5s-2.238 5-5 5c-3.309 0-6 2.691-6 6 0 2.761-2.238 5-5 5z" fill="#ff7eb8"/></g><g><circle cx="159.752" cy="157.72" fill="#fff" r="47.485"/><path d="m175.422 151.591h-12.167v-23.854c0-1.112-1.494-1.475-2.004-.487l-18.111 35.05c-.365.706.148 1.549.943 1.549h12.167v23.854c0 1.112 1.494 1.475 2.004.487l18.111-35.05c.365-.707-.148-1.549-.943-1.549z" fill="#ff7eb8"/><path d="m363.887 384.248v-235.315c0-13.785-11.215-25-25-25h-4.138v-59.078c0-8.271-6.729-15-15-15h-127.498c-8.271 0-15 6.729-15 15v43.391c-5.477-1.943-11.365-3.011-17.499-3.011-28.94 0-52.484 23.544-52.484 52.484s23.544 52.484 52.484 52.484 52.484-23.544 52.484-52.484c0-8.56-2.073-16.641-5.723-23.787h132.374c8.271 0 15 6.729 15 15v235.315c0 8.271-6.729 15-15 15h-165.774c-8.271 0-15-6.729-15-15v-146.934c0-2.762-2.238-5-5-5s-5 2.238-5 5v146.936c0 12.854 9.751 23.468 22.244 24.845v21.652h-12.244c-5.514 0-10 4.486-10 10v11.399c0 5.514 4.486 10 10 10h195.773c5.514 0 10-4.486 10-10v-11.399c0-5.514-4.486-10-10-10h-12.244v-21.652c12.493-1.378 22.245-11.992 22.245-24.846zm-67.086-310.224h-52.868c-2.762 0-5 2.238-5 5s2.238 5 5 5h51.248l-6.465 39.908h-18.143v-13.736c0-4.411-3.589-8-8-8h-1.573v-2.884c0-2.762-2.238-5-5-5s-5 2.238-5 5v2.884h-1.573c-4.411 0-8 3.589-8 8v13.736h-18.143l-10.38-64.077h86.193zm-45.374 38.172h9.146v11.736h-9.146zm-91.675 88.008c-23.426 0-42.484-19.059-42.484-42.484s19.059-42.484 42.484-42.484 42.484 19.059 42.484 42.484-19.058 42.484-42.484 42.484zm40.12-76.271c-3.596-4.264-7.855-7.949-12.621-10.893v-48.185c0-2.757 2.243-5 5-5h8.389 2.134l10.38 64.077h-13.282zm98.975 0 10.38-64.077h2.134 8.389c2.757 0 5 2.243 5 5v59.077zm-26.022 306.812v-21.497h35.167v21.497zm-10-21.497v21.497h-13.65v-21.497zm-58.817 21.497v-21.497h35.167v21.497zm-23.651-21.497h13.65v21.497h-13.65zm173.536 42.897h-195.78v-11.399h195.773zm-35.901-21.4v-21.497h13.65v21.497z" fill="#2626bc"/></g></g></g></svg>