<svg id="Capa_1" enable-background="new 0 0 512 512" height="512" viewBox="0 0 512 512" width="512" xmlns="http://www.w3.org/2000/svg" xmlns:xlink="http://www.w3.org/1999/xlink"><linearGradient id="SVGID_1_" gradientUnits="userSpaceOnUse" x1="12.034" x2="499.966" y1="256" y2="256"><stop offset=".0485" stop-color="#ffdbed"/><stop offset=".9993" stop-color="#d2deff"/></linearGradient><g><g><path d="m286.593 4.867c-94.351 27.746-75.427 93.585-85.98 166.539-13.171 91.052-70.095 44.365-135.496 93.537-113.054 85.001-30.931 272.636 109.468 244.14 74.552-15.131 89.786-70.095 120.193-128.824 39.333-75.972 104.558-55.259 163.066-104.856 118.655-100.582-37.403-309.897-171.251-270.536z" fill="url(#SVGID_1_)"/></g><g><g><path d="m439.66 245.43-28.9-6.14c-3.89-15.39-9.96-29.91-17.82-43.24l16.04-24.69c2.66-4.1 2.09-9.5-1.36-12.96l-35.13-35.13c-3.45-3.45-8.85-4.02-12.95-1.36l-24.56 15.96c-13.38-7.97-27.97-14.12-43.46-18.07l-6.06-28.56c-1.01-4.79-5.23-8.2-10.12-8.2h-49.68c-4.89 0-9.11 3.41-10.12 8.2l-6.06 28.56c-15.49 3.95-30.08 10.1-43.46 18.07l-24.56-15.96c-4.1-2.66-9.5-2.09-12.95 1.36l-35.13 35.13c-3.45 3.46-4.02 8.86-1.36 12.96l16.04 24.69c-7.86 13.33-13.93 27.85-17.82 43.24l-28.9 6.14c-4.78 1.02-8.2 5.24-8.2 10.12v49.67c0 4.89 3.42 9.11 8.2 10.13l29.13 6.18c3.94 15.24 10.01 29.61 17.85 42.81l-16.3 25.08c-2.66 4.1-2.09 9.5 1.36 12.96l35.13 35.13c3.45 3.45 8.85 4.02 12.95 1.36l25.23-16.39c13.15 7.74 27.45 13.73 42.6 17.61l6.25 29.45c1.01 4.79 5.23 8.2 10.12 8.2h49.68c4.89 0 9.11-3.41 10.12-8.2l6.25-29.45c15.15-3.88 29.45-9.87 42.6-17.61l25.23 16.39c4.1 2.66 9.5 2.09 12.95-1.36l35.13-35.13c3.45-3.46 4.02-8.86 1.36-12.96l-16.3-25.08c7.84-13.2 13.91-27.57 17.85-42.81l29.13-6.18c4.78-1.02 8.2-5.24 8.2-10.13v-49.67c0-4.88-3.42-9.1-8.2-10.12zm-312.13 34.54c0-65.197 50.75-118.54 114.896-122.699l-75.528 146.168c-1.837 3.555.744 7.793 4.745 7.793h61.231v90.445c-59.559-8.551-105.344-59.782-105.344-121.707zm131.493 122.671 75.079-145.3c1.837-3.555-.744-7.793-4.745-7.793h-61.231v-91.285c59.56 8.551 105.344 59.782 105.344 121.707 0 65.045-50.514 118.292-114.447 122.671z" fill="#2626bc" opacity=".1"/><path d="m439.66 221.43-28.9-6.14c-3.89-15.39-9.96-29.91-17.82-43.24l16.04-24.69c2.66-4.1 2.09-9.5-1.36-12.96l-35.13-35.13c-3.45-3.45-8.85-4.02-12.95-1.36l-24.56 15.96c-13.38-7.97-27.97-14.12-43.46-18.07l-6.06-28.56c-1.01-4.79-5.23-8.2-10.12-8.2h-49.68c-4.89 0-9.11 3.41-10.12 8.2l-6.06 28.56c-15.49 3.95-30.08 10.1-43.46 18.07l-24.56-15.96c-4.1-2.66-9.5-2.09-12.95 1.36l-35.13 35.13c-3.45 3.46-4.02 8.86-1.36 12.96l16.04 24.69c-7.86 13.33-13.93 27.85-17.82 43.24l-28.9 6.14c-4.78 1.02-8.2 5.24-8.2 10.12v49.67c0 4.89 3.42 9.11 8.2 10.13l29.13 6.18c3.94 15.24 10.01 29.61 17.85 42.81l-16.3 25.08c-2.66 4.1-2.09 9.5 1.36 12.96l35.13 35.13c3.45 3.45 8.85 4.02 12.95 1.36l25.23-16.39c13.15 7.74 27.45 13.73 42.6 17.61l6.25 29.45c1.01 4.79 5.23 8.2 10.12 8.2h49.68c4.89 0 9.11-3.41 10.12-8.2l6.25-29.45c15.15-3.88 29.45-9.87 42.6-17.61l25.23 16.39c4.1 2.66 9.5 2.09 12.95-1.36l35.13-35.13c3.45-3.46 4.02-8.86 1.36-12.96l-16.3-25.08c7.84-13.2 13.91-27.57 17.85-42.81l29.13-6.18c4.78-1.02 8.2-5.24 8.2-10.13v-49.67c0-4.88-3.42-9.1-8.2-10.12zm-189.16 157.51c-67.91 0-122.97-55.06-122.97-122.97s55.06-122.97 122.97-122.97 122.97 55.06 122.97 122.97-55.06 122.97-122.97 122.97z" fill="#02ffb3"/><path d="m250.5 112.67c-79.14 0-143.3 64.16-143.3 143.3s64.16 143.3 143.3 143.3 143.3-64.16 143.3-143.3-64.16-143.3-143.3-143.3zm0 266.27c-67.91 0-122.97-55.06-122.97-122.97s55.06-122.97 122.97-122.97 122.97 55.06 122.97 122.97-55.06 122.97-122.97 122.97z" fill="#97ffd2"/><path d="m329.357 225.548h-61.231v-120.042c0-5.598-7.516-7.425-10.086-2.452l-91.141 176.385c-1.837 3.555.744 7.793 4.745 7.793h61.231v120.042c0 5.598 7.516 7.425 10.086 2.452l91.141-176.385c1.837-3.555-.744-7.793-4.745-7.793z" fill="#ff7eb8"/><g fill="#2626bc"><path d="m373.107 266.723c-2.744-.349-5.243 1.588-5.593 4.327-6.687 52.429-48.058 94.03-99.788 101.637l70.817-137.051c1.67-3.233 1.537-7.018-.354-10.125-1.893-3.108-5.194-4.963-8.833-4.963h-56.23v-80.373c23.375 4.525 44.535 15.878 61.413 33.014 17.899 18.173 29.229 41.065 32.766 66.199.352 2.499 2.492 4.304 4.945 4.304.231 0 .466-.016.702-.049 2.734-.385 4.64-2.913 4.255-5.647-3.837-27.275-16.128-52.111-35.544-71.824-18.764-19.052-42.418-31.499-68.537-36.15v-24.516c0-4.861-3.174-8.899-7.897-10.048-4.725-1.147-9.399.981-11.631 5.301l-14.333 27.738c-31.523 2.745-60.74 17-82.413 40.262-22.132 23.755-34.321 54.728-34.321 87.211 0 30.772 11.083 60.513 31.207 83.746 19.22 22.188 45.447 37.099 74.138 42.225v25.333c0 4.862 3.174 8.9 7.898 10.048.853.208 1.704.308 2.54.308 3.793 0 7.261-2.07 9.09-5.609l14.786-28.615c59.348-5.388 107.692-51.869 115.246-111.09.348-2.739-1.589-5.243-4.329-5.593zm-134.589 140.708c-.09.172-.122.237-.383.175-.26-.063-.26-.137-.26-.332v-120.042c0-2.761-2.239-5-5-5s-5 2.239-5 5v84.536c-25.754-5.011-49.252-18.596-66.579-38.6-18.549-21.415-28.765-48.831-28.765-77.198 0-29.945 11.236-58.497 31.637-80.395 18.507-19.865 42.978-32.607 69.573-36.389l-71.284 137.957c-1.67 3.232-1.538 7.018.354 10.125 1.892 3.108 5.194 4.963 8.833 4.963h28.24c2.761 0 5-2.239 5-5s-2.239-5-5-5h-28.24c-.072 0-.191 0-.292-.164-.1-.164-.044-.271-.012-.334l91.14-176.385c.09-.174.123-.239.385-.176.261.063.261.137.261.332v120.042c0 2.761 2.238 5 5 5h61.23c.071 0 .191 0 .291.164.101.164.045.271.012.334z"/><path d="m440.702 216.542-25.892-5.504c-3.688-13.519-9.063-26.558-16.011-38.836l14.37-22.121c3.923-6.04 3.074-14.121-2.018-19.214l-35.122-35.13c-5.095-5.095-13.177-5.943-19.217-2.019l-21.975 14.277c-12.334-7.044-25.446-12.497-39.062-16.244l-5.425-25.554c-1.495-7.047-7.81-12.162-15.015-12.162h-49.676c-7.205 0-13.519 5.115-15.015 12.162l-5.425 25.554c-13.614 3.747-26.727 9.2-39.062 16.244l-21.974-14.277c-6.042-3.925-14.123-3.075-19.217 2.019l-35.122 35.13c-5.093 5.093-5.941 13.174-2.017 19.214l14.37 22.121c-6.948 12.279-12.324 25.318-16.011 38.836l-25.891 5.504c-7.045 1.497-12.159 7.811-12.159 15.014v49.668c0 7.204 5.114 13.518 12.161 15.015l26.135 5.55c3.731 13.393 9.107 26.283 16.017 38.405l-14.617 22.506c-3.924 6.04-3.075 14.121 2.017 19.214l35.122 35.13c5.094 5.094 13.174 5.945 19.217 2.019l22.66-14.721c12.084 6.825 24.903 12.127 38.189 15.794l5.611 26.446c1.496 7.047 7.811 12.163 15.015 12.163h49.675c7.204 0 13.519-5.115 15.014-12.163l5.613-26.446c13.285-3.667 26.104-8.969 38.188-15.794l22.66 14.721c6.042 3.924 14.122 3.075 19.217-2.019l35.122-35.13c5.092-5.094 5.939-13.174 2.016-19.215l-14.621-22.505c6.909-12.122 12.286-25.013 16.018-38.405l26.134-5.55c7.047-1.496 12.162-7.811 12.162-15.015v-49.668c-.001-7.203-5.114-13.518-12.159-15.014zm2.158 64.682c0 2.511-1.782 4.711-4.239 5.232l-29.13 6.187c-1.854.394-3.326 1.803-3.802 3.638-3.768 14.557-9.592 28.52-17.31 41.502-.973 1.636-.932 3.683.105 5.279l16.297 25.085c1.368 2.105 1.072 4.922-.702 6.697l-35.122 35.13c-1.774 1.776-4.592 2.071-6.697.704l-25.229-16.39c-1.589-1.033-3.627-1.078-5.261-.115-12.959 7.632-26.854 13.378-41.301 17.079-1.842.472-3.256 1.946-3.65 3.806l-6.25 29.45c-.521 2.456-2.722 4.239-5.232 4.239h-49.675c-2.511 0-4.712-1.783-5.233-4.239l-6.249-29.45c-.395-1.859-1.809-3.334-3.65-3.806-14.446-3.7-28.342-9.446-41.301-17.079-.784-.462-1.661-.692-2.538-.692-.949 0-1.897.27-2.724.807l-25.229 16.39c-2.105 1.368-4.922 1.071-6.697-.704l-35.122-35.13c-1.775-1.775-2.07-4.591-.703-6.696l16.298-25.085c1.037-1.596 1.078-3.643.105-5.279-7.718-12.982-13.542-26.945-17.31-41.502-.475-1.835-1.947-3.244-3.802-3.638l-29.13-6.187c-2.456-.521-4.238-2.722-4.238-5.232v-49.668c0-2.51 1.782-4.71 4.237-5.232l28.904-6.144c1.864-.396 3.341-1.817 3.808-3.665 3.71-14.674 9.524-28.779 17.28-41.924.964-1.634.92-3.673-.113-5.265l-16.04-24.692c-1.367-2.105-1.072-4.921.703-6.696l35.122-35.13c1.775-1.775 4.591-2.072 6.698-.704l24.556 15.955c1.598 1.038 3.646 1.078 5.282.103 13.191-7.855 27.367-13.75 42.136-17.521 1.843-.471 3.259-1.946 3.654-3.807l6.063-28.56c.521-2.456 2.722-4.238 5.232-4.238h49.676c2.511 0 4.712 1.782 5.233 4.238l6.063 28.56c.395 1.86 1.811 3.336 3.653 3.807 14.77 3.771 28.945 9.667 42.135 17.521 1.637.976 3.687.935 5.283-.103l24.556-15.955c2.105-1.367 4.923-1.073 6.697.704l35.122 35.13c1.775 1.775 2.07 4.591.703 6.696l-16.04 24.692c-1.033 1.591-1.077 3.63-.113 5.265 7.756 13.144 13.569 27.249 17.28 41.924.468 1.848 1.944 3.269 3.808 3.665l28.905 6.144c2.455.522 4.237 2.722 4.237 5.232v49.667z"/></g></g><g fill="#fff"><g><path d="m250.5 88.144c-2.761 0-5-2.239-5-5v-4.884c0-2.761 2.239-5 5-5s5 2.239 5 5v4.883c0 2.762-2.239 5.001-5 5.001z"/><path d="m250.5 439.521c-2.761 0-5-2.239-5-5v-4.884c0-2.761 2.239-5 5-5s5 2.239 5 5v4.884c0 2.761-2.239 5-5 5z"/></g><g><path d="m428.63 261.39h-4.884c-2.762 0-5-2.239-5-5s2.238-5 5-5h4.884c2.762 0 5 2.239 5 5s-2.238 5-5 5z"/><path d="m77.253 261.39h-4.883c-2.761 0-5-2.239-5-5s2.239-5 5-5h4.883c2.761 0 5 2.239 5 5s-2.238 5-5 5z"/></g><g><path d="m376.457 387.347c-1.279 0-2.56-.488-3.535-1.464l-3.453-3.453c-1.953-1.953-1.953-5.119 0-7.071 1.951-1.952 5.119-1.952 7.07 0l3.453 3.453c1.953 1.953 1.953 5.119 0 7.071-.975.976-2.256 1.464-3.535 1.464z"/><path d="m127.996 138.886c-1.28 0-2.559-.488-3.536-1.464l-3.453-3.453c-1.953-1.953-1.953-5.119 0-7.071s5.118-1.952 7.071 0l3.453 3.453c1.953 1.953 1.953 5.119 0 7.071-.976.976-2.255 1.464-3.535 1.464z"/></g><g><path d="m124.543 387.347c-1.28 0-2.559-.488-3.536-1.464-1.953-1.953-1.953-5.119 0-7.071l3.453-3.453c1.953-1.952 5.118-1.952 7.071 0 1.953 1.953 1.953 5.119 0 7.071l-3.453 3.453c-.976.976-2.255 1.464-3.535 1.464z"/><path d="m373.004 138.886c-1.279 0-2.56-.488-3.535-1.464-1.953-1.953-1.953-5.119 0-7.071l3.453-3.453c1.951-1.952 5.119-1.952 7.07 0 1.953 1.953 1.953 5.119 0 7.071l-3.453 3.453c-.976.976-2.256 1.464-3.535 1.464z"/></g></g><path d="m153.942 61.26c-2.761 0-5-2.239-5-5 0-3.309-2.691-6-6-6-2.761 0-5-2.239-5-5s2.239-5 5-5c3.309 0 6-2.691 6-6 0-2.761 2.239-5 5-5s5 2.239 5 5c0 3.309 2.691 6 6 6 2.761 0 5 2.239 5 5s-2.239 5-5 5c-3.309 0-6 2.691-6 6 0 2.761-2.238 5-5 5z" fill="#ff7eb8"/><path d="m447.86 196.272c-2.762 0-5-2.239-5-5 0-3.309-2.691-6-6-6-2.762 0-5-2.239-5-5s2.238-5 5-5c3.309 0 6-2.691 6-6 0-2.761 2.238-5 5-5s5 2.239 5 5c0 3.309 2.691 6 6 6 2.762 0 5 2.239 5 5s-2.238 5-5 5c-3.309 0-6 2.691-6 6 0 2.762-2.238 5-5 5z" fill="#ff7eb8"/><path d="m98.395 83.26c-1.28 0-2.559-.488-3.536-1.464-1.953-1.953-1.953-5.119 0-7.071l3.328-3.328-5.002-3.173c-1.282-.813-2.125-2.164-2.292-3.673s.361-3.011 1.434-4.085l7.742-7.742c1.952-1.952 5.118-1.952 7.071 0 1.953 1.953 1.953 5.118 0 7.071l-3.328 3.328 5.002 3.173c1.282.813 2.125 2.164 2.292 3.673s-.361 3.012-1.434 4.085l-7.742 7.742c-.976.976-2.255 1.464-3.535 1.464z" fill="#6583fe"/><path d="m445.255 358.561c-1.279 0-2.56-.488-3.536-1.464-1.952-1.953-1.952-5.119.001-7.071l3.327-3.328-5.002-3.173c-1.282-.813-2.125-2.164-2.292-3.673s.361-3.012 1.435-4.085l7.742-7.742c1.951-1.952 5.119-1.952 7.07 0 1.953 1.953 1.953 5.119 0 7.071l-3.327 3.328 5.002 3.173c1.282.813 2.125 2.164 2.292 3.673s-.361 3.012-1.435 4.085l-7.742 7.742c-.976.975-2.256 1.464-3.535 1.464z" fill="#01eca5"/><path d="m146.2 469.745c-1.28 0-2.559-.488-3.536-1.464-1.953-1.953-1.953-5.119 0-7.071l3.328-3.327-5.002-3.172c-1.282-.813-2.125-2.165-2.292-3.673s.361-3.012 1.434-4.085l7.742-7.742c1.953-1.952 5.118-1.952 7.071 0 1.953 1.953 1.953 5.119 0 7.071l-3.328 3.328 5.002 3.172c1.282.813 2.125 2.165 2.292 3.673s-.361 3.012-1.434 4.085l-7.742 7.742c-.976.974-2.256 1.463-3.535 1.463z" fill="#6583fe"/></g></g></svg>