<svg id="Capa_1" enable-background="new 0 0 512 512" height="512" viewBox="0 0 512 512" width="512" xmlns="http://www.w3.org/2000/svg" xmlns:xlink="http://www.w3.org/1999/xlink"><linearGradient id="SVGID_1_" gradientUnits="userSpaceOnUse" x1="53.976" x2="458.024" y1="256" y2="256"><stop offset=".0485" stop-color="#d2deff"/><stop offset=".9993" stop-color="#dcfdee"/></linearGradient><g><g><path d="m170.091.39c-68.06 4.435-134.218 61.127-111.591 135.073 18.265 59.691 84.702 87.73 134.671 115.676 47.928 26.805 98.6 60.229 112.037 117.192 9.247 39.199-2.084 84.916 22.012 117.187 42.331 56.693 124.077 13.634 130.314-47.258 5.176-50.542-31.51-94.701-65.828-132.165-33.267-36.317-70.462-71.374-99.992-110.843-27.345-36.55-41.639-81.985-5.379-118.188 8.145-8.132 17.848-16.505 14.872-29.734-9.77-43.394-97.817-49.109-131.116-46.94z" fill="url(#SVGID_1_)"/></g><g><g fill="#2626bc" opacity=".1"><path d="m427.744 241.971c-12.109 0-21.925 9.816-21.925 21.925v55.094l-33.015 33.015c9.715-9.716 9.715-25.467-.001-35.183-9.715-9.716-25.468-9.716-35.183 0l-68.903 68.903c-8.142 8.143-12.717 19.188-12.717 30.704 0-11.517-4.575-22.562-12.719-30.705l-68.903-68.903c-9.715-9.716-25.468-9.716-35.183 0-9.715 9.715-9.715 25.467-.001 35.183l-33.015-33.015v-55.094c0-12.109-9.816-21.925-21.925-21.925-12.122 0-21.943 9.837-21.925 21.959l.109 69.894c.008 5.293 2.115 10.368 5.858 14.111l80.452 80.452c4.768 4.768 6.813 11.618 5.438 18.219l-7.741 37.178c-1.293 6.21 3.447 12.039 9.79 12.039h199.528c6.343 0 11.083-5.829 9.79-12.038l-7.741-37.178c-1.375-6.601.67-13.451 5.438-18.219l80.452-80.452c3.743-3.743 5.849-8.817 5.858-14.111l.109-69.894c.019-12.122-9.803-21.959-21.925-21.959z"/><path d="m256 319.816c69.211 0 125.318-56.107 125.318-125.318 0-10.457-1.289-20.612-3.702-30.322 13.616-8.348 22.703-23.366 22.703-40.508 0-26.225-21.26-47.485-47.485-47.485-11.896 0-22.761 4.385-31.093 11.613-19.112-11.801-41.629-18.617-65.741-18.617-69.211 0-125.318 56.107-125.318 125.319 0 69.211 56.107 125.318 125.318 125.318z"/></g><g><g><g><path d="m268.719 361.724 68.903-68.903c9.716-9.716 25.468-9.716 35.183 0 9.715 9.715 9.716 25.467.001 35.182l33.015-33.015v-55.094c0-12.109 9.816-21.925 21.925-21.925 12.122 0 21.943 9.837 21.925 21.959l-.109 69.893c-.008 5.294-2.115 10.368-5.858 14.111l-80.451 80.452c-4.768 4.768-6.812 11.618-5.438 18.219l10.248 49.216h-112.063v-79.391c0-11.515 4.575-22.56 12.719-30.704z" fill="#ff7eb8"/><path d="m243.281 361.724-68.903-68.903c-9.716-9.716-25.468-9.716-35.183 0-9.715 9.715-9.716 25.467-.001 35.182l-33.015-33.015v-55.094c0-12.109-9.816-21.925-21.925-21.925-12.122 0-21.943 9.837-21.925 21.959l.109 69.893c.008 5.294 2.115 10.368 5.858 14.111l80.451 80.452c4.768 4.768 6.812 11.618 5.438 18.219l-10.248 49.216h112.063v-79.391c0-11.515-4.575-22.56-12.719-30.704z" fill="#ffa8cf"/></g></g><g><circle cx="256" cy="170.498" fill="#8399fe" r="125.318"/><path d="m380.98 161.262c-7.88 5.81-17.62 9.24-28.15 9.24-26.22 0-47.48-21.26-47.48-47.49 0-21.71 14.58-40.02 34.47-45.68 23.34 21.02 38.74 50.67 41.16 83.93z" fill="#6583fe"/><path d="m268.438 137.031-17.073 2.842c-3.185.53-6.43-.51-8.713-2.793l-1.397-1.397c-2.259-2.259-5.462-3.303-8.619-2.808l-9.763 1.529c-2.779.435-5.247 2.022-6.797 4.369l-8.867 13.428c-1.194 1.808-1.768 3.956-1.637 6.118l.832 13.657c.279 4.579 3.638 8.381 8.148 9.222l8.457 1.577c3.69.688 6.683 3.384 7.752 6.982l.036.12c.787 2.647.443 5.502-.948 7.888l-9.701 16.627c-2.291 3.926-6.942 5.814-11.321 4.594l-37.811-10.532c-4.325-1.205-7.317-5.144-7.317-9.633v-32.454c0-2.491-.929-4.892-2.606-6.733l-9.654-10.602c-1.984-2.179-4.828-3.372-7.773-3.26l-10.626.404c6.29-32 24.77-59.63 50.4-77.86l41.299 17.717c.962.413 1.982.672 3.024.768l33.935 3.131c3.282.303 6.203 2.203 7.811 5.08l3.589 6.423c.642 1.149 1.051 2.414 1.203 3.721l2.428 20.852c.617 5.299-3.031 10.148-8.291 11.023z" fill="#02ffb3"/><path d="m381.32 170.498c0 48.85-27.95 91.18-68.74 111.85l-25.349-6.913c-3.285-.896-5.888-3.401-6.909-6.649l-1.479-4.705c-.657-2.091-.609-4.34.137-6.401l18.225-50.369c.822-2.272.794-4.765-.08-7.018l-1.658-4.275c-.959-2.472-.896-5.224.173-7.65l2.07-4.696c1.197-2.715 3.539-4.759 6.391-5.578l31.323-8.991c2.98-.855 5.395-3.045 6.537-5.927l6.115-15.424c.465-1.173.704-2.423.704-3.685v-1.278c0-2.758 1.139-5.394 3.148-7.284l18.112-17.039c7.24 15.852 11.28 33.472 11.28 52.032z" fill="#02ffb3"/><path d="m380.98 161.262c-7.88 5.81-17.62 9.24-28.15 9.24-5.26 0-10.31-.85-15.04-2.43 1.87-1.11 3.35-2.82 4.17-4.89l6.12-15.43c.46-1.17.7-2.42.7-3.68v-1.28c0-2.76 1.14-5.4 3.15-7.29l18.1-17.02c6.05 13.18 9.85 27.61 10.95 42.78z" fill="#01eca5"/><path d="m381.318 165.497c-2.762 0-5 2.238-5 5 0 16.795-12.125 32.813-34.142 45.105-5.474 3.056-11.396 5.774-17.667 8.157 4.217-16.535 6.453-34.6 6.453-53.262 0-20.547-2.709-40.369-7.793-58.219 12.465-4.276 23.72-9.766 33.225-16.337 2.271-1.571 2.84-4.686 1.27-6.957s-4.685-2.841-6.957-1.27c-8.717 6.027-19.056 11.083-30.539 15.046-2.903-8.345-6.347-16.177-10.331-23.313-14.138-25.323-33.257-39.268-53.837-39.268s-39.699 13.945-53.836 39.268c-3.984 7.137-7.428 14.968-10.331 23.313-11.483-3.963-21.822-9.019-30.539-15.046-2.274-1.571-5.387-1.002-6.957 1.27s-1.002 5.386 1.27 6.957c9.505 6.571 20.76 12.061 33.225 16.337-5.084 17.85-7.793 37.673-7.793 58.219 0 18.662 2.236 36.728 6.453 53.262-6.271-2.383-12.193-5.101-17.667-8.157-22.017-12.292-34.142-28.311-34.142-45.105 0-2.762-2.238-5-5-5s-5 2.238-5 5c0 20.58 13.945 39.7 39.268 53.837 7.892 4.406 16.625 8.16 25.975 11.239 3.079 9.35 6.833 18.082 11.24 25.975 14.137 25.322 33.256 39.268 53.836 39.268s39.699-13.945 53.836-39.268c4.406-7.892 8.161-16.624 11.24-25.975 9.351-3.079 18.083-6.833 25.975-11.239 25.322-14.137 39.268-33.257 39.268-53.837-.003-2.761-2.241-5-5.003-5zm-60.356 5c0 20.271-2.725 39.754-7.855 57.107-15.92 4.706-33.637 7.377-52.107 7.787v-112.584c18.535-.399 36.416-3.01 52.627-7.561 4.785 16.885 7.335 35.696 7.335 55.251zm-19.858-86.175c3.656 6.548 6.825 13.738 9.512 21.404-15.236 4.245-32.091 6.688-49.617 7.08v-62.262c14.954 2.158 29.041 13.957 40.105 33.778zm-90.208 0c11.064-19.821 25.151-31.62 40.104-33.778v62.261c-17.525-.392-34.381-2.835-49.617-7.08 2.688-7.666 5.857-14.856 9.513-21.403zm-19.858 86.175c0-19.555 2.55-38.367 7.335-55.251 16.211 4.551 34.092 7.162 52.627 7.561v112.585c-18.47-.41-36.187-3.081-52.107-7.787-5.13-17.353-7.855-36.837-7.855-57.108zm19.858 86.177c-3.056-5.474-5.774-11.396-8.157-17.667 15.052 3.838 31.375 6.023 48.262 6.384v45.06c-14.954-2.158-29.041-13.957-40.105-33.777zm90.208 0c-11.065 19.82-25.151 31.618-40.104 33.776v-45.06c16.887-.361 33.21-2.546 48.262-6.384-2.384 6.272-5.101 12.194-8.158 17.668z" fill="#4369fd"/><path d="m357.66 88.982c-1.57-2.27-4.68-2.84-6.95-1.27-8.72 6.03-19.06 11.09-30.54 15.05-1.2-3.45-2.49-6.81-3.88-10.06-2.64 3.17-4.86 6.68-6.6 10.46.32.85.63 1.7.93 2.56-.75.21-1.5.41-2.26.61-1.3 3.47-2.21 7.14-2.66 10.94 2.68-.62 5.33-1.3 7.93-2.03 3.74 13.22 6.12 27.62 6.96 42.63 3.08 2.85 6.54 5.3 10.3 7.27-.42-18.64-3.08-36.57-7.72-52.86 12.46-4.28 23.72-9.77 33.22-16.34 2.28-1.57 2.84-4.69 1.27-6.96z" fill="#2d58e0"/></g><g><circle cx="352.834" cy="99.668" fill="#fff" r="47.485"/><path d="m368.504 93.539h-12.167v-23.854c0-1.112-1.494-1.475-2.004-.487l-18.111 35.05c-.365.706.148 1.549.943 1.549h12.167v23.854c0 1.112 1.494 1.475 2.004.487l18.111-35.05c.365-.707-.147-1.549-.943-1.549z" fill="#ff7eb8"/><g fill="#2626bc"><path d="m446.797 220.871c-5.087-5.095-11.854-7.9-19.053-7.9-14.847 0-26.925 12.078-26.925 26.925v53.022l-15.791 15.791c-.399-7.074-3.296-14.03-8.688-19.423-11.648-11.65-30.605-11.65-42.254 0l-21.05 21.05c-1.953 1.952-1.953 5.118 0 7.07 1.951 1.953 5.119 1.953 7.07 0l21.05-21.05c3.755-3.754 8.747-5.822 14.057-5.822s10.302 2.068 14.056 5.822c7.75 7.751 7.751 20.362.001 28.112l-47.889 47.89c-5.059 5.059-7.845 11.783-7.845 18.937 0 2.762 2.238 5 5 5s5-2.238 5-5c0-4.482 1.746-8.696 4.915-11.866l80.903-80.904c.938-.938 1.465-2.209 1.465-3.535v-55.094c0-9.332 7.593-16.925 16.925-16.925 4.525 0 8.779 1.764 11.977 4.966 3.198 3.203 4.955 7.46 4.948 11.985l-.108 69.894c-.007 3.998-1.567 7.757-4.394 10.583l-80.451 80.451c-5.98 5.979-8.522 14.493-6.798 22.774l10.248 49.216c.491 2.359 2.57 3.981 4.89 3.981.338 0 .681-.034 1.024-.106 2.703-.563 4.438-3.21 3.875-5.914l-10.247-49.215c-1.035-4.969.49-10.077 4.078-13.665l80.451-80.451c4.711-4.71 7.313-10.975 7.323-17.639l.108-69.894c.012-7.2-2.783-13.971-7.871-19.066z"/><path d="m289.709 333.664-24.525 24.524c-3.795 3.794-6.87 8.113-9.184 12.786-2.314-4.672-5.389-8.99-9.183-12.785l-68.902-68.904c-11.648-11.648-30.604-11.647-42.255.001-5.392 5.393-8.287 12.35-8.688 19.423l-15.791-15.791v-53.022c0-14.847-12.078-26.925-26.925-26.925-7.199 0-13.966 2.806-19.053 7.9-5.088 5.095-7.883 11.866-7.872 19.066l.109 69.894c.01 6.663 2.61 12.928 7.322 17.639l80.451 80.452c3.588 3.587 5.112 8.695 4.078 13.663l-10.248 49.217c-.563 2.704 1.173 5.352 3.876 5.914.344.072.687.106 1.024.106 2.318 0 4.398-1.622 4.891-3.981l10.248-49.218c1.723-8.28-.818-16.794-6.799-22.772l-80.451-80.451c-2.826-2.827-4.387-6.586-4.393-10.584l-.109-69.894c-.007-4.525 1.75-8.782 4.948-11.985 3.197-3.202 7.451-4.966 11.977-4.966 9.332 0 16.925 7.593 16.925 16.925v55.094c0 1.326.526 2.598 1.465 3.535l80.903 80.904c3.169 3.17 4.915 7.384 4.915 11.866 0 2.762 2.238 5 5 5s5-2.238 5-5c0-7.153-2.786-13.878-7.845-18.937l-47.883-47.884c-.002-.002-.003-.004-.004-.005-7.75-7.751-7.75-20.361-.001-28.111 7.751-7.752 20.362-7.751 28.113-.001l68.902 68.903c7.257 7.258 11.254 16.907 11.254 27.17v79.391.001c0 2.762 2.238 5 5 5s5-2.238 5-5v-.001-79.391c0-10.264 3.997-19.913 11.254-27.17l24.525-24.525c1.953-1.952 1.953-5.118 0-7.07-1.95-1.954-5.118-1.954-7.069-.001z"/><path d="m256 300.816c71.857 0 130.318-58.461 130.318-130.318 0-9.481-1.035-18.923-3.053-28.109 13.336-9.526 22.054-25.12 22.054-42.722 0-28.94-23.545-52.484-52.485-52.484-11.737 0-22.717 3.813-31.592 10.5-19.764-11.448-42.257-17.503-65.242-17.503-71.857 0-130.318 58.461-130.318 130.318s58.461 130.318 130.318 130.318zm0-250.636c20.186 0 39.957 5.056 57.538 14.641-4.016 4.555-7.294 9.864-9.605 15.791-1.003 2.572.269 5.472 2.842 6.475 2.57 1.002 5.471-.269 6.475-2.842 6.41-16.439 21.948-27.062 39.585-27.062 23.427 0 42.485 19.059 42.485 42.484s-19.059 42.484-42.485 42.484c-18.002 0-34.109-11.409-40.08-28.391-.916-2.605-3.773-3.978-6.375-3.059-2.605.916-3.975 3.771-3.059 6.375 7.376 20.979 27.274 35.074 49.514 35.074 7.581 0 14.784-1.628 21.299-4.533 1.443 7.506 2.186 15.177 2.186 22.879 0 66.344-53.975 120.318-120.318 120.318s-120.318-53.975-120.318-120.318 53.972-120.316 120.316-120.316z"/></g></g></g><path d="m412.412 193.199c-1.279 0-2.56-.488-3.535-1.465-1.953-1.952-1.953-5.118 0-7.07l3.327-3.328-5.002-3.173c-1.282-.813-2.125-2.165-2.292-3.674s.361-3.012 1.435-4.085l7.742-7.741c1.953-1.951 5.118-1.952 7.071.001 1.952 1.952 1.952 5.118-.001 7.071l-3.327 3.326 5.002 3.173c1.282.813 2.125 2.165 2.292 3.673.167 1.509-.361 3.012-1.435 4.085l-7.742 7.742c-.975.977-2.256 1.465-3.535 1.465z" fill="#01eca5"/><path d="m87.917 437.292c-1.279 0-2.56-.488-3.535-1.465-1.953-1.952-1.953-5.118 0-7.07l3.327-3.328-5.001-3.172c-1.282-.813-2.125-2.164-2.292-3.673s.36-3.012 1.434-4.085l7.741-7.742c1.953-1.953 5.118-1.952 7.071-.001 1.953 1.953 1.953 5.119.001 7.071l-3.328 3.328 5.002 3.172c1.282.813 2.125 2.164 2.292 3.673s-.361 3.012-1.435 4.085l-7.742 7.742c-.975.977-2.256 1.465-3.535 1.465z" fill="#01eca5"/><path d="m435.669 141.984c-2.762 0-5-2.238-5-5 0-3.309-2.691-6-6-6-2.762 0-5-2.238-5-5s2.238-5 5-5c3.309 0 6-2.691 6-6 0-2.762 2.238-5 5-5s5 2.238 5 5c0 3.309 2.691 6 6 6 2.762 0 5 2.238 5 5s-2.238 5-5 5c-3.309 0-6 2.691-6 6 0 2.762-2.238 5-5 5z" fill="#6583fe"/><path d="m79.522 181.143c-2.762 0-5-2.238-5-5 0-3.309-2.691-6-6-6-2.762 0-5-2.238-5-5s2.238-5 5-5c3.309 0 6-2.691 6-6 0-2.762 2.238-5 5-5s5 2.238 5 5c0 3.309 2.691 6 6 6 2.762 0 5 2.238 5 5s-2.238 5-5 5c-3.309 0-6 2.691-6 6 0 2.761-2.238 5-5 5z" fill="#ff7eb8"/><path d="m99.962 123.523c-2.762 0-5-2.238-5-5 0-3.309-2.691-6-6-6-2.762 0-5-2.238-5-5s2.238-5 5-5c3.309 0 6-2.691 6-6 0-2.762 2.238-5 5-5s5 2.238 5 5c0 3.309 2.691 6 6 6 2.762 0 5 2.238 5 5s-2.238 5-5 5c-3.309 0-6 2.691-6 6 0 2.762-2.238 5-5 5z" fill="#6583fe"/></g></g></svg>