<svg id="Capa_1" enable-background="new 0 0 512 512" height="512" viewBox="0 0 512 512" width="512" xmlns="http://www.w3.org/2000/svg" xmlns:xlink="http://www.w3.org/1999/xlink"><linearGradient id="SVGID_1_" gradientUnits="userSpaceOnUse" x1="5.399" x2="506.601" y1="256" y2="256"><stop offset="0" stop-color="#ffdbed"/><stop offset="1" stop-color="#dcfdee"/></linearGradient><g><g><path d="m461.173 27.352c-63.757-37.987-146.258-35.878-208.873 3.041-35.18 21.866-62.374 53.403-93.212 80.552-27.022 23.789-58.445 40.758-86.353 63.204-101.21 81.403-91.553 300.961 50.962 330.125 61.777 12.642 146.21 16.696 182.519-43.642 34.62-57.531 46.232-116.383 113.876-146.942 23.573-10.65 62.975-10.113 78.944-33.45 20.152-29.45-4.853-60.043-18.192-85.707-17.19-33.074-20.795-65.682-8.699-101.16 10.298-30.211 17.549-43.782-10.972-66.021z" fill="url(#SVGID_1_)"/></g><g><g><g><path d="m443.994 356.538h-23.786v-165.183c0-1.86-1.032-3.566-2.68-4.429l-70.183-36.762c-3.329-1.744-7.32.671-7.32 4.429v36.762c0-1.86-1.032-3.566-2.68-4.429l-50.296-26.345c4.004-3.986 6.486-9.5 6.486-15.583v-7.824c0-6.617 5.383-12 12-12h45.581c12.131 0 22-9.869 22-22 0-2.762-2.239-5-5-5s-5 2.238-5 5c0 6.617-5.383 12-12 12h-10.003c2.257-3.454 3.575-7.575 3.575-12 0-2.762-2.239-5-5-5s-5 2.238-5 5c0 6.617-5.383 12-12 12h-61.864c-12.131 0-22 9.869-22 22v7.824c0 6.617-5.383 12-12 12h-47.797l-4.124-68.003c-.32-5.278-4.694-9.395-9.982-9.395h-51.176c-5.288 0-9.662 4.117-9.982 9.395l-16.224 267.543h-19.533c-2.761 0-5 2.239-5 5v21.808c0 2.761 2.239 5 5 5h3.775v87.477c0 2.761 2.239 5 5 5h358.437c2.761 0 5-2.239 5-5v-87.477h3.775c2.761 0 5-2.239 5-5v-21.808c.001-2.762-2.238-5-4.999-5zm-195.17-211.54v-7.824c0-6.617 5.383-12 12-12h26.286c-2.257 3.454-3.575 7.575-3.575 12v7.824c0 4.513-2.506 8.447-6.197 10.496l-10.176-5.33c-3.329-1.744-7.32.671-7.32 4.429v2.405h-14.593c2.257-3.454 3.575-7.575 3.575-12zm-15.923 123.153-3.181-52.455c-.32-5.278-4.694-9.395-9.982-9.395h-37.721l-2.384-39.303h20.211c-2.257 3.454-3.575 7.575-3.575 12 0 2.762 2.239 5 5 5s5-2.238 5-5c0-6.617 5.383-12 12-12h41.572v101.153z" fill="#2626bc" opacity=".1"/><g><g><g><path d="m103.765 64.995-16.226 267.543h103.59l-16.225-267.543c-.32-5.278-4.694-9.395-9.982-9.395h-51.176c-5.287 0-9.661 4.116-9.981 9.395z" fill="#ff7eb8"/><path d="m91.988 259.186-4.449 73.352h103.59l-4.448-73.352z" fill="#ffa8cf"/><path d="m102.447 86.712-1.366 22.525h76.506l-1.366-22.525z" fill="#fe2c8f"/></g><path d="m435.218 456.822h-358.436c-2.761 0-5-2.239-5-5v-87.477h368.437v87.477c-.001 2.762-2.239 5-5.001 5z" fill="#02ffb3"/><path d="m396.619 456.822h-89.536v-56.565c0-2.761 2.239-5 5-5h79.536c2.761 0 5 2.239 5 5z" fill="#6583fe"/><path d="m71.782 364.346h368.437v21.145h-368.437z" fill="#01eca5"/><path d="m443.994 364.346h-375.988c-2.761 0-5-2.239-5-5v-21.808c0-2.761 2.239-5 5-5h375.987c2.761 0 5 2.239 5 5v21.808c.001 2.761-2.238 5-4.999 5z" fill="#fff"/><path d="m143.213 191.696-8.542 140.841h103.59l-8.542-140.841c-.32-5.278-4.694-9.395-9.982-9.395h-66.544c-5.286.001-9.66 4.117-9.98 9.395z" fill="#ffa8cf"/><path d="m138.062 276.642-3.39 55.896h103.59l-3.39-55.896z" fill="#ffc4df"/><path d="m231.831 226.507-1.332-21.962h-88.065l-1.332 21.962z" fill="#ff7eb8"/><path d="m174.468 332.538h85.374v-88.387h-80.374c-2.761 0-5 2.239-5 5z" fill="#6583fe"/><path d="m174.47 266.492h85.37v31.53h-85.37z" fill="#b7c5ff"/><path d="m214.53 266.492-31.54 31.53h-8.52v-31.53z" fill="#d2deff"/><path d="m238.345 266.492-31.54 31.53h-16.09l31.53-31.53z" fill="#d2deff"/><g><g><g><path d="m111.301 400.258h-10.136c-2.761 0-5-2.238-5-5s2.239-5 5-5h10.136c2.761 0 5 2.238 5 5s-2.238 5-5 5z" fill="#dcfdee"/></g><g><path d="m142.461 400.258h-10.136c-2.761 0-5-2.238-5-5s2.239-5 5-5h10.136c2.761 0 5 2.238 5 5s-2.239 5-5 5z" fill="#dcfdee"/></g><g><path d="m173.62 400.258h-10.136c-2.761 0-5-2.238-5-5s2.239-5 5-5h10.136c2.761 0 5 2.238 5 5s-2.239 5-5 5z" fill="#dcfdee"/></g><g><path d="m204.779 400.258h-10.136c-2.761 0-5-2.238-5-5s2.239-5 5-5h10.136c2.761 0 5 2.238 5 5s-2.239 5-5 5z" fill="#dcfdee"/></g><g><path d="m235.938 400.258h-10.136c-2.761 0-5-2.238-5-5s2.239-5 5-5h10.136c2.761 0 5 2.238 5 5s-2.238 5-5 5z" fill="#dcfdee"/></g><g><path d="m267.098 400.258h-10.136c-2.761 0-5-2.238-5-5s2.239-5 5-5h10.136c2.761 0 5 2.238 5 5s-2.239 5-5 5z" fill="#dcfdee"/></g></g><g><g><path d="m111.301 420.584h-10.136c-2.761 0-5-2.238-5-5s2.239-5 5-5h10.136c2.761 0 5 2.238 5 5s-2.238 5-5 5z" fill="#dcfdee"/></g><g><path d="m142.461 420.584h-10.136c-2.761 0-5-2.238-5-5s2.239-5 5-5h10.136c2.761 0 5 2.238 5 5s-2.239 5-5 5z" fill="#dcfdee"/></g><g><path d="m173.62 420.584h-10.136c-2.761 0-5-2.238-5-5s2.239-5 5-5h10.136c2.761 0 5 2.238 5 5s-2.239 5-5 5z" fill="#dcfdee"/></g><g><path d="m204.779 420.584h-10.136c-2.761 0-5-2.238-5-5s2.239-5 5-5h10.136c2.761 0 5 2.238 5 5s-2.239 5-5 5z" fill="#dcfdee"/></g><g><path d="m235.938 420.584h-10.136c-2.761 0-5-2.238-5-5s2.239-5 5-5h10.136c2.761 0 5 2.238 5 5s-2.238 5-5 5z" fill="#dcfdee"/></g><g><path d="m267.098 420.584h-10.136c-2.761 0-5-2.238-5-5s2.239-5 5-5h10.136c2.761 0 5 2.238 5 5s-2.239 5-5 5z" fill="#dcfdee"/></g></g></g></g><g><path d="m307.083 407.729h89.536v10h-89.536z" fill="#9fb0fe"/></g><g><path d="m307.083 428.94h89.536v10h-89.536z" fill="#9fb0fe"/></g></g><path d="m340.025 332.538h-80.183v-201.945c0-3.758 3.991-6.173 7.32-4.429l70.183 36.762c1.648.863 2.68 2.569 2.68 4.429z" fill="#b7c5ff"/><path d="m420.208 332.538h-80.183v-201.945c0-3.758 3.991-6.173 7.32-4.429l70.183 36.762c1.648.863 2.68 2.569 2.68 4.429z" fill="#d2deff"/><path d="m340.025 244.151h80.183v39.418h-80.183z" fill="#8399fe"/><path d="m259.842 244.151h80.183v39.418h-80.183z" fill="#6583fe"/><path d="m443.994 327.538h-18.786v-160.184c0-3.731-2.054-7.125-5.36-8.857l-70.182-36.762c-3.126-1.639-6.797-1.524-9.817.302-3.021 1.827-4.824 5.025-4.824 8.556v25.474l-44.806-23.47c2.141-3.456 3.317-7.476 3.317-11.599v-7.824c0-6.617 5.383-12 12-12h17.153 28.428c12.131 0 22-9.869 22-22 0-2.762-2.239-5-5-5s-5 2.238-5 5c0 6.617-5.383 12-12 12h-10.003c2.257-3.454 3.575-7.575 3.575-12 0-2.762-2.239-5-5-5s-5 2.238-5 5c0 6.617-5.383 12-12 12h-17.153-44.711c-12.131 0-22 9.869-22 22v7.824c0 6.617-5.383 12-12 12h-8.554-34.234l-4.143-68.307c-.479-7.901-7.055-14.092-14.972-14.092h-51.176c-7.917 0-14.493 6.19-14.972 14.092l-15.941 262.847h-14.827c-5.514 0-10 4.486-10 10v21.808c0 5.514 4.486 10 10 10h367.212v82.477h-358.436v-54.485c0-2.762-2.239-5-5-5s-5 2.238-5 5v54.485c0 5.514 4.486 10 10 10h358.437c5.514 0 10-4.486 10-10v-82.56c4.937-.607 8.775-4.819 8.775-9.917v-21.808c0-5.514-4.486-10-10-10zm-28.786-160.184v160.184h-70.183v-196.945zm-80.183 160.184h-75.183-80.375v-78.387h75.375v50.396c0 2.762 2.239 5 5 5s5-2.238 5-5v-168.954l70.183 36.763zm-195.041 0 8.22-135.539c.16-2.634 2.352-4.697 4.991-4.697h66.544c2.639 0 4.831 2.063 4.991 4.697l2.86 47.152h-48.121c-5.514 0-10 4.486-10 10v78.387zm108.84-206.54v-7.824c0-6.617 5.383-12 12-12h26.286c-2.257 3.454-3.575 7.575-3.575 12v7.824c0 2.538-.771 4.933-2.206 6.943l-11.847-6.206c-3.126-1.64-6.796-1.524-9.817.302-3.02 1.827-4.823 5.025-4.823 8.556v2.405h-9.593c2.257-3.454 3.575-7.575 3.575-12zm-48.978 22c-2.257 3.454-3.575 7.575-3.575 12 0 2.762 2.239 5 5 5s5-2.238 5-5c0-6.617 5.383-12 12-12h8.554 28.018v96.153h-17.235l-2.896-47.758c-.479-7.902-7.056-14.092-14.972-14.092h-33.015l-2.08-34.304h15.201zm-91.091-77.701c.16-2.634 2.352-4.697 4.991-4.697h51.176c2.639 0 4.831 2.063 4.991 4.697l4.106 67.701h-.459c-12.131 0-22 9.869-22 22 0 2.762 2.239 5 5 5s5-2.238 5-5c0-6.617 5.383-12 12-12h1.066l2.08 34.304h-23.51c-7.917 0-14.494 6.19-14.972 14.092l-8.257 136.145h-37.116zm-40.749 272.241h375.987l.007 21.808h-375.994z" fill="#2626bc"/><g fill="#fff"><path d="m395.786 220.378h-12.167v-23.854c0-1.112-1.494-1.475-2.004-.487l-18.111 35.05c-.365.706.148 1.549.943 1.549h12.167v23.854c0 1.112 1.494 1.475 2.004.487l18.111-35.05c.365-.707-.147-1.549-.943-1.549z"/><path d="m317.096 220.378h-12.167v-23.854c0-1.112-1.494-1.475-2.004-.487l-18.111 35.05c-.365.706.148 1.549.943 1.549h12.167v23.854c0 1.112 1.494 1.475 2.004.487l18.111-35.05c.365-.707-.148-1.549-.943-1.549z"/></g></g><path d="m417.963 125.237c-2.761 0-5-2.238-5-5 0-3.309-2.691-6-6-6-2.761 0-5-2.238-5-5s2.239-5 5-5c3.309 0 6-2.691 6-6 0-2.762 2.239-5 5-5s5 2.238 5 5c0 3.309 2.691 6 6 6 2.761 0 5 2.238 5 5s-2.239 5-5 5c-3.309 0-6 2.691-6 6 0 2.762-2.238 5-5 5z" fill="#01eca5"/><path d="m220.803 66.6c-2.761 0-5-2.238-5-5 0-3.309-2.691-6-6-6-2.761 0-5-2.238-5-5s2.239-5 5-5c3.309 0 6-2.691 6-6 0-2.762 2.239-5 5-5s5 2.238 5 5c0 3.309 2.691 6 6 6 2.761 0 5 2.238 5 5s-2.239 5-5 5c-3.309 0-6 2.691-6 6 0 2.761-2.239 5-5 5z" fill="#6583fe"/><path d="m451.526 157.086c-1.28 0-2.559-.488-3.536-1.464-1.953-1.953-1.953-5.119 0-7.071l3.328-3.328-5.002-3.172c-1.282-.813-2.125-2.164-2.292-3.673s.361-3.012 1.434-4.085l7.742-7.742c1.952-1.953 5.118-1.952 7.071-.001 1.953 1.953 1.953 5.119 0 7.071l-3.328 3.328 5.002 3.172c1.282.813 2.125 2.164 2.292 3.673s-.361 3.012-1.434 4.085l-7.742 7.742c-.976.977-2.255 1.465-3.535 1.465z" fill="#6583fe"/><g fill="#ff7eb8"><path d="m63.177 160.086c-1.28 0-2.559-.488-3.536-1.464-1.953-1.953-1.953-5.119 0-7.071l3.328-3.328-5.002-3.172c-1.282-.813-2.125-2.164-2.292-3.673s.361-3.012 1.434-4.085l7.742-7.742c1.953-1.953 5.118-1.953 7.071 0 1.953 1.952 1.953 5.118 0 7.07l-3.328 3.328 5.001 3.172c1.282.813 2.125 2.164 2.292 3.673s-.361 3.012-1.434 4.085l-7.742 7.742c-.975.977-2.254 1.465-3.534 1.465z"/><path d="m446.389 314.022c-1.28 0-2.559-.488-3.536-1.465-1.953-1.952-1.953-5.118 0-7.07l3.328-3.328-5.002-3.172c-1.282-.813-2.125-2.164-2.292-3.673s.361-3.012 1.434-4.085l7.742-7.742c1.953-1.953 5.118-1.953 7.071 0 1.953 1.952 1.953 5.118 0 7.07l-3.328 3.328 5.002 3.172c1.282.813 2.125 2.164 2.292 3.673s-.361 3.012-1.434 4.085l-7.742 7.742c-.976.977-2.256 1.465-3.535 1.465z"/></g></g><g><g><path d="m401.124 294.594c-2.761 0-5-2.238-5-5v-9.383c0-2.762 2.239-5 5-5s5 2.238 5 5v9.383c0 2.761-2.239 5-5 5z" fill="#4369fd"/></g><g><path d="m384.327 294.594c-2.761 0-5-2.238-5-5v-9.383c0-2.762 2.239-5 5-5s5 2.238 5 5v9.383c0 2.761-2.239 5-5 5z" fill="#4369fd"/></g></g><g><g><path d="m319.753 294.594c-2.761 0-5-2.238-5-5v-9.383c0-2.762 2.239-5 5-5s5 2.238 5 5v9.383c0 2.761-2.239 5-5 5z" fill="#2d58e0"/></g><g><path d="m302.956 294.594c-2.761 0-5-2.238-5-5v-9.383c0-2.762 2.239-5 5-5s5 2.238 5 5v9.383c0 2.761-2.238 5-5 5z" fill="#2d58e0"/></g></g></g></g></svg>