<svg id="Capa_1" enable-background="new 0 0 512 512" height="512" viewBox="0 0 512 512" width="512" xmlns="http://www.w3.org/2000/svg" xmlns:xlink="http://www.w3.org/1999/xlink"><linearGradient id="SVGID_1_" gradientUnits="userSpaceOnUse" x1="15.63" x2="496.37" y1="256" y2="256"><stop offset=".0485" stop-color="#ffdbed"/><stop offset=".9993" stop-color="#d2deff"/></linearGradient><g><g><path d="m20.722 179.563c26.255 85.007 107.775 89.005 182.131 93.553 244.867 14.978-63.002 218.186 146.697 238.304 77.136 7.4 157.788-56.956 145.59-140.291-11.107-75.879-121.152-121.073-121.207-191.979-.043-55.945 103.86-96.409 36.272-156.553-60.249-53.612-442.871-15.888-389.483 156.966z" fill="url(#SVGID_1_)"/></g><g><g fill="#2626bc" opacity=".1"><path d="m400.276 172.297h-62.725c-2.761 0-5 2.239-5 5v171.559c0 42.145-33.653 77.115-75.795 77.523-42.555.413-77.306-34.085-77.306-76.546v-172.536c0-2.761-2.239-5-5-5h-62.725c-2.761 0-5 2.239-5 5v171.09c0 82.514 66.339 150.49 148.853 150.72 82.505.23 149.699-66.823 149.699-149.275v-172.535c-.001-2.761-2.24-5-5.001-5z"/><circle cx="256" cy="333.735" r="44.171"/><circle cx="256" cy="219.399" r="44.171"/><circle cx="256" cy="105.063" r="44.171"/></g><g><g><g><path d="m332.551 153.297v171.559c0 42.145-33.653 77.115-75.795 77.523-42.555.413-77.306-34.085-77.306-76.547v-172.535c0-2.761-2.239-5-5-5h-62.725c-2.761 0-5 2.239-5 5v171.09c0 82.514 66.339 150.49 148.853 150.72 82.505.23 149.699-66.823 149.699-149.275v-172.535c0-2.761-2.239-5-5-5h-62.725c-2.763 0-5.001 2.239-5.001 5z" fill="#b7c5ff"/></g><g><path d="m255.577 475.107c82.505.23 149.699-66.823 149.699-149.275v-172.535c0-2.761-2.239-5-5-5h-62.725c-2.761 0-5 2.239-5 5v171.559c0 42.145-33.653 77.115-75.795 77.523z" fill="#ffa8cf"/></g><g><path d="m405.276 197.243v-43.946c0-2.761-2.239-5-5-5h-62.725c-2.761 0-5 2.239-5 5v43.946z" fill="#6583fe"/><path d="m179.449 197.243v-43.946c0-2.761-2.239-5-5-5h-62.725c-2.761 0-5 2.239-5 5v43.946z" fill="#ff7eb8"/></g><g fill="#2626bc"><path d="m256.002 480.108c-.148 0-.291-.001-.44-.001-84.827-.237-153.838-70.093-153.838-155.721v-171.09c0-5.514 4.486-10 10-10h62.725c5.514 0 10 4.486 10 10v83.762c0 2.762-2.239 5-5 5s-5-2.238-5-5v-83.762h-62.725v171.09c0 80.129 64.538 145.499 143.867 145.721 38.526.119 74.862-14.865 102.235-42.163 27.375-27.299 42.45-63.563 42.45-102.112v-172.535h-15.17c-2.761 0-5-2.238-5-5s2.239-5 5-5h15.17c5.514 0 10 4.486 10 10v172.535c0 41.226-16.12 80.005-45.389 109.192-29.162 29.082-67.819 45.082-108.885 45.084z"/><path d="m255.993 407.383c-21.606 0-41.945-8.373-57.351-23.631-15.602-15.451-24.193-36.021-24.193-57.92v-55.782c0-2.762 2.239-5 5-5s5 2.238 5 5v55.782c0 19.21 7.54 37.257 21.23 50.814 13.688 13.556 31.791 20.95 51.028 20.732 39.063-.378 70.844-32.912 70.844-72.523v-171.558c0-5.514 4.486-10 10-10h14.564c2.761 0 5 2.238 5 5s-2.239 5-5 5h-14.564v171.559c0 45.072-36.223 82.092-80.747 82.523-.27.002-.541.004-.811.004z"/></g><g><circle cx="256" cy="309.735" fill="#fff" r="44.171"/><path d="m270.576 304.034h-11.318v-22.189c0-1.035-1.389-1.372-1.864-.453l-16.847 32.604c-.34.657.137 1.44.877 1.44h11.318v22.189c0 1.035 1.389 1.372 1.864.453l16.847-32.604c.34-.657-.137-1.44-.877-1.44z" fill="#ff7eb8"/><path d="m256 358.905c-27.113 0-49.17-22.058-49.17-49.171s22.058-49.171 49.17-49.171 49.17 22.058 49.17 49.171-22.057 49.171-49.17 49.171zm0-88.342c-21.599 0-39.17 17.572-39.17 39.171s17.572 39.171 39.17 39.171 39.17-17.572 39.17-39.171-17.571-39.171-39.17-39.171z" fill="#2626bc"/></g><g><circle cx="256" cy="195.399" fill="#fff" r="44.171"/><path d="m270.576 189.698h-11.318v-22.189c0-1.035-1.389-1.372-1.864-.453l-16.847 32.604c-.34.657.137 1.44.877 1.44h11.318v22.189c0 1.035 1.389 1.372 1.864.453l16.847-32.604c.34-.657-.137-1.44-.877-1.44z" fill="#6583fe"/><path d="m256 244.569c-27.113 0-49.17-22.058-49.17-49.171 0-27.112 22.058-49.17 49.17-49.17s49.17 22.058 49.17 49.17c0 27.114-22.057 49.171-49.17 49.171zm0-88.34c-21.599 0-39.17 17.571-39.17 39.17s17.572 39.171 39.17 39.171 39.17-17.572 39.17-39.171-17.571-39.17-39.17-39.17z" fill="#2626bc"/></g><g><circle cx="256" cy="81.063" fill="#fff" r="44.171"/><path d="m270.576 75.362h-11.318v-22.189c0-1.035-1.389-1.372-1.864-.453l-16.847 32.604c-.34.657.137 1.44.877 1.44h11.318v22.189c0 1.035 1.389 1.372 1.864.453l16.847-32.604c.34-.657-.137-1.44-.877-1.44z" fill="#01eca5"/><path d="m256 130.233c-27.113 0-49.17-22.058-49.17-49.171 0-27.112 22.058-49.17 49.17-49.17s49.17 22.058 49.17 49.17c0 27.114-22.057 49.171-49.17 49.171zm0-88.34c-21.599 0-39.17 17.571-39.17 39.17s17.572 39.171 39.17 39.171 39.17-17.572 39.17-39.171-17.571-39.17-39.17-39.17z" fill="#2626bc"/></g></g><g fill="#fff"><path d="m151.297 215.852h-3.21v-3.211c0-2.762-2.239-5-5-5s-5 2.238-5 5v3.211h-3.21c-2.761 0-5 2.238-5 5s2.239 5 5 5h3.21v3.21c0 2.762 2.239 5 5 5s5-2.238 5-5v-3.21h3.21c2.761 0 5-2.238 5-5s-2.239-5-5-5z"/><path d="m360.703 215.852c-2.761 0-5 2.238-5 5s2.239 5 5 5h16.42c2.761 0 5-2.238 5-5s-2.239-5-5-5z"/></g></g><path d="m444.538 369.905c-2.761 0-5-2.238-5-5 0-3.309-2.691-6-6-6-2.761 0-5-2.238-5-5s2.239-5 5-5c3.309 0 6-2.691 6-6 0-2.762 2.239-5 5-5s5 2.238 5 5c0 3.309 2.691 6 6 6 2.761 0 5 2.238 5 5s-2.239 5-5 5c-3.309 0-6 2.691-6 6 0 2.762-2.239 5-5 5z" fill="#ff7eb8"/><path d="m62.329 292.643c-2.761 0-5-2.238-5-5 0-3.309-2.691-6-6-6-2.761 0-5-2.238-5-5s2.239-5 5-5c3.309 0 6-2.691 6-6 0-2.762 2.239-5 5-5s5 2.238 5 5c0 3.309 2.691 6 6 6 2.761 0 5 2.238 5 5s-2.239 5-5 5c-3.309 0-6 2.691-6 6 0 2.761-2.239 5-5 5z" fill="#01eca5"/><path d="m419.933 422.56c-1.28 0-2.559-.488-3.536-1.465-1.953-1.952-1.953-5.118 0-7.07l3.328-3.328-5.001-3.172c-1.282-.813-2.125-2.164-2.292-3.673s.361-3.012 1.434-4.085l7.742-7.742c1.952-1.953 5.118-1.952 7.071-.001 1.953 1.953 1.953 5.119 0 7.071l-3.328 3.328 5.002 3.172c1.282.813 2.125 2.164 2.292 3.673s-.361 3.012-1.434 4.085l-7.742 7.742c-.977.976-2.256 1.465-3.536 1.465z" fill="#6583fe"/><path d="m172.981 75.6c-1.28 0-2.559-.488-3.536-1.465-1.953-1.952-1.953-5.118 0-7.071l3.328-3.326-5.002-3.173c-1.282-.813-2.125-2.165-2.292-3.674-.167-1.508.361-3.011 1.434-4.084l7.742-7.742c1.953-1.953 5.118-1.953 7.071 0 1.953 1.952 1.953 5.118 0 7.07l-3.328 3.328 5.002 3.173c1.282.813 2.125 2.165 2.292 3.674s-.361 3.011-1.434 4.084l-7.742 7.742c-.975.975-2.255 1.464-3.535 1.464z" fill="#ff7eb8"/><path d="m151.159 117.063c-2.761 0-5-2.238-5-5 0-3.309-2.691-6-6-6-2.761 0-5-2.238-5-5s2.239-5 5-5c3.309 0 6-2.691 6-6 0-2.762 2.239-5 5-5s5 2.238 5 5c0 3.309 2.691 6 6 6 2.761 0 5 2.238 5 5s-2.239 5-5 5c-3.309 0-6 2.691-6 6 0 2.761-2.239 5-5 5z" fill="#6583fe"/></g></g></svg>