<svg id="Capa_1" enable-background="new 0 0 512 512" height="512" viewBox="0 0 512 512" width="512" xmlns="http://www.w3.org/2000/svg" xmlns:xlink="http://www.w3.org/1999/xlink"><linearGradient id="SVGID_1_" gradientUnits="userSpaceOnUse" x1="15.63" x2="496.37" y1="256" y2="256"><stop offset=".0485" stop-color="#d2deff"/><stop offset=".9993" stop-color="#dcfdee"/></linearGradient><g><g><path d="m20.722 179.563c26.255 85.007 107.775 89.005 182.131 93.553 244.867 14.978-63.002 218.186 146.697 238.304 77.136 7.4 157.788-56.956 145.59-140.291-11.107-75.879-121.152-121.073-121.207-191.979-.043-55.945 103.86-96.409 36.272-156.553-60.249-53.612-442.871-15.888-389.483 156.966z" fill="url(#SVGID_1_)"/></g><g><g><g><circle cx="256" cy="274" fill="#2626bc" opacity=".1" r="197.789"/><circle cx="256" cy="250" fill="#ff7eb8" r="197.789"/><path d="m453.009 237.555c-2.564 0-4.748-1.962-4.976-4.564-4.182-47.835-26.012-92.166-61.469-124.829-35.667-32.856-82.036-50.951-130.564-50.951-48.529 0-94.898 18.095-130.565 50.95-35.457 32.663-57.287 76.994-61.468 124.829-.24 2.751-2.66 4.782-5.417 4.546-2.751-.241-4.786-2.666-4.545-5.417 4.399-50.323 27.361-96.958 64.655-131.313 37.518-34.561 86.294-53.595 137.34-53.595s99.821 19.034 137.34 53.596c37.295 34.354 60.257 80.989 64.656 131.313.24 2.751-1.795 5.176-4.546 5.417-.148.012-.295.018-.441.018z" fill="#2626bc"/><path d="m256 452.789c-51.389 0-100.407-19.256-138.024-54.221-37.418-34.78-60.198-81.884-64.144-132.636-.214-2.753 1.844-5.158 4.597-5.373 2.753-.203 5.158 1.845 5.373 4.598 3.751 48.242 25.408 93.021 60.982 126.086 35.762 33.24 82.362 51.546 131.216 51.546s95.454-18.306 131.216-51.546c35.574-33.065 57.231-77.844 60.982-126.086.214-2.754 2.634-4.81 5.373-4.598 2.753.215 4.812 2.62 4.598 5.373-3.946 50.752-26.727 97.855-64.145 132.636-37.618 34.965-86.635 54.221-138.024 54.221z" fill="#2626bc"/><circle cx="256" cy="250" fill="#ffa8cf" r="162.756"/><circle cx="256" cy="250" fill="#00d890" r="89.182"/><g><g><g><g><g><g><path d="m195.944 346.982c-30.423 17.565-67.567 12.843-92.584-9.101-6.495-32.637 7.976-67.186 38.399-84.751 30.404-17.554 67.559-12.811 92.576 9.132 6.495 32.638-7.987 67.167-38.391 84.72z" fill="#02ffb3"/><path d="m238.665 259.763c-1.38-2.392-4.438-3.212-6.83-1.83l-66.786 38.559-15.914-9.076c-2.398-1.369-5.452-.532-6.82 1.865-1.368 2.399-.533 5.453 1.866 6.82l10.839 6.182-18.548 10.709c-2.392 1.381-3.211 4.438-1.83 6.83.926 1.604 2.606 2.501 4.335 2.501.848 0 1.708-.216 2.495-.671l26.062-15.047c.005-.003.01-.006.015-.008l14.247-8.226-.811 14.553c-.154 2.757 1.957 5.117 4.714 5.271.095.005.189.008.283.008 2.634 0 4.839-2.06 4.988-4.722l1.176-21.084 44.692-25.803c2.388-1.382 3.207-4.44 1.827-6.831z" fill="#00b574"/></g></g></g></g><g><g><g><g><path d="m370.231 253.15c30.423 17.565 44.905 52.094 38.41 84.731-25.017 21.944-62.172 26.686-92.596 9.121-30.404-17.554-44.874-52.102-38.379-84.739 25.017-21.944 62.161-26.666 92.565-9.113z" fill="#02ffb3"/><path d="m375.53 312.991-40.323-23.281 13.009-6.574c2.465-1.246 3.453-4.254 2.208-6.718-1.246-2.465-4.253-3.453-6.718-2.208l-18.848 9.525-44.692-25.803c-2.393-1.384-5.451-.561-6.83 1.83-1.381 2.392-.562 5.449 1.83 6.83l66.786 38.559.096 18.32c.015 2.752 2.25 4.974 4.999 4.974h.027c2.762-.015 4.988-2.265 4.974-5.026l-.066-12.476 18.548 10.709c.787.455 1.647.671 2.495.671 1.729 0 3.409-.897 4.335-2.501 1.381-2.392.562-5.45-1.83-6.831z" fill="#00b574"/></g></g></g></g><g><g><g><g><path d="m201.815 149.58c0-35.13 22.662-64.936 54.174-75.63 31.512 10.694 54.197 40.5 54.197 75.63 0 35.107-22.684 64.913-54.197 75.607-31.512-10.694-54.174-40.5-54.174-75.607z" fill="#02ffb3"/><path d="m278.602 131.986c-1.395-2.385-4.456-3.187-6.84-1.795l-10.773 6.295v-21.417c0-2.762-2.238-5-5-5-2.761 0-5 2.238-5 5v46.561l-12.198-7.979c-2.313-1.511-5.411-.864-6.921 1.447-1.512 2.312-.864 5.41 1.447 6.922l17.673 11.56v51.606c0 2.762 2.239 5 5 5s5-2.238 5-5l.001-77.117 15.818-9.244c2.382-1.392 3.185-4.455 1.793-6.839z" fill="#00b574"/></g></g></g></g></g><circle cx="256" cy="250" fill="#dcfdee" r="38.131"/></g></g><path d="m45.105 382.514c-2.761 0-5-2.238-5-5 0-3.309-2.691-6-6-6-2.761 0-5-2.238-5-5s2.239-5 5-5c3.309 0 6-2.691 6-6 0-2.762 2.239-5 5-5s5 2.238 5 5c0 3.309 2.691 6 6 6 2.761 0 5 2.238 5 5s-2.239 5-5 5c-3.309 0-6 2.691-6 6 0 2.761-2.238 5-5 5z" fill="#ff7eb8"/><path d="m73.315 428.756c-2.761 0-5-2.238-5-5 0-3.309-2.691-6-6-6-2.761 0-5-2.238-5-5s2.239-5 5-5c3.309 0 6-2.691 6-6 0-2.762 2.239-5 5-5s5 2.238 5 5c0 3.309 2.691 6 6 6 2.761 0 5 2.238 5 5s-2.239 5-5 5c-3.309 0-6 2.691-6 6 0 2.762-2.239 5-5 5z" fill="#6583fe"/><path d="m418.756 99.941c-2.762 0-5-2.238-5-5 0-3.309-2.691-6-6-6-2.762 0-5-2.238-5-5s2.238-5 5-5c3.309 0 6-2.691 6-6 0-2.762 2.238-5 5-5s5 2.238 5 5c0 3.309 2.691 6 6 6 2.762 0 5 2.238 5 5s-2.238 5-5 5c-3.309 0-6 2.691-6 6 0 2.762-2.238 5-5 5z" fill="#01eca5"/><path d="m421.288 434.582c-1.279 0-2.56-.488-3.535-1.465-1.953-1.952-1.953-5.118 0-7.07l3.327-3.328-5.002-3.172c-1.282-.813-2.125-2.164-2.292-3.673s.36-3.012 1.435-4.085l7.742-7.742c1.951-1.953 5.119-1.953 7.07 0 1.953 1.952 1.953 5.118 0 7.07l-3.327 3.328 5.002 3.172c1.282.813 2.125 2.164 2.292 3.673s-.36 3.012-1.435 4.085l-7.742 7.742c-.975.977-2.256 1.465-3.535 1.465z" fill="#01eca5"/><path d="m456.321 131.069c-1.279 0-2.56-.488-3.536-1.465-1.952-1.952-1.952-5.118.001-7.071l3.327-3.326-5.002-3.173c-1.282-.813-2.125-2.165-2.292-3.673-.167-1.509.361-3.012 1.435-4.085l7.742-7.742c1.951-1.953 5.119-1.953 7.07 0 1.953 1.952 1.953 5.118 0 7.07l-3.327 3.328 5.002 3.173c1.282.813 2.125 2.165 2.292 3.674s-.361 3.012-1.435 4.085l-7.742 7.741c-.976.976-2.255 1.464-3.535 1.464z" fill="#ff7eb8"/></g><g><path d="m267.262 371.514h-22.525c-2.761 0-5-2.238-5-5s2.239-5 5-5h22.525c2.761 0 5 2.238 5 5s-2.238 5-5 5z" fill="#ffdbed"/></g><g><path d="m282.262 390.513h-52.525c-2.761 0-5-2.238-5-5s2.239-5 5-5h52.525c2.761 0 5 2.238 5 5s-2.238 5-5 5z" fill="#ffdbed"/></g></g></g></svg>