<svg id="Capa_1" enable-background="new 0 0 512 512" height="512" viewBox="0 0 512 512" width="512" xmlns="http://www.w3.org/2000/svg" xmlns:xlink="http://www.w3.org/1999/xlink"><linearGradient id="SVGID_1_" gradientUnits="userSpaceOnUse" x1="45.274" x2="466.726" y1="256" y2="256"><stop offset=".0485" stop-color="#d2deff"/><stop offset=".9993" stop-color="#dcfdee"/></linearGradient><g><g><path d="m97.146 38.232c-135.328 119.538 38.831 235.409 22.243 366.028-7.375 58.072 16.054 113.588 92.705 107.244 93.413-7.732 59.504-97.209 79.066-156.778 33.66-102.501 240.73-78.56 154.895-236.448-54.778-100.758-255.766-162.321-348.909-80.046z" fill="url(#SVGID_1_)"/></g><g><path d="m451.155 158.509c0-34.376-27.868-62.244-62.244-62.244-15.364 0-29.418 5.578-40.275 14.804-27.488-15.106-59.056-23.705-92.636-23.705-106.39 0-192.636 86.246-192.636 192.636s86.246 192.636 192.636 192.636 192.636-86.246 192.636-192.636c0-27.429-5.745-53.512-16.078-77.13 11.475-11.291 18.597-26.992 18.597-44.361z" fill="#2626bc" opacity=".1"/><g><circle cx="256" cy="256" fill="#8399fe" r="192.636"/><path d="m231.41 90.997v48.401c0 5.52 4.47 10 10 10h3.891v15.365c0 5.909 4.79 10.699 10.699 10.699s10.699-4.79 10.699-10.699v-15.365h3.891c5.53 0 10-4.48 10-10v-48.401z" fill="#6583fe"/><path d="m438.95 195.52c-11.33 15.31-29.52 25.23-50.04 25.23-34.38 0-62.24-27.86-62.24-62.24 0-27.26 17.52-50.43 41.91-58.85 32.58 23.5 57.51 56.93 70.37 95.86z" fill="#6583fe"/><path d="m298.52 68.19v46.3c0 2.761-2.239 5-5 5h-76.16c-2.761 0-5-2.239-5-5v-46.3c13.85-3.16 28.27-4.83 43.08-4.83s29.23 1.67 43.08 4.83z" fill="#4369fd"/><path d="m217.36 392.51h76.16c2.761 0 5 2.239 5 5v46.3c-13.85 3.16-28.27 4.83-43.08 4.83s-29.23-1.67-43.08-4.83v-46.3c0-2.761 2.239-5 5-5z" fill="#4369fd"/><g><path d="m280.59 64.92v55.9c0 5.52-4.47 10-10 10h-29.18c-5.53 0-10-4.48-10-10v-55.9c8.05-1.03 16.26-1.56 24.59-1.56s16.54.53 24.59 1.56z" fill="#ffa8cf"/><path d="m280.59 387.45v59.63c-8.05 1.03-16.26 1.56-24.59 1.56s-16.54-.53-24.59-1.56v-59.63c0-5.52 4.47-10 10-10h29.18c5.53 0 10 4.48 10 10z" fill="#ffa8cf"/><path d="m266.699 377.45v35.651c0 5.909-4.79 10.699-10.699 10.699-5.909 0-10.699-4.79-10.699-10.699v-35.651z" fill="#ff7eb8"/></g><g><g><path d="m447.09 231.5h-29.17c-2.761 0-5-2.239-5-5v-82.27c18.01 25.24 30.08 55.01 34.17 87.27z" fill="#b7c5ff"/><path d="m438.94 195.53c-6.63 8.96-15.61 16.07-26.02 20.42v-71.72c11.09 15.54 19.93 32.8 26.02 51.3z" fill="#9fb0fe"/><path d="m445.68 289.79c-5.07 28.69-16.49 55.18-32.76 77.98v-72.98c0-2.761 2.239-5 5-5z" fill="#b7c5ff"/></g><g fill="#b7c5ff"><path d="m99.08 144.23v82.27c0 2.761-2.239 5-5 5h-29.17c4.09-32.26 16.16-62.03 34.17-87.27z"/><path d="m99.08 294.79v72.98c-16.27-22.8-27.69-49.29-32.76-77.98h27.76c2.761 0 5 2.239 5 5z"/></g></g><g fill="#ffdbed"><path d="m256 156.884c-5.909 0-10.699-4.79-10.699-10.699v-32.651c0-5.909 4.79-10.699 10.699-10.699 5.909 0 10.699 4.79 10.699 10.699v32.651c0 5.909-4.79 10.699-10.699 10.699z"/><path d="m256 409.166c-5.909 0-10.699-4.79-10.699-10.699v-32.651c0-5.909 4.79-10.699 10.699-10.699 5.909 0 10.699 4.79 10.699 10.699v32.651c0 5.908-4.79 10.699-10.699 10.699z"/></g><g><g><circle cx="388.911" cy="134.509" fill="#fff" r="62.244"/><g fill="#2626bc"><path d="m442.22 206.253c-2.687.641-4.344 3.338-3.703 6.023 3.397 14.238 5.12 28.949 5.12 43.724 0 47.364-17.697 92.588-49.832 127.34-31.953 34.558-75.282 55.733-122.005 59.629-2.752.229-4.797 2.646-4.567 5.397.218 2.611 2.403 4.585 4.977 4.585.14 0 .28-.006.421-.018 49.221-4.103 94.862-26.407 128.518-62.804 33.848-36.606 52.489-84.241 52.489-134.13 0-15.556-1.814-31.047-5.394-46.044-.641-2.684-3.34-4.344-6.024-3.702z"/><path d="m256 68.363c29.249 0 58.209 6.867 84.165 19.897-11.45 12.063-18.499 28.343-18.499 46.248 0 37.078 30.166 67.244 67.244 67.244 37.079 0 67.245-30.166 67.245-67.244s-30.166-67.244-67.245-67.244c-15.339 0-29.487 5.174-40.814 13.853-28.215-14.879-59.988-22.754-92.096-22.754-108.978 0-197.637 88.659-197.637 197.637 0 49.788 18.575 97.351 52.305 133.928 33.53 36.36 79.032 58.719 128.126 62.955.146.013.291.019.436.019 2.566 0 4.751-1.965 4.976-4.57.237-2.751-1.801-5.174-4.552-5.411-46.602-4.021-89.799-25.249-121.634-59.771-32.022-34.726-49.657-79.881-49.657-127.15 0-103.463 84.174-187.637 187.637-187.637zm190.155 66.146c0 31.564-25.68 57.244-57.245 57.244-31.564 0-57.244-25.68-57.244-57.244s25.68-57.244 57.244-57.244c31.566 0 57.245 25.679 57.245 57.244z"/></g></g><g><path d="m415.028 129.442c0 16.933-10.923 31.3-26.112 36.454-15.189-5.154-26.123-19.521-26.123-36.454 0-16.922 10.934-31.289 26.123-36.443 15.189 5.154 26.112 19.521 26.112 36.443z" fill="#02ffb3"/><g><path d="m388.911 175.139c-2.761 0-5-2.239-5-5v-50.745c0-2.761 2.239-5 5-5s5 2.239 5 5v50.745c0 2.762-2.239 5-5 5z" fill="#00b574"/></g></g></g><g><g fill="#4369fd"><circle cx="169.494" cy="256" r="28.446"/><circle cx="345.462" cy="256" r="28.446"/></g><g fill="#2d58e0"><path d="m197.94 256c0 15.712-12.739 28.451-28.451 28.451-15.7 0-28.439-12.739-28.439-28.451 0-4.32.964-8.431 2.706-12.1 4.541 9.661 14.353 16.35 25.733 16.35s21.204-6.689 25.745-16.35c1.742 3.669 2.706 7.78 2.706 12.1z"/><path d="m373.91 256c0 15.712-12.739 28.451-28.451 28.451s-28.439-12.739-28.439-28.451c0-4.32.964-8.431 2.694-12.1 4.54 9.661 14.365 16.35 25.745 16.35s21.204-6.689 25.745-16.35c1.742 3.669 2.706 7.78 2.706 12.1z"/></g></g></g><path d="m423.771 429.045c-2.762 0-5-2.238-5-5 0-3.309-2.691-6-6-6-2.762 0-5-2.238-5-5s2.238-5 5-5c3.309 0 6-2.691 6-6 0-2.762 2.238-5 5-5s5 2.238 5 5c0 3.309 2.691 6 6 6 2.762 0 5 2.238 5 5s-2.238 5-5 5c-3.309 0-6 2.691-6 6 0 2.762-2.239 5-5 5z" fill="#01eca5"/><path d="m393.911 53.719c-2.762 0-5-2.238-5-5 0-3.309-2.692-6-6.001-6-2.762 0-5-2.238-5-5s2.238-5 5-5c3.309 0 6.001-2.691 6.001-6 0-2.762 2.238-5 5-5s5 2.238 5 5c0 3.309 2.691 6 5.999 6 2.762 0 5 2.238 5 5s-2.238 5-5 5c-3.308 0-5.999 2.691-5.999 6 0 2.761-2.238 5-5 5z" fill="#6583fe"/><path d="m391.306 464.641c-1.279 0-2.56-.488-3.535-1.465-1.953-1.952-1.953-5.118 0-7.07l3.327-3.328-5.002-3.173c-1.282-.813-2.125-2.165-2.292-3.674-.167-1.508.361-3.011 1.435-4.084l7.742-7.742c1.951-1.953 5.119-1.953 7.07 0 1.953 1.952 1.953 5.118 0 7.07l-3.327 3.328 5.002 3.173c1.282.813 2.125 2.165 2.292 3.673.167 1.509-.361 3.012-1.435 4.085l-7.742 7.742c-.976.976-2.256 1.465-3.535 1.465z" fill="#ff7eb8"/><path d="m348.697 53.719c-1.279 0-2.56-.488-3.535-1.465-1.953-1.952-1.953-5.118 0-7.07l3.327-3.328-5.002-3.172c-1.282-.813-2.125-2.164-2.292-3.673s.36-3.012 1.435-4.085l7.742-7.742c1.951-1.953 5.119-1.953 7.07 0 1.953 1.952 1.953 5.118 0 7.07l-3.327 3.328 5.002 3.172c1.282.813 2.125 2.164 2.292 3.673s-.36 3.012-1.435 4.085l-7.742 7.742c-.975.976-2.255 1.465-3.535 1.465z" fill="#ff7eb8"/><path d="m74.958 428.756c-1.279 0-2.56-.488-3.536-1.465-1.952-1.952-1.952-5.118.001-7.071l3.327-3.326-5.002-3.173c-1.282-.813-2.125-2.165-2.292-3.673-.167-1.509.361-3.012 1.435-4.085l7.742-7.742c1.951-1.953 5.119-1.953 7.07 0 1.953 1.952 1.953 5.118 0 7.07l-3.327 3.328 5.002 3.173c1.282.813 2.125 2.165 2.292 3.674s-.361 3.012-1.435 4.085l-7.742 7.741c-.976.976-2.256 1.464-3.535 1.464z" fill="#6583fe"/></g></g></svg>