<svg id="Capa_1" enable-background="new 0 0 512 512" height="512" viewBox="0 0 512 512" width="512" xmlns="http://www.w3.org/2000/svg" xmlns:xlink="http://www.w3.org/1999/xlink"><linearGradient id="SVGID_1_" gradientUnits="userSpaceOnUse" x1="12.034" x2="499.966" y1="256" y2="256"><stop offset=".0485" stop-color="#ffdbed"/><stop offset=".9993" stop-color="#d2deff"/></linearGradient><g><g><path d="m286.593 4.867c-94.351 27.746-75.427 93.585-85.98 166.539-13.171 91.052-70.095 44.365-135.496 93.537-113.054 85.001-30.931 272.636 109.468 244.14 74.552-15.131 89.786-70.095 120.193-128.824 39.333-75.972 104.558-55.259 163.066-104.856 118.655-100.582-37.403-309.897-171.251-270.536z" fill="url(#SVGID_1_)"/></g><g><g><g fill="#2626bc" opacity=".1"><path d="m353.77 371.89c-48.89 0-48.89-21.85-97.77-21.85s-48.88 21.85-97.76 21.85-48.88-21.85-97.77-21.85v119.24c0 5.52 4.48 10 10 10h370.14c5.49 0 9.95-4.43 10-9.92l.3-42.68.62-76.64c-48.88 0-48.88 21.85-97.76 21.85z"/><path d="m110.47 278.657c9.278 0 17.742-3.473 24.176-9.181 9.632 5.826 20.926 9.181 33.005 9.181s23.372-3.355 33.005-9.181c6.434 5.709 14.898 9.181 24.176 9.181 7.271 0 14.039-2.137 19.726-5.806v42.006c0 4.518 6.067 5.993 8.141 1.979l72.12-139.574c8.814 4.592 18.832 7.191 29.458 7.191 12.078 0 23.372-3.355 33.004-9.181 6.435 5.709 14.898 9.181 24.177 9.181 20.131 0 36.45-16.319 36.45-36.45 0-18.05-13.123-33.027-30.347-35.932-4.166-31.243-30.901-55.35-63.284-55.35s-59.118 24.107-63.284 55.35c-6.827 1.152-13.005 4.205-17.982 8.589v-49.386c0-4.518-6.067-5.993-8.141-1.979l-51.931 100.501c-11.564-11.648-27.577-18.871-45.289-18.871-32.383 0-59.118 24.107-63.284 55.35-17.224 2.905-30.347 17.882-30.347 35.932.001 20.131 16.32 36.45 36.451 36.45z"/><path d="m94.319 304.615v6.79c0 2.762 2.238 5 5 5s5-2.238 5-5v-6.79c0-2.762-2.238-5-5-5s-5 2.239-5 5z"/><path d="m126.417 325.817v6.79c0 2.762 2.238 5 5 5s5-2.238 5-5v-6.79c0-2.762-2.238-5-5-5s-5 2.239-5 5z"/><path d="m362.229 211.397c0-2.762-2.238-5-5-5s-5 2.238-5 5v6.79c0 2.762 2.238 5 5 5s5-2.238 5-5z"/><path d="m357.229 263.412c-2.762 0-5 2.238-5 5v6.79c0 2.762 2.238 5 5 5s5-2.238 5-5v-6.79c0-2.762-2.239-5-5-5z"/><path d="m383.763 232.262v6.79c0 2.762 2.238 5 5 5s5-2.238 5-5v-6.79c0-2.762-2.238-5-5-5s-5 2.238-5 5z"/><path d="m313.373 285.79v6.79c0 2.762 2.238 5 5 5s5-2.238 5-5v-6.79c0-2.762-2.238-5-5-5s-5 2.238-5 5z"/><path d="m411.355 285.79v6.79c0 2.762 2.238 5 5 5s5-2.238 5-5v-6.79c0-2.762-2.238-5-5-5s-5 2.238-5 5z"/><path d="m193.124 304.615v6.79c0 2.762 2.238 5 5 5s5-2.238 5-5v-6.79c0-2.762-2.238-5-5-5s-5 2.239-5 5z"/></g><g><g><path d="m451.53 326.04-.62 76.64-.3 42.68c-.05 5.49-4.51 9.92-10 9.92h-370.14c-5.52 0-10-4.48-10-10v-119.24c48.89 0 48.89 21.85 97.77 21.85s48.88-21.85 97.76-21.85 48.88 21.85 97.77 21.85c48.88 0 48.88-21.85 97.76-21.85z" fill="#8399fe"/><path d="m450.91 402.68-.3 42.68c-.05 5.49-4.51 9.92-10 9.92h-370.14c-5.52 0-10-4.48-10-10v-42.61c48.89 0 48.89 21.85 97.77 21.85s48.88-21.85 97.76-21.85 48.88 21.85 97.77 21.85c48.67 0 48.88-21.66 97.14-21.84z" fill="#6583fe"/><path d="m451.533 326.043-.376 39.323c-48.51.114-48.636 21.859-97.385 21.859-48.897 0-48.897-21.859-97.772-21.859s-48.875 21.859-97.761 21.859c-48.875 0-48.875-21.859-97.772-21.859v-39.323c48.897 0 48.897 21.847 97.772 21.847 48.886 0 48.886-21.847 97.761-21.847s48.875 21.847 97.772 21.847c48.875 0 48.875-21.847 97.761-21.847z" fill="#9fb0fe"/></g><g><path d="m417.563 88.07c-4.166-31.243-30.901-55.35-63.284-55.35s-59.118 24.107-63.284 55.35c-17.224 2.905-30.347 17.882-30.347 35.932 0 20.131 16.319 36.45 36.45 36.45 9.278 0 17.742-3.473 24.176-9.182 9.632 5.826 20.926 9.182 33.005 9.182s23.372-3.356 33.005-9.182c6.434 5.709 14.898 9.182 24.176 9.182 20.131 0 36.45-16.319 36.45-36.45 0-18.05-13.123-33.027-30.347-35.932z" fill="#d2deff"/><g><path d="m322.438 144.171h-49.425v-96.897c0-4.518-6.067-5.993-8.141-1.979l-73.568 142.375c-1.483 2.87.6 6.29 3.83 6.29h49.425v96.896c0 4.518 6.067 5.993 8.141 1.979l73.568-142.375c1.482-2.869-.6-6.289-3.83-6.289z" fill="#ff7eb8"/></g><path d="m230.935 182.275c-4.166-31.243-30.901-55.35-63.284-55.35s-59.118 24.107-63.284 55.35c-17.224 2.905-30.347 17.882-30.347 35.932 0 20.131 16.319 36.45 36.45 36.45 9.278 0 17.742-3.473 24.176-9.182 9.632 5.826 20.926 9.182 33.005 9.182s23.372-3.356 33.005-9.182c6.434 5.709 14.898 9.182 24.176 9.182 20.131 0 36.45-16.319 36.45-36.45.001-18.05-13.123-33.027-30.347-35.932z" fill="#d2deff"/></g><g fill="#2626bc"><path d="m451.53 321.042c-25.506 0-38.426 5.775-50.919 11.359-12.067 5.395-23.466 10.489-46.838 10.489-23.383 0-34.784-5.096-46.855-10.49-12.494-5.584-25.414-11.358-50.918-11.358-25.506 0-38.426 5.775-50.919 11.359-12.067 5.395-23.466 10.489-46.838 10.489-23.371 0-34.77-5.095-46.838-10.488-12.497-5.585-25.42-11.36-50.936-11.36-2.762 0-5 2.238-5 5s2.238 5 5 5c23.383 0 34.784 5.096 46.855 10.49 12.494 5.584 25.414 11.358 50.918 11.358 25.506 0 38.425-5.774 50.918-11.359 12.067-5.395 23.466-10.489 46.839-10.489 23.371 0 34.77 5.095 46.838 10.488 12.497 5.585 25.42 11.36 50.936 11.36 25.506 0 38.425-5.774 50.918-11.359 12.067-5.395 23.466-10.489 46.839-10.489 2.762 0 5-2.238 5-5s-2.238-5-5-5z"/><path d="m320.994 113.317c-2.224 1.512-4.827 2.312-7.527 2.312s-5.303-.799-7.526-2.312c-2.282-1.552-5.393-.961-6.946 1.323-1.553 2.283-.961 5.393 1.323 6.946 3.888 2.645 8.435 4.042 13.149 4.042s9.261-1.397 13.15-4.042c2.283-1.553 2.876-4.662 1.323-6.946-1.552-2.283-4.66-2.874-6.946-1.323z"/><path d="m395.09 125.629c4.714 0 9.261-1.397 13.15-4.042 2.283-1.553 2.876-4.662 1.323-6.946-1.553-2.283-4.661-2.875-6.946-1.323-2.224 1.512-4.827 2.312-7.527 2.312s-5.304-.8-7.527-2.312c-2.285-1.552-5.394-.96-6.946 1.323-1.553 2.284-.96 5.394 1.323 6.946 3.889 2.644 8.436 4.042 13.15 4.042z"/><path d="m110.471 259.657c8.924 0 17.555-2.871 24.669-8.147 9.962 5.341 21.128 8.147 32.512 8.147s22.551-2.808 32.512-8.147c7.114 5.276 15.746 8.147 24.669 8.147 5.185 0 10.147-.966 14.727-2.713v33.913c0 4.378 2.858 8.014 7.112 9.048.768.187 1.534.276 2.286.276 3.415 0 6.539-1.863 8.186-5.051l73.567-142.375c1.504-2.91 1.384-6.318-.319-9.116-1.704-2.798-4.677-4.469-7.953-4.469h-44.425v-40.14c4.052-3.098 8.797-5.185 13.813-6.03 2.163-.365 3.835-2.096 4.125-4.27 3.879-29.081 28.954-51.012 58.328-51.012 29.375 0 54.45 21.93 58.328 51.012.29 2.174 1.962 3.904 4.124 4.27 15.17 2.559 26.18 15.597 26.18 31.001 0 17.342-14.108 31.45-31.45 31.45-7.693 0-15.101-2.813-20.858-7.922-1.638-1.454-4.031-1.672-5.906-.538-9.149 5.534-19.668 8.46-30.417 8.46-2.762 0-5 2.238-5 5s2.238 5 5 5c11.385 0 22.552-2.808 32.512-8.147 7.115 5.276 15.747 8.147 24.67 8.147 22.855 0 41.45-18.595 41.45-41.45 0-19.076-12.814-35.4-30.952-40.102-6.018-32.269-34.505-56.181-67.68-56.181-33.176 0-61.665 23.914-67.681 56.186-2.977.779-5.856 1.896-8.585 3.313v-39.943c0-4.378-2.858-8.014-7.111-9.048-4.26-1.033-8.463.884-10.473 4.773l-38.227 73.981c-1.268 2.453-.307 5.47 2.147 6.737 2.45 1.267 5.47.307 6.737-2.147l36.926-71.464v94.063c0 2.762 2.238 5 5 5h48.293l-71.747 138.854v-36.572c10.143-7.563 16.724-19.65 16.724-33.246 0-19.077-12.813-35.4-30.951-40.102-6.018-32.269-34.505-56.181-67.68-56.181s-61.662 23.912-67.68 56.181c-18.138 4.701-30.951 21.024-30.951 40.102-.001 22.858 18.593 41.452 41.449 41.452zm-5.272-72.451c2.162-.365 3.834-2.096 4.124-4.27 3.878-29.082 28.953-51.012 58.328-51.012s54.45 21.93 58.328 51.012c.29 2.174 1.962 3.904 4.124 4.27 15.169 2.559 26.179 15.597 26.179 31.001 0 17.342-14.108 31.45-31.45 31.45-7.692 0-15.1-2.813-20.857-7.922-.938-.833-2.125-1.26-3.319-1.26-.891 0-1.786.237-2.587.722-9.15 5.534-19.669 8.46-30.417 8.46s-21.267-2.926-30.417-8.46c-1.874-1.134-4.268-.915-5.906.538-5.757 5.108-13.164 7.922-20.857 7.922-17.342 0-31.45-14.108-31.45-31.45-.001-15.404 11.008-28.442 26.177-31.001z"/><path d="m113.689 215.792c3.89 2.645 8.437 4.042 13.15 4.042s9.261-1.397 13.15-4.042c2.283-1.553 2.876-4.662 1.323-6.946-1.554-2.283-4.66-2.875-6.946-1.323-2.224 1.512-4.827 2.312-7.527 2.312s-5.304-.8-7.527-2.312c-2.286-1.552-5.394-.96-6.946 1.323-1.553 2.284-.96 5.393 1.323 6.946z"/><path d="m195.313 215.792c3.89 2.645 8.437 4.042 13.15 4.042s9.261-1.397 13.15-4.042c2.283-1.553 2.876-4.662 1.323-6.946-1.553-2.283-4.661-2.875-6.946-1.323-2.224 1.512-4.827 2.312-7.527 2.312s-5.304-.8-7.527-2.312c-2.285-1.552-5.394-.96-6.946 1.323-1.553 2.284-.961 5.393 1.323 6.946z"/><path d="m94.319 280.615v6.79c0 2.762 2.238 5 5 5s5-2.238 5-5v-6.79c0-2.762-2.238-5-5-5s-5 2.239-5 5z"/><path d="m131.417 296.817c-2.762 0-5 2.238-5 5v6.79c0 2.762 2.238 5 5 5s5-2.238 5-5v-6.79c0-2.761-2.238-5-5-5z"/><path d="m362.229 187.396c0-2.762-2.238-5-5-5s-5 2.238-5 5v6.79c0 2.762 2.238 5 5 5s5-2.238 5-5z"/><path d="m357.229 239.412c-2.762 0-5 2.238-5 5v6.79c0 2.762 2.238 5 5 5s5-2.238 5-5v-6.79c0-2.762-2.239-5-5-5z"/><path d="m383.763 208.262v6.79c0 2.762 2.238 5 5 5s5-2.238 5-5v-6.79c0-2.762-2.238-5-5-5s-5 2.238-5 5z"/><path d="m313.373 261.79v6.79c0 2.762 2.238 5 5 5s5-2.238 5-5v-6.79c0-2.762-2.238-5-5-5s-5 2.238-5 5z"/><path d="m411.355 261.79v6.79c0 2.762 2.238 5 5 5s5-2.238 5-5v-6.79c0-2.762-2.238-5-5-5s-5 2.238-5 5z"/><path d="m193.124 280.615v6.79c0 2.762 2.238 5 5 5s5-2.238 5-5v-6.79c0-2.762-2.238-5-5-5s-5 2.239-5 5z"/></g></g></g><path d="m177.329 103.363c-2.762 0-5-2.238-5-5 0-3.309-2.691-6-6-6-2.762 0-5-2.238-5-5s2.238-5 5-5c3.309 0 6-2.691 6-6 0-2.762 2.238-5 5-5s5 2.238 5 5c0 3.309 2.691 6 6 6 2.762 0 5 2.238 5 5s-2.238 5-5 5c-3.309 0-6 2.691-6 6 0 2.762-2.238 5-5 5z" fill="#6583fe"/><path d="m454.806 300.45c-2.762 0-5-2.238-5-5 0-3.309-2.691-6-6-6-2.762 0-5-2.238-5-5s2.238-5 5-5c3.309 0 6-2.691 6-6 0-2.762 2.238-5 5-5s5 2.238 5 5c0 3.309 2.691 6 6 6 2.762 0 5 2.238 5 5s-2.238 5-5 5c-3.309 0-6 2.691-6 6 0 2.762-2.239 5-5 5z" fill="#01eca5"/><path d="m133.813 72.72c-1.279 0-2.56-.488-3.535-1.465-1.953-1.952-1.953-5.118 0-7.07l3.327-3.327-5.002-3.173c-1.282-.813-2.125-2.165-2.292-3.673-.167-1.509.36-3.012 1.434-4.085l7.741-7.742c1.953-1.953 5.118-1.952 7.071-.001 1.953 1.953 1.953 5.119.001 7.071l-3.328 3.328 5.002 3.173c1.282.813 2.125 2.165 2.292 3.674s-.361 3.011-1.435 4.084l-7.741 7.741c-.976.976-2.256 1.465-3.535 1.465z" fill="#ff7eb8"/><path d="m447.064 239.187c-1.279 0-2.559-.488-3.535-1.464-1.953-1.953-1.953-5.119-.001-7.071l3.328-3.328-5.002-3.172c-1.282-.813-2.125-2.164-2.292-3.673s.36-3.012 1.434-4.085l7.741-7.742c1.953-1.953 5.118-1.952 7.071-.001 1.953 1.953 1.953 5.119.001 7.071l-3.328 3.328 5.002 3.172c1.282.813 2.125 2.164 2.292 3.673s-.36 3.012-1.434 4.085l-7.741 7.742c-.976.976-2.256 1.465-3.536 1.465z" fill="#ff7eb8"/><path d="m76.552 160.23c-1.279 0-2.56-.488-3.535-1.465-1.953-1.952-1.953-5.118 0-7.07l3.327-3.328-5.002-3.173c-1.282-.813-2.125-2.165-2.292-3.674-.167-1.508.361-3.011 1.435-4.084l7.742-7.742c1.951-1.953 5.119-1.953 7.07 0 1.953 1.952 1.953 5.118 0 7.07l-3.327 3.328 5.002 3.173c1.282.813 2.125 2.165 2.292 3.673.167 1.509-.361 3.012-1.435 4.085l-7.742 7.742c-.976.977-2.256 1.465-3.535 1.465z" fill="#01eca5"/></g></g></svg>