<svg id="Capa_1" enable-background="new 0 0 512 512" height="512" viewBox="0 0 512 512" width="512" xmlns="http://www.w3.org/2000/svg" xmlns:xlink="http://www.w3.org/1999/xlink"><linearGradient id="SVGID_1_" gradientUnits="userSpaceOnUse" x1="45.274" x2="466.726" y1="256" y2="256"><stop offset=".0485" stop-color="#d2deff"/><stop offset=".9993" stop-color="#dcfdee"/></linearGradient><g><g><path d="m97.146 38.232c-135.328 119.538 38.831 235.409 22.243 366.028-7.375 58.072 16.054 113.588 92.705 107.244 93.413-7.732 59.504-97.209 79.066-156.778 33.66-102.501 240.73-78.56 154.895-236.448-54.778-100.758-255.766-162.321-348.909-80.046z" fill="url(#SVGID_1_)"/></g><g><path d="m443.994 372.193h-40.667l.876-.065c16.569 0 30-13.431 30-30v-94.251c0-16.569-13.431-30-30-30h-19.875v-16.843c0-2.761-2.239-5-5-5h-70.496c-2.761 0-5 2.239-5 5v16.843h-21.084v-28.843c0-2.761-2.239-5-5-5h-16.748v-31.946c12.033 9.913 29.01 12.997 44.38 6.555 17.606-7.379 27.778-25.008 26.518-43.047-11.978-13.546-31.676-18.643-49.282-11.264-12.75 5.344-21.601 16.069-25.031 28.434-.501-.168-1.028-.281-1.586-.281s-1.085.113-1.586.281c-3.43-12.365-12.281-23.09-25.031-28.434-17.606-7.379-37.303-2.283-49.282 11.264-1.26 18.039 8.913 35.668 26.518 43.047 15.37 6.442 32.347 3.357 44.38-6.555v31.946h-16.748c-2.761 0-5 2.239-5 5v28.843h-121.453c-16.569 0-30 13.431-30 30v94.251c0 16.569 13.431 30 30 30l1.088.065h-40.879c-2.761 0-5 2.239-5 5v17c0 2.761 2.239 5 5 5h19.805c-4.046 4.445-6.512 10.353-6.512 16.837 0 13.82 11.203 25.022 25.023 25.022s25.023-11.203 25.023-25.022c0-6.484-2.466-12.392-6.512-16.837h31.513c-4.046 4.445-6.512 10.353-6.512 16.837 0 13.82 11.203 25.022 25.023 25.022 11.169 0 20.625-7.319 23.843-17.42h114.602c3.218 10.102 12.675 17.42 23.843 17.42 13.82 0 25.023-11.203 25.023-25.022 0-6.484-2.466-12.392-6.512-16.837h31.513c-4.046 4.445-6.512 10.353-6.512 16.837 0 13.82 11.203 25.022 25.023 25.022s25.023-11.203 25.023-25.022c0-6.484-2.466-12.392-6.512-16.837h19.805c2.761 0 5-2.239 5-5v-17c-.002-2.761-2.241-5-5.002-5z" fill="#2626bc" opacity=".1"/><g><g><path d="m282.748 193.877h-53.496v-28.842c0-2.761 2.239-5 5-5h43.496c2.761 0 5 2.239 5 5z" fill="#02ffb3"/><path d="m384.329 193.877h-80.496v-16.842c0-2.761 2.239-5 5-5h70.496c2.761 0 5 2.239 5 5z" fill="#8399fe"/><path d="m178.657 375.193h154.686v24.439h-154.686z" fill="#ff7eb8"/><path d="m404.203 348.128h-296.406c-16.569 0-30-13.431-30-30v-94.251c0-16.569 13.431-30 30-30h296.406c16.569 0 30 13.431 30 30v94.251c0 16.569-13.431 30-30 30z" fill="#ff7eb8"/><path d="m443.994 375.193h-375.988c-2.761 0-5-2.239-5-5v-17c0-2.761 2.239-5 5-5h375.987c2.761 0 5 2.239 5 5v17c.001 2.762-2.238 5-4.999 5z" fill="#8399fe"/><g><g><g><circle cx="106.322" cy="392.03" fill="#4369fd" r="25.023"/><circle cx="106.322" cy="392.03" fill="#9fb0fe" r="7.602"/></g><g><circle cx="174.856" cy="392.03" fill="#4369fd" r="25.023"/><circle cx="174.856" cy="392.03" fill="#9fb0fe" r="7.602"/></g></g><g><g><circle cx="337.144" cy="392.03" fill="#4369fd" r="25.023"/><circle cx="337.144" cy="392.03" fill="#9fb0fe" r="7.602"/></g><g><circle cx="405.678" cy="392.03" fill="#4369fd" r="25.023"/><circle cx="405.678" cy="392.03" fill="#9fb0fe" r="7.602"/></g></g></g><g><circle cx="256" cy="271.003" fill="#fff" r="49.955"/><path d="m281.321 268.936c0 16.416-10.59 30.345-25.316 35.342-14.726-4.997-25.326-18.926-25.326-35.342 0-16.406 10.6-30.334 25.326-35.331 14.726 4.997 25.316 18.925 25.316 35.331z" fill="#02ffb3"/><g><path d="m256 311.633c-2.761 0-5-2.239-5-5v-53.745c0-2.761 2.239-5 5-5s5 2.239 5 5v53.745c0 2.761-2.239 5-5 5z" fill="#00b574"/></g></g></g><g><g><g><path d="m229.383 80.333c-17.606-7.379-37.303-2.283-49.282 11.264-1.26 18.039 8.913 35.668 26.518 43.047 17.594 7.374 37.297 2.267 49.275-11.28 1.261-18.039-8.916-35.656-26.511-43.031z" fill="#02ffb3"/><path d="m257.828 118.753-24.724-10.363-1.858-10.071c-.5-2.715-3.107-4.511-5.824-4.01-2.715.501-4.511 3.108-4.01 5.824l.671 3.638-19.441-8.148c-2.543-1.065-5.476.133-6.544 2.679-1.067 2.547.132 5.477 2.679 6.544l7.064 2.961-2.239 1.685c-2.207 1.66-2.649 4.795-.989 7.001.983 1.307 2.482 1.994 4 1.994 1.046 0 2.102-.327 3.002-1.005l6.908-5.198 37.439 15.692c.631.265 1.286.39 1.931.39 1.954 0 3.811-1.153 4.613-3.068 1.068-2.548-.131-5.478-2.678-6.545z" fill="#00b574"/></g></g><g><g><path d="m282.617 80.333c17.606-7.379 37.303-2.283 49.282 11.264 1.26 18.039-8.913 35.668-26.518 43.047-17.594 7.374-37.297 2.267-49.275-11.28-1.261-18.039 8.916-35.656 26.511-43.031z" fill="#02ffb3"/><path d="m315.902 98.302c-1.067-2.548-3.999-3.746-6.544-2.679l-19.441 8.148.671-3.638c.501-2.716-1.294-5.323-4.01-5.824-2.715-.504-5.323 1.294-5.824 4.01l-1.858 10.071-24.724 10.363c-2.547 1.067-3.746 3.997-2.679 6.544.803 1.916 2.659 3.068 4.613 3.068.645 0 1.299-.125 1.931-.39l37.439-15.692 6.908 5.198c.901.678 1.956 1.005 3.002 1.005 1.518 0 3.017-.688 4-1.994 1.66-2.206 1.217-5.341-.989-7.001l-2.239-1.685 7.064-2.961c2.548-1.067 3.747-3.996 2.68-6.543z" fill="#00b574"/><path d="m443.994 343.193h-15.397c6.536-6.362 10.606-15.245 10.606-25.064v-50.184c0-2.762-2.239-5-5-5s-5 2.238-5 5v50.184c0 13.785-11.215 25-25 25h-296.406c-13.785 0-25-11.215-25-25v-94.252c0-13.785 11.215-25 25-25h296.406c13.785 0 25 11.215 25 25v11.078c0 2.762 2.239 5 5 5s5-2.238 5-5v-11.078c0-19.299-15.701-35-35-35h-14.875v-11.842c0-5.514-4.486-10-10-10h-12.627v-4.194c0-2.762-2.239-5-5-5s-5 2.238-5 5v4.194h-7.266v-4.194c0-2.762-2.239-5-5-5s-5 2.238-5 5v4.194h-30.604c-5.514 0-10 4.486-10 10v11.842h-11.084v-23.842c0-5.514-4.486-10-10-10h-16.747v-20.687c8.149 5.668 17.803 8.673 27.617 8.673 6.289 0 12.641-1.229 18.696-3.766 19.134-8.021 31.019-27.313 29.573-48.008-.077-1.098-.513-2.14-1.242-2.964-13.736-15.534-35.822-20.582-54.959-12.563-11.028 4.624-19.639 12.993-24.685 23.213-5.046-10.22-13.657-18.589-24.684-23.211-19.135-8.021-41.223-2.971-54.959 12.563-.729.824-1.166 1.866-1.242 2.964-1.446 20.694 10.438 39.987 29.573 48.008 6.056 2.538 12.405 3.766 18.695 3.766 9.813 0 19.468-3.005 27.618-8.674v20.687h-16.748c-5.514 0-10 4.486-10 10v23.842h-116.456c-19.299 0-35 15.701-35 35v94.252c0 9.82 4.071 18.702 10.606 25.064h-15.397c-5.514 0-10 4.486-10 10v17c0 5.514 4.486 10 10 10h10.729c-1.565 3.634-2.436 7.635-2.436 11.837 0 16.555 13.468 30.022 30.022 30.022s30.022-13.468 30.022-30.022c0-4.202-.871-8.203-2.436-11.837h13.362c-1.565 3.634-2.436 7.635-2.436 11.837 0 16.555 13.468 30.022 30.022 30.022s30.022-13.468 30.022-30.022c0-4.202-.871-8.203-2.436-11.837h107.116c-1.565 3.634-2.436 7.635-2.436 11.837 0 .877.046 1.743.12 2.602h-74.772c-2.761 0-5 2.238-5 5s2.239 5 5 5h77.435c4.773 10.275 15.185 17.421 27.24 17.421 16.554 0 30.022-13.468 30.022-30.022 0-4.202-.871-8.203-2.436-11.837h13.362c-1.565 3.634-2.436 7.635-2.436 11.837 0 16.555 13.468 30.022 30.022 30.022s30.022-13.468 30.022-30.022c0-4.202-.871-8.203-2.436-11.837h10.729c5.514 0 10-4.486 10-10v-17c.001-5.515-4.485-10.002-9.999-10.002zm-159.444-258.249c14.656-6.144 31.489-2.624 42.442 8.709.402 15.763-8.892 30.237-23.544 36.38-14.647 6.14-31.479 2.613-42.436-8.726-.403-15.754 8.889-30.222 23.538-36.363zm-33.561 36.364c-10.957 11.34-27.791 14.862-42.436 8.726-14.653-6.143-23.947-20.617-23.545-36.38 10.953-11.334 27.788-14.852 42.442-8.709 14.649 6.14 23.941 20.608 23.539 36.363zm57.844 55.727h70.496v11.842h-70.496zm-74.581-12h43.496v23.842h-43.496zm-127.93 247.018c-11.041 0-20.022-8.982-20.022-20.022s8.982-20.022 20.022-20.022 20.022 8.982 20.022 20.022-8.982 20.022-20.022 20.022zm68.534 0c-11.041 0-20.022-8.982-20.022-20.022s8.982-20.022 20.022-20.022 20.022 8.982 20.022 20.022-8.982 20.022-20.022 20.022zm162.288 0c-11.041 0-20.022-8.982-20.022-20.022s8.982-20.022 20.022-20.022 20.022 8.982 20.022 20.022-8.981 20.022-20.022 20.022zm68.534 0c-11.041 0-20.022-8.982-20.022-20.022s8.982-20.022 20.022-20.022 20.022 8.982 20.022 20.022-8.981 20.022-20.022 20.022zm38.316-41.86h-17.744c-5.378-5.069-12.615-8.186-20.571-8.186s-15.193 3.116-20.571 8.186h-27.392c-5.378-5.069-12.615-8.186-20.571-8.186s-15.193 3.116-20.571 8.186h-121.147c-5.378-5.069-12.615-8.186-20.571-8.186s-15.193 3.116-20.571 8.186h-27.392c-5.378-5.069-12.615-8.186-20.571-8.186s-15.193 3.116-20.571 8.186h-17.745v-17h375.987v17z" fill="#2626bc"/></g></g></g></g><path d="m428.096 176.035c-1.28 0-2.559-.488-3.536-1.465-1.953-1.952-1.953-5.118 0-7.07l3.328-3.328-5.003-3.173c-1.282-.813-2.125-2.165-2.292-3.674s.361-3.012 1.435-4.085l7.742-7.741c1.953-1.951 5.12-1.951 7.071.001 1.953 1.952 1.953 5.118 0 7.071l-3.327 3.326 5.002 3.173c1.282.813 2.125 2.165 2.292 3.673.167 1.509-.361 3.012-1.434 4.085l-7.742 7.742c-.977.977-2.257 1.465-3.536 1.465z" fill="#01eca5"/><path d="m291.396 468.053c-1.28 0-2.559-.488-3.536-1.465-1.953-1.952-1.953-5.118 0-7.07l3.328-3.328-5.002-3.172c-1.282-.813-2.125-2.164-2.292-3.673s.361-3.012 1.434-4.085l7.742-7.742c1.953-1.953 5.118-1.953 7.071 0 1.953 1.952 1.953 5.118 0 7.07l-3.328 3.328 5.002 3.172c1.282.813 2.125 2.164 2.292 3.673s-.361 3.012-1.434 4.085l-7.742 7.742c-.975.976-2.255 1.465-3.535 1.465z" fill="#01eca5"/><path d="m398.076 139.364c-2.761 0-5-2.238-5-5 0-3.309-2.691-6-6-6-2.761 0-5-2.238-5-5s2.239-5 5-5c3.309 0 6-2.691 6-6 0-2.762 2.239-5 5-5s5 2.238 5 5c0 3.309 2.691 6 6 6 2.761 0 5 2.238 5 5s-2.239 5-5 5c-3.309 0-6 2.691-6 6 0 2.762-2.239 5-5 5z" fill="#6583fe"/><path d="m131.344 165.035c-2.761 0-5-2.238-5-5 0-3.309-2.691-6-6-6-2.761 0-5-2.238-5-5s2.239-5 5-5c3.309 0 6-2.691 6-6 0-2.762 2.239-5 5-5s5 2.238 5 5c0 3.309 2.691 6 6 6 2.761 0 5 2.238 5 5s-2.239 5-5 5c-3.309 0-6 2.691-6 6 0 2.762-2.239 5-5 5z" fill="#6583fe"/><path d="m124.924 108.017c-2.761 0-5-2.238-5-5 0-3.309-2.691-6-6-6-2.761 0-5-2.238-5-5s2.239-5 5-5c3.309 0 6-2.691 6-6 0-2.762 2.239-5 5-5s5 2.238 5 5c0 3.309 2.691 6 6 6 2.761 0 5 2.238 5 5s-2.239 5-5 5c-3.309 0-6 2.691-6 6 0 2.761-2.239 5-5 5z" fill="#ff7eb8"/></g></g></svg>