<svg id="Capa_1" enable-background="new 0 0 512 512" height="512" viewBox="0 0 512 512" width="512" xmlns="http://www.w3.org/2000/svg" xmlns:xlink="http://www.w3.org/1999/xlink"><linearGradient id="SVGID_1_" gradientUnits="userSpaceOnUse" x1="12.034" x2="499.966" y1="256" y2="256"><stop offset=".0485" stop-color="#ffdbed"/><stop offset=".9993" stop-color="#d2deff"/></linearGradient><g><g><path d="m286.593 4.867c-94.351 27.746-75.427 93.585-85.98 166.539-13.171 91.052-70.095 44.365-135.496 93.537-113.054 85.001-30.931 272.636 109.468 244.14 74.552-15.131 89.786-70.095 120.193-128.824 39.333-75.972 104.558-55.259 163.066-104.856 118.655-100.582-37.403-309.897-171.251-270.536z" fill="url(#SVGID_1_)"/></g><g><g><path d="m338.375 94.016c-16.632 6.364-31.248 17.624-42.524 32.244v-38.477c0-14.344-11.628-25.972-25.972-25.972h-136.899c-14.344 0-25.972 11.628-25.972 25.972v263.513c0 14.344 11.628 25.972 25.972 25.972h56.624v28.86c0 2.761 2.239 5 5 5h2.507v12.921c0 40.329 32.81 73.139 73.139 73.139s73.14-32.81 73.14-73.139v-95.91h2.51c2.76 0 5-2.24 5-5v-25.434c32.075-18.207 54.09-55.631 54.09-98.865 0-48.69-27.882-90.002-66.615-104.824zm-4.985 330.034c0 34.814-28.324 63.139-63.14 63.139-34.815 0-63.139-28.324-63.139-63.139v-12.921h2.507c2.761 0 5-2.239 5-5v-28.86h55.262c14.344 0 25.972-11.628 25.972-25.972v-79.901c8.354 10.83 18.542 19.812 30.028 26.327v25.418c0 2.76 2.24 5 5 5h2.51z" fill="#2626bc" opacity=".1"/><g><path d="m209.618 387.128h-15.014c-2.761 0-5-2.239-5-5v-28.86h25.014v28.86c0 2.762-2.238 5-5 5z" fill="#fff"/><path d="m189.605 353.268h25.013v18.553h-25.013z" fill="#d2deff"/><path d="m350.9 270.28v28.86c0 2.76-2.24 5-5 5h-15.02c-2.76 0-5-2.24-5-5v-28.86z" fill="#fff"/><path d="m350.9 270.28v18.82c-3.13 1.78-6.35 3.37-9.66 4.77-1.83.78-3.9.78-5.73 0-3.3-1.39-6.51-2.98-9.63-4.75v-18.84z" fill="#d2deff"/><g><g><g><path d="m271.789 174.842c0-48.691 27.854-90.004 66.587-104.825 38.733 14.822 66.615 56.134 66.615 104.826 0 47.451-26.514 87.916-63.749 103.641-1.831.773-3.9.773-5.731 0-37.235-15.727-63.722-56.191-63.722-103.642z" fill="#02ffb3"/><path d="m404.992 174.841c0 47.456-26.515 87.917-63.751 103.642-1.831.773-3.9.773-5.731 0-37.235-15.726-63.722-56.193-63.722-103.642 0-4.834.271-9.587.812-14.252 4.819 42.347 30.881 77.198 65.776 90.55 34.895-13.353 60.979-48.204 65.805-90.55.533 4.665.811 9.425.811 14.252z" fill="#01eca5"/><path d="m374.735 147.471c-1.394-2.385-4.454-3.188-6.84-1.795l-24.52 14.329v-43.315c0-2.762-2.239-5-5-5s-5 2.238-5 5v28.821l-20.203-13.216c-2.312-1.511-5.41-.863-6.921 1.447s-.864 5.41 1.447 6.922l25.677 16.797v46.856l-20.203-13.216c-2.312-1.511-5.41-.863-6.921 1.447s-.864 5.41 1.447 6.922l25.677 16.797v61.131c0 2.762 2.239 5 5 5s5-2.238 5-5v-47.25l23.063-13.478c2.384-1.393 3.187-4.455 1.794-6.839-1.393-2.385-4.454-3.189-6.84-1.794l-18.018 10.529v-46.978l29.566-17.278c2.385-1.393 3.188-4.456 1.795-6.839z" fill="#00b574"/></g></g><g><path d="m269.88 353.268h-136.9c-14.344 0-25.972-11.628-25.972-25.972v-263.513c0-14.344 11.628-25.972 25.972-25.972h136.9c14.344 0 25.972 11.628 25.972 25.972v263.513c0 14.344-11.628 25.972-25.972 25.972z" fill="#9fb0fe"/><path d="m107.008 275.946v51.351c0 14.344 11.628 25.972 25.972 25.972h136.9c14.344 0 25.972-11.628 25.972-25.972v-51.351z" fill="#b7c5ff"/><path d="m237.848 63.122h-72.836c-1.9 0-3.578-1.239-4.137-3.055l-6.851-22.256h94.812l-6.851 22.256c-.559 1.816-2.237 3.055-4.137 3.055z" fill="#6583fe"/></g></g><path d="m404.595 185.839c-2.736-.359-5.244 1.583-5.596 4.323-4.893 38.15-27.771 70.228-59.704 83.714-.584.248-1.255.248-1.84 0-13.933-5.884-26.575-15.631-36.603-28.196v-141.697c10.281-12.887 23.187-22.73 37.524-28.589 32.136 13.112 55.239 44.764 60.492 83.092.343 2.506 2.487 4.322 4.947 4.322.226 0 .455-.016.685-.047 2.736-.375 4.65-2.897 4.275-5.633-5.846-42.654-32.137-77.822-68.613-91.781-1.151-.439-2.423-.439-3.574 0-13.222 5.06-25.38 13.121-35.736 23.596v-25.16c0-17.078-13.894-30.973-30.972-30.973h-136.9c-17.078 0-30.972 13.895-30.972 30.973v263.514c0 17.077 13.894 30.971 30.972 30.971l51.624.001v23.859c0 5.514 4.486 10 10 10h2.507v7.922c0 40.329 32.81 73.139 73.139 73.139s73.139-32.81 73.139-73.139v-90.907h2.507c5.514 0 10-4.486 10-10v-22.55c28.477-17.251 48.346-48.698 53.022-85.159.352-2.739-1.584-5.245-4.323-5.595zm-209.991 196.289v-23.859h15.014v23.859zm138.785 17.922c0 34.814-28.324 63.139-63.139 63.139s-63.139-28.324-63.139-63.139v-7.922h2.507c5.514 0 10-4.486 10-10v-28.86c0-2.762-2.239-5-5-5h-81.638c-11.564 0-20.972-9.407-20.972-20.971v-263.514c0-11.564 9.408-20.973 20.972-20.973h136.9c11.564 0 20.972 9.408 20.972 20.973v263.514c0 11.563-9.408 20.971-20.972 20.971h-22.271c-2.761 0-5 2.238-5 5s2.239 5 5 5h22.271c17.078 0 30.972-13.894 30.972-30.971v-66.591c6.096 6.16 12.833 11.494 20.031 15.869v22.568c0 5.514 4.486 10 10 10h2.506zm12.507-100.907h-15.013v-17.24c.889.408 1.782.806 2.681 1.186 1.529.646 3.17.969 4.811.969s3.282-.322 4.811-.968c.911-.385 1.812-.792 2.71-1.204z" fill="#2626bc"/></g><path d="m248.099 164.725h-91.976c-2.761 0-5-2.239-5-5v-36.739c0-2.761 2.239-5 5-5h91.976c2.761 0 5 2.239 5 5v36.739c0 2.761-2.238 5-5 5z" fill="#02ffb3"/><path d="m257.356 132.986h-17.493v16.739h17.493c2.761 0 5-2.239 5-5v-6.739c0-2.761-2.238-5-5-5z" fill="#d2deff"/><path d="m248.099 117.986h-47.493v46.739h47.493c2.761 0 5-2.239 5-5v-36.739c0-2.761-2.238-5-5-5z" fill="#6583fe"/><g fill="#6583fe"><path d="m248.137 185.781c-1.953-1.952-5.118-1.953-7.071 0l-18.539 18.538c-1.953 1.952-1.953 5.118 0 7.07.977.977 2.256 1.465 3.536 1.465 1.279 0 2.559-.488 3.536-1.465l18.539-18.538c1.952-1.952 1.952-5.118-.001-7.07z"/><path d="m229.152 187.462v-.115c0-2.762-2.239-5-5-5s-5 2.238-5 5v.115c0 2.762 2.239 5 5 5s5-2.238 5-5z"/><path d="m246.513 204.708c-2.761 0-5 2.238-5 5v.115c0 2.762 2.239 5 5 5s5-2.238 5-5v-.115c0-2.762-2.239-5-5-5z"/><path d="m201.053 178.554h-5.332c-6.508 0-11.802 5.295-11.802 11.803v16.457c0 6.508 5.294 11.803 11.802 11.803h5.332c6.508 0 11.803-5.295 11.803-11.803v-16.457c0-6.508-5.295-11.803-11.803-11.803zm1.803 28.259c0 .994-.809 1.803-1.803 1.803h-5.332c-.994 0-1.802-.809-1.802-1.803v-16.457c0-.994.809-1.803 1.802-1.803h5.332c.994 0 1.803.809 1.803 1.803z"/><path d="m173.333 178.554c-2.761 0-5 2.238-5 5v7.936h-5.623v-7.936c0-2.762-2.239-5-5-5s-5 2.238-5 5v12.936c0 2.762 2.239 5 5 5h10.623v11.51c0 2.762 2.239 5 5 5s5-2.238 5-5v-29.446c0-2.762-2.239-5-5-5z"/></g><g><path d="m240.068 322.97h-75.914c-2.761 0-5-2.238-5-5s2.239-5 5-5h75.914c2.761 0 5 2.238 5 5s-2.238 5-5 5z" fill="#ff5ba8"/></g><g><g><path d="m141.985 63.122h-4.952c-2.761 0-5-2.238-5-5s2.239-5 5-5h4.952c2.761 0 5 2.238 5 5s-2.239 5-5 5z" fill="#d2deff"/></g><g><path d="m264.18 63.122h-4.952c-2.761 0-5-2.238-5-5s2.239-5 5-5h4.952c2.761 0 5 2.238 5 5s-2.239 5-5 5z" fill="#d2deff"/></g></g></g><path d="m391.706 349.97c-1.28 0-2.559-.488-3.536-1.465-1.953-1.952-1.953-5.118 0-7.07l3.328-3.328-5.001-3.172c-1.282-.813-2.125-2.164-2.292-3.673s.361-3.012 1.434-4.085l7.742-7.742c1.952-1.953 5.118-1.952 7.071-.001 1.953 1.953 1.953 5.119 0 7.071l-3.328 3.328 5.002 3.172c1.282.813 2.125 2.164 2.292 3.673s-.361 3.012-1.434 4.085l-7.742 7.742c-.977.976-2.256 1.465-3.536 1.465z" fill="#01eca5"/><path d="m62.71 106.017c-1.28 0-2.559-.488-3.536-1.465-1.953-1.952-1.953-5.118 0-7.07l3.328-3.328-5.002-3.174c-1.282-.813-2.125-2.165-2.292-3.674s.361-3.012 1.435-4.085l7.742-7.741c1.953-1.951 5.12-1.951 7.071.001 1.953 1.952 1.953 5.118 0 7.071l-3.327 3.326 5.002 3.173c1.282.813 2.125 2.165 2.292 3.673.167 1.509-.361 3.012-1.434 4.085l-7.742 7.742c-.978.977-2.257 1.466-3.537 1.466z" fill="#01eca5"/><path d="m151.419 417.783c-1.28 0-2.56-.488-3.536-1.465-1.953-1.952-1.953-5.118 0-7.071l3.327-3.327-5.002-3.172c-1.282-.813-2.125-2.165-2.292-3.673-.167-1.509.361-3.012 1.434-4.085l7.742-7.742c1.952-1.953 5.118-1.952 7.071-.001 1.953 1.953 1.953 5.119 0 7.071l-3.328 3.328 5.002 3.173c1.282.813 2.125 2.165 2.292 3.674s-.361 3.012-1.435 4.085l-7.742 7.741c-.974.976-2.254 1.464-3.533 1.464z" fill="#ff7eb8"/><path d="m423.893 303.21c-2.761 0-5-2.238-5-5 0-3.309-2.691-6-6-6-2.761 0-5-2.238-5-5s2.239-5 5-5c3.309 0 6-2.691 6-6 0-2.762 2.239-5 5-5s5 2.238 5 5c0 3.309 2.691 6 6 6 2.761 0 5 2.238 5 5s-2.239 5-5 5c-3.309 0-6 2.691-6 6 0 2.762-2.239 5-5 5z" fill="#ff7eb8"/><path d="m76.315 155.689c-2.761 0-5-2.238-5-5 0-3.309-2.691-6-6-6-2.761 0-5-2.238-5-5s2.239-5 5-5c3.309 0 6-2.691 6-6 0-2.762 2.239-5 5-5s5 2.238 5 5c0 3.309 2.691 6 6 6 2.761 0 5 2.238 5 5s-2.239 5-5 5c-3.309 0-6 2.691-6 6 0 2.762-2.239 5-5 5z" fill="#6583fe"/></g></g></svg>