<svg id="Capa_1" enable-background="new 0 0 512 512" height="512" viewBox="0 0 512 512" width="512" xmlns="http://www.w3.org/2000/svg" xmlns:xlink="http://www.w3.org/1999/xlink"><linearGradient id="SVGID_1_" gradientUnits="userSpaceOnUse" x1="5.399" x2="506.601" y1="256" y2="256"><stop offset=".0485" stop-color="#d2deff"/><stop offset=".9993" stop-color="#dcfdee"/></linearGradient><g><g><path d="m461.173 27.352c-63.757-37.987-146.258-35.878-208.873 3.041-35.18 21.866-62.374 53.403-93.212 80.552-27.022 23.789-58.445 40.758-86.353 63.204-101.21 81.403-91.553 300.961 50.962 330.125 61.777 12.642 146.21 16.696 182.519-43.642 34.62-57.531 46.232-116.383 113.876-146.942 23.573-10.65 62.975-10.113 78.944-33.45 20.152-29.45-4.853-60.043-18.192-85.707-17.19-33.074-20.795-65.682-8.699-101.16 10.298-30.211 17.549-43.782-10.972-66.021z" fill="url(#SVGID_1_)"/></g><g><path d="m418.489 229.779c-7.302 0-14.212 1.66-20.391 4.606v-31.333c7.892 5.608 18.406 7.14 27.987 3.124 11.754-4.926 18.545-16.696 17.704-28.739-7.997-9.044-21.147-12.446-32.901-7.52-9.056 3.795-15.15 11.66-17.09 20.58-.231-.033-.461-.071-.701-.071-.028 0-.054.008-.082.008-.746-13.001-8.682-25.077-21.496-30.448-14.273-5.982-30.242-1.851-39.953 9.132-1.021 14.624 7.225 28.916 21.498 34.898 12.062 5.056 25.346 2.874 35.032-4.562v41.338c-.443.37-.884.742-1.313 1.127-38.496-15.385-81.023-24.206-125.792-24.894 0-.023.007-.044.007-.067v-17.492l15.929-3.541c2.695-.6 4.396-3.271 3.796-5.966s-3.271-4.394-5.966-3.796l-13.757 3.061v-50.421c15.394 13.551 37.74 17.981 57.914 9.526 22.431-9.401 35.392-31.863 33.787-54.846-15.261-17.26-40.358-23.752-62.789-14.351-16.697 6.998-28.146 21.239-32.241 37.547-.525-.187-1.082-.307-1.671-.307s-1.146.12-1.671.307c-4.095-16.308-15.544-30.549-32.241-37.547-22.431-9.401-47.528-2.908-62.789 14.351-1.605 22.983 11.356 45.444 33.787 54.846 20.174 8.456 42.52 4.025 57.914-9.526v37.094l-12.669-2.489c-2.708-.53-5.338 1.232-5.87 3.942s1.233 5.338 3.942 5.87l14.597 2.868v30.872c0 .013.004.024.004.037-41.08.485-80.286 7.83-116.247 20.803v-34.747c7.891 5.608 18.406 7.139 27.987 3.124 11.754-4.926 18.545-16.696 17.704-28.739-7.997-9.044-21.147-12.446-32.901-7.52-9.056 3.795-15.15 11.66-17.09 20.58-.231-.032-.461-.071-.701-.071-.028 0-.054.008-.082.008-.746-13.001-8.682-25.077-21.496-30.448-14.273-5.982-30.242-1.851-39.952 9.132-1.021 14.624 7.226 28.916 21.498 34.898 12.062 5.056 25.346 2.874 35.032-4.562v40.177c0 .64.131 1.247.351 1.81-17.525 6.927-34.226 15.201-49.927 24.687-3.01 1.81-4.86 5.06-4.86 8.58v188.47c0 5.53 4.47 10 10 10h351.36c5.53 0 10-4.47 10-10v-144.482c14.493-8.13 24.293-23.633 24.293-41.433 0-26.225-21.259-47.485-47.484-47.485z" fill="#2626bc" opacity=".1"/><g><path d="m441.68 251.51v187.67c0 5.53-4.47 10-10 10h-351.36c-5.53 0-10-4.47-10-10v-188.47c0-3.52 1.85-6.77 4.86-8.58 51.36-31.03 113.37-49.17 180.17-49.17 67.38 0 129.89 18.46 181.51 49.99 2.99 1.82 4.82 5.06 4.82 8.56z" fill="#8399fe"/><path d="m441.68 303.73v135.45c0 5.53-4.47 10-10 10h-351.36c-5.53 0-10-4.47-10-10v-136.25c0-3.52 1.85-6.77 4.86-8.58 51.36-31.03 113.37-49.17 180.17-49.17 67.38 0 129.89 18.46 181.51 49.99 2.99 1.82 4.82 5.06 4.82 8.56z" fill="#d2deff"/><path d="m441.68 303.73v14.3c-6.86 3.85-14.77 6.04-23.19 6.04-26.23 0-47.49-21.26-47.49-47.48 0-4.08.51-8.03 1.48-11.81 22.85 7.97 44.43 18.2 64.38 30.39 2.99 1.82 4.82 5.06 4.82 8.56z" fill="#b7c5ff"/><path d="m441.68 355.95v83.23c0 5.53-4.47 10-10 10h-351.36c-5.53 0-10-4.47-10-10v-84.03c0-3.51 1.85-6.76 4.86-8.58 51.36-31.03 113.37-49.17 180.17-49.17 67.38 0 129.89 18.46 181.51 49.99 2.99 1.82 4.82 5.06 4.82 8.56z" fill="#ffa8cf"/><path d="m441.68 408.17v31.01c0 5.53-4.47 10-10 10h-351.36c-5.53 0-10-4.47-10-10v-31.81c0-3.51 1.85-6.76 4.86-8.58 51.36-31.03 113.37-49.17 180.17-49.17 67.38 0 129.89 18.46 181.51 49.99 2.99 1.82 4.82 5.06 4.82 8.56z" fill="#ff7eb8"/><g><g><path d="m371.52 135.989c-14.273-5.982-30.242-1.851-39.952 9.131-1.021 14.624 7.226 28.916 21.498 34.898 14.264 5.978 30.236 1.837 39.947-9.145 1.021-14.623-7.229-28.906-21.493-34.884z" fill="#02ffb3"/><path d="m410.888 145.918c11.754-4.926 24.904-1.524 32.901 7.52.841 12.043-5.95 23.812-17.704 28.739-11.746 4.923-24.9 1.513-32.897-7.531-.841-12.043 5.954-23.805 17.7-28.728z" fill="#00d890"/></g><g><path d="m108.178 135.989c-14.273-5.982-30.242-1.851-39.952 9.131-1.021 14.624 7.226 28.916 21.498 34.898 14.264 5.978 30.236 1.837 39.947-9.145 1.022-14.623-7.229-28.906-21.493-34.884z" fill="#02ffb3"/><path d="m147.546 145.918c11.754-4.926 24.904-1.524 32.901 7.52.841 12.043-5.95 23.812-17.704 28.739-11.746 4.923-24.9 1.513-32.897-7.531-.84-12.043 5.954-23.805 17.7-28.728z" fill="#00d890"/></g></g><g><g><g><path d="m222.088 55.132c-22.431-9.402-47.528-2.909-62.789 14.351-1.605 22.983 11.356 45.444 33.787 54.846 22.417 9.395 47.519 2.888 62.781-14.372 1.605-22.983-11.362-45.43-33.779-54.825z" fill="#02ffb3"/><path d="m257.8 105.346-32.185-13.49-2.501-13.56c-.501-2.715-3.11-4.513-5.824-4.01-2.716.501-4.511 3.108-4.01 5.824l1.315 7.127-27.107-11.361c-2.545-1.066-5.476.132-6.544 2.679-1.067 2.547.132 5.477 2.679 6.544l11.203 4.696-4.76 3.582c-2.207 1.66-2.65 4.795-.99 7.001.983 1.307 2.482 1.994 4 1.994 1.046 0 2.102-.327 3.002-1.005l9.43-7.095 48.427 20.297c.631.265 1.286.39 1.931.39 1.955 0 3.81-1.153 4.614-3.068 1.066-2.548-.133-5.478-2.68-6.545z" fill="#00b574"/></g></g><g><g><path d="m289.912 55.132c22.431-9.402 47.528-2.909 62.789 14.351 1.605 22.983-11.356 45.444-33.787 54.846-22.417 9.395-47.519 2.888-62.781-14.372-1.605-22.983 11.362-45.43 33.779-54.825z" fill="#02ffb3"/><path d="m331.057 78.555c-1.067-2.548-3.999-3.745-6.544-2.679l-27.107 11.361 1.314-7.127c.501-2.716-1.295-5.323-4.01-5.824-2.718-.497-5.323 1.295-5.824 4.01l-2.501 13.561-32.184 13.489c-2.547 1.067-3.746 3.997-2.679 6.544.803 1.916 2.659 3.068 4.613 3.068.645 0 1.299-.125 1.931-.39l48.427-20.297 9.43 7.095c.9.678 1.955 1.005 3.002 1.005 1.518 0 3.017-.688 3.999-1.994 1.66-2.206 1.218-5.341-.989-7.001l-4.76-3.582 11.203-4.696c2.547-1.067 3.746-3.996 2.679-6.543z" fill="#00b574"/></g></g></g></g><g fill="#fe2c8f"><path d="m194.85 265.894-29.141-29.141c-2.084-2.084-5.464-2.084-7.548 0l-29.141 29.141c-3.362 3.362-.981 9.112 3.774 9.112h14.141v4.766c0 1.394-.609 2.718-1.67 3.624-.575.492-1.188.993-1.695 1.407-5.377 4.396-14.377 11.754-14.377 26.118s9 21.722 14.377 26.117c1.076.879 2.628 2.148 3.29 2.892-.662.742-2.215 2.013-3.291 2.893-5.377 4.396-14.376 11.754-14.376 26.118s9 21.722 14.376 26.117l.034.028c2.109 1.724 3.332 4.304 3.332 7.028v.838c0 5.523 4.477 10 10 10h10c5.523 0 10-4.477 10-10v-5c0-14.364-9-21.723-14.376-26.119-1.076-.879-2.629-2.149-3.291-2.892.662-.743 2.215-2.014 3.291-2.894 5.377-4.396 14.376-11.754 14.376-26.118s-9-21.722-14.377-26.117c-1.076-.879-2.627-2.148-3.29-2.891.662-.743 2.215-2.013 3.291-2.892 5.377-4.396 14.376-11.754 14.376-26.117v-6.906h14.141c4.755-.001 7.136-5.75 3.774-9.112z"/><path d="m288.915 246.337-29.141-29.141c-2.084-2.084-5.464-2.084-7.548 0l-29.141 29.141c-3.362 3.362-.981 9.112 3.774 9.112h14.141v4.766c0 1.394-.609 2.718-1.67 3.624-.575.492-1.188.993-1.695 1.407-5.377 4.396-14.377 11.754-14.377 26.118s9 21.722 14.377 26.117c1.076.879 2.628 2.148 3.29 2.892-.662.742-2.215 2.013-3.291 2.893-5.377 4.396-14.376 11.754-14.376 26.118s9 21.722 14.376 26.117l.034.028c2.109 1.724 3.332 4.304 3.332 7.028v.838c0 5.523 4.477 10 10 10h10c5.523 0 10-4.477 10-10v-5c0-14.364-9-21.723-14.376-26.119-1.076-.879-2.629-2.149-3.291-2.892.662-.743 2.215-2.014 3.291-2.894 5.376-4.396 14.376-11.754 14.376-26.118s-9-21.722-14.377-26.117c-1.076-.879-2.627-2.148-3.29-2.891.662-.743 2.215-2.013 3.291-2.892 5.376-4.396 14.376-11.754 14.376-26.117v-6.906h14.141c4.755 0 7.137-5.749 3.774-9.112z"/><path d="m382.981 265.894-29.141-29.141c-2.084-2.084-5.464-2.084-7.548 0l-29.141 29.141c-3.362 3.362-.981 9.112 3.774 9.112h14.141v4.766c0 1.394-.609 2.718-1.67 3.624-.576.492-1.188.993-1.695 1.407-5.377 4.396-14.377 11.754-14.377 26.118s9 21.722 14.377 26.117c1.076.879 2.628 2.148 3.29 2.892-.662.742-2.215 2.013-3.291 2.893-5.377 4.396-14.376 11.754-14.376 26.118s9 21.722 14.376 26.117l.034.028c2.109 1.724 3.332 4.304 3.332 7.028v.838c0 5.523 4.477 10 10 10h10c5.523 0 10-4.477 10-10v-5c0-14.364-9-21.723-14.376-26.119-1.076-.879-2.629-2.149-3.291-2.892.662-.743 2.215-2.014 3.291-2.894 5.377-4.396 14.376-11.754 14.376-26.118s-9-21.722-14.377-26.117c-1.076-.879-2.627-2.148-3.29-2.891.662-.743 2.215-2.013 3.291-2.892 5.377-4.396 14.376-11.754 14.376-26.117v-6.906h14.141c4.755-.001 7.136-5.75 3.774-9.112z"/></g><g><circle cx="418.489" cy="253.264" fill="#fff" r="47.485"/><path d="m434.159 247.135h-12.167v-23.854c0-1.112-1.494-1.475-2.004-.487l-18.111 35.05c-.365.706.148 1.549.943 1.549h12.167v23.854c0 1.112 1.494 1.475 2.004.487l18.111-35.05c.365-.707-.148-1.549-.943-1.549z" fill="#ff7eb8"/><path d="m418.489 305.748c28.94 0 52.484-23.544 52.484-52.484s-23.544-52.484-52.484-52.484c-7.228 0-14.119 1.469-20.392 4.124v-19.919c5.127 2.917 10.922 4.448 16.797 4.448 4.414 0 8.873-.862 13.123-2.644 13.431-5.63 21.773-19.172 20.76-33.699-.077-1.098-.514-2.14-1.243-2.964-9.644-10.904-25.148-14.45-38.579-8.818-5.786 2.426-10.621 6.326-14.176 11.135-4.035-9.297-11.534-16.96-21.327-21.064-15.89-6.66-34.227-2.467-45.631 10.431-.729.825-1.165 1.866-1.242 2.964-1.199 17.182 8.667 33.199 24.554 39.858 5.027 2.107 10.299 3.126 15.521 3.126 7.558 0 15.004-2.146 21.443-6.212v28.97c-.754.537-1.493 1.093-2.216 1.668-39.518-15.401-81.501-23.51-124.882-24.159v-12.556l15.929-3.541c2.695-.6 4.396-3.271 3.796-5.966s-3.271-4.396-5.966-3.796l-13.758 3.058v-6.124c.01-.046.03-.088.039-.135.14-.712.113-1.415-.039-2.079v-35.628c10.581 8.077 23.455 12.373 36.557 12.372 7.834 0 15.748-1.53 23.29-4.691 23.838-9.99 38.644-34.024 36.843-59.806-.077-1.098-.514-2.139-1.242-2.964-17.113-19.354-44.629-25.642-68.468-15.649-14.677 6.152-25.921 17.631-31.98 31.56-6.059-13.929-17.302-25.409-31.979-31.561-23.842-9.992-51.356-3.701-68.468 15.65-.729.825-1.166 1.866-1.242 2.964-1.371 19.637 6.94 38.737 22.234 51.094 2.147 1.737 5.297 1.402 7.032-.746s1.401-5.296-.747-7.031c-12.312-9.948-19.199-25.14-18.633-40.915 14.334-15.151 36.599-19.906 55.958-11.793 18.719 7.846 30.759 26.076 30.845 46.125v.2c0 .61-.009 1.222-.031 1.836-10.375 10.949-25.359 16.751-40.426 15.58-2.741-.197-5.158 1.844-5.373 4.598-.214 2.753 1.844 5.158 4.597 5.373 1.535.119 3.069.178 4.6.178 13.237 0 26.158-4.433 36.633-12.396v30.661l-12.669-2.489c-2.708-.527-5.338 1.233-5.87 3.942-.532 2.71 1.233 5.338 3.942 5.87l14.597 2.868v25.907c-40.22.469-79.495 7.441-116.244 20.481v-23.493c5.127 2.917 10.922 4.448 16.797 4.448 4.414 0 8.874-.862 13.124-2.644 13.431-5.63 21.773-19.173 20.758-33.699-.077-1.098-.513-2.14-1.242-2.964-9.642-10.903-25.146-14.448-38.579-8.818-5.786 2.426-10.62 6.325-14.176 11.134-4.035-9.297-11.534-16.959-21.326-21.064-15.89-6.659-34.226-2.466-45.63 10.431-.729.825-1.166 1.866-1.242 2.964-1.2 17.182 8.667 33.199 24.553 39.858 5.028 2.107 10.299 3.126 15.521 3.126 7.558 0 15.004-2.146 21.444-6.211v30.65c-18.121 7.066-35.577 15.63-52.165 25.651-4.486 2.71-7.273 7.639-7.273 12.864v188.473c0 8.271 6.729 15 15 15h351.364c8.271 0 15-6.729 15-15v-111.766c0-2.762-2.238-5-5-5s-5 2.238-5 5v111.767c0 2.757-2.243 5-5 5h-351.366c-2.757 0-5-2.243-5-5v-188.473c0-1.744.936-3.394 2.444-4.305 52.462-31.693 113.872-48.445 177.589-48.445 42.586 0 83.818 7.392 122.654 21.936-7.494 9.076-12.002 20.706-12.002 33.368.001 28.94 23.546 52.484 52.486 52.484zm-5.669-155.219c8.945-3.75 19.196-1.733 26.039 4.975-.015 9.588-5.761 18.312-14.707 22.062-8.941 3.747-19.188 1.729-26.034-4.985.015-9.583 5.76-18.304 14.702-22.052zm-57.822 24.878c-11.403-4.779-18.678-15.979-18.514-28.227 8.612-8.699 21.699-11.359 33.103-6.581 11.4 4.778 18.673 15.973 18.509 28.214-8.617 8.703-21.7 11.372-33.098 6.594zm-205.519-24.878c8.946-3.751 19.195-1.733 26.039 4.975-.014 9.587-5.761 18.312-14.707 22.062-8.941 3.747-19.189 1.727-26.035-4.985.016-9.582 5.761-18.303 14.703-22.052zm-57.822 24.878c-11.404-4.779-18.678-15.979-18.515-28.227 8.614-8.699 21.698-11.359 33.103-6.581 11.4 4.778 18.672 15.973 18.509 28.214-8.617 8.704-21.7 11.371-33.097 6.594zm369.317 77.857c0 23.426-19.059 42.484-42.484 42.484-23.427 0-42.485-19.059-42.485-42.484s19.059-42.484 42.485-42.484c23.425-.001 42.484 19.058 42.484 42.484zm-169.129-193.521c19.362-8.113 41.624-3.357 55.959 11.792.752 20.853-11.465 40.068-30.822 48.182-19.347 8.109-41.609 3.346-55.95-11.813-.022-.622-.032-1.243-.031-1.862v-.154c.077-20.058 12.118-38.297 30.844-46.145z" fill="#2626bc"/></g><path d="m400.34 99.848c-2.762 0-5-2.238-5-5 0-3.309-2.691-6-6-6-2.762 0-5-2.238-5-5s2.238-5 5-5c3.309 0 6-2.691 6-6 0-2.762 2.238-5 5-5s5 2.238 5 5c0 3.309 2.691 6 6 6 2.762 0 5 2.238 5 5s-2.238 5-5 5c-3.309 0-6 2.691-6 6 0 2.761-2.238 5-5 5z" fill="#6583fe"/><path d="m446.68 129.312c-2.762 0-5-2.238-5-5 0-3.309-2.691-6-6-6-2.762 0-5-2.238-5-5s2.238-5 5-5c3.309 0 6-2.691 6-6 0-2.762 2.238-5 5-5s5 2.238 5 5c0 3.309 2.691 6 6 6 2.762 0 5 2.238 5 5s-2.238 5-5 5c-3.309 0-6 2.691-6 6 0 2.761-2.239 5-5 5z" fill="#ff7eb8"/><path d="m115.636 96.487c-1.28 0-2.559-.488-3.536-1.464-1.953-1.953-1.953-5.119 0-7.071l3.328-3.328-5.002-3.173c-1.282-.813-2.125-2.165-2.292-3.674s.361-3.011 1.434-4.084l7.742-7.742c1.954-1.95 5.119-1.951 7.071.001 1.953 1.952 1.953 5.118 0 7.071l-3.328 3.326 5.002 3.173c1.282.813 2.125 2.165 2.292 3.673.167 1.509-.361 3.012-1.434 4.085l-7.742 7.742c-.975.977-2.255 1.465-3.535 1.465z" fill="#ff7eb8"/><path d="m444.075 77.017c-1.279 0-2.56-.488-3.535-1.465-1.953-1.952-1.953-5.118 0-7.07l3.327-3.328-5.002-3.173c-1.282-.813-2.125-2.165-2.292-3.674s.361-3.012 1.435-4.085l7.742-7.741c1.953-1.951 5.118-1.952 7.071.001 1.952 1.952 1.952 5.118-.001 7.071l-3.327 3.326 5.002 3.173c1.282.813 2.125 2.165 2.292 3.673.167 1.509-.361 3.012-1.435 4.085l-7.742 7.742c-.975.976-2.256 1.465-3.535 1.465z" fill="#01eca5"/><path d="m41.165 235.218c-1.28 0-2.559-.488-3.536-1.464-1.953-1.953-1.953-5.119 0-7.071l3.328-3.328-5.002-3.172c-1.282-.813-2.125-2.164-2.292-3.673s.361-3.012 1.434-4.085l7.742-7.742c1.953-1.953 5.118-1.953 7.071 0 1.953 1.952 1.953 5.118 0 7.07l-3.328 3.328 5.001 3.172c1.282.813 2.125 2.164 2.292 3.673s-.361 3.012-1.434 4.085l-7.742 7.742c-.975.976-2.255 1.465-3.534 1.465z" fill="#6583fe"/></g></g></svg>