<svg id="Capa_1" enable-background="new 0 0 512 512" height="512" viewBox="0 0 512 512" width="512" xmlns="http://www.w3.org/2000/svg" xmlns:xlink="http://www.w3.org/1999/xlink"><linearGradient id="SVGID_1_" gradientUnits="userSpaceOnUse" x1="45.274" x2="466.726" y1="256" y2="256"><stop offset="0" stop-color="#ffdbed"/><stop offset="1" stop-color="#dcfdee"/></linearGradient><g><g><path d="m97.146 38.232c-135.328 119.538 38.831 235.409 22.243 366.028-7.375 58.072 16.054 113.588 92.705 107.244 93.413-7.732 59.504-97.209 79.066-156.778 33.66-102.501 240.73-78.56 154.895-236.448-54.778-100.758-255.766-162.321-348.909-80.046z" fill="url(#SVGID_1_)"/></g><g><g><path d="m408.824 420.595c-14.938-6.261-31.432-3.293-43.161 6.295v-31.059c0-.044-.012-.086-.013-.13h11.06c2.761 0 5-2.239 5-5v-74.887c-.001-5.304-2.108-10.391-5.859-14.142l-15.354-15.354 3.372-3.372c1.953-1.952 1.953-5.118 0-7.07-1.951-1.953-5.119-1.953-7.07 0l-3.372 3.372-6.33-6.33 3.372-3.372c1.953-1.952 1.953-5.118 0-7.07-1.951-1.953-5.119-1.953-7.07 0l-3.372 3.372-12.304-12.304c2.892-7.402 1.36-16.134-4.619-22.114l-12.705-12.705.355-.355c3.905-3.905 3.905-10.237 0-14.142l-68.91-68.91c-3.905-3.905-10.237-3.905-14.142 0l-11.491 11.491-87.677-87.677-29.479 29.479 19.558 19.558-38.473 38.475c-1.875 1.875-2.929 4.419-2.929 7.071v37.333c.001 2.652 1.054 5.196 2.929 7.071l42.381 42.381-5.797 5.797c-3.905 3.905-3.905 10.237 0 14.142l15.748 15.748c1.875 1.875 4.419 2.929 7.071 2.929h106.324c2.652 0 5.196-1.053 7.071-2.929l11.47-11.47 12.704 12.704c6.062 6.062 14.956 7.561 22.422 4.504l12.208 12.208-3.583 3.583c-1.953 1.952-1.953 5.118 0 7.07.976.977 2.256 1.465 3.535 1.465s2.56-.488 3.535-1.465l3.583-3.583 6.33 6.33-3.583 3.583c-1.953 1.952-1.953 5.118 0 7.07.976.977 2.256 1.465 3.535 1.465s2.56-.488 3.535-1.465l3.583-3.583 9.496 9.496-.001 66.603c0 2.761 2.239 5 5 5h8.967c-.001.044-.013.086-.013.13v31.058c-11.728-9.588-28.222-12.556-43.16-6.295-17.171 7.197-27.093 24.391-25.864 41.984 11.683 13.212 30.894 18.182 48.065 10.986 12.395-5.195 21.012-15.603 24.381-27.613.499.167 1.023.278 1.578.278s1.079-.112 1.578-.279c3.369 12.01 11.987 22.418 24.381 27.613 17.171 7.197 36.382 2.226 48.065-10.986 1.231-17.592-8.69-34.786-25.861-41.983zm-259.855-206.551-1.322-31.686c-.106-2.51-1.153-4.886-2.92-6.654l-11.073-11.073c-3.903-3.903-10.239-3.903-14.142 0-1.952 1.952-2.927 4.511-2.927 7.071s.976 5.119 2.927 7.071l8.316 8.316 1.317 31.749-31.933-31.933v-29.049l35.545-35.545 53.976 53.976z" fill="#2626bc" opacity=".1"/><g><g><g><g><path d="m129.743 209.271-1.916-46.181-8.316-8.316c-1.952-1.952-2.927-4.511-2.927-7.071s.976-5.119 2.927-7.071c3.903-3.903 10.239-3.903 14.142 0l11.073 11.073c1.768 1.768 2.814 4.144 2.92 6.654l1.322 31.686z" fill="#ff5ba8"/></g><path d="m136.788 31.714h41.689v123.993h-41.689z" fill="#4369fd" transform="matrix(-.707 .707 -.707 -.707 335.359 48.51)"/><path d="m172.815 68.366h20.845v72.418h-20.845z" fill="#6583fe" transform="matrix(-.707 .707 -.707 -.707 386.751 48.953)"/><path d="m111.634 87.057h16.461v20.004h-16.461z" fill="#4369fd" transform="matrix(.707 -.707 .707 .707 -33.524 113.185)"/><g><path d="m80.14 122.644 38.474-38.474 14.142 14.142-35.545 35.545v29.049l39.451 39.451-14.142 14.142-42.38-42.38c-1.875-1.875-2.929-4.419-2.929-7.071v-37.333c0-2.653 1.053-5.196 2.929-7.071z" fill="#d2deff"/></g><g><path d="m111.634 87.057h16.461v20.004h-16.461z" fill="#b7c5ff" transform="matrix(.707 -.707 .707 .707 -33.524 113.185)"/></g><g><path d="m301.651 203.473 74.2 74.2c3.751 3.751 5.858 8.838 5.858 14.142v74.887c0 2.761-2.239 5-5 5h-30.001c-2.761 0-5-2.239-5-5l.001-66.603-68.342-68.342z" fill="#b7c5ff"/></g><g><path d="m341.709 343.696v23.005c0 2.762 2.239 5 5 5h30.001c2.761 0 5-2.239 5-5v-23.006h-40.001z" fill="#ff7eb8"/></g><g><path d="m342.684 244.505-41.032-41.032-28.284 28.284 41.061 41.061c9.408-9.448 18.823-18.889 28.255-28.313z" fill="#9fb0fe"/></g><path d="m252.938 252.186 57.816-57.816c3.905-3.905 3.905-10.237 0-14.142l-68.91-68.91c-3.905-3.905-10.237-3.905-14.142 0l-110.979 110.978c-3.905 3.905-3.905 10.237 0 14.142l15.748 15.748c1.875 1.875 4.419 2.929 7.071 2.929h106.324c2.653 0 5.196-1.053 7.072-2.929z" fill="#ff7eb8"/><path d="m273.196 203.644 9.273-9.273c3.905-3.905 3.905-10.237 0-14.142l-40.626-40.626c-3.905-3.905-10.237-3.905-14.142 0l-9.273 9.273c-1.953 1.953-1.953 5.118 0 7.071l47.697 47.697c1.953 1.952 5.119 1.952 7.071 0z" fill="#ff5ba8"/><path d="m264.408 240.716 45.99-45.99 12.705 12.705c8.06 8.06 8.06 21.127 0 29.186l-16.804 16.804c-8.06 8.06-21.127 8.06-29.186 0z" fill="#4369fd"/><path d="m261.235 215.09h65.04v17.967h-65.04z" fill="#2d58e0" transform="matrix(.707 -.707 .707 .707 -72.405 273.346)"/></g><g><g><g><path d="m386.623 449.565c17.171 7.197 36.382 2.226 48.065-10.986 1.229-17.593-8.693-34.787-25.864-41.984-17.16-7.192-36.376-2.211-48.058 11.001-1.229 17.594 8.697 34.777 25.857 41.969z" fill="#02ffb3"/><path d="m416.521 425.544-6.691-2.804 2.012-1.514c2.206-1.66 2.648-4.795.988-7.002-1.659-2.206-4.793-2.649-7.002-.988l-6.68 5.027-36.45-15.277c-2.542-1.065-5.476.132-6.544 2.679-1.067 2.547.132 5.477 2.679 6.544l24.051 10.081 1.8 9.757c.444 2.409 2.546 4.094 4.911 4.094.301 0 .606-.027.913-.084 2.716-.501 4.511-3.108 4.01-5.824l-.613-3.324 18.751 7.859c.631.265 1.286.39 1.931.39 1.954 0 3.811-1.153 4.613-3.068 1.068-2.549-.132-5.479-2.679-6.546z" fill="#00b574"/></g></g><g><g><path d="m334.704 449.565c-17.171 7.197-36.382 2.226-48.065-10.986-1.229-17.593 8.693-34.787 25.864-41.984 17.16-7.192 36.376-2.211 48.058 11.001 1.229 17.594-8.697 34.777-25.857 41.969z" fill="#02ffb3"/><path d="m365.173 405.664c-1.067-2.548-3.999-3.744-6.544-2.679l-36.45 15.277-6.68-5.027c-2.209-1.661-5.343-1.219-7.002.988-1.66 2.207-1.218 5.342.988 7.002l2.012 1.514-6.691 2.804c-2.547 1.067-3.746 3.997-2.679 6.544.803 1.916 2.659 3.068 4.613 3.068.645 0 1.3-.125 1.931-.39l18.751-7.859-.613 3.324c-.501 2.716 1.295 5.323 4.01 5.824.307.057.612.084.913.084 2.364 0 4.467-1.686 4.911-4.094l1.799-9.757 24.052-10.081c2.547-1.065 3.746-3.995 2.679-6.542z" fill="#00b574"/><path d="m410.757 391.984c-15.086-6.321-32.045-4.325-45.094 4.651v-19.933h11.047c5.514 0 10-4.486 10-10v-74.889c-.001-6.678-2.602-12.955-7.323-17.676l-15.37-15.371c1.788-1.962 1.75-4.994-.147-6.89-1.895-1.897-4.929-1.935-6.89-.147l-6.363-6.363c1.788-1.962 1.75-4.994-.147-6.89-1.895-1.897-4.929-1.935-6.89-.147l-10.18-10.18c2.057-8.421-.195-17.69-6.76-24.256l-9.656-9.655c2.943-5.653 2.046-12.805-2.693-17.545l-68.91-68.91c-5.848-5.85-15.365-5.85-21.213 0l-7.956 7.956-84.141-84.141c-1.951-1.953-5.119-1.953-7.07 0-1.953 1.952-1.953 5.118 0 7.07l84.141 84.142-22.408 22.407-84.144-84.141c-1.951-1.953-5.119-1.953-7.07 0-1.953 1.952-1.953 5.118 0 7.07l16.023 16.023-34.938 34.938c-2.832 2.831-4.393 6.597-4.395 10.606v37.335c.002 4.007 1.563 7.772 4.395 10.604l38.846 38.845-2.262 2.262c-5.849 5.849-5.849 15.364 0 21.213l15.748 15.748c2.833 2.833 6.6 4.394 10.606 4.394h106.324c4.006 0 7.772-1.561 10.605-4.394l7.936-7.935 9.169 9.169c4.998 4.998 11.563 7.498 18.128 7.498 2.173 0 4.345-.28 6.461-.828l10.041 10.041-.048.048c-1.953 1.952-1.953 5.118 0 7.07.976.977 2.256 1.465 3.535 1.465s2.56-.488 3.535-1.465l.048-.048 6.33 6.33-.048.048c-1.953 1.952-1.953 5.118 0 7.07.976.977 2.256 1.465 3.535 1.465s2.56-.488 3.535-1.465l.048-.048 8.032 8.032-.001 12.184c0 2.761 2.238 5 5 5 2.761 0 5-2.238 5-5l.001-14.255c0-1.326-.526-2.598-1.465-3.535l-9.497-9.497 21.214-21.214 15.354 15.354c2.832 2.833 4.393 6.6 4.394 10.606v74.888h-30.001v-19.357c0-2.762-2.238-5-5-5s-5 2.238-5 5v19.357c0 5.514 4.486 10 10 10h8.954v19.933c-13.05-8.976-30.011-10.972-45.093-4.65-18.711 7.842-30.333 26.707-28.919 46.944.077 1.098.514 2.14 1.242 2.964 9.179 10.379 22.166 15.971 35.443 15.971 6.154 0 12.373-1.202 18.3-3.687 10.702-4.485 19.077-12.58 24.027-22.472 4.95 9.892 13.325 17.987 24.027 22.472 5.928 2.484 12.145 3.687 18.3 3.687 13.276 0 26.266-5.593 35.443-15.971.729-.825 1.165-1.866 1.242-2.964 1.415-20.234-10.207-39.099-28.917-46.941zm-257.272-213.52-.846-20.315c-.157-3.77-1.713-7.314-4.381-9.981l-11.069-11.068c-5.847-5.848-15.363-5.85-21.212 0-5.849 5.849-5.849 15.364 0 21.213l6.931 6.931.708 16.997-21.405-21.406v-24.907l30.544-30.545 46.906 46.906zm-71.275-11.416v-37.331c.001-1.338.521-2.594 1.464-3.537.001 0 .001 0 .001-.001l34.938-34.938 7.071 7.07-32.009 32.01c-.938.938-1.465 2.209-1.465 3.535v29.05c0 1.326.526 2.598 1.465 3.535l35.915 35.916-7.07 7.07-38.846-38.844c-.944-.943-1.463-2.2-1.464-3.535zm51.85 25.637-1.242-29.806c-.053-1.253-.574-2.44-1.461-3.327l-8.31-8.31c-1.949-1.95-1.949-5.122 0-7.072.944-.944 2.2-1.464 3.536-1.464 1.335 0 2.591.52 3.535 1.464l11.068 11.068c.889.89 1.407 2.071 1.459 3.327l1.229 29.508-7.214 7.214zm146.588 57.201-12.703-12.706c-.938-.938-2.21-1.465-3.536-1.465s-2.598.526-3.535 1.465l-11.472 11.472c-.931.93-2.22 1.464-3.535 1.464h-106.324c-1.336 0-2.592-.52-3.536-1.464l-15.748-15.748c-1.949-1.95-1.949-5.122 0-7.072 0 0 99.49-99.49 99.492-99.492l11.486-11.486c1.951-1.949 5.121-1.949 7.072 0l68.909 68.91c1.949 1.949 1.949 5.122.001 7.072l-.296.295c-.021.02-.04.039-.061.06-.02.02-.039.04-.059.06l-22.602 22.602c-1.953 1.952-1.953 5.118 0 7.07 1.951 1.953 5.119 1.953 7.07 0l19.127-19.125 9.168 9.168c6.097 6.098 6.097 16.019.001 22.116l-16.805 16.805c-2.954 2.953-6.881 4.58-11.058 4.58-4.176-.001-8.102-1.628-11.056-4.581zm26.962 9.043c.769-.609 1.514-1.263 2.224-1.973l16.806-16.805c.783-.783 1.497-1.608 2.158-2.462l7.694 7.694-21.214 21.214zm21.068 21.069-6.33-6.33 21.214-21.214 6.33 6.33zm4.093 164.956c-14.233 5.966-30.576 2.559-41.225-8.431-.372-15.306 8.659-29.353 22.889-35.316 14.223-5.961 30.566-2.55 41.219 8.446.371 15.299-8.658 29.339-22.883 35.301zm55.785 0c-14.225-5.962-23.254-20.002-22.883-35.301 10.652-10.996 26.996-14.407 41.219-8.446 14.229 5.963 23.26 20.01 22.889 35.316-10.648 10.992-26.994 14.394-41.225 8.431z" fill="#2626bc"/></g></g></g></g><g><path d="m209.975 204.668-20.22-20.22c-1.953-1.953-1.953-5.118 0-7.071s5.118-1.953 7.071 0l20.22 20.22c1.953 1.953 1.953 5.118 0 7.071-1.952 1.953-5.118 1.953-7.071 0z" fill="#ffc4df"/></g><g><path d="m187.707 205.723-9.613-9.613c-1.953-1.953-1.953-5.118 0-7.071s5.118-1.953 7.071 0l9.613 9.613c1.953 1.953 1.953 5.118 0 7.071s-5.118 1.953-7.071 0z" fill="#ffc4df"/></g></g></g><path d="m266.94 348.522c-1.279 0-2.559-.488-3.535-1.464-1.953-1.953-1.953-5.119-.001-7.071l3.328-3.328-5.002-3.172c-1.282-.813-2.125-2.164-2.292-3.673s.361-3.012 1.435-4.085l7.742-7.742c1.951-1.953 5.119-1.953 7.07 0 1.953 1.952 1.953 5.118 0 7.07l-3.327 3.328 5.001 3.172c1.282.813 2.125 2.164 2.292 3.673s-.36 3.012-1.434 4.085l-7.741 7.742c-.976.977-2.256 1.465-3.536 1.465z" fill="#ff7eb8"/><path d="m359.104 168.288c-1.279 0-2.56-.488-3.535-1.465-1.953-1.952-1.953-5.118 0-7.07l3.327-3.328-5.002-3.172c-1.282-.813-2.125-2.164-2.292-3.673s.36-3.012 1.435-4.085l7.742-7.742c1.951-1.953 5.119-1.953 7.07 0 1.953 1.952 1.953 5.118 0 7.07l-3.327 3.328 5.002 3.172c1.282.813 2.125 2.164 2.292 3.673s-.36 3.012-1.435 4.085l-7.742 7.742c-.975.977-2.255 1.465-3.535 1.465z" fill="#6583fe"/><path d="m387.442 222.133c-2.762 0-5-2.238-5-5 0-3.309-2.691-6-6-6-2.762 0-5-2.238-5-5s2.238-5 5-5c3.309 0 6-2.691 6-6 0-2.762 2.238-5 5-5s5 2.238 5 5c0 3.309 2.691 6 6 6 2.762 0 5 2.238 5 5s-2.238 5-5 5c-3.309 0-6 2.691-6 6 0 2.762-2.238 5-5 5z" fill="#01eca5"/><g fill="#6583fe"><path d="m245 404.908c-2.762 0-5-2.238-5-5 0-3.309-2.691-6-6-6-2.762 0-5-2.238-5-5s2.238-5 5-5c3.309 0 6-2.692 6-6.001 0-2.762 2.238-5 5-5s5 2.238 5 5c0 3.309 2.691 6.001 6 6.001 2.762 0 5 2.238 5 5s-2.238 5-5 5c-3.309 0-6 2.691-6 6 0 2.762-2.238 5-5 5z"/><path d="m152.972 326.522c-2.762 0-5-2.238-5-5 0-3.309-2.691-6-6-6-2.762 0-5-2.238-5-5s2.238-5 5-5c3.309 0 6-2.691 6-6 0-2.762 2.238-5 5-5s5 2.238 5 5c0 3.309 2.691 6 6 6 2.762 0 5 2.238 5 5s-2.238 5-5 5c-3.309 0-6 2.691-6 6 0 2.762-2.239 5-5 5z"/></g></g></g></svg>