<svg id="Capa_1" enable-background="new 0 0 512 512" height="512" viewBox="0 0 512 512" width="512" xmlns="http://www.w3.org/2000/svg" xmlns:xlink="http://www.w3.org/1999/xlink"><linearGradient id="SVGID_1_" gradientUnits="userSpaceOnUse" x1="5.399" x2="506.601" y1="256" y2="256"><stop offset="0" stop-color="#ffdbed"/><stop offset="1" stop-color="#dcfdee"/></linearGradient><g><g><path d="m461.173 27.352c-63.757-37.987-146.258-35.878-208.873 3.041-35.18 21.866-62.374 53.403-93.212 80.552-27.022 23.789-58.445 40.758-86.353 63.204-101.21 81.403-91.553 300.961 50.962 330.125 61.777 12.642 146.21 16.696 182.519-43.642 34.62-57.531 46.232-116.383 113.876-146.942 23.573-10.65 62.975-10.113 78.944-33.45 20.152-29.45-4.853-60.043-18.192-85.707-17.19-33.074-20.795-65.682-8.699-101.16 10.298-30.211 17.549-43.782-10.972-66.021z" fill="url(#SVGID_1_)"/></g><g><path d="m445.16 244.04-28.9-6.14c-3.89-15.39-9.96-29.91-17.82-43.24l16.04-24.69c2.66-4.1 2.09-9.5-1.36-12.96l-35.13-35.13c-3.45-3.45-8.85-4.02-12.95-1.36l-24.56 15.96c-13.38-7.97-27.97-14.12-43.46-18.07l-6.06-28.56c-1.01-4.79-5.23-8.2-10.12-8.2h-49.68c-4.89 0-9.11 3.41-10.12 8.2l-6.06 28.56c-15.49 3.95-30.08 10.1-43.46 18.07l-24.56-15.96c-4.1-2.66-9.5-2.09-12.95 1.36l-35.13 35.13c-3.45 3.46-4.02 8.86-1.36 12.96l16.04 24.69c-7.86 13.33-13.93 27.85-17.82 43.24l-28.9 6.14c-4.78 1.02-8.2 5.24-8.2 10.12v49.67c0 4.89 3.42 9.11 8.2 10.13l29.13 6.18c3.94 15.24 10.01 29.61 17.85 42.81l-16.3 25.08c-2.66 4.1-2.09 9.5 1.36 12.96l35.13 35.13c3.45 3.45 8.85 4.02 12.95 1.36l25.23-16.39c13.15 7.74 27.45 13.73 42.6 17.61l6.25 29.45c1.01 4.79 5.23 8.2 10.12 8.2h49.68c4.89 0 9.11-3.41 10.12-8.2l6.25-29.45c15.15-3.88 29.45-9.87 42.6-17.61l25.23 16.39c4.1 2.66 9.5 2.09 12.95-1.36l35.13-35.13c3.45-3.46 4.02-8.86 1.36-12.96l-16.3-25.08c7.84-13.2 13.91-27.57 17.85-42.81l29.13-6.18c4.78-1.02 8.2-5.24 8.2-10.13v-49.67c0-4.88-3.42-9.1-8.2-10.12zm-312.13 34.54c0-52.269 32.621-96.919 78.611-114.717-28.607 27.75-46.719 68.858-46.719 114.768 0 45.823 18.065 86.879 46.61 114.624-45.933-17.826-78.502-62.447-78.502-114.675zm167.389 114.695c28.568-27.746 46.659-68.809 46.659-114.643 0-45.921-18.139-87.038-46.769-114.787 46.016 17.785 78.661 62.448 78.661 114.736 0 52.246-32.593 96.88-78.551 114.694z" fill="#2626bc" opacity=".1"/><g><g><path d="m445.16 220.04-28.9-6.14c-3.89-15.39-9.96-29.91-17.82-43.24l16.04-24.69c2.66-4.1 2.09-9.5-1.36-12.96l-35.13-35.13c-3.45-3.45-8.85-4.02-12.95-1.36l-24.56 15.96c-13.38-7.97-27.97-14.12-43.46-18.07l-6.06-28.56c-1.01-4.79-5.23-8.2-10.12-8.2h-49.68c-4.89 0-9.11 3.41-10.12 8.2l-6.06 28.56c-15.49 3.95-30.08 10.1-43.46 18.07l-24.56-15.96c-4.1-2.66-9.5-2.09-12.95 1.36l-35.13 35.13c-3.45 3.46-4.02 8.86-1.36 12.96l16.04 24.69c-7.86 13.33-13.93 27.85-17.82 43.24l-28.9 6.14c-4.78 1.02-8.2 5.24-8.2 10.12v49.67c0 4.89 3.42 9.11 8.2 10.13l29.13 6.18c3.94 15.24 10.01 29.61 17.85 42.81l-16.3 25.08c-2.66 4.1-2.09 9.5 1.36 12.96l35.13 35.13c3.45 3.45 8.85 4.02 12.95 1.36l25.23-16.39c13.15 7.74 27.45 13.73 42.6 17.61l6.25 29.45c1.01 4.79 5.23 8.2 10.12 8.2h49.68c4.89 0 9.11-3.41 10.12-8.2l6.25-29.45c15.15-3.88 29.45-9.87 42.6-17.61l25.23 16.39c4.1 2.66 9.5 2.09 12.95-1.36l35.13-35.13c3.45-3.46 4.02-8.86 1.36-12.96l-16.3-25.08c7.84-13.2 13.91-27.57 17.85-42.81l29.13-6.18c4.78-1.02 8.2-5.24 8.2-10.13v-49.67c0-4.88-3.42-9.1-8.2-10.12zm-189.16 157.51c-67.91 0-122.97-55.06-122.97-122.97s55.06-122.97 122.97-122.97 122.97 55.06 122.97 122.97-55.06 122.97-122.97 122.97z" fill="#8399fe"/><path d="m256 111.28c-79.14 0-143.3 64.16-143.3 143.3s64.16 143.3 143.3 143.3 143.3-64.16 143.3-143.3-64.16-143.3-143.3-143.3zm0 266.27c-67.91 0-122.97-55.06-122.97-122.97s55.06-122.97 122.97-122.97 122.97 55.06 122.97 122.97-55.06 122.97-122.97 122.97z" fill="#b7c5ff"/></g><g fill="#fff"><g><path d="m256 86.753c-2.762 0-5-2.239-5-5v-4.883c0-2.761 2.238-5 5-5s5 2.239 5 5v4.883c0 2.762-2.238 5-5 5z"/><path d="m256 438.13c-2.762 0-5-2.239-5-5v-4.884c0-2.761 2.238-5 5-5s5 2.239 5 5v4.884c0 2.762-2.238 5-5 5z"/></g><g><path d="m434.13 260h-4.884c-2.762 0-5-2.239-5-5s2.238-5 5-5h4.884c2.762 0 5 2.239 5 5s-2.238 5-5 5z"/><path d="m82.754 260h-4.884c-2.762 0-5-2.239-5-5s2.238-5 5-5h4.884c2.762 0 5 2.239 5 5s-2.238 5-5 5z"/></g><g><path d="m381.957 385.957c-1.279 0-2.56-.488-3.535-1.464l-3.453-3.453c-1.953-1.953-1.953-5.119 0-7.071 1.951-1.952 5.119-1.952 7.07 0l3.453 3.453c1.953 1.953 1.953 5.119 0 7.071-.975.976-2.256 1.464-3.535 1.464z"/><path d="m133.496 137.497c-1.279 0-2.56-.488-3.536-1.465l-3.453-3.454c-1.952-1.953-1.952-5.119.001-7.071s5.118-1.953 7.071 0l3.453 3.454c1.952 1.953 1.952 5.119-.001 7.071-.976.976-2.256 1.465-3.535 1.465z"/></g><g><path d="m130.043 385.957c-1.279 0-2.56-.488-3.535-1.464-1.953-1.953-1.953-5.119 0-7.071l3.453-3.453c1.951-1.952 5.119-1.952 7.07 0 1.953 1.953 1.953 5.119 0 7.071l-3.453 3.453c-.975.976-2.256 1.464-3.535 1.464z"/><path d="m378.504 137.497c-1.279 0-2.559-.488-3.535-1.464-1.953-1.952-1.953-5.118-.001-7.071l3.453-3.454c1.953-1.953 5.118-1.954 7.071 0 1.953 1.952 1.953 5.118.001 7.071l-3.453 3.454c-.977.975-2.257 1.464-3.536 1.464z"/></g></g></g><path d="m164.217 62.65c-2.762 0-5-2.239-5-5 0-3.309-2.692-6-6.001-6-2.762 0-5-2.239-5-5s2.238-5 5-5c3.309 0 6.001-2.691 6.001-6 0-2.761 2.238-5 5-5s5 2.239 5 5c0 3.309 2.691 6 5.999 6 2.762 0 5 2.239 5 5s-2.238 5-5 5c-3.308 0-5.999 2.691-5.999 6 0 2.761-2.238 5-5 5z" fill="#01eca5"/><path d="m332.981 478.57c-2.762 0-5-2.239-5-5 0-3.309-2.692-6-6.001-6-2.762 0-5-2.239-5-5s2.238-5 5-5c3.309 0 6.001-2.691 6.001-6 0-2.761 2.238-5 5-5s5 2.239 5 5c0 3.309 2.691 6 5.999 6 2.762 0 5 2.239 5 5s-2.238 5-5 5c-3.308 0-5.999 2.691-5.999 6 0 2.761-2.238 5-5 5z" fill="#ff7eb8"/><path d="m103.532 81.87c-1.279 0-2.56-.488-3.535-1.464-1.953-1.953-1.953-5.119 0-7.071l3.327-3.328-5.002-3.172c-1.282-.813-2.125-2.165-2.292-3.673s.361-3.012 1.435-4.085l7.742-7.742c1.951-1.952 5.119-1.952 7.07 0 1.953 1.953 1.953 5.119 0 7.071l-3.327 3.327 5.002 3.172c1.282.813 2.125 2.165 2.292 3.673s-.36 3.012-1.435 4.085l-7.742 7.742c-.975.977-2.255 1.465-3.535 1.465z" fill="#ff7eb8"/><path d="m62.035 363.969c-1.279 0-2.56-.488-3.535-1.464-1.953-1.953-1.953-5.119 0-7.071l3.327-3.328-5.002-3.172c-1.282-.813-2.125-2.165-2.292-3.673s.361-3.012 1.435-4.085l7.742-7.742c1.951-1.952 5.118-1.952 7.071 0 1.952 1.953 1.952 5.119-.001 7.071l-3.327 3.327 5.002 3.172c1.282.813 2.125 2.165 2.292 3.673s-.361 3.012-1.435 4.085l-7.742 7.742c-.975.977-2.256 1.465-3.535 1.465z" fill="#6583fe"/><path d="m421.749 105.376c-1.279 0-2.56-.488-3.536-1.464-1.952-1.953-1.952-5.119.001-7.071l3.327-3.327-5.002-3.172c-1.282-.813-2.125-2.165-2.292-3.673s.361-3.012 1.435-4.085l7.742-7.742c1.951-1.952 5.119-1.952 7.07 0 1.953 1.953 1.953 5.119 0 7.071l-3.327 3.328 5.002 3.172c1.282.813 2.125 2.165 2.292 3.673s-.361 3.012-1.435 4.085l-7.742 7.742c-.975.975-2.256 1.463-3.535 1.463z" fill="#6583fe"/><g><g><path d="m164.922 254.631c0-66.587 38.091-123.082 91.059-143.351 52.968 20.269 91.097 76.765 91.097 143.352 0 66.543-38.129 123.039-91.097 143.308-52.968-20.269-91.059-76.765-91.059-143.309z" fill="#02ffb3"/><path d="m347.08 254.63c0 66.55-38.13 123.04-91.1 143.31-52.97-20.27-91.06-76.77-91.06-143.31 0-6.61.37-13.11 1.11-19.49 6.59 57.91 42.23 105.57 89.95 123.83 47.72-18.26 83.39-65.92 89.99-123.83.73 6.38 1.11 12.89 1.11 19.49z" fill="#01eca5"/><path d="m304.118 218.127c-1.395-2.383-4.456-3.188-6.84-1.794l-36.297 21.211v-62.437c0-2.761-2.238-5-5-5s-5 2.239-5 5v42.812l-30.471-19.933c-2.313-1.513-5.41-.863-6.922 1.447-1.512 2.311-.863 5.41 1.447 6.921l35.946 23.514v68.47l-30.471-19.932c-2.313-1.514-5.41-.863-6.922 1.447-1.512 2.311-.863 5.41 1.447 6.921l35.946 23.514v87.592c0 2.761 2.238 5 5 5s5-2.239 5-5v-68.67l32.45-18.963c2.385-1.393 3.188-4.456 1.795-6.84-1.395-2.384-4.455-3.187-6.84-1.794l-27.405 16.015v-68.502l41.342-24.159c2.385-1.393 3.188-4.456 1.795-6.84z" fill="#00b574"/><g fill="#2626bc"><path d="m129.257 236.884c-.378 2.735 1.532 5.26 4.268 5.638.232.032.464.048.691.048 2.458 0 4.601-1.812 4.947-4.315 4.696-33.92 23.895-63.699 51.875-82.16-19.659 27.229-31.116 61.746-31.116 98.536 0 36.732 11.43 71.199 31.046 98.406-28.255-18.65-47.493-48.79-51.95-83.121-.355-2.738-2.862-4.669-5.602-4.315-2.738.355-4.67 2.864-4.314 5.602 5.977 46.045 36.451 85.147 79.629 102.319 13.118 12.585 28.439 22.572 45.463 29.087.575.22 1.182.33 1.787.33s1.212-.11 1.787-.33c17.026-6.515 32.35-16.501 45.471-29.082 23.365-9.284 43.333-25.101 57.789-45.822 15.009-21.517 22.942-46.803 22.942-73.125 0-26.344-7.945-51.647-22.977-73.173-14.475-20.729-34.467-36.542-57.855-45.806-13.098-12.538-28.387-22.492-45.369-28.991-1.15-.44-2.424-.44-3.574 0-16.98 6.498-32.265 16.452-45.36 28.993-42.812 16.983-73.266 55.686-79.578 101.281zm223.537-49.751c13.854 19.838 21.176 43.161 21.176 67.447 0 24.266-7.312 47.574-21.145 67.404-8.643 12.391-19.428 22.871-31.809 31.052 19.626-27.208 31.062-61.675 31.062-98.404 0-36.799-11.469-71.325-31.149-98.559 12.402 8.175 23.206 18.659 31.865 31.06zm-96.813-70.483c15.141 6.071 28.796 15.133 40.555 26.452.054.063.094.135.152.196.112.118.249.207.371.312 27.988 27.234 45.018 67.407 45.018 111.021 0 43.47-16.932 83.524-44.777 110.747-.24.192-.459.408-.66.641-11.783 11.364-25.474 20.461-40.661 26.551-15.239-6.111-28.971-15.253-40.779-26.678-.124-.135-.254-.261-.394-.382-27.909-27.223-44.886-67.335-44.886-110.879 0-43.606 17.012-83.768 44.972-111 .148-.128.286-.262.417-.405 11.786-11.378 25.481-20.484 40.672-26.576z"/><path d="m446.202 215.151-25.892-5.504c-3.688-13.519-9.063-26.558-16.011-38.835l14.37-22.121c3.923-6.04 3.075-14.12-2.018-19.214l-35.122-35.13c-5.096-5.096-13.18-5.944-19.217-2.019l-21.975 14.277c-12.334-7.044-25.446-12.497-39.062-16.244l-5.425-25.554c-1.495-7.047-7.81-12.162-15.015-12.162h-8.623c-2.762 0-5 2.239-5 5s2.238 5 5 5h8.623c2.511 0 4.712 1.782 5.233 4.238l6.063 28.56c.395 1.86 1.811 3.336 3.653 3.807 14.77 3.771 28.945 9.667 42.135 17.521 1.638.976 3.687.935 5.283-.103l24.557-15.956c2.106-1.368 4.923-1.071 6.696.704l35.122 35.13c1.775 1.775 2.071 4.591.703 6.696l-16.04 24.692c-1.033 1.591-1.077 3.63-.113 5.265 7.756 13.143 13.569 27.248 17.28 41.923.468 1.848 1.944 3.269 3.808 3.665l28.905 6.144c2.455.522 4.236 2.722 4.236 5.232v49.669c0 2.51-1.782 4.711-4.238 5.232l-29.13 6.187c-1.854.394-3.326 1.803-3.802 3.638-3.768 14.557-9.592 28.521-17.31 41.502-.973 1.636-.932 3.683.105 5.279l16.297 25.084c1.368 2.105 1.072 4.922-.702 6.697l-35.122 35.13c-1.774 1.776-4.591 2.071-6.697.704l-25.229-16.39c-1.589-1.033-3.627-1.078-5.261-.115-12.961 7.633-26.856 13.379-41.301 17.079-1.842.472-3.256 1.946-3.65 3.806l-6.25 29.45c-.521 2.456-2.722 4.239-5.232 4.239h-49.676c-2.511 0-4.711-1.783-5.232-4.239l-6.25-29.45c-.395-1.859-1.809-3.334-3.65-3.806-14.444-3.7-28.34-9.446-41.301-17.079-1.634-.962-3.672-.917-5.261.115l-25.229 16.39c-2.105 1.367-4.922 1.072-6.697-.704l-35.122-35.13c-1.774-1.775-2.07-4.591-.703-6.696l16.298-25.085c1.037-1.596 1.078-3.643.105-5.279-7.718-12.982-13.542-26.945-17.31-41.502-.476-1.835-1.947-3.244-3.802-3.638l-29.131-6.187c-2.455-.521-4.237-2.722-4.237-5.232v-49.669c0-2.51 1.781-4.71 4.237-5.232l28.904-6.144c1.863-.396 3.34-1.817 3.808-3.665 3.711-14.675 9.524-28.78 17.28-41.923.964-1.634.92-3.673-.113-5.265l-16.04-24.693c-1.368-2.104-1.072-4.92.703-6.696l35.122-35.13c1.774-1.775 4.59-2.072 6.696-.704l24.557 15.955c1.6 1.038 3.646 1.079 5.283.103 13.189-7.854 27.365-13.75 42.135-17.521 1.843-.471 3.259-1.946 3.653-3.807l6.063-28.56c.521-2.456 2.723-4.238 5.233-4.238h8.062c2.762 0 5-2.239 5-5s-2.238-5-5-5h-8.062c-7.205 0-13.52 5.115-15.015 12.162l-5.425 25.554c-13.615 3.747-26.728 9.2-39.062 16.244l-21.974-14.277c-6.041-3.926-14.123-3.078-19.218 2.019l-35.122 35.13c-5.093 5.094-5.94 13.175-2.018 19.214l14.37 22.122c-6.947 12.278-12.322 25.316-16.011 38.835l-25.891 5.504c-7.045 1.497-12.158 7.811-12.158 15.014v49.669c0 7.204 5.114 13.518 12.16 15.014l26.135 5.55c3.731 13.393 9.108 26.284 16.018 38.406l-14.615 22.507c-3.924 6.041-3.075 14.122 2.017 19.214l35.122 35.13c5.094 5.095 13.178 5.942 19.217 2.019l22.66-14.722c12.086 6.826 24.904 12.127 38.188 15.795l5.613 26.446c1.495 7.047 7.81 12.163 15.014 12.163h49.676c7.204 0 13.519-5.115 15.014-12.163l5.613-26.446c13.284-3.667 26.103-8.969 38.188-15.795l22.66 14.722c6.042 3.924 14.122 3.075 19.217-2.019l35.122-35.13c5.092-5.093 5.94-13.174 2.016-19.215l-14.621-22.505c6.909-12.122 12.286-25.013 16.018-38.406l26.134-5.55c7.047-1.496 12.161-7.811 12.161-15.014v-49.669c-.001-7.203-5.114-13.517-12.158-15.014z"/></g></g></g></g></g></svg>