<svg id="Capa_1" enable-background="new 0 0 512 512" height="512" viewBox="0 0 512 512" width="512" xmlns="http://www.w3.org/2000/svg" xmlns:xlink="http://www.w3.org/1999/xlink"><linearGradient id="SVGID_1_" gradientUnits="userSpaceOnUse" x1="54.522" x2="458.571" y1="256" y2="256"><stop offset=".0485" stop-color="#d2deff"/><stop offset=".9993" stop-color="#dcfdee"/></linearGradient><g><g><path d="m170.637.39c-68.06 4.435-134.218 61.127-111.591 135.073 18.265 59.691 84.702 87.73 134.671 115.676 47.928 26.805 98.6 60.229 112.037 117.192 9.247 39.199-2.084 84.916 22.012 117.187 42.331 56.693 124.077 13.634 130.314-47.258 5.176-50.542-31.51-94.701-65.828-132.165-33.267-36.317-70.462-71.374-99.992-110.843-27.345-36.55-41.639-81.985-5.379-118.188 8.145-8.132 17.848-16.505 14.872-29.734-9.77-43.394-97.816-49.109-131.116-46.94z" fill="url(#SVGID_1_)"/></g><g><g><path d="m410.356 212.052h-6.618v-10.326h2.84c2.762 0 5-2.238 5-5s-2.238-5-5-5h-3.441c-1.857-8.39-7.961-15.375-16.359-18.193l-20.063-5.856v-29.99h9.001c2.761 0 5-2.239 5-5v-56.448c0-2.761-2.239-5-5-5h-238.337c-2.761 0-5 2.239-5 5v56.448c0 2.761 2.239 5 5 5h9.001v29.99l-20.063 5.856c-8.398 2.818-14.502 9.802-16.359 18.193h-3.441c-2.762 0-5 2.238-5 5s2.238 5 5 5h2.84v10.326h-6.618c-2.761 0-5 2.239-5 5v48.113c0 5.876 4.763 10.64 10.639 10.641h-.528v100.901c0 21.246 17.285 38.531 38.531 38.531v34.324h-8.555c-5.523 0-10 4.477-10 10v18.198c0 2.761 2.239 5 5 5h247.444c2.761 0 5-2.239 5-5v-18.198c0-5.523-4.477-10-10-10h-8.555v-34.324c21.246 0 38.531-17.285 38.531-38.531v-100.901h-.528c5.876-.001 10.639-4.765 10.639-10.641v-48.113c-.001-2.762-2.24-5-5.001-5zm-263.977 63.754v119.433c-10.218 0-18.531-8.313-18.531-18.531v-100.902h18.531l-16.095-60.049c-.586-2.186-2.567-3.706-4.829-3.706h-1.1v-10.326h2.759c2.762 0 5-2.238 5-5s-2.238-5-5-5h-1.153c1.186-1.82 2.963-3.246 5.126-3.972l15.292-4.289zm241.259-63.754c-2.263 0-4.244 1.52-4.829 3.706l-16.095 60.049h18.531v100.901c0 10.218-8.313 18.531-18.531 18.531v-119.433-92.342l15.292 4.289c2.164.726 3.94 2.152 5.126 3.972h-1.153c-2.762 0-5 2.238-5 5s2.238 5 5 5h2.759v10.326h-1.1z" fill="#2626bc" opacity=".1"/><g><g><path d="m146.379 108.615h220.334v316.949h-220.334z" fill="#01eca5"/><path d="m146.379 108.614h220.334v26.092h-220.334z" fill="#00d890"/><path d="m380.269 458.762h-247.445c-2.761 0-5-2.239-5-5v-18.198c0-5.523 4.477-10 10-10h237.444c5.523 0 10 4.477 10 10v18.198c.001 2.761-2.238 5-4.999 5z" fill="#9fb0fe"/><g><g><path d="m233.887 144.692v11.52c0 2.77-2.24 5-5 5h-39.66c-2.76 0-5-2.23-5-5v-11.52c0-2.77 2.24-5 5-5h39.66c2.759 0 5 2.23 5 5z" fill="#9fb0fe"/><path d="m188.484 161.137c.244.037.488.075.742.075h6.094l21.52-21.52h-6.864c-7.179 7.133-14.341 14.283-21.492 21.445z" fill="#b7c5ff"/><path d="m233.887 175.472v32.52c0 2.77-2.24 5-5 5h-39.66c-2.76 0-5-2.23-5-5v-32.52c0-2.77 2.24-5 5-5h39.66c2.759 0 5 2.23 5 5z" fill="#00d890"/></g><g><path d="m323.869 161.216h-39.666c-2.761 0-5-2.239-5-5v-11.529c0-2.761 2.239-5 5-5h39.666c2.761 0 5 2.239 5 5v11.529c0 2.762-2.239 5-5 5z" fill="#9fb0fe"/><path d="m292.184 161.216h6.45c7.193-7.158 14.367-14.334 21.522-21.529h-6.521c-7.131 7.196-14.289 14.365-21.451 21.529z" fill="#b7c5ff"/><path d="m284.203 161.216h2.203c7.204-7.174 14.4-14.356 21.606-21.529h-12.256c-5.529 5.462-11.048 10.933-16.553 16.42v.109c0 2.762 2.239 5 5 5z" fill="#b7c5ff"/><path d="m328.867 175.472v32.52c0 2.77-2.24 5-5 5h-39.66c-2.76 0-5-2.23-5-5v-32.52c0-2.77 2.24-5 5-5h39.66c2.76 0 5 2.23 5 5z" fill="#00d890"/><g fill="#00b574"><path d="m224.887 208.472v4.52h-31.66v-4.52c0-2.77 2.24-5 5-5h21.66c2.759 0 5 2.23 5 5z"/><path d="m319.867 208.472v4.52h-31.66v-4.52c0-2.77 2.24-5 5-5h21.66c2.76 0 5 2.23 5 5z"/></g></g></g><g><g><circle cx="256.546" cy="297.67" fill="#fff" r="62.244"/></g><g><path d="m282.664 292.603c0 16.933-10.923 31.299-26.112 36.454-15.189-5.154-26.123-19.521-26.123-36.454 0-16.922 10.934-31.289 26.123-36.443 15.189 5.155 26.112 19.521 26.112 36.443z" fill="#02ffb3"/><g><path d="m256.546 338.3c-2.761 0-5-2.239-5-5v-50.745c0-2.761 2.239-5 5-5s5 2.239 5 5v50.745c0 2.762-2.238 5-5 5z" fill="#00b574"/></g></g></g><g><g><path d="m184.64 398.57c-2.762 0-5-2.238-5-5v-10.662c0-2.762 2.238-5 5-5s5 2.238 5 5v10.662c0 2.762-2.238 5-5 5z" fill="#00b574"/></g><g><path d="m203.036 398.57c-2.762 0-5-2.238-5-5v-10.662c0-2.762 2.238-5 5-5s5 2.238 5 5v10.662c0 2.762-2.239 5-5 5z" fill="#00b574"/></g><g><path d="m221.431 398.57c-2.762 0-5-2.238-5-5v-10.662c0-2.762 2.238-5 5-5s5 2.238 5 5v10.662c0 2.762-2.238 5-5 5z" fill="#00b574"/></g><g><path d="m239.826 398.57c-2.762 0-5-2.238-5-5v-10.662c0-2.762 2.238-5 5-5s5 2.238 5 5v10.662c0 2.762-2.238 5-5 5z" fill="#00b574"/></g><g><path d="m270.79 388.239c0-2.762 2.238-5 5-5h52.662c2.762 0 5 2.238 5 5s-2.238 5-5 5h-52.662c-2.761 0-5-2.239-5-5z" fill="#00b574"/></g></g><path d="m262.206 212.997h-11.318c-1.657 0-3-1.343-3-3v-22.825c0-1.657 1.343-3 3-3h11.318c1.657 0 3 1.343 3 3v22.825c0 1.657-1.344 3-3 3z" fill="#00b574"/><path d="m233.887 144.692v11.52c0 2.77-2.24 5-5 5h-26.46l21.52-21.52h4.94c2.759 0 5 2.23 5 5z" fill="#b7c5ff"/><path d="m375.714 113.687h-238.335c-2.761 0-5-2.239-5-5v-56.449c0-2.761 2.239-5 5-5h238.336c2.761 0 5 2.239 5 5v56.448c-.001 2.762-2.239 5.001-5.001 5.001z" fill="#9fb0fe"/><path d="m320.156 47.238h30.495v66.448h-30.495z" fill="#ffa8cf"/><path d="m296.958 47.238h36.495v66.448h-36.495z" fill="#ff7eb8"/></g><g><g><path d="m388.738 173.114v14.938h15v-14.938c0-10.7-6.816-20.177-16.961-23.581l-20.063-6.732v15.822l15.292 5.131c4.026 1.351 6.732 5.113 6.732 9.36z" fill="#b7c5ff"/></g><path d="m404.715 251.806h-38.001l16.095-60.049c.586-2.186 2.567-3.706 4.83-3.706h22.718c2.761 0 5 2.239 5 5v48.113c-.001 5.878-4.765 10.642-10.642 10.642z" fill="#ff7eb8"/><g><path d="m411.646 233.002h-10.136c-2.762 0-5-2.238-5-5s2.238-5 5-5h10.136c2.762 0 5 2.238 5 5s-2.238 5-5 5z" fill="#ff5ba8"/></g><g><path d="m366.714 371.239c10.218 0 18.531-8.313 18.531-18.531v-100.902h20v100.901c0 21.246-17.285 38.531-38.531 38.531z" fill="#6583fe"/></g><g><path d="m385.245 251.806h20v19.747h-20z" fill="#4369fd"/></g></g><g><g><path d="m124.355 173.114v14.938h-15v-14.938c0-10.7 6.816-20.177 16.961-23.581l20.063-6.732v15.822l-15.292 5.131c-4.026 1.351-6.732 5.113-6.732 9.36z" fill="#b7c5ff"/></g><path d="m108.378 251.806h38.001l-16.095-60.049c-.586-2.186-2.567-3.706-4.83-3.706h-22.718c-2.761 0-5 2.239-5 5v48.113c.001 5.878 4.765 10.642 10.642 10.642z" fill="#ff7eb8"/><g><path d="m101.447 233.002h10.136c2.762 0 5-2.238 5-5s-2.238-5-5-5h-10.136c-2.762 0-5 2.238-5 5s2.238 5 5 5z" fill="#ff5ba8"/></g><g><path d="m146.379 371.239c-10.218 0-18.531-8.313-18.531-18.531v-100.902h-20v100.901c0 21.246 17.285 38.531 38.531 38.531z" fill="#6583fe"/></g><g><path d="m107.848 251.806h20v19.747h-20z" fill="#4369fd"/></g><path d="m410.356 183.052h-1.618v-5.835c1.675-.808 2.84-2.507 2.84-4.491 0-2.155-1.37-3.975-3.281-4.678-1.834-10.699-9.377-19.714-19.929-23.255l-16.654-5.588v-20.519h4.001c5.514 0 10-4.486 10-10v-56.448c0-5.514-4.486-10-10-10h-238.337c-5.514 0-10 4.486-10 10v56.448c0 5.514 4.486 10 10 10h4.001v20.519l-16.654 5.588c-10.552 3.541-18.095 12.556-19.929 23.255-1.911.703-3.281 2.523-3.281 4.678 0 1.984 1.165 3.683 2.84 4.491v5.835h-1.618c-5.514 0-10 4.486-10 10v48.113c0 8.625 7.017 15.642 15.642 15.642h14.47v95.9c0 11.26 7.95 20.698 18.531 22.997v10.162c-16.127-2.421-28.531-16.368-28.531-33.159v-67.91c0-2.762-2.238-5-5-5s-5 2.238-5 5v67.91c0 22.311 16.876 40.746 38.531 43.235v24.621h-3.555c-8.271 0-15 6.729-15 15v18.198c0 5.514 4.486 10 10 10h247.443c5.514 0 10-4.486 10-10v-18.198c0-8.271-6.729-15-15-15h-3.555v-24.621c21.656-2.489 38.531-20.924 38.531-43.235v-96.929c5.9-2.241 10.111-7.937 10.111-14.613v-48.113c.001-5.514-4.485-10-9.999-10zm-38.643 73.755h8.531v95.9c0 5.694-3.54 10.568-8.531 12.562zm0-91.232 8.701 2.919c.665.223 1.249.589 1.742 1.043-.725.867-1.178 1.969-1.178 3.188 0 1.951 1.129 3.623 2.759 4.447v6.677c-2.77 1.177-4.945 3.574-5.759 6.613l-6.266 23.377v-48.264zm22.025 12.151h5v5.326h-5zm-8.552-23.453c6.344 2.129 11.046 7.236 12.795 13.452h-5.26c-1.566-4.03-4.846-7.276-9.125-8.712l-11.883-3.987v-5.273zm-255.831 22.9c1.63-.824 2.759-2.496 2.759-4.447 0-1.219-.453-2.321-1.178-3.188.494-.454 1.077-.82 1.742-1.043l8.701-2.919v48.265l-6.266-23.377c-.814-3.038-2.989-5.434-5.759-6.612v-6.679zm-1.448-22.9 13.473-4.521v5.273l-11.883 3.987c-4.278 1.436-7.558 4.682-9.125 8.712h-5.26c1.749-6.214 6.45-11.322 12.795-13.451zm-13.552 23.453h5v5.326h-5zm-11.618 63.439v-48.113h6.615.003 15c.003 0 .006-.001.009-.001h1.091l14.407 53.756h-31.484c-3.11 0-5.641-2.532-5.641-5.642zm30.111 111.542v-95.9h8.531v108.463c-4.99-1.995-8.531-6.869-8.531-12.563zm247.42 82.856.006 18.198h-247.449v-18.198c0-2.757 2.243-5 5-5h8.555 220.334 8.555c2.756 0 4.999 2.244 4.999 5zm-228.889-15v-29.325-20-212.615-15.821-24.115h182.344c2.762 0 5-2.238 5-5s-2.238-5-5-5h-196.345v-56.449h238.336v56.448h-9.001c-2.762 0-5 2.238-5 5v29.115 15.821 212.615 20 29.325h-210.334zm220.334-34.697v-10.162c10.581-2.299 18.531-11.737 18.531-22.997v-95.9h10v95.9c.001 16.791-12.404 30.738-28.531 33.159zm38.643-144.701c0 3.104-2.521 5.63-5.622 5.641h-19.489c-.003 0-.006.001-.01.001h-12.005l14.408-53.755h1.1 15 6.618z" fill="#2626bc"/></g></g></g><path d="m416.646 118.687c-2.762 0-5-2.238-5-5 0-3.309-2.691-6-6-6-2.762 0-5-2.238-5-5s2.238-5 5-5c3.309 0 6-2.691 6-6 0-2.762 2.238-5 5-5s5 2.238 5 5c0 3.309 2.691 6 6 6 2.762 0 5 2.238 5 5s-2.238 5-5 5c-3.309 0-6 2.691-6 6 0 2.761-2.238 5-5 5z" fill="#01eca5"/><path d="m71.962 393.908c-1.279 0-2.56-.488-3.535-1.465-1.953-1.952-1.953-5.118 0-7.07l3.327-3.328-5.002-3.173c-1.282-.813-2.125-2.165-2.292-3.674-.167-1.508.361-3.011 1.435-4.084l7.742-7.742c1.951-1.953 5.119-1.953 7.07 0 1.953 1.952 1.953 5.118 0 7.07l-3.327 3.328 5.002 3.173c1.282.813 2.125 2.165 2.292 3.673.167 1.509-.361 3.012-1.435 4.085l-7.742 7.742c-.976.977-2.256 1.465-3.535 1.465z" fill="#ff7eb8"/><path d="m430.178 166.452c-1.279 0-2.56-.488-3.535-1.465-1.953-1.952-1.953-5.118 0-7.07l3.327-3.328-5.002-3.173c-1.282-.813-2.125-2.165-2.292-3.674s.361-3.012 1.435-4.085l7.742-7.741c1.953-1.951 5.118-1.952 7.071.001 1.952 1.952 1.952 5.118-.001 7.071l-3.327 3.326 5.002 3.173c1.282.813 2.125 2.165 2.292 3.673.167 1.509-.361 3.012-1.435 4.085l-7.742 7.742c-.975.977-2.255 1.465-3.535 1.465z" fill="#ff7eb8"/><path d="m88.705 129.687c-1.279 0-2.56-.488-3.535-1.465-1.953-1.952-1.953-5.118 0-7.07l3.327-3.328-5.002-3.172c-1.282-.813-2.125-2.164-2.292-3.673s.36-3.012 1.435-4.085l7.742-7.742c1.951-1.953 5.119-1.953 7.07 0 1.953 1.952 1.953 5.118 0 7.07l-3.327 3.328 5.002 3.172c1.282.813 2.125 2.164 2.292 3.673s-.36 3.012-1.435 4.085l-7.742 7.742c-.976.976-2.256 1.465-3.535 1.465z" fill="#6583fe"/><path d="m69.429 337.522c-2.762 0-5-2.238-5-5 0-3.309-2.691-6-6-6-2.762 0-5-2.238-5-5s2.238-5 5-5c3.309 0 6-2.691 6-6 0-2.762 2.238-5 5-5s5 2.238 5 5c0 3.309 2.691 6 6 6 2.762 0 5 2.238 5 5s-2.238 5-5 5c-3.309 0-6 2.691-6 6 0 2.762-2.238 5-5 5z" fill="#01eca5"/></g></g></svg>