<svg id="Capa_1" enable-background="new 0 0 512 512" height="512" viewBox="0 0 512 512" width="512" xmlns="http://www.w3.org/2000/svg" xmlns:xlink="http://www.w3.org/1999/xlink"><linearGradient id="SVGID_1_" gradientUnits="userSpaceOnUse" x1="53.976" x2="458.024" y1="256" y2="256"><stop offset="0" stop-color="#ffdbed"/><stop offset="1" stop-color="#dcfdee"/></linearGradient><g><g><path d="m170.091.39c-68.06 4.435-134.218 61.127-111.591 135.073 18.265 59.691 84.702 87.73 134.671 115.676 47.928 26.805 98.6 60.229 112.037 117.192 9.247 39.199-2.084 84.916 22.012 117.187 42.331 56.693 124.077 13.634 130.314-47.258 5.176-50.542-31.51-94.701-65.828-132.165-33.267-36.317-70.462-71.374-99.992-110.843-27.345-36.55-41.639-81.985-5.379-118.188 8.145-8.132 17.848-16.505 14.872-29.734-9.77-43.394-97.817-49.109-131.116-46.94z" fill="url(#SVGID_1_)"/></g><g><g><g fill="#2626bc" opacity=".1"><path d="m441.141 196.255c-12.109 0-21.925 9.816-21.925 21.925v55.094l-33.015 33.015c9.715-9.716 9.715-25.467-.001-35.183-9.716-9.716-25.468-9.716-35.183 0l-68.903 68.902c-8.144 8.144-12.719 19.189-12.719 30.705v69.391c0 5.523 4.477 10 10 10h89.764c6.343 0 11.083-5.829 9.79-12.039l-7.741-37.178c-1.375-6.601.67-13.451 5.438-18.219l80.451-80.452c3.743-3.743 5.85-8.817 5.858-14.111l.109-69.893c.02-12.12-9.802-21.957-21.923-21.957z"/><path d="m160.983 271.106c-9.716-9.716-25.468-9.716-35.183 0-9.715 9.715-9.716 25.467-.001 35.183l-33.015-33.015v-55.094c0-12.109-9.816-21.925-21.925-21.925-12.122 0-21.943 9.837-21.925 21.959l.109 69.893c.008 5.294 2.115 10.368 5.858 14.111l80.451 80.452c4.768 4.768 6.812 11.618 5.438 18.219l-7.741 37.178c-1.293 6.21 3.447 12.039 9.79 12.039h89.764c5.523 0 10-4.477 10-10v-69.391c0-11.517-4.575-22.562-12.719-30.705z"/><path d="m348.46 201.882c16.494 0 29.865-13.371 29.865-29.865 0-12.588-17.395-41.701-25.634-54.784-1.963-3.117-6.5-3.117-8.463 0-8.239 13.083-25.634 42.196-25.634 54.784.001 16.494 13.372 29.865 29.866 29.865z"/><path d="m163.54 201.882c16.494 0 29.865-13.371 29.865-29.865 0-12.588-17.395-41.701-25.634-54.784-1.963-3.117-6.5-3.117-8.463 0-8.239 13.083-25.634 42.196-25.634 54.784.001 16.494 13.372 29.865 29.866 29.865z"/><path d="m307.988 242.91c0-23.695-35.406-81.024-47.78-100.337-1.966-3.068-6.45-3.068-8.416 0-12.374 19.313-47.78 76.643-47.78 100.337 0 28.712 23.276 51.988 51.988 51.988s51.988-23.276 51.988-51.988z"/></g><g><g><path d="m282.115 316.008 68.903-68.903c9.716-9.716 25.468-9.716 35.183 0 9.715 9.715 9.716 25.467.001 35.182l33.015-33.015v-55.092c0-12.109 9.816-21.925 21.925-21.925 12.122 0 21.943 9.837 21.925 21.959l-.109 69.893c-.008 5.294-2.115 10.368-5.858 14.111l-80.451 80.452c-4.768 4.768-6.812 11.618-5.438 18.219l10.248 49.216h-112.063v-79.391c0-11.517 4.575-22.562 12.719-30.706z" fill="#ff7eb8"/><path d="m229.885 316.008-68.903-68.903c-9.716-9.716-25.468-9.716-35.183 0-9.715 9.715-9.716 25.467-.001 35.182l-33.015-33.015v-55.092c0-12.109-9.816-21.925-21.925-21.925-12.122 0-21.943 9.837-21.925 21.959l.109 69.893c.008 5.294 2.115 10.368 5.858 14.111l80.451 80.452c4.768 4.768 6.812 11.618 5.438 18.219l-10.248 49.216h112.061v-79.391c.002-11.517-4.573-22.562-12.717-30.706z" fill="#ffa8cf"/></g></g><g fill="#b7c5ff"><path d="m378.325 148.017c0 16.494-13.371 29.865-29.865 29.865s-29.865-13.371-29.865-29.865c0-12.588 17.395-41.701 25.634-54.784 1.963-3.117 6.5-3.117 8.463 0 8.238 13.083 25.633 42.196 25.633 54.784z"/><path d="m193.405 148.017c0 16.494-13.371 29.865-29.865 29.865s-29.865-13.371-29.865-29.865c0-12.588 17.395-41.701 25.634-54.784 1.963-3.117 6.5-3.117 8.463 0 8.238 13.083 25.633 42.196 25.633 54.784z"/></g><g><path d="m307.988 218.91c0 28.712-23.276 51.988-51.988 51.988s-51.988-23.276-51.988-51.988c0-23.695 35.406-81.024 47.78-100.337 1.965-3.068 6.45-3.068 8.416 0 12.374 19.312 47.78 76.642 47.78 100.337z" fill="#8399fe"/><g fill="#2626bc"><path d="m460.194 175.156c-5.087-5.095-11.854-7.901-19.054-7.901-14.846 0-26.925 12.078-26.925 26.924v53.022l-15.791 15.791c-.4-7.074-3.296-14.031-8.689-19.423-5.643-5.643-13.146-8.751-21.127-8.751s-15.484 3.108-21.127 8.751l-68.903 68.902c-9.146 9.146-14.183 21.307-14.183 34.241v79.392c0 2.761 2.239 5 5 5s5-2.239 5-5v-79.392c0-10.263 3.997-19.912 11.254-27.169l68.903-68.902c3.754-3.755 8.746-5.823 14.056-5.823s10.302 2.068 14.056 5.823c7.75 7.75 7.75 20.361 0 28.111l-47.889 47.89c-5.059 5.058-7.845 11.783-7.845 18.937 0 2.761 2.239 5 5 5s5-2.239 5-5c0-4.482 1.746-8.696 4.916-11.866l80.904-80.904c.938-.938 1.464-2.209 1.464-3.536v-55.093c0-9.332 7.592-16.924 16.925-16.924 4.526 0 8.779 1.764 11.977 4.966 3.197 3.203 4.955 7.458 4.947 11.984l-.109 69.894c-.006 3.998-1.566 7.756-4.394 10.583l-80.451 80.452c-5.98 5.98-8.521 14.494-6.797 22.774l10.248 49.215c.491 2.36 2.571 3.982 4.89 3.982.337 0 .681-.034 1.024-.106 2.704-.563 4.439-3.211 3.876-5.914l-10.248-49.216c-1.034-4.968.49-10.077 4.079-13.665l80.451-80.452c4.711-4.711 7.312-10.976 7.322-17.639l.109-69.894c.013-7.198-2.782-13.969-7.869-19.064z"/><path d="m164.518 243.57c-5.643-5.643-13.146-8.751-21.127-8.751s-15.484 3.108-21.127 8.751c-5.392 5.392-8.289 12.349-8.689 19.423l-15.791-15.791v-53.022c0-14.846-12.079-26.924-26.925-26.924-7.2 0-13.967 2.806-19.054 7.901s-7.882 11.866-7.871 19.065l.025 16.47c.004 2.759 2.242 4.992 5 4.992h.008c2.761-.004 4.997-2.246 4.992-5.008l-.025-16.47c-.007-4.526 1.75-8.782 4.947-11.984 3.198-3.203 7.451-4.966 11.977-4.966 9.333 0 16.925 7.592 16.925 16.924v55.094c0 1.326.527 2.598 1.464 3.536l80.904 80.904c3.169 3.169 4.915 7.383 4.915 11.866 0 2.761 2.239 5 5 5s5-2.239 5-5c0-7.154-2.786-13.879-7.844-18.937l-47.889-47.89c-7.75-7.75-7.75-20.361.001-28.111 3.754-3.755 8.746-5.823 14.056-5.823s10.301 2.068 14.056 5.823l68.903 68.902c7.257 7.257 11.254 16.907 11.254 27.17v79.391c0 2.761 2.239 5 5 5s5-2.239 5-5v-79.391c0-12.935-5.037-25.095-14.183-34.241z"/><path d="m58.438 274.683c-2.827-2.827-4.387-6.585-4.394-10.583l-.032-20.433c-.004-2.759-2.242-4.992-5-4.992-.002 0-.005 0-.008 0-2.761.004-4.997 2.247-4.992 5.008l.032 20.433c.01 6.663 2.611 12.927 7.322 17.639l80.451 80.452c3.588 3.588 5.113 8.696 4.079 13.665l-10.248 49.216c-.563 2.703 1.172 5.351 3.876 5.914.344.072.686.106 1.024.106 2.319 0 4.399-1.622 4.89-3.982l10.248-49.216c1.724-8.28-.817-16.793-6.797-22.774z"/><path d="m348.46 182.882c19.225 0 34.866-15.641 34.866-34.866 0-12.828-14.358-38.321-26.403-57.449-1.843-2.926-5.006-4.673-8.462-4.673s-6.62 1.747-8.462 4.673c-12.045 19.127-26.403 44.62-26.403 57.449-.001 19.226 15.639 34.866 34.864 34.866zm0-86.985c15.57 24.725 24.865 44.208 24.865 52.12 0 13.711-11.155 24.866-24.866 24.866s-24.865-11.155-24.865-24.866c.001-7.912 9.296-27.396 24.866-52.12z"/><path d="m163.54 182.882c19.225 0 34.865-15.641 34.865-34.866 0-12.829-14.358-38.322-26.403-57.449-1.843-2.926-5.006-4.673-8.462-4.673s-6.62 1.747-8.462 4.673c-12.045 19.127-26.403 44.621-26.403 57.449-.001 19.226 15.64 34.866 34.865 34.866zm.001-86.985c15.569 24.724 24.865 44.208 24.865 52.12 0 13.711-11.154 24.866-24.865 24.866s-24.866-11.155-24.866-24.866c-.001-7.912 9.295-27.395 24.866-52.12z"/><path d="m270.764 263.518c-2.622.867-4.044 3.696-3.177 6.317.695 2.101 2.648 3.431 4.746 3.431.521 0 1.05-.082 1.571-.254 23.377-7.733 39.083-29.475 39.083-54.102 0-24.575-33.966-80.242-48.57-103.035-1.847-2.882-4.994-4.603-8.418-4.603s-6.571 1.721-8.418 4.604c-14.604 22.792-48.57 78.459-48.57 103.035 0 24.455 15.564 46.149 38.729 53.982 2.615.886 5.454-.519 6.338-3.135.885-2.616-.519-5.454-3.135-6.338-19.1-6.459-31.933-24.346-31.933-44.509 0-17.917 24.273-62.185 46.986-97.64 22.716 35.455 46.99 79.724 46.99 97.64.002 20.304-12.948 38.231-32.222 44.607z"/></g></g><path d="m414.299 417.797c-2.761 0-5-2.239-5-5 0-3.309-2.691-6-6-6-2.761 0-5-2.239-5-5s2.239-5 5-5c3.309 0 6-2.691 6-6 0-2.761 2.239-5 5-5s5 2.239 5 5c0 3.309 2.691 6 6 6 2.761 0 5 2.239 5 5s-2.239 5-5 5c-3.309 0-6 2.691-6 6 0 2.761-2.238 5-5 5z" fill="#ff7eb8"/><path d="m88.292 398.632c-2.761 0-5-2.239-5-5 0-3.309-2.691-6-6-6-2.761 0-5-2.239-5-5s2.239-5 5-5c3.309 0 6-2.691 6-6 0-2.761 2.239-5 5-5s5 2.239 5 5c0 3.309 2.691 6 6 6 2.761 0 5 2.239 5 5s-2.239 5-5 5c-3.309 0-6 2.691-6 6 0 2.761-2.239 5-5 5z" fill="#01eca5"/><path d="m421.672 154.272c-2.761 0-5-2.239-5-5 0-3.309-2.691-6-6-6-2.761 0-5-2.239-5-5s2.239-5 5-5c3.309 0 6-2.691 6-6 0-2.761 2.239-5 5-5s5 2.239 5 5c0 3.309 2.691 6 6 6 2.761 0 5 2.239 5 5s-2.239 5-5 5c-3.309 0-6 2.691-6 6 0 2.761-2.239 5-5 5z" fill="#01eca5"/><path d="m97.687 153.272c-1.28 0-2.559-.488-3.536-1.464-1.953-1.953-1.953-5.119 0-7.071l3.328-3.328-5.003-3.173c-1.282-.813-2.125-2.164-2.292-3.673s.361-3.012 1.434-4.085l7.742-7.742c1.954-1.952 5.119-1.951 7.071 0 1.953 1.953 1.953 5.119 0 7.071l-3.328 3.328 5.003 3.173c1.282.813 2.125 2.164 2.292 3.673s-.361 3.012-1.434 4.085l-7.742 7.742c-.976.976-2.256 1.464-3.535 1.464z" fill="#6583fe"/><path d="m210.787 106.895c-1.28 0-2.559-.488-3.536-1.464-1.953-1.953-1.953-5.119 0-7.071l3.328-3.328-5.002-3.173c-1.282-.813-2.125-2.164-2.292-3.673s.361-3.012 1.434-4.085l7.742-7.742c1.953-1.952 5.118-1.952 7.071 0 1.953 1.953 1.953 5.119 0 7.071l-3.328 3.327 5.002 3.173c1.282.813 2.125 2.164 2.292 3.673s-.361 3.012-1.434 4.085l-7.742 7.742c-.976.977-2.255 1.465-3.535 1.465z" fill="#ff7eb8"/></g><g><path d="m271.67 202.786h-12.167v-23.854c0-1.112-1.494-1.475-2.004-.487l-18.111 35.05c-.365.706.148 1.549.943 1.549h12.167v23.854c0 1.112 1.494 1.475 2.004.487l18.111-35.05c.365-.707-.148-1.549-.943-1.549z" fill="#fff"/></g></g></g></svg>