<svg id="Capa_1" enable-background="new 0 0 512 512" height="512" viewBox="0 0 512 512" width="512" xmlns="http://www.w3.org/2000/svg" xmlns:xlink="http://www.w3.org/1999/xlink"><linearGradient id="SVGID_1_" gradientUnits="userSpaceOnUse" x1="45.274" x2="466.726" y1="256" y2="256"><stop offset=".0485" stop-color="#d2deff"/><stop offset=".9993" stop-color="#dcfdee"/></linearGradient><g><g><path d="m97.146 38.232c-135.328 119.538 38.831 235.409 22.243 366.028-7.375 58.072 16.054 113.588 92.705 107.244 93.413-7.732 59.504-97.209 79.066-156.778 33.66-102.501 240.73-78.56 154.895-236.448-54.778-100.758-255.766-162.321-348.909-80.046z" fill="url(#SVGID_1_)"/></g><g><g><g><g><g fill="#2626bc" opacity=".1"><path d="m441.141 208.255c-12.109 0-21.925 9.816-21.925 21.925v55.094l-33.015 33.015c9.715-9.716 9.715-25.467-.001-35.183-9.716-9.716-25.468-9.716-35.183 0l-68.903 68.902c-8.144 8.144-12.719 19.189-12.719 30.705v69.391c0 5.523 4.477 10 10 10h89.764c6.343 0 11.083-5.829 9.79-12.039l-7.741-37.178c-1.375-6.601.67-13.451 5.438-18.219l80.451-80.452c3.743-3.743 5.85-8.817 5.858-14.111l.109-69.893c.02-12.12-9.802-21.957-21.923-21.957z"/><g><path d="m144.581 134.754c-17.198-17.198-42.884-20.696-63.546-10.504-10.192 20.662-6.705 46.359 10.493 63.557 17.187 17.187 42.884 20.673 63.546 10.481 10.192-20.661 6.694-46.347-10.493-63.534z"/><path d="m367.419 134.754c17.198-17.198 42.884-20.696 63.546-10.504 10.192 20.662 6.705 46.359-10.493 63.557-17.187 17.187-42.884 20.673-63.546 10.481-10.192-20.661-6.694-46.347 10.493-63.534z"/><path d="m186.75 190.648c0-50.628 28.962-93.584 69.236-108.996 40.273 15.411 69.265 58.367 69.265 108.996 0 50.596-28.991 93.551-69.265 108.963-40.274-15.412-69.236-58.368-69.236-108.963z"/></g><path d="m160.983 283.106c-9.716-9.716-25.468-9.716-35.183 0-9.715 9.715-9.716 25.467-.001 35.183l-33.015-33.015v-55.094c0-12.109-9.816-21.925-21.925-21.925-12.122 0-21.943 9.837-21.925 21.959l.109 69.893c.008 5.294 2.115 10.368 5.858 14.111l80.451 80.452c4.768 4.768 6.812 11.618 5.438 18.219l-7.741 37.178c-1.293 6.21 3.447 12.039 9.79 12.039h89.764c5.523 0 10-4.477 10-10v-69.391c0-11.517-4.575-22.562-12.719-30.705z"/></g><g><g><path d="m282.115 328.008 68.903-68.903c9.716-9.716 25.468-9.716 35.183 0 9.715 9.715 9.716 25.467.001 35.182l33.015-33.015v-55.092c0-12.109 9.816-21.925 21.925-21.925 12.122 0 21.943 9.837 21.925 21.959l-.109 69.893c-.008 5.294-2.115 10.368-5.858 14.111l-80.451 80.452c-4.768 4.768-6.812 11.618-5.438 18.219l10.248 49.216h-112.063v-79.391c0-11.517 4.575-22.562 12.719-30.706z" fill="#ff7eb8"/><path d="m229.885 328.008-68.903-68.903c-9.716-9.716-25.468-9.716-35.183 0-9.715 9.715-9.716 25.467-.001 35.182l-33.015-33.015v-55.092c0-12.109-9.816-21.925-21.925-21.925-12.122 0-21.943 9.837-21.925 21.959l.109 69.893c.008 5.294 2.115 10.368 5.858 14.111l80.451 80.452c4.768 4.768 6.812 11.618 5.438 18.219l-10.248 49.216h112.061v-79.391c.002-11.517-4.573-22.562-12.717-30.706z" fill="#ffa8cf"/></g></g></g></g><g><g><path d="m186.75 166.648c0-50.628 28.962-93.584 69.236-108.996 40.273 15.411 69.265 58.367 69.265 108.996 0 50.596-28.991 93.551-69.265 108.963-40.274-15.412-69.236-58.368-69.236-108.963z" fill="#01eca5"/><path d="m286.859 213.393c-1.393-2.383-4.454-3.188-6.84-1.794l-19.034 11.123v-33.81l20.877-12.2c2.384-1.393 3.188-4.456 1.794-6.839-1.393-2.384-4.455-3.188-6.839-1.794l-15.833 9.252v-13.413c0-2.761-2.239-5-5-5s-5 2.239-5 5v44.011l-21.314-13.942c-2.313-1.512-5.411-.863-6.921 1.447-1.512 2.311-.864 5.41 1.447 6.921l26.789 17.524v52.266c0 2.761 2.239 5 5 5s5-2.239 5-5v-37.839l24.08-14.072c2.384-1.394 3.187-4.457 1.794-6.841z" fill="#00b574"/></g></g><g><path d="m271.67 107.505h-12.167v-23.854c0-1.112-1.494-1.475-2.004-.487l-18.111 35.05c-.365.706.148 1.549.943 1.549h12.167v23.854c0 1.112 1.494 1.475 2.004.487l18.111-35.05c.365-.707-.148-1.549-.943-1.549z" fill="#fff"/></g><g><g><g><g><path d="m144.581 110.754c-17.198-17.198-42.884-20.696-63.546-10.504-10.192 20.662-6.705 46.359 10.493 63.557 17.187 17.187 42.884 20.673 63.546 10.481 10.192-20.661 6.694-46.347-10.493-63.534z" fill="#02ffb3"/><path d="m158.609 170.753-24.676-24.676 2.821-13.496c.565-2.703-1.168-5.352-3.871-5.917-2.702-.566-5.352 1.168-5.917 3.871l-1.483 7.093-20.783-20.783c-1.953-1.952-5.118-1.952-7.071 0-1.953 1.953-1.953 5.119 0 7.071l8.59 8.59-5.762 1.511c-2.671.701-4.269 3.434-3.568 6.105.589 2.246 2.615 3.733 4.833 3.733.42 0 .847-.054 1.272-.165l11.415-2.994 37.129 37.129c.977.976 2.256 1.464 3.536 1.464s2.559-.488 3.536-1.464c1.952-1.953 1.952-5.119-.001-7.072z" fill="#00b574"/></g></g></g><g><g><g><path d="m367.419 110.754c17.198-17.198 42.884-20.696 63.546-10.504 10.192 20.662 6.705 46.359-10.493 63.557-17.187 17.187-42.884 20.673-63.546 10.481-10.192-20.661-6.694-46.347 10.493-63.534z" fill="#02ffb3"/><path d="m411.543 134.018-5.762-1.511 8.59-8.59c1.953-1.953 1.953-5.119 0-7.071s-5.118-1.952-7.071 0l-20.783 20.783-1.483-7.093c-.564-2.703-3.215-4.438-5.917-3.871-2.703.565-4.437 3.214-3.871 5.917l2.821 13.496-24.676 24.676c-1.953 1.953-1.953 5.119 0 7.071.977.976 2.256 1.464 3.536 1.464s2.559-.488 3.536-1.464l37.129-37.129 11.415 2.994c.425.111.852.165 1.272.165 2.218 0 4.244-1.487 4.833-3.733.7-2.67-.898-5.404-3.569-6.104z" fill="#00b574"/><g fill="#2626bc"><path d="m460.194 187.156c-5.087-5.095-11.854-7.901-19.054-7.901-14.846 0-26.925 12.078-26.925 26.924v53.022l-15.791 15.791c-.4-7.074-3.296-14.031-8.689-19.423-5.643-5.643-13.146-8.751-21.127-8.751s-15.484 3.108-21.127 8.751l-68.903 68.902c-9.146 9.146-14.183 21.307-14.183 34.241 0 2.761 2.239 5 5 5s5-2.239 5-5c0-10.263 3.997-19.913 11.254-27.17l68.903-68.902c3.754-3.755 8.746-5.823 14.056-5.823s10.301 2.068 14.056 5.823c7.75 7.75 7.751 20.361.001 28.111l-47.889 47.89c-5.059 5.058-7.845 11.783-7.845 18.937 0 2.761 2.239 5 5 5s5-2.239 5-5c0-4.482 1.746-8.696 4.916-11.866l80.904-80.904c.938-.938 1.464-2.209 1.464-3.536v-55.092c0-9.332 7.592-16.924 16.925-16.924 4.526 0 8.779 1.764 11.977 4.966 3.197 3.203 4.955 7.458 4.947 11.984l-.109 69.894c-.006 3.998-1.566 7.756-4.394 10.583l-80.451 80.452c-5.98 5.98-8.521 14.494-6.797 22.774l10.248 49.215c.491 2.36 2.571 3.982 4.89 3.982.337 0 .681-.034 1.024-.106 2.704-.563 4.439-3.211 3.876-5.914l-10.248-49.216c-1.034-4.968.49-10.077 4.079-13.665l80.451-80.452c4.711-4.711 7.312-10.976 7.322-17.639l.109-69.894c.012-7.198-2.783-13.969-7.87-19.064z"/><path d="m269.396 386.704c-2.761 0-5 2.239-5 5v46.401c0 2.761 2.239 5 5 5s5-2.239 5-5v-46.401c0-2.761-2.239-5-5-5z"/><path d="m164.518 255.57c-5.643-5.643-13.146-8.751-21.127-8.751s-15.484 3.108-21.127 8.751c-5.392 5.393-8.289 12.349-8.688 19.423l-15.791-15.791v-53.022c0-14.846-12.079-26.924-26.925-26.924-7.2 0-13.967 2.806-19.054 7.901s-7.882 11.866-7.871 19.065l.109 69.894c.01 6.663 2.611 12.927 7.322 17.639l80.451 80.452c3.588 3.588 5.113 8.696 4.079 13.665l-10.248 49.216c-.563 2.703 1.172 5.351 3.876 5.914.344.072.686.106 1.024.106 2.319 0 4.399-1.622 4.89-3.982l10.248-49.216c1.724-8.28-.817-16.793-6.797-22.774l-80.451-80.452c-2.827-2.827-4.387-6.585-4.394-10.583l-.109-69.894c-.007-4.526 1.75-8.782 4.947-11.984 3.198-3.203 7.451-4.966 11.977-4.966 9.333 0 16.925 7.592 16.925 16.924v55.094c0 1.326.527 2.598 1.464 3.536l80.904 80.904c3.169 3.169 4.915 7.383 4.915 11.866 0 2.761 2.239 5 5 5s5-2.239 5-5c0-7.154-2.786-13.879-7.844-18.937l-47.889-47.89c-7.75-7.75-7.75-20.361.001-28.111 3.754-3.755 8.746-5.823 14.056-5.823s10.301 2.068 14.056 5.823l68.903 68.902c7.257 7.257 11.254 16.906 11.254 27.169v79.392c0 2.761 2.239 5 5 5s5-2.239 5-5v-79.392c0-12.934-5.037-25.094-14.183-34.241z"/><path d="m330.25 166.648c0-51.398-29.126-97.077-72.478-113.666-1.151-.44-2.423-.44-3.574 0-43.333 16.583-72.448 62.261-72.448 113.665 0 28.534 9.08 56.187 25.566 77.863 1.671 2.198 4.809 2.625 7.006.953 2.198-1.671 2.625-4.809.953-7.006-15.17-19.946-23.525-45.448-23.525-71.809 0-46.573 25.732-87.942 64.235-103.62 38.52 15.684 64.265 57.053 64.265 103.62 0 46.547-25.744 87.903-64.264 103.587-6.298-2.569-12.387-5.902-18.125-9.924-2.261-1.584-5.379-1.036-6.964 1.225-1.584 2.261-1.036 5.379 1.225 6.964 6.951 4.871 14.378 8.835 22.077 11.78.575.22 1.181.33 1.787.33s1.212-.11 1.787-.33c43.351-16.589 72.477-62.254 72.477-113.632z"/><path d="m130.619 185.001c9.048 0 18.172-2.038 26.667-6.228.987-.487 1.786-1.286 2.272-2.272 11.428-23.168 6.83-51.011-11.441-69.282-18.278-18.278-46.125-22.879-69.293-11.453-.987.487-1.786 1.286-2.272 2.272-11.433 23.178-6.834 51.029 11.441 69.305 11.572 11.574 26.987 17.658 42.626 17.658zm-45.829-80.996c19.005-8.591 41.413-4.558 56.255 10.285 14.837 14.836 18.865 37.239 10.273 56.244-19.015 8.595-41.421 4.572-56.256-10.262-14.84-14.841-18.867-37.252-10.272-56.267z"/><path d="m354.714 178.773c8.497 4.191 17.618 6.228 26.667 6.228 15.637 0 31.055-6.085 42.627-17.658 18.275-18.276 22.874-46.127 11.441-69.305-.487-.987-1.286-1.786-2.272-2.272-23.166-11.426-51.015-6.825-69.293 11.453-18.271 18.271-22.869 46.114-11.441 69.282.486.987 1.285 1.786 2.271 2.272zm16.241-64.483c14.843-14.843 37.25-18.874 56.255-10.285 8.595 19.014 4.568 41.426-10.273 56.267-14.834 14.834-37.243 18.858-56.256 10.262-8.591-19.005-4.563-41.408 10.274-56.244z"/></g></g></g></g></g></g><path d="m81.748 426.045c-2.761 0-5-2.239-5-5 0-3.309-2.691-6-6-6-2.761 0-5-2.239-5-5s2.239-5 5-5c3.309 0 6-2.691 6-6 0-2.761 2.239-5 5-5s5 2.239 5 5c0 3.309 2.691 6 6 6 2.761 0 5 2.239 5 5s-2.239 5-5 5c-3.309 0-6 2.691-6 6 0 2.761-2.239 5-5 5z" fill="#01eca5"/><path d="m351.235 86.652c-2.761 0-5-2.239-5-5 0-3.309-2.691-6-6-6-2.761 0-5-2.239-5-5s2.239-5 5-5c3.309 0 6-2.691 6-6 0-2.761 2.239-5 5-5s5 2.239 5 5c0 3.309 2.691 6 6 6 2.761 0 5 2.239 5 5s-2.239 5-5 5c-3.309 0-6 2.691-6 6 0 2.762-2.238 5-5 5z" fill="#ff7eb8"/><path d="m179.122 86.652c-1.28 0-2.559-.488-3.536-1.464-1.953-1.953-1.953-5.119 0-7.071l3.328-3.328-5.002-3.172c-1.282-.813-2.125-2.165-2.292-3.673s.361-3.012 1.434-4.085l7.742-7.742c1.954-1.952 5.119-1.951 7.071 0 1.953 1.953 1.953 5.119 0 7.071l-3.328 3.327 5.002 3.172c1.282.813 2.125 2.165 2.292 3.673s-.361 3.012-1.434 4.085l-7.742 7.742c-.976.977-2.256 1.465-3.535 1.465z" fill="#6583fe"/><path d="m424.725 407.797c-1.28 0-2.559-.488-3.536-1.464-1.953-1.953-1.953-5.119 0-7.071l3.328-3.327-5.002-3.173c-1.282-.813-2.125-2.164-2.292-3.673s.361-3.012 1.434-4.085l7.742-7.742c1.953-1.952 5.118-1.952 7.071 0 1.953 1.953 1.953 5.119 0 7.071l-3.328 3.328 5.002 3.173c1.282.813 2.125 2.164 2.292 3.673s-.361 3.012-1.434 4.085l-7.742 7.742c-.976.975-2.255 1.463-3.535 1.463z" fill="#01eca5"/><path d="m143.165 65.52c-1.28 0-2.559-.488-3.536-1.464-1.953-1.953-1.953-5.118 0-7.071l3.328-3.328-5.002-3.173c-1.282-.813-2.125-2.164-2.292-3.673s.361-3.012 1.434-4.085l7.742-7.742c1.954-1.952 5.119-1.951 7.071 0 1.953 1.953 1.953 5.119 0 7.071l-3.328 3.328 5.002 3.172c1.282.813 2.125 2.164 2.292 3.673s-.361 3.011-1.434 4.085l-7.742 7.742c-.976.977-2.256 1.465-3.535 1.465z" fill="#ff7eb8"/></g></g></svg>