<svg id="Capa_1" enable-background="new 0 0 512 512" height="512" viewBox="0 0 512 512" width="512" xmlns="http://www.w3.org/2000/svg" xmlns:xlink="http://www.w3.org/1999/xlink"><linearGradient id="SVGID_1_" gradientUnits="userSpaceOnUse" x1="15.63" x2="496.37" y1="256" y2="256"><stop offset=".0485" stop-color="#d2deff"/><stop offset=".9993" stop-color="#dcfdee"/></linearGradient><g><g><path d="m20.722 179.563c26.255 85.007 107.775 89.005 182.131 93.553 244.867 14.978-63.002 218.186 146.697 238.304 77.136 7.4 157.788-56.956 145.59-140.291-11.107-75.879-121.152-121.073-121.207-191.979-.043-55.945 103.86-96.409 36.272-156.553-60.249-53.612-442.871-15.888-389.483 156.966z" fill="url(#SVGID_1_)"/></g><g><g><g><g fill="#2626bc" opacity=".1"><g><path d="m307.093 175.138h-43.943v-86.15c0-4.017-5.394-5.329-7.238-1.76l-65.409 126.586c-1.318 2.551.534 5.593 3.405 5.593h43.943v86.15c0 4.017 5.394 5.329 7.238 1.76l65.409-126.586c1.318-2.552-.533-5.593-3.405-5.593z"/><path d="m407.928 136.824h-25.431v-49.857c0-2.325-3.122-3.084-4.189-1.018l-37.854 73.258c-.763 1.477.309 3.237 1.971 3.237h25.431v49.857c0 2.325 3.122 3.084 4.189 1.018l37.854-73.258c.762-1.477-.309-3.237-1.971-3.237z"/><path d="m169.576 136.824h-25.431v-49.857c0-2.325-3.122-3.084-4.189-1.018l-37.854 73.258c-.763 1.477.309 3.237 1.971 3.237h25.431v49.857c0 2.325 3.122 3.084 4.189 1.018l37.854-73.258c.762-1.477-.309-3.237-1.971-3.237z"/></g><path d="m441.141 199.255c-12.109 0-21.925 9.816-21.925 21.925v55.094l-33.015 33.015c9.715-9.716 9.715-25.467-.001-35.183-9.716-9.716-25.468-9.716-35.183 0l-68.903 68.902c-8.144 8.144-12.719 19.189-12.719 30.705v69.391c0 5.523 4.477 10 10 10h89.764c6.343 0 11.083-5.829 9.79-12.039l-7.741-37.178c-1.375-6.601.67-13.451 5.438-18.219l80.451-80.452c3.743-3.743 5.85-8.817 5.858-14.111l.109-69.893c.02-12.12-9.802-21.957-21.923-21.957z"/><path d="m160.983 274.106c-9.716-9.716-25.468-9.716-35.183 0-9.715 9.715-9.716 25.467-.001 35.183l-33.015-33.015v-55.094c0-12.109-9.816-21.925-21.925-21.925-12.122 0-21.943 9.837-21.925 21.959l.109 69.893c.008 5.294 2.115 10.368 5.858 14.111l80.451 80.452c4.768 4.768 6.812 11.618 5.438 18.219l-7.741 37.178c-1.293 6.21 3.447 12.039 9.79 12.039h89.764c5.523 0 10-4.477 10-10v-69.391c0-11.517-4.575-22.562-12.719-30.705z"/></g><g><g><path d="m282.115 323.117 68.903-68.903c9.716-9.716 25.468-9.716 35.183 0 9.715 9.715 9.716 25.467.001 35.182l33.015-33.015v-55.094c0-12.109 9.816-21.925 21.925-21.925 12.122 0 21.943 9.837 21.925 21.959l-.109 69.893c-.008 5.294-2.115 10.368-5.858 14.111l-80.451 80.452c-4.768 4.768-6.812 11.618-5.438 18.219l10.248 49.216h-112.063v-79.391c0-11.516 4.575-22.561 12.719-30.704z" fill="#8399fe"/><path d="m229.885 319.008-68.903-68.903c-9.716-9.716-25.468-9.716-35.183 0-9.715 9.715-9.716 25.467-.001 35.182l-33.015-33.015v-55.092c0-12.109-9.816-21.925-21.925-21.925-12.122 0-21.943 9.837-21.925 21.959l.109 69.893c.008 5.294 2.115 10.368 5.858 14.111l80.451 80.452c4.768 4.768 6.812 11.618 5.438 18.219l-10.248 49.216h112.061v-79.391c.002-11.517-4.573-22.562-12.717-30.706z" fill="#9fb0fe"/></g></g></g></g><path d="m307.093 151.138h-43.943v-86.15c0-4.017-5.394-5.329-7.238-1.76l-65.409 126.586c-1.318 2.551.534 5.593 3.405 5.593h43.943v86.15c0 4.017 5.394 5.329 7.238 1.76l65.409-126.586c1.318-2.552-.533-5.593-3.405-5.593z" fill="#ff7eb8"/><g><path d="m407.928 112.824h-25.431v-49.857c0-2.325-3.122-3.084-4.189-1.018l-37.854 73.258c-.763 1.477.309 3.237 1.971 3.237h25.431v49.857c0 2.325 3.122 3.084 4.189 1.018l37.854-73.258c.762-1.477-.309-3.237-1.971-3.237z" fill="#ffc4df"/><g><path d="m169.576 112.824h-25.431v-49.857c0-2.325-3.122-3.084-4.189-1.018l-37.854 73.258c-.763 1.477.309 3.237 1.971 3.237h25.431v49.857c0 2.325 3.122 3.084 4.189 1.018l37.854-73.258c.762-1.477-.309-3.237-1.971-3.237z" fill="#ffc4df"/><g fill="#2626bc"><path d="m460.194 178.156c-5.087-5.095-11.854-7.9-19.054-7.9-14.847 0-26.925 12.078-26.925 26.924v53.022l-15.791 15.791c-.4-7.074-3.297-14.03-8.688-19.422-5.644-5.644-13.146-8.752-21.128-8.752-7.98 0-15.483 3.108-21.126 8.751l-68.903 68.902c-9.146 9.146-14.183 21.306-14.183 34.241v79.392c0 2.761 2.238 5 5 5s5-2.239 5-5v-79.392c0-10.264 3.996-19.913 11.253-27.169l68.904-68.903c3.754-3.754 8.745-5.822 14.055-5.822 5.311 0 10.302 2.068 14.057 5.823 7.75 7.75 7.751 20.361.001 28.111l-47.891 47.89c-5.058 5.058-7.843 11.783-7.843 18.937 0 2.761 2.238 5 5 5s5-2.239 5-5c0-4.482 1.745-8.696 4.914-11.866l80.904-80.904c.938-.938 1.465-2.209 1.465-3.536v-55.094c0-9.332 7.593-16.924 16.925-16.924 4.525 0 8.779 1.764 11.977 4.966 3.198 3.203 4.955 7.458 4.948 11.984l-.109 69.894c-.006 3.998-1.566 7.756-4.393 10.583l-80.453 80.452c-5.98 5.981-8.521 14.495-6.797 22.774l10.248 49.215c.492 2.36 2.571 3.982 4.891 3.982.338 0 .681-.034 1.024-.106 2.703-.563 4.438-3.211 3.876-5.914l-10.249-49.216c-1.034-4.967.49-10.076 4.078-13.664l80.452-80.452c4.712-4.712 7.313-10.976 7.322-17.639l.109-69.894c.012-7.2-2.783-13.97-7.87-19.065z"/><path d="m208.457 290.509c-1.953-1.952-5.118-1.952-7.071 0-1.953 1.953-1.953 5.119 0 7.071l24.964 24.964c7.257 7.257 11.254 16.907 11.254 27.17v79.391c0 2.761 2.239 5 5 5s5-2.239 5-5v-79.391c0-12.935-5.037-25.095-14.183-34.241z"/><path d="m164.518 246.57c-5.643-5.643-13.146-8.751-21.127-8.751s-15.484 3.108-21.127 8.751c-5.392 5.392-8.289 12.349-8.689 19.423l-15.791-15.791v-53.022c0-14.846-12.079-26.924-26.925-26.924-7.2 0-13.967 2.806-19.054 7.901s-7.882 11.866-7.871 19.065l.109 69.894c.01 6.663 2.611 12.927 7.322 17.639l80.451 80.452c3.588 3.588 5.113 8.696 4.079 13.665l-10.248 49.216c-.563 2.703 1.172 5.351 3.876 5.914.344.072.686.106 1.024.106 2.319 0 4.399-1.622 4.89-3.982l10.248-49.216c1.724-8.28-.817-16.793-6.797-22.774l-80.451-80.452c-2.827-2.827-4.387-6.585-4.394-10.583l-.109-69.894c-.007-4.526 1.75-8.782 4.947-11.984 3.198-3.203 7.451-4.966 11.977-4.966 9.333 0 16.925 7.592 16.925 16.924v55.094c0 1.326.527 2.598 1.464 3.536l80.904 80.904c3.169 3.169 4.915 7.383 4.915 11.866 0 2.761 2.239 5 5 5s5-2.239 5-5c0-7.154-2.786-13.879-7.844-18.937l-47.889-47.89-.024-.024c-7.726-7.752-7.717-20.344.025-28.086 3.754-3.755 8.746-5.823 14.056-5.823s10.301 2.068 14.056 5.823l20.611 20.611c1.953 1.952 5.118 1.952 7.071 0 1.953-1.953 1.953-5.119 0-7.071z"/><path d="m314.638 150.377c-1.616-2.654-4.437-4.239-7.545-4.239h-10.953c-2.762 0-5 2.239-5 5s2.238 5 5 5h9.037l-62.326 120.62v-81.351c0-2.761-2.239-5-5-5h-42.027l62.326-120.62v81.351c0 2.761 2.238 5 5 5s5-2.239 5-5v-86.15c0-4.152-2.711-7.602-6.746-8.583s-8.027.839-9.935 4.528l-65.409 126.585c-1.427 2.761-1.313 5.994.303 8.649 1.616 2.654 4.437 4.239 7.544 4.239h38.943v81.15c0 4.152 2.711 7.602 6.746 8.583.729.177 1.456.263 2.17.263 3.239 0 6.202-1.768 7.765-4.791l65.409-126.586c1.427-2.76 1.314-5.993-.302-8.648z"/><path d="m342.425 143.443h20.431v44.857c0 3.341 2.268 6.225 5.514 7.014.573.14 1.148.207 1.718.207 2.65 0 5.137-1.463 6.4-3.907l37.854-73.259c1.166-2.256 1.073-4.898-.248-7.067s-3.626-3.464-6.165-3.464h-20.432v-44.858c0-3.34-2.267-6.225-5.513-7.014-3.245-.79-6.583.732-8.118 3.7l-37.854 73.259c-1.165 2.256-1.072 4.898.248 7.067 1.32 2.17 3.625 3.465 6.165 3.465zm35.071-69.032v38.413c0 2.761 2.238 5 5 5h20.863l-30.504 59.035v-38.415c0-2.761-2.238-5-5-5h-20.863z"/><path d="m104.072 143.443h20.431v44.857c0 3.341 2.268 6.226 5.514 7.014.573.14 1.149.207 1.717.207 2.651 0 5.138-1.463 6.4-3.907l37.854-73.259c1.166-2.256 1.073-4.898-.248-7.067s-3.625-3.464-6.165-3.464h-20.431v-44.858c0-3.341-2.267-6.225-5.514-7.014-3.246-.788-6.584.733-8.117 3.701l-37.854 73.259c-1.166 2.256-1.073 4.898.249 7.067 1.321 2.169 3.625 3.464 6.164 3.464zm35.073-69.033v38.414c0 2.761 2.239 5 5 5h20.863l-30.504 59.034v-38.414c0-2.761-2.239-5-5-5h-20.863z"/></g></g></g><path d="m70.023 122.56c-2.761 0-5-2.239-5-5 0-3.309-2.691-6-6-6-2.761 0-5-2.239-5-5s2.239-5 5-5c3.309 0 6-2.691 6-6 0-2.761 2.239-5 5-5s5 2.239 5 5c0 3.309 2.691 6 6 6 2.761 0 5 2.239 5 5s-2.239 5-5 5c-3.309 0-6 2.691-6 6 0 2.761-2.238 5-5 5z" fill="#ff7eb8"/><path d="m428.233 408.797c-2.762 0-5-2.239-5-5 0-3.309-2.692-6-6.001-6-2.762 0-5-2.239-5-5s2.238-5 5-5c3.309 0 6.001-2.691 6.001-6 0-2.761 2.238-5 5-5s5 2.239 5 5c0 3.309 2.691 6 5.999 6 2.762 0 5 2.239 5 5s-2.238 5-5 5c-3.308 0-5.999 2.691-5.999 6 0 2.761-2.238 5-5 5z" fill="#01eca5"/><path d="m445.255 137.381c-1.279 0-2.56-.488-3.536-1.464-1.952-1.953-1.952-5.119.001-7.071l3.327-3.327-5.002-3.172c-1.282-.813-2.125-2.165-2.292-3.673s.361-3.012 1.435-4.085l7.742-7.742c1.951-1.952 5.119-1.952 7.07 0 1.953 1.953 1.953 5.119 0 7.071l-3.327 3.328 5.002 3.172c1.282.813 2.125 2.165 2.292 3.673s-.361 3.012-1.435 4.085l-7.742 7.742c-.976.975-2.256 1.463-3.535 1.463z" fill="#ff7eb8"/><g fill="#6583fe"><path d="m318.778 74.652c-1.279 0-2.56-.488-3.535-1.464-1.953-1.953-1.953-5.119 0-7.071l3.327-3.328-5.002-3.172c-1.282-.813-2.125-2.165-2.292-3.673s.361-3.012 1.435-4.085l7.742-7.742c1.951-1.952 5.119-1.952 7.07 0 1.953 1.953 1.953 5.119 0 7.071l-3.327 3.327 5.002 3.172c1.282.813 2.125 2.165 2.292 3.673s-.36 3.012-1.435 4.085l-7.742 7.742c-.975.977-2.255 1.465-3.535 1.465z"/><path d="m78.418 397.797c-1.28 0-2.559-.488-3.536-1.464-1.953-1.953-1.953-5.119 0-7.071l3.328-3.328-5.002-3.173c-1.282-.813-2.125-2.164-2.292-3.673s.361-3.012 1.434-4.085l7.742-7.742c1.954-1.952 5.119-1.951 7.071 0 1.953 1.953 1.953 5.119 0 7.071l-3.328 3.328 5.002 3.173c1.282.813 2.125 2.164 2.292 3.673s-.361 3.012-1.434 4.085l-7.742 7.742c-.975.976-2.255 1.464-3.535 1.464z"/></g></g></g></svg>